<?xml version="1.0" encoding="UTF-8" standalone="no"?>
<!DOCTYPE svg PUBLIC "-//W3C//DTD SVG 1.1//EN" "http://www.w3.org/Graphics/SVG/1.1/DTD/svg11.dtd">
<svg width="100%" height="100%" viewBox="0 0 4000 2500" version="1.1" xmlns="http://www.w3.org/2000/svg" xmlns:xlink="http://www.w3.org/1999/xlink" xml:space="preserve" xmlns:serif="http://www.serif.com/" style="fill-rule:evenodd;clip-rule:evenodd;stroke-linejoin:round;stroke-miterlimit:2;">
    <g transform="matrix(1.04955,0,0,1.04955,-247.566,-189.196)">
        <path d="M1212.39,1800C1203.38,1790.99 1196.62,1778.09 1192.12,1761.3C1187.61,1744.51 1185.36,1729.97 1185.36,1717.69C1223.85,1717.69 1255.8,1712.78 1281.18,1702.95C1306.58,1693.12 1319.27,1675.51 1319.27,1650.12L1319.27,1564.12L954.399,1564.12L932.285,1487.96L1259.07,942.492L1508.46,942.492L1508.46,1463.38L1528.12,1463.38C1560.88,1463.38 1585.86,1456.83 1603.06,1443.73C1620.26,1430.62 1634.18,1409.74 1644.83,1381.07L1673.08,1381.07C1687.01,1385.17 1698.68,1394.18 1708.1,1408.1C1717.52,1422.03 1722.22,1438 1722.22,1456.01C1722.22,1478.95 1717.31,1498.4 1707.48,1514.37C1697.65,1530.34 1677.38,1542.62 1646.67,1551.23C1615.96,1559.82 1569.89,1564.12 1508.46,1564.12L1508.46,1651.35C1508.46,1676.74 1519.11,1694.14 1540.4,1703.56C1561.7,1712.98 1593.64,1717.69 1636.23,1717.69C1636.23,1729.97 1633.57,1744.51 1628.24,1761.3C1622.92,1778.09 1615.75,1790.99 1606.74,1800L1212.39,1800ZM1104.28,1463.38L1319.27,1463.38L1319.27,1053.06L1104.28,1463.38Z" style="fill:rgb(0,165,94);fill-rule:nonzero;"/>
    </g>
    <g transform="matrix(1.04955,0,0,1.04955,1461.52,-189.196)">
        <path d="M1212.39,1800C1203.38,1790.99 1196.62,1778.09 1192.12,1761.3C1187.61,1744.51 1185.36,1729.97 1185.36,1717.69C1223.85,1717.69 1255.8,1712.78 1281.18,1702.95C1306.58,1693.12 1319.27,1675.51 1319.27,1650.12L1319.27,1564.12L954.399,1564.12L932.285,1487.96L1259.07,942.492L1508.46,942.492L1508.46,1463.38L1528.12,1463.38C1560.88,1463.38 1585.86,1456.83 1603.06,1443.73C1620.26,1430.62 1634.18,1409.74 1644.83,1381.07L1673.08,1381.07C1687.01,1385.17 1698.68,1394.18 1708.1,1408.1C1717.52,1422.03 1722.22,1438 1722.22,1456.01C1722.22,1478.95 1717.31,1498.4 1707.48,1514.37C1697.65,1530.34 1677.38,1542.62 1646.67,1551.23C1615.96,1559.82 1569.89,1564.12 1508.46,1564.12L1508.46,1651.35C1508.46,1676.74 1519.11,1694.14 1540.4,1703.56C1561.7,1712.98 1593.64,1717.69 1636.23,1717.69C1636.23,1729.97 1633.57,1744.51 1628.24,1761.3C1622.92,1778.09 1615.75,1790.99 1606.74,1800L1212.39,1800ZM1104.28,1463.38L1319.27,1463.38L1319.27,1053.06L1104.28,1463.38Z" style="fill:rgb(137,24,92);fill-rule:nonzero;"/>
    </g>
    <g transform="matrix(1.02032,0,0,1.02032,645.778,-149.107)">
        <path d="M1325.41,1812.29C1254.16,1812.29 1192.32,1797.95 1139.9,1769.29C1087.49,1740.62 1046.95,1694.55 1018.28,1631.08C989.616,1567.61 975.283,1483.86 975.283,1379.85C975.283,1269.28 990.026,1181.03 1019.51,1115.1C1049,1049.17 1090.15,1001.87 1142.98,973.206C1195.8,944.54 1257.43,930.207 1327.87,930.207C1399.12,930.207 1461.16,944.745 1513.99,973.82C1566.82,1002.89 1607.56,1050.4 1636.23,1116.33C1664.89,1182.26 1679.23,1270.51 1679.23,1381.07C1679.23,1485.91 1664.48,1570.06 1635,1633.54C1605.52,1697.01 1564.36,1742.67 1511.53,1770.52C1458.71,1798.36 1396.67,1812.29 1325.41,1812.29ZM1325.41,1726.29C1343.43,1726.29 1360.63,1721.78 1377.01,1712.78C1393.39,1703.77 1407.72,1687.18 1420.01,1663.02C1432.29,1638.86 1441.92,1603.85 1448.88,1557.98C1455.84,1512.12 1459.32,1452.33 1459.32,1378.62C1459.32,1299.99 1455.84,1236.52 1448.88,1188.2C1441.92,1139.88 1432.29,1103.43 1420.01,1078.86C1407.72,1054.29 1393.8,1037.7 1378.24,1029.1C1362.68,1020.5 1345.89,1016.2 1327.87,1016.2C1309.85,1016.2 1292.86,1020.5 1276.88,1029.1C1260.91,1037.7 1246.79,1054.49 1234.5,1079.47C1222.22,1104.45 1212.39,1141.1 1205.02,1189.42C1197.65,1237.75 1193.96,1302.04 1193.96,1382.3C1193.96,1455.19 1197.44,1514.16 1204.4,1559.21C1211.36,1604.26 1220.99,1638.86 1233.27,1663.02C1245.56,1687.18 1259.69,1703.77 1275.66,1712.78C1291.63,1721.78 1308.21,1726.29 1325.41,1726.29Z" style="fill:rgb(252,180,20);fill-rule:nonzero;"/>
    </g>
</svg>
