<?xml version="1.0" encoding="UTF-8" standalone="no"?>
<!DOCTYPE svg PUBLIC "-//W3C//DTD SVG 1.1//EN" "http://www.w3.org/Graphics/SVG/1.1/DTD/svg11.dtd">
<svg width="100%" height="100%" viewBox="0 0 5000 2500" version="1.1" xmlns="http://www.w3.org/2000/svg" xmlns:xlink="http://www.w3.org/1999/xlink" xml:space="preserve" xmlns:serif="http://www.serif.com/" style="fill-rule:evenodd;clip-rule:evenodd;stroke-linejoin:round;stroke-miterlimit:2;">
    <g transform="matrix(1.29283,0,0,1.29964,-839.093,-2126.99)">
        <path d="M726.385,2700L726.385,2649.74L786.694,2649.74L786.694,1870.75L726.385,1870.75L726.385,1820.49L1001.55,1820.49C1043.85,1820.49 1083.42,1836.93 1120.28,1869.81C1157.13,1902.68 1186.98,1951.16 1209.8,2015.24C1232.63,2079.32 1244.04,2158.68 1244.04,2253.34C1244.04,2348.83 1232.52,2429.76 1209.49,2496.14C1186.45,2562.52 1156.51,2613.1 1119.65,2647.86C1082.8,2682.62 1043.43,2700 1001.55,2700L726.385,2700ZM976.417,2649.74L993.379,2649.74C1004.69,2649.74 1015.47,2634.46 1025.73,2603.88C1035.99,2573.31 1044.47,2528.5 1051.17,2469.44C1057.88,2410.39 1061.23,2338.35 1061.23,2253.34C1061.23,2174.18 1057.88,2106.02 1051.17,2048.85C1044.47,1991.68 1035.99,1947.71 1025.73,1916.92C1015.47,1886.14 1004.69,1870.75 993.379,1870.75L976.417,1870.75L976.417,2649.74Z" style="fill:rgb(0,151,85);fill-rule:nonzero;"/>
        <path d="M1293.67,2700L1293.67,2649.74L1357.75,2649.74L1357.75,2092.51L1293.67,2092.51L1293.67,2042.25L1546.21,2042.25L1546.21,2649.74L1610.29,2649.74L1610.29,2700L1293.67,2700ZM1452.61,1982.57C1420.78,1982.57 1393.66,1971.3 1371.25,1948.75C1348.85,1926.2 1337.64,1898.73 1337.64,1866.35C1337.64,1834.94 1348.85,1808.03 1371.25,1785.62C1393.66,1763.22 1420.78,1752.02 1452.61,1752.02C1484.02,1752.02 1510.93,1763.22 1533.34,1785.62C1555.74,1808.03 1566.94,1834.94 1566.94,1866.35C1566.94,1898.73 1555.74,1926.2 1533.34,1948.75C1510.93,1971.3 1484.02,1982.57 1452.61,1982.57Z" style="fill:rgb(0,151,85);fill-rule:nonzero;"/>
        <path d="M1835.82,2713.82C1809.86,2713.82 1790.07,2710.58 1776.46,2704.08C1762.85,2697.59 1752.38,2691.1 1745.05,2684.61C1737.72,2678.12 1730.49,2674.87 1723.37,2674.87C1716.67,2674.87 1712.17,2676.97 1709.87,2681.15C1707.56,2685.34 1706.41,2691.62 1706.41,2700L1658.66,2700L1658.66,2482.01L1715.2,2482.01C1717.72,2502.53 1722.43,2523.47 1729.34,2544.83C1736.25,2566.19 1744.84,2585.77 1755.1,2603.57C1765.36,2621.37 1777.19,2635.82 1790.59,2646.91C1803.99,2658.01 1818.44,2663.56 1833.94,2663.56C1846.08,2663.56 1856.03,2661.78 1863.78,2658.22C1871.53,2654.66 1877.29,2649.22 1881.06,2641.89C1884.83,2634.56 1886.71,2625.24 1886.71,2613.93C1886.71,2598.44 1882.52,2582.73 1874.14,2566.82C1865.77,2550.9 1854.15,2534.25 1839.28,2516.87C1824.41,2499.49 1807.13,2481.17 1787.45,2461.9C1751.43,2425.89 1720.86,2388.82 1695.73,2350.71C1670.6,2312.6 1658.04,2265.69 1658.04,2209.99C1658.04,2167.27 1666.41,2132.93 1683.17,2106.96C1699.92,2080.99 1721.49,2062.04 1747.87,2050.11C1774.26,2038.17 1801.9,2032.2 1830.8,2032.2C1850.48,2032.2 1866.19,2035.03 1877.91,2040.68C1889.64,2046.34 1899.17,2051.99 1906.5,2057.64C1913.83,2063.3 1920.21,2066.12 1925.66,2066.12C1929.43,2066.12 1932.67,2064.45 1935.4,2061.1C1938.12,2057.75 1939.48,2051.47 1939.48,2042.25L1988.48,2042.25L1988.48,2254.59L1931.94,2254.59C1930.68,2238.68 1927.65,2220.88 1922.83,2201.19C1918.02,2181.51 1911.52,2162.77 1903.36,2144.97C1895.19,2127.17 1885.35,2112.51 1873.83,2100.99C1862.31,2089.47 1849.02,2083.72 1833.94,2083.72C1813.84,2083.72 1799.28,2091.25 1790.28,2106.33C1781.27,2121.41 1776.77,2137.53 1776.77,2154.7C1776.77,2176.06 1785.67,2197 1803.47,2217.53C1821.27,2238.05 1845.46,2261.92 1876.03,2289.14C1896.97,2307.99 1917.39,2329.04 1937.28,2352.28C1957.17,2375.52 1973.61,2402.33 1986.6,2432.69C1999.58,2463.06 2006.07,2498.13 2006.07,2537.92C2006.07,2582.31 1998.74,2617.39 1984.08,2643.15C1969.42,2668.9 1949.22,2687.12 1923.46,2697.8C1897.7,2708.48 1868.49,2713.82 1835.82,2713.82Z" style="fill:rgb(0,151,85);fill-rule:nonzero;"/>
        <path d="M2051.3,2700L2051.3,2649.74L2116.64,2649.74L2116.64,1807.93L2051.3,1807.93L2051.3,1757.67L2305.1,1757.67L2305.1,2252.71L2438.91,2092.51L2371.7,2092.51L2371.7,2042.25L2580.26,2042.25L2580.26,2092.51L2502.99,2092.51L2444.57,2165.38L2594.09,2649.74L2649.37,2649.74L2649.37,2700L2341.54,2700L2341.54,2649.74L2391.8,2649.74L2297.57,2333.12L2305.1,2329.98L2305.1,2649.74L2341.54,2649.74L2341.54,2700L2051.3,2700Z" style="fill:rgb(0,151,85);fill-rule:nonzero;"/>
        <path d="M2903.17,2712.56C2868.83,2712.56 2836.58,2706.07 2806.43,2693.09C2776.27,2680.11 2749.78,2659.9 2726.95,2632.47C2704.13,2605.03 2686.22,2569.54 2673.24,2525.98C2660.26,2482.43 2653.77,2430.07 2653.77,2368.93C2653.77,2306.94 2661.62,2254.49 2677.33,2211.56C2693.03,2168.63 2713.45,2133.97 2738.58,2107.59C2763.71,2081.2 2790.41,2062.04 2818.68,2050.11C2846.95,2038.17 2873.64,2032.2 2898.77,2032.2C2928.93,2032.2 2957.51,2038.9 2984.53,2052.3C3011.54,2065.71 3035.41,2085.08 3056.14,2110.41C3076.87,2135.75 3093.21,2166.64 3105.14,2203.08C3117.08,2239.51 3123.05,2280.98 3123.05,2327.47C3123.05,2335.84 3122.94,2344.22 3122.73,2352.59C3122.52,2360.97 3122,2369.56 3121.16,2378.35L2833.44,2378.35L2833.44,2328.09L2945.26,2328.09C2945.26,2260.24 2943.27,2208.84 2939.29,2173.87C2935.32,2138.89 2929.87,2115.13 2922.96,2102.56C2916.05,2090 2907.99,2083.72 2898.77,2083.72C2889.14,2083.72 2880.03,2090.31 2871.45,2103.5C2862.86,2116.7 2855.85,2142.35 2850.4,2180.46C2844.95,2218.57 2842.23,2275.32 2842.23,2350.71C2842.23,2407.67 2843.91,2455.62 2847.26,2494.57C2850.61,2533.52 2855.85,2564.72 2862.96,2588.18C2870.08,2611.63 2878.98,2628.49 2889.66,2638.75C2900.34,2649.01 2913.22,2654.14 2928.3,2654.14C2960.55,2654.14 2986.51,2646.29 3006.2,2630.58C3025.88,2614.88 3040.12,2598.86 3048.92,2582.52L3090.38,2615.82C3079.49,2638.85 3056.98,2660.74 3022.85,2681.47C2988.71,2702.2 2948.82,2712.56 2903.17,2712.56Z" style="fill:rgb(0,151,85);fill-rule:nonzero;"/>
        <path d="M3432.13,2711.31C3401.14,2711.31 3371.72,2706.39 3343.87,2696.55C3316.02,2686.7 3293.51,2668.59 3276.33,2642.2C3259.16,2615.82 3250.58,2577.92 3250.58,2528.5L3250.58,2092.51L3155.72,2092.51L3155.72,2042.25L3250.58,2042.25C3275.29,2042.25 3297.07,2033.14 3315.91,2014.92C3334.76,1996.71 3350.15,1972.94 3362.09,1943.62C3374.02,1914.31 3381.88,1882.68 3385.64,1848.76L3439.04,1848.76L3439.04,2042.25L3547.72,2042.25L3547.72,2092.51L3439.04,2092.51L3439.04,2609.54C3439.04,2626.71 3443.34,2638.43 3451.92,2644.72C3460.51,2651 3468.78,2654.14 3476.74,2654.14C3484.28,2654.14 3491.39,2652.88 3498.1,2650.37C3504.8,2647.86 3509.61,2644.93 3512.55,2641.58L3540.82,2681.78C3527.83,2691 3512.75,2698.22 3495.58,2703.45C3478.41,2708.69 3457.26,2711.31 3432.13,2711.31Z" style="fill:rgb(0,151,85);fill-rule:nonzero;"/>
        <path d="M3829.8,2711.31C3798.8,2711.31 3769.38,2706.39 3741.53,2696.55C3713.68,2686.7 3691.17,2668.59 3674,2642.2C3656.83,2615.82 3648.24,2577.92 3648.24,2528.5L3648.24,2092.51L3553.38,2092.51L3553.38,2042.25L3648.24,2042.25C3672.95,2042.25 3694.73,2033.14 3713.58,2014.92C3732.42,1996.71 3747.81,1972.94 3759.75,1943.62C3771.69,1914.31 3779.54,1882.68 3783.31,1848.76L3836.71,1848.76L3836.71,2042.25L3945.39,2042.25L3945.39,2092.51L3836.71,2092.51L3836.71,2609.54C3836.71,2626.71 3841,2638.43 3849.59,2644.72C3858.17,2651 3866.44,2654.14 3874.4,2654.14C3881.94,2654.14 3889.06,2652.88 3895.76,2650.37C3902.46,2647.86 3907.28,2644.93 3910.21,2641.58L3938.48,2681.78C3925.49,2691 3910.42,2698.22 3893.25,2703.45C3876.08,2708.69 3854.93,2711.31 3829.8,2711.31Z" style="fill:rgb(0,151,85);fill-rule:nonzero;"/>
        <path d="M4219.29,2712.56C4184.95,2712.56 4152.7,2706.07 4122.55,2693.09C4092.39,2680.11 4065.9,2659.9 4043.08,2632.47C4020.25,2605.03 4002.35,2569.54 3989.36,2525.98C3976.38,2482.43 3969.89,2430.07 3969.89,2368.93C3969.89,2306.94 3977.74,2254.49 3993.45,2211.56C4009.15,2168.63 4029.57,2133.97 4054.7,2107.59C4079.83,2081.2 4106.53,2062.04 4134.8,2050.11C4163.07,2038.17 4189.77,2032.2 4214.9,2032.2C4245.05,2032.2 4273.63,2038.9 4300.65,2052.3C4327.66,2065.71 4351.53,2085.08 4372.27,2110.41C4393,2135.75 4409.33,2166.64 4421.27,2203.08C4433.2,2239.51 4439.17,2280.98 4439.17,2327.47C4439.17,2335.84 4439.07,2344.22 4438.86,2352.59C4438.65,2360.97 4438.12,2369.56 4437.29,2378.35L4149.56,2378.35L4149.56,2328.09L4261.38,2328.09C4261.38,2260.24 4259.4,2208.84 4255.42,2173.87C4251.44,2138.89 4245.99,2115.13 4239.08,2102.56C4232.17,2090 4224.11,2083.72 4214.9,2083.72C4205.26,2083.72 4196.15,2090.31 4187.57,2103.5C4178.98,2116.7 4171.97,2142.35 4166.52,2180.46C4161.08,2218.57 4158.36,2275.32 4158.36,2350.71C4158.36,2407.67 4160.03,2455.62 4163.38,2494.57C4166.73,2533.52 4171.97,2564.72 4179.09,2588.18C4186.21,2611.63 4195.11,2628.49 4205.79,2638.75C4216.47,2649.01 4229.35,2654.14 4244.42,2654.14C4276.67,2654.14 4302.64,2646.29 4322.32,2630.58C4342.01,2614.88 4356.24,2598.86 4365.04,2582.52L4406.5,2615.82C4395.61,2638.85 4373.1,2660.74 4338.97,2681.47C4304.84,2702.2 4264.94,2712.56 4219.29,2712.56Z" style="fill:rgb(0,151,85);fill-rule:nonzero;"/>
    </g>
    <g transform="matrix(0.897932,0,0,0.965812,-3102.48,940.028)">
        <g transform="matrix(1,0,0,1,474.871,0)">
            <path d="M3746.15,627.363L3353.57,1459.88L3237.58,1459.88L3631.47,627.363L3746.15,627.363Z" style="fill:rgb(210,76,43);fill-rule:nonzero;"/>
        </g>
        <g transform="matrix(1,0,0,1,689.022,0)">
            <path d="M3746.15,627.363L3353.57,1459.88L3237.58,1459.88L3631.47,627.363L3746.15,627.363Z" style="fill:rgb(210,76,43);fill-rule:nonzero;"/>
        </g>
    </g>
    <g transform="matrix(0.586096,0,0,0.786158,-1819.01,1023.38)">
        <path d="M3651.73,1133.34C3651.73,1160.2 3640.54,1180.95 3618.16,1195.6C3595.78,1210.25 3569.04,1217.57 3537.93,1217.57C3506.82,1217.57 3479.8,1210.25 3456.88,1195.6C3434.5,1180.95 3423.31,1160.2 3423.31,1133.34C3423.31,1107.3 3434.5,1086.55 3456.88,1071.09C3479.26,1056.03 3506.27,1048.51 3537.93,1048.51C3569.59,1048.51 3596.33,1056.03 3618.16,1071.09C3640.54,1086.55 3651.73,1107.3 3651.73,1133.34ZM3502.63,1386.03C3502.63,1412.48 3491.45,1433.43 3469.07,1448.9C3446.69,1463.54 3419.95,1470.87 3388.84,1470.87C3357.72,1470.87 3330.71,1463.54 3307.78,1448.9C3285.41,1433.43 3274.22,1412.48 3274.22,1386.03C3274.22,1359.17 3285.41,1338.42 3307.78,1323.77C3330.16,1308.72 3357.18,1301.19 3388.84,1301.19C3420.49,1301.19 3447.24,1308.72 3469.07,1323.77C3491.45,1338.42 3502.63,1359.17 3502.63,1386.03Z" style="fill:rgb(235,167,14);fill-rule:nonzero;"/>
    </g>
    <g id="Collection" transform="matrix(1.62756,0,0,1.62756,-1008.59,-1079.81)">
        <path d="M1303,2106.67C1264.11,2106.67 1232.67,2085.78 1208.67,2044C1184.67,2002.22 1172.67,1943.33 1172.67,1867.33C1172.67,1836.67 1175.39,1806.94 1180.83,1778.17C1186.28,1749.39 1194.56,1723.56 1205.67,1700.67C1216.78,1677.78 1230.72,1659.61 1247.5,1646.17C1264.28,1632.72 1284,1626 1306.67,1626C1322.44,1626 1336.56,1631 1349,1641C1361.44,1651 1371.22,1663.33 1378.33,1678C1385.44,1692.67 1389,1706.89 1389,1720.67C1389,1734.89 1386.06,1747 1380.17,1757C1374.28,1767 1364.78,1772 1351.67,1772C1337,1772 1326.78,1768.06 1321,1760.17C1315.22,1752.28 1312.33,1741.89 1312.33,1729C1312.33,1719.89 1314.44,1712.44 1318.67,1706.67C1322.89,1700.89 1327.11,1695.44 1331.33,1690.33C1335.56,1685.22 1337.67,1679.11 1337.67,1672C1337.67,1664.89 1336.56,1660.11 1334.33,1657.67C1332.11,1655.22 1328.78,1654 1324.33,1654C1317,1654 1310.72,1658.78 1305.5,1668.33C1300.28,1677.89 1295.94,1690.56 1292.5,1706.33C1289.06,1722.11 1286.39,1739.44 1284.5,1758.33C1282.61,1777.22 1281.28,1796.11 1280.5,1815C1279.72,1833.89 1279.33,1851.11 1279.33,1866.67C1279.33,1890.22 1279.83,1912.67 1280.83,1934C1281.83,1955.33 1283.33,1974.89 1285.33,1992.67C1287.33,2010.44 1289.94,2025.83 1293.17,2038.83C1296.39,2051.83 1300.22,2061.94 1304.67,2069.17C1309.11,2076.39 1314.22,2080 1320,2080C1328.22,2080 1334.78,2077.89 1339.67,2073.67C1344.56,2069.44 1348.56,2063.39 1351.67,2055.5C1354.78,2047.61 1357.56,2038.22 1360,2027.33L1382,2041.33C1377.33,2054.67 1371.67,2066.22 1365,2076C1358.33,2085.78 1350.06,2093.33 1340.17,2098.67C1330.28,2104 1317.89,2106.67 1303,2106.67Z" style="fill:rgb(137,24,92);fill-rule:nonzero;"/>
        <path d="M1553.67,2107.33C1539.67,2107.33 1525.33,2103.72 1510.67,2096.5C1496,2089.28 1482.44,2078.17 1470,2063.17C1457.56,2048.17 1447.56,2029.17 1440,2006.17C1432.44,1983.17 1428.67,1955.89 1428.67,1924.33C1428.67,1890.11 1432.61,1861.5 1440.5,1838.5C1448.39,1815.5 1458.61,1797.22 1471.17,1783.67C1483.72,1770.11 1497.28,1760.39 1511.83,1754.5C1526.39,1748.61 1540.33,1745.67 1553.67,1745.67C1567,1745.67 1581,1748.61 1595.67,1754.5C1610.33,1760.39 1624,1770.11 1636.67,1783.67C1649.33,1797.22 1659.67,1815.5 1667.67,1838.5C1675.67,1861.5 1679.67,1890.11 1679.67,1924.33C1679.67,1955.89 1675.83,1983.17 1668.17,2006.17C1660.5,2029.17 1650.44,2048.17 1638,2063.17C1625.56,2078.17 1611.94,2089.28 1597.17,2096.5C1582.39,2103.72 1567.89,2107.33 1553.67,2107.33ZM1553.67,2075.67C1562.11,2075.67 1568.44,2064.06 1572.67,2040.83C1576.89,2017.61 1579,1978.78 1579,1924.33C1579,1869.67 1576.89,1831.39 1572.67,1809.5C1568.44,1787.61 1562.11,1776.67 1553.67,1776.67C1545.89,1776.67 1539.89,1787.61 1535.67,1809.5C1531.44,1831.39 1529.33,1869.67 1529.33,1924.33C1529.33,1978.78 1531.44,2017.61 1535.67,2040.83C1539.89,2064.06 1545.89,2075.67 1553.67,2075.67Z" style="fill:rgb(137,24,92);fill-rule:nonzero;"/>
        <path d="M1704,2100L1704,2073.33L1741,2073.33L1741,1626.67L1704,1626.67L1704,1600L1841,1600L1841,2073.33L1878,2073.33L1878,2100L1704,2100Z" style="fill:rgb(137,24,92);fill-rule:nonzero;"/>
        <path d="M1895.67,2100L1895.67,2073.33L1932.67,2073.33L1932.67,1626.67L1895.67,1626.67L1895.67,1600L2032.67,1600L2032.67,2073.33L2069.67,2073.33L2069.67,2100L1895.67,2100Z" style="fill:rgb(137,24,92);fill-rule:nonzero;"/>
        <path d="M2229.33,2106.67C2211.11,2106.67 2194,2103.22 2178,2096.33C2162,2089.44 2147.94,2078.72 2135.83,2064.17C2123.72,2049.61 2114.22,2030.78 2107.33,2007.67C2100.44,1984.56 2097,1956.78 2097,1924.33C2097,1891.44 2101.17,1863.61 2109.5,1840.83C2117.83,1818.06 2128.67,1799.67 2142,1785.67C2155.33,1771.67 2169.5,1761.5 2184.5,1755.17C2199.5,1748.83 2213.67,1745.67 2227,1745.67C2243,1745.67 2258.17,1749.22 2272.5,1756.33C2286.83,1763.44 2299.5,1773.72 2310.5,1787.17C2321.5,1800.61 2330.17,1817 2336.5,1836.33C2342.83,1855.67 2346,1877.67 2346,1902.33C2346,1906.78 2345.94,1911.22 2345.83,1915.67C2345.72,1920.11 2345.44,1924.67 2345,1929.33L2192.33,1929.33L2192.33,1902.67L2251.67,1902.67C2251.67,1866.67 2250.61,1839.39 2248.5,1820.83C2246.39,1802.28 2243.5,1789.67 2239.83,1783C2236.17,1776.33 2231.89,1773 2227,1773C2221.89,1773 2217.06,1776.5 2212.5,1783.5C2207.94,1790.5 2204.22,1804.11 2201.33,1824.33C2198.44,1844.56 2197,1874.67 2197,1914.67C2197,1944.89 2197.89,1970.33 2199.67,1991C2201.44,2011.67 2204.22,2028.22 2208,2040.67C2211.78,2053.11 2216.5,2062.06 2222.17,2067.5C2227.83,2072.94 2234.67,2075.67 2242.67,2075.67C2259.78,2075.67 2273.56,2071.5 2284,2063.17C2294.44,2054.83 2302,2046.33 2306.67,2037.67L2328.67,2055.33C2322.89,2067.56 2310.94,2079.17 2292.83,2090.17C2274.72,2101.17 2253.56,2106.67 2229.33,2106.67Z" style="fill:rgb(137,24,92);fill-rule:nonzero;"/>
        <path d="M2516.33,2107.33C2500.56,2107.33 2485.11,2103.67 2470,2096.33C2454.89,2089 2441.22,2077.83 2429,2062.83C2416.78,2047.83 2407.06,2028.83 2399.83,2005.83C2392.61,1982.83 2389,1955.67 2389,1924.33C2389,1890.56 2393.56,1862.22 2402.67,1839.33C2411.78,1816.44 2423.22,1798.17 2437,1784.5C2450.78,1770.83 2465.17,1760.94 2480.17,1754.83C2495.17,1748.72 2508.44,1745.67 2520,1745.67C2538.44,1745.67 2554.44,1750.28 2568,1759.5C2581.56,1768.72 2592,1780.83 2599.33,1795.83C2606.67,1810.83 2610.33,1827 2610.33,1844.33C2610.33,1860.33 2606.72,1872.61 2599.5,1881.17C2592.28,1889.72 2583.22,1894 2572.33,1894C2561,1894 2551.67,1890.39 2544.33,1883.17C2537,1875.94 2533.33,1866 2533.33,1853.33C2533.33,1845.33 2535,1838.83 2538.33,1833.83C2541.67,1828.83 2545,1823.89 2548.33,1819C2551.67,1814.11 2553.33,1808 2553.33,1800.67C2553.33,1790.89 2550.5,1783.83 2544.83,1779.5C2539.17,1775.17 2533.11,1773 2526.67,1773C2518.67,1773 2512.39,1778 2507.83,1788C2503.28,1798 2499.89,1810.72 2497.67,1826.17C2495.44,1841.61 2494.06,1857.89 2493.5,1875C2492.94,1892.11 2492.67,1907.67 2492.67,1921.67C2492.67,1939.67 2493.17,1957.78 2494.17,1976C2495.17,1994.22 2497.11,2010.94 2500,2026.17C2502.89,2041.39 2507.22,2053.67 2513,2063C2518.78,2072.33 2526.33,2077 2535.67,2077C2549,2077 2559.22,2072.89 2566.33,2064.67C2573.44,2056.44 2578.56,2047.78 2581.67,2038.67L2602.33,2056.67C2597,2070 2587.06,2081.78 2572.5,2092C2557.94,2102.22 2539.22,2107.33 2516.33,2107.33Z" style="fill:rgb(137,24,92);fill-rule:nonzero;"/>
        <path d="M2768,2106C2751.56,2106 2735.94,2103.39 2721.17,2098.17C2706.39,2092.94 2694.44,2083.33 2685.33,2069.33C2676.22,2055.33 2671.67,2035.22 2671.67,2009L2671.67,1777.67L2621.33,1777.67L2621.33,1751L2671.67,1751C2684.78,1751 2696.33,1746.17 2706.33,1736.5C2716.33,1726.83 2724.5,1714.22 2730.83,1698.67C2737.17,1683.11 2741.33,1666.33 2743.33,1648.33L2771.67,1648.33L2771.67,1751L2829.33,1751L2829.33,1777.67L2771.67,1777.67L2771.67,2052C2771.67,2061.11 2773.94,2067.33 2778.5,2070.67C2783.06,2074 2787.44,2075.67 2791.67,2075.67C2795.67,2075.67 2799.44,2075 2803,2073.67C2806.56,2072.33 2809.11,2070.78 2810.67,2069L2825.67,2090.33C2818.78,2095.22 2810.78,2099.06 2801.67,2101.83C2792.56,2104.61 2781.33,2106 2768,2106Z" style="fill:rgb(137,24,92);fill-rule:nonzero;"/>
        <path d="M2842,2100L2842,2073.33L2876,2073.33L2876,1777.67L2842,1777.67L2842,1751L2976,1751L2976,2073.33L3010,2073.33L3010,2100L2842,2100ZM2926.33,1719.33C2909.44,1719.33 2895.06,1713.35 2883.17,1701.38C2871.28,1689.42 2865.33,1674.85 2865.33,1657.67C2865.33,1641 2871.28,1626.72 2883.17,1614.83C2895.06,1602.94 2909.44,1597 2926.33,1597C2943,1597 2957.28,1602.94 2969.17,1614.83C2981.06,1626.72 2987,1641 2987,1657.67C2987,1674.85 2981.06,1689.42 2969.17,1701.38C2957.28,1713.35 2943,1719.33 2926.33,1719.33Z" style="fill:rgb(137,24,92);fill-rule:nonzero;"/>
        <path d="M3162.33,2107.33C3148.33,2107.33 3134,2103.72 3119.33,2096.5C3104.67,2089.28 3091.11,2078.17 3078.67,2063.17C3066.22,2048.17 3056.22,2029.17 3048.67,2006.17C3041.11,1983.17 3037.33,1955.89 3037.33,1924.33C3037.33,1890.11 3041.28,1861.5 3049.17,1838.5C3057.06,1815.5 3067.28,1797.22 3079.83,1783.67C3092.39,1770.11 3105.94,1760.39 3120.5,1754.5C3135.06,1748.61 3149,1745.67 3162.33,1745.67C3175.67,1745.67 3189.67,1748.61 3204.33,1754.5C3219,1760.39 3232.67,1770.11 3245.33,1783.67C3258,1797.22 3268.33,1815.5 3276.33,1838.5C3284.33,1861.5 3288.33,1890.11 3288.33,1924.33C3288.33,1955.89 3284.5,1983.17 3276.83,2006.17C3269.17,2029.17 3259.11,2048.17 3246.67,2063.17C3234.22,2078.17 3220.61,2089.28 3205.83,2096.5C3191.06,2103.72 3176.56,2107.33 3162.33,2107.33ZM3162.33,2075.67C3170.78,2075.67 3177.11,2064.06 3181.33,2040.83C3185.56,2017.61 3187.67,1978.78 3187.67,1924.33C3187.67,1869.67 3185.56,1831.39 3181.33,1809.5C3177.11,1787.61 3170.78,1776.67 3162.33,1776.67C3154.56,1776.67 3148.56,1787.61 3144.33,1809.5C3140.11,1831.39 3138,1869.67 3138,1924.33C3138,1978.78 3140.11,2017.61 3144.33,2040.83C3148.56,2064.06 3154.56,2075.67 3162.33,2075.67Z" style="fill:rgb(137,24,92);fill-rule:nonzero;"/>
        <path d="M3317.33,2100L3317.33,2073.33L3353.67,2073.33L3353.67,1777.67L3317.33,1777.67L3317.33,1751L3450.67,1751L3450.67,1783C3451.11,1781.22 3453.67,1777.28 3458.33,1771.17C3463,1765.06 3469.94,1759.28 3479.17,1753.83C3488.39,1748.39 3499.89,1745.67 3513.67,1745.67C3529.44,1745.67 3543.44,1748.94 3555.67,1755.5C3567.89,1762.06 3577.5,1773.61 3584.5,1790.17C3591.5,1806.72 3595,1830.22 3595,1860.67L3595,2073.33L3630.33,2073.33L3630.33,2100L3473.67,2100L3473.67,2073.33L3495,2073.33L3495,1859.67C3495,1838.78 3493.78,1823.17 3491.33,1812.83C3488.89,1802.5 3484.44,1797.33 3478,1797.33C3474.44,1797.33 3471.28,1798.5 3468.5,1800.83C3465.72,1803.17 3463.28,1806.72 3461.17,1811.5C3459.06,1816.28 3457.39,1822.22 3456.17,1829.33C3454.94,1836.44 3454.11,1844.78 3453.67,1854.33L3453.67,2073.33L3473.67,2073.33L3473.67,2100L3317.33,2100Z" style="fill:rgb(137,24,92);fill-rule:nonzero;"/>
    </g>
</svg>
