<?xml version="1.0" encoding="UTF-8" standalone="no"?>
<!DOCTYPE svg PUBLIC "-//W3C//DTD SVG 1.1//EN" "http://www.w3.org/Graphics/SVG/1.1/DTD/svg11.dtd">
<svg width="100%" height="100%" viewBox="0 0 11050 2000" version="1.1" xmlns="http://www.w3.org/2000/svg" xmlns:xlink="http://www.w3.org/1999/xlink" xml:space="preserve" xmlns:serif="http://www.serif.com/" style="fill-rule:evenodd;clip-rule:evenodd;stroke-linejoin:round;stroke-miterlimit:2;">
    <g transform="matrix(0.733386,0,0,0.951048,-2383.54,14.7586)">
        <path d="M3659.11,1608.52L3659.11,1570.19L3754.56,1570.19L3754.56,573.481L3659.11,573.481L3659.11,535.146L4094.59,535.146C4161.54,535.146 4223.85,555.208 4281.51,595.332C4339.18,635.456 4385.74,694.619 4421.2,772.823C4456.66,851.026 4474.4,947.885 4474.4,1063.4C4474.4,1179.94 4456.5,1278.72 4420.71,1359.73C4384.91,1440.74 4338.18,1502.46 4280.52,1544.89C4222.85,1587.31 4160.88,1608.52 4094.59,1608.52L3659.11,1608.52ZM4054.82,1570.19L4081.67,1570.19C4099.56,1570.19 4115.39,1550.38 4129.14,1510.77C4142.9,1471.16 4153.83,1413.59 4161.95,1338.07C4170.07,1262.55 4174.13,1170.95 4174.13,1063.26C4174.13,962.916 4170.07,876.135 4161.95,802.916C4153.83,729.696 4142.9,673.152 4129.14,633.284C4115.39,593.415 4099.5,573.481 4081.48,573.481L4054.82,573.481L4054.82,1570.19Z" style="fill:rgb(0,151,85);fill-rule:nonzero;"/>
        <path d="M4543.99,1608.52L4543.99,1570.19L4638.94,1570.19L4638.94,844.126L4543.99,844.126L4543.99,805.791L4937.22,805.791L4937.22,1570.19L5033.16,1570.19L5033.16,1608.52L4543.99,1608.52ZM4789.09,732.954C4738.73,732.954 4695.74,719.194 4660.09,691.672C4624.45,664.151 4606.63,630.632 4606.63,591.115C4606.63,552.78 4624.41,519.94 4659.98,492.595C4695.56,465.249 4738.61,451.576 4789.15,451.576C4838.81,451.576 4881.37,465.249 4916.84,492.595C4952.3,519.94 4970.03,552.78 4970.03,591.115C4970.03,630.632 4952.3,664.151 4916.84,691.672C4881.37,719.194 4838.79,732.954 4789.09,732.954Z" style="fill:rgb(0,151,85);fill-rule:nonzero;"/>
        <path d="M5366.73,1625.39C5330.94,1625.39 5301.28,1621.43 5277.75,1613.51C5254.22,1605.59 5234.58,1597.66 5218.84,1589.74C5203.1,1581.82 5188.6,1577.86 5175.34,1577.86C5164.73,1577.86 5157.44,1580.6 5153.47,1586.1C5149.49,1591.59 5147.17,1599.07 5146.51,1608.52L5100.77,1608.52L5100.77,1342.48L5155.45,1342.48C5159.43,1367.27 5167.97,1393.85 5181.06,1422.22C5194.15,1450.58 5210.39,1477.23 5229.77,1502.14C5249.16,1527.06 5270.79,1547.44 5294.65,1563.29C5318.51,1579.13 5343.2,1587.06 5368.72,1587.06C5390.59,1587.06 5408.41,1584.5 5422.16,1579.39C5435.91,1574.28 5446.19,1566.87 5452.98,1557.15C5459.78,1547.44 5463.17,1535.69 5463.17,1521.89C5463.17,1501.19 5455.22,1479.46 5439.31,1456.72C5423.4,1433.97 5402.94,1410.78 5377.92,1387.14C5352.9,1363.5 5326.3,1340.43 5298.13,1317.94C5238.14,1268.62 5190.25,1219.74 5154.46,1171.31C5118.67,1122.88 5100.77,1066.72 5100.77,1002.83C5100.77,951.719 5114.61,911.212 5142.28,881.31C5169.95,851.409 5204.84,829.942 5246.93,816.908C5289.01,803.874 5331.6,797.357 5374.69,797.357C5406.83,797.357 5432.77,800.552 5452.48,806.941C5472.2,813.33 5488.36,819.719 5500.95,826.108C5513.55,832.497 5524.48,835.692 5533.77,835.692C5542.05,835.692 5548.02,833.2 5551.66,828.217C5555.31,823.233 5557.3,815.758 5557.63,805.791L5605.35,805.791L5605.35,1064.93L5550.67,1064.93C5547.35,1043.98 5541.3,1020.47 5532.52,994.398C5523.74,968.331 5512.22,943.349 5497.97,919.454C5483.72,895.558 5466.57,875.88 5446.52,860.418C5426.47,844.956 5403.35,837.225 5377.17,837.225C5349.99,837.225 5326.55,844.764 5306.83,859.843C5287.11,874.921 5277.25,894.472 5277.25,918.495C5277.25,948.908 5292.83,979.064 5323.98,1008.97C5355.13,1038.87 5392.91,1070.68 5437.32,1104.42C5472.12,1131 5505.1,1159.43 5536.25,1189.71C5567.4,1220 5592.92,1253.8 5612.81,1291.11C5632.69,1328.42 5642.64,1370.85 5642.64,1418.38C5642.64,1468.47 5630.45,1508.73 5606.1,1539.14C5581.74,1569.55 5548.68,1591.53 5506.92,1605.07C5465.16,1618.62 5418.43,1625.39 5366.73,1625.39Z" style="fill:rgb(0,151,85);fill-rule:nonzero;"/>
        <path d="M5712.73,1608.52L5712.73,1570.19L5807.68,1570.19L5807.68,496.811L5712.73,496.811L5712.73,458.476L6105.95,458.476L6105.95,1102.89L6377.38,844.126L6274.48,844.126L6274.48,805.791L6545.41,805.791L6545.41,844.126L6440.02,844.126L6326.68,956.063L6549.88,1570.19L6634.4,1570.19L6634.4,1608.52L6167.6,1608.52L6167.6,1570.19L6239.68,1570.19L6095.51,1160.77L6105.95,1156.94L6105.95,1570.19L6167.6,1570.19L6167.6,1608.52L5712.73,1608.52Z" style="fill:rgb(0,151,85);fill-rule:nonzero;"/>
        <path d="M7016.19,1623.86C6960.51,1623.86 6909.22,1614.85 6862.33,1596.83C6815.43,1578.81 6774.67,1552.17 6740.03,1516.9C6705.4,1481.63 6678.56,1437.87 6659.5,1385.61C6640.44,1333.34 6630.92,1272.96 6630.92,1204.47C6630.92,1128.83 6643.01,1065 6667.21,1012.99C6691.4,960.983 6722.72,919.134 6761.16,887.444C6799.61,855.754 6840.45,832.817 6883.7,818.633C6926.95,804.449 6967.63,797.357 7005.75,797.357C7052.48,797.357 7096.89,805.28 7138.98,821.125C7181.07,836.97 7218.35,860.098 7250.83,890.511C7283.31,920.923 7308.99,958.236 7327.88,1002.45C7346.77,1046.66 7356.22,1097.14 7356.22,1153.87C7356.22,1164.09 7356.05,1174.32 7355.72,1184.54C7355.39,1194.76 7354.56,1205.24 7353.24,1215.97L6913.28,1215.97L6913.28,1177.64L7069.38,1177.64C7069.38,1092.28 7066.98,1024.75 7062.17,975.039C7057.36,925.332 7050.24,889.808 7040.79,868.468C7031.35,847.128 7019.67,836.459 7005.75,836.459C6991.5,836.459 6978.57,847.448 6966.97,869.427C6955.37,891.405 6946.17,928.59 6939.38,980.981C6932.59,1033.37 6929.19,1105.57 6929.19,1197.57C6929.19,1264.53 6931.18,1322.1 6935.15,1370.27C6939.13,1418.45 6946.01,1457.93 6955.79,1488.73C6965.56,1519.52 6978.99,1542.2 6996.05,1556.77C7013.12,1571.34 7034.91,1578.62 7061.42,1578.62C7120.09,1578.62 7166.98,1568.59 7202.11,1548.53C7237.24,1528.47 7261.6,1507.19 7275.19,1484.7L7315.45,1509.62C7298.55,1537.99 7264.58,1564.12 7213.54,1588.01C7162.51,1611.91 7096.72,1623.86 7016.19,1623.86Z" style="fill:rgb(0,151,85);fill-rule:nonzero;"/>
        <path d="M7801.64,1622.32C7757.56,1622.32 7714.98,1616.32 7673.88,1604.31C7632.78,1592.3 7599.23,1570.19 7573.21,1537.99C7547.2,1505.79 7534.19,1459.53 7534.19,1399.21L7534.19,844.126L7399.47,844.126L7399.47,805.791L7534.19,805.791C7572.63,805.791 7608.34,794.929 7641.32,773.206C7674.29,751.483 7702.71,722.732 7726.57,686.952C7750.44,651.173 7767.67,612.072 7778.28,569.648L7832.46,569.648L7832.46,805.791L7989.06,805.791L7989.06,844.126L7832.46,844.126L7832.46,1519.97C7832.46,1540.41 7839.67,1554.66 7854.09,1562.71C7868.5,1570.76 7881.51,1574.79 7893.11,1574.79C7904.71,1574.79 7915.81,1572.74 7926.42,1568.65C7937.02,1564.57 7944.65,1560.61 7949.29,1556.77L7977.12,1586.29C7957.57,1598.3 7933.79,1607.31 7905.79,1613.32C7877.78,1619.32 7843.07,1622.32 7801.64,1622.32Z" style="fill:rgb(0,151,85);fill-rule:nonzero;"/>
        <path d="M8403.66,1622.32C8359.58,1622.32 8316.99,1616.32 8275.9,1604.31C8234.8,1592.3 8201.25,1570.19 8175.23,1537.99C8149.21,1505.79 8136.2,1459.53 8136.2,1399.21L8136.2,844.126L8001.48,844.126L8001.48,805.791L8136.2,805.791C8174.65,805.791 8210.36,794.929 8243.34,773.206C8276.31,751.483 8304.73,722.732 8328.59,686.952C8352.45,651.173 8369.69,612.072 8380.29,569.648L8434.48,569.648L8434.48,805.791L8591.07,805.791L8591.07,844.126L8434.48,844.126L8434.48,1519.97C8434.48,1540.41 8441.69,1554.66 8456.1,1562.71C8470.52,1570.76 8483.53,1574.79 8495.13,1574.79C8506.73,1574.79 8517.83,1572.74 8528.43,1568.65C8539.04,1564.57 8546.66,1560.61 8551.3,1556.77L8579.14,1586.29C8559.59,1598.3 8535.81,1607.31 8507.8,1613.32C8479.8,1619.32 8445.08,1622.32 8403.66,1622.32Z" style="fill:rgb(0,151,85);fill-rule:nonzero;"/>
        <path d="M9006.67,1623.86C8950.99,1623.86 8899.7,1614.85 8852.81,1596.83C8805.91,1578.81 8765.15,1552.17 8730.51,1516.9C8695.88,1481.63 8669.04,1437.87 8649.98,1385.61C8630.92,1333.34 8621.4,1272.96 8621.4,1204.47C8621.4,1128.83 8633.49,1065 8657.69,1012.99C8681.88,960.983 8713.2,919.134 8751.64,887.444C8790.09,855.754 8830.93,832.817 8874.18,818.633C8917.43,804.449 8958.11,797.357 8996.23,797.357C9042.96,797.357 9087.37,805.28 9129.46,821.125C9171.55,836.97 9208.83,860.098 9241.31,890.511C9273.79,920.923 9299.47,958.236 9318.36,1002.45C9337.25,1046.66 9346.7,1097.14 9346.7,1153.87C9346.7,1164.09 9346.53,1174.32 9346.2,1184.54C9345.87,1194.76 9345.04,1205.24 9343.72,1215.97L8903.76,1215.97L8903.76,1177.64L9059.86,1177.64C9059.86,1092.28 9057.46,1024.75 9052.65,975.039C9047.85,925.332 9040.72,889.808 9031.27,868.468C9021.83,847.128 9010.15,836.459 8996.23,836.459C8981.98,836.459 8969.05,847.448 8957.45,869.427C8945.85,891.405 8936.66,928.59 8929.86,980.981C8923.07,1033.37 8919.67,1105.57 8919.67,1197.57C8919.67,1264.53 8921.66,1322.1 8925.64,1370.27C8929.61,1418.45 8936.49,1457.93 8946.27,1488.73C8956.04,1519.52 8969.47,1542.2 8986.53,1556.77C9003.6,1571.34 9025.39,1578.62 9051.91,1578.62C9110.57,1578.62 9157.46,1568.59 9192.59,1548.53C9227.72,1528.47 9252.08,1507.19 9265.67,1484.7L9305.93,1509.62C9289.03,1537.99 9255.06,1564.12 9204.02,1588.01C9152.99,1611.91 9087.2,1623.86 9006.67,1623.86Z" style="fill:rgb(0,151,85);fill-rule:nonzero;"/>
    </g>
    <g transform="matrix(0.877409,0,0,0.951048,2351.42,12.3523)">
        <path d="M3991.96,1623.86C3895.01,1623.86 3818,1575.81 3760.93,1479.72C3703.87,1383.62 3675.34,1248.17 3675.34,1073.37C3675.34,1003.34 3681.78,935.299 3694.66,869.235C3707.54,803.171 3727.21,743.752 3753.66,690.978C3780.12,638.203 3813.77,596.227 3854.63,565.047C3895.49,533.868 3943.76,518.279 3999.44,518.279C4041.27,518.279 4077.77,529.715 4108.93,552.589C4140.1,575.462 4164.27,603.766 4181.44,637.5C4198.62,671.235 4207.2,704.075 4207.2,736.021C4207.2,768.734 4199.79,796.59 4184.97,819.591C4170.15,842.592 4146.4,854.093 4113.71,854.093C4077.42,854.093 4052.01,844.445 4037.46,825.15C4022.92,805.855 4015.65,780.49 4015.65,749.055C4015.65,725.543 4021.33,705.864 4032.68,690.019C4044.04,674.174 4055.33,659.671 4066.55,646.509C4077.77,633.348 4083.38,618.972 4083.38,603.382C4083.38,588.56 4079.15,577.89 4070.7,571.373C4062.26,564.856 4053.18,561.597 4043.49,561.597C4025.76,561.597 4010.87,573.609 3998.82,597.632C3986.77,621.655 3977,653.154 3969.52,692.128C3962.05,731.102 3956.44,773.462 3952.7,819.208C3948.96,864.954 3946.46,909.998 3945.22,954.338C3943.97,998.679 3943.35,1037.85 3943.35,1071.84C3943.35,1114.51 3944.11,1159.3 3945.63,1206.2C3947.16,1253.1 3949.72,1298.84 3953.32,1343.44C3956.92,1388.03 3961.91,1428.35 3968.28,1464.38C3974.65,1500.42 3982.75,1529.17 3992.59,1550.64C4002.42,1572.11 4014.26,1582.84 4028.11,1582.84C4046.67,1582.84 4064.26,1577.47 4080.89,1566.74C4097.51,1556.01 4112.12,1540.8 4124.72,1521.12C4137.33,1501.44 4146.68,1478.57 4152.77,1452.5L4189.34,1473.59C4177.7,1504.51 4162.81,1531.15 4144.67,1553.51C4126.52,1575.88 4104.92,1593.19 4079.85,1605.46C4054.78,1617.72 4025.48,1623.86 3991.96,1623.86Z" style="fill:rgb(137,24,92);fill-rule:nonzero;"/>
        <path d="M4596.96,1625.39C4563.94,1625.39 4529.5,1617.09 4493.66,1600.47C4457.82,1583.86 4424.31,1558.31 4393.15,1523.8C4361.98,1489.3 4336.71,1445.6 4317.32,1392.7C4297.93,1339.8 4288.23,1277.05 4288.23,1204.47C4288.23,1125.76 4298.3,1060.14 4318.43,1007.62C4338.56,955.105 4364.39,913.512 4395.92,882.844C4427.45,852.176 4461.11,830.261 4496.9,817.099C4532.69,803.938 4566.04,797.357 4596.96,797.357C4628.34,797.357 4661.92,803.938 4697.72,817.099C4733.51,830.261 4767.36,852.176 4799.26,882.844C4831.16,913.512 4857.29,955.105 4877.65,1007.62C4898.01,1060.14 4908.19,1125.76 4908.19,1204.47C4908.19,1277.05 4898.45,1339.8 4878.96,1392.7C4859.47,1445.6 4834.06,1489.3 4802.71,1523.8C4771.37,1558.31 4737.63,1583.86 4701.51,1600.47C4665.39,1617.09 4630.54,1625.39 4596.96,1625.39ZM4596.96,1582.07C4619.12,1582.07 4634.29,1550.57 4642.46,1487.58C4650.64,1424.58 4654.72,1330.19 4654.72,1204.41C4654.72,1079.74 4650.64,987.818 4642.46,928.654C4634.29,869.491 4619.12,839.909 4596.96,839.909C4576.19,839.909 4561.78,869.491 4553.75,928.654C4545.72,987.818 4541.7,1079.74 4541.7,1204.41C4541.7,1330.19 4545.72,1424.58 4553.75,1487.58C4561.78,1550.57 4576.19,1582.07 4596.96,1582.07Z" style="fill:rgb(137,24,92);fill-rule:nonzero;"/>
        <path d="M4957.22,1608.52L4957.22,1570.19L5041.16,1570.19L5041.16,496.811L4957.22,496.811L4957.22,458.476L5290.47,458.476L5290.47,1570.19L5373.57,1570.19L5373.57,1608.52L4957.22,1608.52Z" style="fill:rgb(137,24,92);fill-rule:nonzero;"/>
        <path d="M5412.22,1608.52L5412.22,1570.19L5496.15,1570.19L5496.15,496.811L5412.22,496.811L5412.22,458.476L5745.47,458.476L5745.47,1570.19L5828.57,1570.19L5828.57,1608.52L5412.22,1608.52Z" style="fill:rgb(137,24,92);fill-rule:nonzero;"/>
        <path d="M6207.94,1623.86C6161.41,1623.86 6118.54,1614.85 6079.34,1596.83C6040.14,1578.81 6006.07,1552.17 5977.12,1516.9C5948.17,1481.63 5925.73,1437.87 5909.81,1385.61C5893.88,1333.34 5885.91,1272.96 5885.91,1204.47C5885.91,1128.83 5896.03,1065 5916.25,1012.99C5936.47,960.983 5962.65,919.134 5994.78,887.444C6026.91,855.754 6061.06,832.817 6097.21,818.633C6133.36,804.449 6167.36,797.357 6199.22,797.357C6238.28,797.357 6275.4,805.28 6310.58,821.125C6345.76,836.97 6376.92,860.098 6404.07,890.511C6431.22,920.923 6452.69,958.236 6468.48,1002.45C6484.27,1046.66 6492.16,1097.14 6492.16,1153.87C6492.16,1164.09 6492.02,1174.32 6491.75,1184.54C6491.47,1194.76 6490.78,1205.24 6489.67,1215.97L6121.93,1215.97L6121.93,1177.64L6252.4,1177.64C6252.4,1092.28 6250.4,1024.75 6246.38,975.039C6242.36,925.332 6236.41,889.808 6228.51,868.468C6220.62,847.128 6210.85,836.459 6199.22,836.459C6187.31,836.459 6176.5,847.448 6166.81,869.427C6157.11,891.405 6149.43,928.59 6143.75,980.981C6138.07,1033.37 6135.23,1105.57 6135.23,1197.57C6135.23,1264.53 6136.89,1322.1 6140.21,1370.27C6143.54,1418.45 6149.29,1457.93 6157.46,1488.73C6165.63,1519.52 6176.85,1542.2 6191.12,1556.77C6205.38,1571.34 6223.6,1578.62 6245.76,1578.62C6294.79,1578.62 6333.99,1568.59 6363.35,1548.53C6392.71,1528.47 6413.07,1507.19 6424.43,1484.7L6458.09,1509.62C6443.96,1537.99 6415.57,1564.12 6372.91,1588.01C6330.25,1611.91 6275.26,1623.86 6207.94,1623.86Z" style="fill:rgb(137,24,92);fill-rule:nonzero;"/>
        <path d="M6894.39,1625.39C6854.5,1625.39 6816.06,1616.89 6779.08,1599.9C6742.1,1582.9 6708.93,1557.09 6679.56,1522.46C6650.2,1487.83 6627,1444.07 6609.96,1391.16C6592.93,1338.26 6584.41,1276.03 6584.41,1204.47C6584.41,1126.78 6595.35,1061.8 6617.23,1009.54C6639.12,957.277 6666.89,915.684 6700.55,884.761C6734.2,853.837 6769.52,831.539 6806.5,817.866C6843.49,804.193 6876.94,797.357 6906.85,797.357C6948.4,797.357 6985.53,806.813 7018.21,825.725C7050.9,844.637 7076.66,870.193 7095.5,902.395C7114.34,934.596 7123.76,970.631 7123.76,1010.5C7123.76,1052.16 7114.75,1083.27 7096.75,1103.85C7078.74,1124.42 7056.03,1134.7 7028.6,1134.7C7000.62,1134.7 6977.49,1125.89 6959.21,1108.25C6940.93,1090.62 6931.78,1066.34 6931.78,1035.42C6931.78,1013.44 6936.77,994.59 6946.74,978.873C6956.72,963.155 6966.62,948.78 6976.45,935.746C6986.29,922.712 6991.2,909.55 6991.2,896.261C6991.2,875.56 6984.56,860.546 6971.26,851.218C6957.96,841.889 6942.17,837.225 6923.89,837.225C6904.78,837.225 6889.75,849.684 6878.81,874.602C6867.86,899.52 6859.76,931.018 6854.5,969.097C6849.23,1007.18 6845.98,1046.85 6844.73,1088.13C6843.49,1129.4 6842.86,1166.14 6842.86,1198.34C6842.86,1239.74 6843.97,1282.68 6846.19,1327.14C6848.4,1371.61 6852.9,1413.08 6859.69,1451.54C6866.48,1490.01 6876.45,1521.25 6889.61,1545.27C6902.77,1569.29 6920.15,1581.31 6941.76,1581.31C6975.55,1581.31 7002.77,1570.7 7023.41,1549.49C7044.05,1528.28 7057.55,1507.19 7063.92,1486.24L7097.58,1510C7085.11,1540.67 7062.12,1567.57 7028.6,1590.7C6995.08,1613.83 6950.34,1625.39 6894.39,1625.39Z" style="fill:rgb(137,24,92);fill-rule:nonzero;"/>
        <path d="M7485.26,1622.32C7448.42,1622.32 7412.82,1616.32 7378.47,1604.31C7344.12,1592.3 7316.07,1570.19 7294.33,1537.99C7272.58,1505.79 7261.71,1459.53 7261.71,1399.21L7261.71,844.126L7149.1,844.126L7149.1,805.791L7261.71,805.791C7293.84,805.791 7323.69,794.929 7351.25,773.206C7378.82,751.483 7402.57,722.732 7422.52,686.952C7442.46,651.173 7456.87,612.072 7465.73,569.648L7511.02,569.648L7511.02,805.791L7641.91,805.791L7641.91,844.126L7511.02,844.126L7511.02,1519.97C7511.02,1540.41 7517.05,1554.66 7529.1,1562.71C7541.15,1570.76 7552.02,1574.79 7561.72,1574.79C7571.41,1574.79 7580.69,1572.74 7589.56,1568.65C7598.42,1564.57 7604.79,1560.61 7608.67,1556.77L7631.94,1586.29C7615.6,1598.3 7595.72,1607.31 7572.31,1613.32C7548.9,1619.32 7519.89,1622.32 7485.26,1622.32Z" style="fill:rgb(137,24,92);fill-rule:nonzero;"/>
        <path d="M7668.92,1608.52L7668.92,1570.19L7748.29,1570.19L7748.29,844.126L7668.92,844.126L7668.92,805.791L7997.6,805.791L7997.6,1570.19L8077.8,1570.19L8077.8,1608.52L7668.92,1608.52ZM7873.79,732.954C7831.7,732.954 7795.76,719.194 7765.97,691.672C7736.17,664.151 7721.28,630.632 7721.28,591.115C7721.28,552.78 7736.14,519.94 7765.87,492.595C7795.61,465.249 7831.59,451.576 7873.84,451.576C7915.35,451.576 7950.92,465.249 7980.56,492.595C8010.2,519.94 8025.02,552.78 8025.02,591.115C8025.02,630.632 8010.2,664.151 7980.56,691.672C7950.92,719.194 7915.33,732.954 7873.79,732.954Z" style="fill:rgb(137,24,92);fill-rule:nonzero;"/>
        <path d="M8439.3,1625.39C8406.27,1625.39 8371.84,1617.09 8336,1600.47C8300.15,1583.86 8266.65,1558.31 8235.49,1523.8C8204.32,1489.3 8179.04,1445.6 8159.65,1392.7C8140.26,1339.8 8130.57,1277.05 8130.57,1204.47C8130.57,1125.76 8140.63,1060.14 8160.76,1007.62C8180.9,955.105 8206.73,913.512 8238.26,882.844C8269.79,852.176 8303.45,830.261 8339.24,817.099C8375.02,803.938 8408.38,797.357 8439.3,797.357C8470.67,797.357 8504.26,803.938 8540.05,817.099C8575.85,830.261 8609.69,852.176 8641.59,882.844C8673.5,913.512 8699.62,955.105 8719.99,1007.62C8740.35,1060.14 8750.53,1125.76 8750.53,1204.47C8750.53,1277.05 8740.78,1339.8 8721.3,1392.7C8701.81,1445.6 8676.4,1489.3 8645.05,1523.8C8613.7,1558.31 8579.97,1583.86 8543.85,1600.47C8507.73,1617.09 8472.88,1625.39 8439.3,1625.39ZM8439.3,1582.07C8461.46,1582.07 8476.63,1550.57 8484.8,1487.58C8492.97,1424.58 8497.06,1330.19 8497.06,1204.41C8497.06,1079.74 8492.97,987.818 8484.8,928.654C8476.63,869.491 8461.46,839.909 8439.3,839.909C8418.52,839.909 8404.12,869.491 8396.09,928.654C8388.05,987.818 8384.04,1079.74 8384.04,1204.41C8384.04,1330.19 8388.05,1424.58 8396.09,1487.58C8404.12,1550.57 8418.52,1582.07 8439.3,1582.07Z" style="fill:rgb(137,24,92);fill-rule:nonzero;"/>
        <path d="M8814.1,1608.52L8814.1,1570.19L8895.54,1570.19L8895.54,844.126L8814.1,844.126L8814.1,805.791L9141.12,805.791L9141.12,895.494C9144.17,885.272 9150.74,872.366 9160.85,856.776C9170.97,841.187 9186.48,827.386 9207.39,815.374C9228.31,803.363 9256.08,797.357 9290.71,797.357C9330.04,797.357 9364.95,804.577 9395.42,819.016C9425.89,833.456 9449.85,859.396 9467.3,896.836C9484.76,934.276 9493.48,988.009 9493.48,1058.03L9493.48,1570.19L9572.01,1570.19L9572.01,1608.52L9193.89,1608.52L9193.89,1570.19L9244.17,1570.19L9244.17,1059.57C9244.17,997.465 9241.88,950.952 9237.31,920.029C9232.74,889.105 9222.7,873.643 9207.19,873.643C9199.15,873.643 9191.6,877.221 9184.54,884.377C9177.48,891.533 9171.17,901.5 9165.63,914.278C9160.09,927.057 9155.52,941.88 9151.92,958.747C9148.32,975.614 9145.97,993.759 9144.86,1013.18L9144.86,1570.19L9193.89,1570.19L9193.89,1608.52L8814.1,1608.52Z" style="fill:rgb(137,24,92);fill-rule:nonzero;"/>
    </g>
    <g transform="matrix(1.14218,0,0,1.22852,459.25,-236.103)">
        <g transform="matrix(1,0,0,1,474.871,0)">
            <path d="M3746.15,627.363L3353.57,1459.88L3237.58,1459.88L3631.47,627.363L3746.15,627.363Z" style="fill:rgb(235,167,14);fill-rule:nonzero;"/>
        </g>
        <g transform="matrix(1,0,0,1,689.022,0)">
            <path d="M3746.15,627.363L3353.57,1459.88L3237.58,1459.88L3631.47,627.363L3746.15,627.363Z" style="fill:rgb(235,167,14);fill-rule:nonzero;"/>
        </g>
    </g>
    <g transform="matrix(0.745519,0,0,1,2178.84,-257.281)">
        <path d="M3651.73,1133.34C3651.73,1160.2 3640.54,1180.95 3618.16,1195.6C3595.78,1210.25 3569.04,1217.57 3537.93,1217.57C3506.82,1217.57 3479.8,1210.25 3456.88,1195.6C3434.5,1180.95 3423.31,1160.2 3423.31,1133.34C3423.31,1107.3 3434.5,1086.55 3456.88,1071.09C3479.26,1056.03 3506.27,1048.51 3537.93,1048.51C3569.59,1048.51 3596.33,1056.03 3618.16,1071.09C3640.54,1086.55 3651.73,1107.3 3651.73,1133.34ZM3502.63,1386.03C3502.63,1412.48 3491.45,1433.43 3469.07,1448.9C3446.69,1463.54 3419.95,1470.87 3388.84,1470.87C3357.72,1470.87 3330.71,1463.54 3307.78,1448.9C3285.41,1433.43 3274.22,1412.48 3274.22,1386.03C3274.22,1359.17 3285.41,1338.42 3307.78,1323.77C3330.16,1308.72 3357.18,1301.19 3388.84,1301.19C3420.49,1301.19 3447.24,1308.72 3469.07,1323.77C3491.45,1338.42 3502.63,1359.17 3502.63,1386.03Z" style="fill:rgb(210,76,43);fill-rule:nonzero;"/>
    </g>
</svg>
