<?xml version="1.0" encoding="UTF-8" standalone="no"?>
<!DOCTYPE svg PUBLIC "-//W3C//DTD SVG 1.1//EN" "http://www.w3.org/Graphics/SVG/1.1/DTD/svg11.dtd">
<svg width="100%" height="100%" viewBox="0 0 5000 2100" version="1.1" xmlns="http://www.w3.org/2000/svg" xmlns:xlink="http://www.w3.org/1999/xlink" xml:space="preserve" xmlns:serif="http://www.serif.com/" style="fill-rule:evenodd;clip-rule:evenodd;stroke-linejoin:round;stroke-miterlimit:2;">
    <g transform="matrix(0.798217,0,0,0.798217,-1712.31,-803.659)">
        <path d="M2702.53,2451.08C2677.62,2451.08 2649.47,2449.46 2618.06,2446.21C2586.66,2442.96 2546.59,2439.98 2497.86,2437.27C2449.13,2434.57 2385.24,2433.21 2306.18,2433.21C2282.36,2402.89 2270.45,2368.24 2270.45,2329.25C2306.18,2329.25 2331.9,2323.03 2347.61,2310.57C2363.31,2298.12 2371.16,2276.73 2371.16,2246.41L2371.16,1482.96C2371.16,1453.72 2363.31,1432.88 2347.61,1420.42C2331.9,1407.97 2306.18,1401.74 2270.45,1401.74C2270.45,1360.59 2282.36,1326.48 2306.18,1299.41C2413.39,1299.41 2504.09,1296.16 2578.27,1289.66C2652.45,1283.16 2701.45,1279.91 2725.27,1279.91C2819.49,1279.91 2900.7,1294.8 2968.93,1324.58C3037.15,1354.36 3093.46,1394.97 3137.86,1446.41C3182.26,1497.85 3215.29,1557.41 3236.95,1625.09C3258.61,1692.77 3269.43,1765.06 3269.43,1841.94C3269.43,1925.33 3258.61,2003.84 3236.95,2077.48C3215.29,2151.12 3181.45,2215.82 3135.42,2271.59C3089.4,2327.36 3030.65,2371.22 2959.18,2403.16C2887.71,2435.11 2802.16,2451.08 2702.53,2451.08ZM2689.53,2316.26C2749.1,2316.26 2800.53,2301.64 2843.85,2272.4C2887.17,2243.16 2920.74,2195.51 2944.56,2129.46C2968.39,2063.4 2980.3,1975.68 2980.3,1866.31C2980.3,1708.2 2952.68,1592.6 2897.45,1519.51C2842.23,1446.41 2768.59,1409.86 2676.54,1409.86L2655.42,1409.86C2648.93,1409.86 2642.97,1410.95 2637.56,1413.11L2637.56,2313.01C2646.22,2314.09 2655.15,2314.91 2664.36,2315.45C2673.56,2315.99 2681.95,2316.26 2689.53,2316.26Z" style="fill:rgb(0,151,85);fill-rule:nonzero;"/>
        <path d="M3571.57,1437.48C3525,1437.48 3487.91,1423.67 3460.3,1396.06C3432.68,1368.44 3418.88,1331.35 3418.88,1284.79C3418.88,1239.31 3433.22,1202.49 3461.92,1174.33C3490.62,1146.17 3528.25,1132.1 3574.82,1132.1C3622.46,1132.1 3660.09,1146.17 3687.71,1174.33C3715.32,1202.49 3729.13,1239.31 3729.13,1284.79C3729.13,1331.35 3714.78,1368.44 3686.08,1396.06C3657.39,1423.67 3619.21,1437.48 3571.57,1437.48ZM3389.64,2433.21C3377.72,2421.3 3368.52,2408.31 3362.02,2394.23C3355.53,2380.15 3352.28,2363.91 3352.28,2345.5C3383.68,2345.5 3406.96,2338.73 3422.12,2325.19C3437.28,2311.66 3444.87,2288.64 3444.87,2256.16L3444.87,1785.09C3444.87,1756.94 3438.1,1735.82 3424.56,1721.74C3411.02,1707.66 3382.06,1700.62 3337.66,1700.62L3337.66,1629.15C3353.9,1619.41 3378.81,1608.31 3412.38,1595.85C3445.95,1583.4 3482.5,1572.84 3522.02,1564.18C3561.55,1555.51 3597.01,1551.18 3628.42,1551.18C3653.33,1551.18 3671.19,1556.87 3682.02,1568.24C3692.85,1579.61 3698.27,1598.83 3698.27,1625.9L3698.27,2257.78C3698.27,2290.27 3706.39,2313.01 3722.63,2326.01C3738.88,2339 3762.7,2345.5 3794.1,2345.5C3794.1,2363.91 3790.86,2380.15 3784.36,2394.23C3777.86,2408.31 3768.66,2421.3 3756.74,2433.21L3389.64,2433.21Z" style="fill:rgb(0,151,85);fill-rule:nonzero;"/>
        <path d="M4195.32,2449.46C4156.34,2449.46 4117.08,2445.12 4077.56,2436.46C4038.03,2427.8 4001.75,2415.35 3968.72,2399.1C3935.69,2382.86 3908.89,2362.55 3888.32,2338.19C3867.74,2313.82 3857.45,2285.94 3857.45,2254.53C3857.45,2216.63 3868.28,2186.04 3889.94,2162.76C3911.6,2139.47 3939.21,2127.83 3972.78,2127.83C4003.11,2127.83 4028.83,2137.58 4049.94,2157.07C4071.06,2176.56 4081.62,2202.01 4081.62,2233.42C4081.62,2247.49 4079.45,2259.68 4075.12,2269.96C4070.79,2280.25 4064.29,2291.35 4055.63,2303.26C4065.37,2313.01 4082.7,2320.05 4107.61,2324.38C4132.51,2328.71 4156.88,2330.88 4180.7,2330.88C4218.61,2330.88 4247.84,2323.84 4268.42,2309.76C4288.99,2295.68 4299.28,2278.36 4299.28,2257.78C4299.28,2225.29 4281.95,2197.41 4247.3,2174.13C4212.65,2150.84 4173.12,2127.29 4128.72,2103.47C4088.66,2081.81 4048.86,2058.8 4009.33,2034.43C3969.81,2010.07 3936.78,1979.47 3910.25,1942.65C3883.72,1905.84 3870.45,1859.27 3870.45,1802.96C3870.45,1731.49 3900.23,1672.47 3959.79,1625.9C4019.35,1579.34 4103.82,1556.06 4213.19,1556.06C4288.99,1556.06 4349.64,1565.53 4395.12,1584.48C4440.6,1603.43 4473.63,1627.26 4494.2,1655.95C4514.78,1684.65 4525.07,1714.7 4525.07,1746.11C4525.07,1779.68 4514.51,1806.48 4493.39,1826.51C4472.28,1846.55 4446.56,1856.56 4416.24,1856.56C4389.16,1856.56 4365.34,1848.17 4344.76,1831.39C4324.19,1814.6 4313.9,1792.67 4313.9,1765.6C4313.9,1752.6 4316.07,1738.53 4320.4,1723.37C4324.73,1708.2 4330.69,1695.75 4338.27,1686.01C4326.35,1676.26 4312.55,1669.49 4296.85,1665.7C4281.14,1661.91 4262.46,1660.02 4240.8,1660.02C4205.07,1660.02 4177.73,1668.41 4158.77,1685.19C4139.82,1701.98 4130.35,1722.28 4130.35,1746.11C4130.35,1782.93 4147.94,1813.25 4183.14,1837.07C4218.33,1860.89 4257.59,1884.18 4300.91,1906.92C4340.97,1927.49 4380.23,1949.69 4418.67,1973.52C4457.12,1997.34 4489.33,2027.12 4515.32,2062.86C4541.31,2098.59 4554.31,2144.62 4554.31,2200.93C4554.31,2261.57 4536.98,2310.03 4502.33,2346.31C4467.67,2382.59 4423,2408.85 4368.32,2425.09C4313.63,2441.34 4255.97,2449.46 4195.32,2449.46Z" style="fill:rgb(0,151,85);fill-rule:nonzero;"/>
        <path d="M5381.11,2449.46C5321.55,2449.46 5273.9,2436.73 5238.16,2411.28C5202.43,2385.84 5173.46,2353.62 5151.26,2314.63C5129.06,2275.65 5109.3,2236.12 5091.97,2196.06C5074.65,2154.91 5056.24,2117.55 5036.74,2083.97C5017.25,2050.4 4991.8,2027.66 4960.4,2015.75L4960.4,2264.28C4960.4,2295.68 4967.17,2318.15 4980.7,2331.69C4994.24,2345.23 5017.79,2351.99 5051.36,2351.99C5051.36,2369.32 5047.84,2385.02 5040.8,2399.1C5033.77,2413.18 5024.29,2426.17 5012.38,2438.09L4655.02,2438.09C4629.03,2415.35 4616.03,2386.65 4616.03,2351.99C4648.52,2351.99 4671.53,2345.23 4685.07,2331.69C4698.61,2318.15 4705.37,2295.68 4705.37,2264.28L4705.37,1383.87C4705.37,1358.97 4698.33,1339.2 4684.26,1324.58C4670.18,1309.96 4640.94,1302.65 4596.54,1302.65L4596.54,1237.68C4623.61,1223.6 4655.29,1210.61 4691.57,1198.69C4727.84,1186.78 4763.85,1177.04 4799.59,1169.46C4835.32,1161.88 4864.56,1158.09 4887.3,1158.09C4913.29,1158.09 4931.97,1163.77 4943.34,1175.14C4954.71,1186.51 4960.4,1206.28 4960.4,1234.43L4960.4,1957.27L5139.08,1772.1C5145.58,1765.6 5152.34,1757.75 5159.38,1748.54C5166.42,1739.34 5169.94,1730.95 5169.94,1723.37C5169.94,1708.2 5158.3,1694.13 5135.02,1681.13C5111.73,1668.14 5089.27,1661.64 5067.61,1661.64C5067.61,1622.65 5080.06,1589.63 5104.97,1562.55L5470.45,1562.55C5483.44,1575.55 5491.84,1590.71 5495.63,1608.04C5499.42,1625.36 5501.31,1643.23 5501.31,1661.64C5472.07,1661.64 5450.15,1666.24 5435.53,1675.45C5420.91,1684.65 5407.64,1694.67 5395.73,1705.5L5148.82,1949.15C5188.89,1955.65 5222.46,1968.64 5249.53,1988.14C5276.61,2007.63 5302.06,2038.49 5325.88,2080.73C5359.45,2140.29 5385.71,2187.12 5404.66,2221.23C5423.61,2255.35 5441.48,2281.06 5458.27,2298.39C5475.05,2315.72 5497.52,2329.25 5525.68,2339L5527.3,2377.99C5524.05,2400.73 5508.89,2418.32 5481.82,2430.78C5454.75,2443.23 5421.18,2449.46 5381.11,2449.46Z" style="fill:rgb(0,151,85);fill-rule:nonzero;"/>
        <path d="M5933.39,2447.83C5812.11,2447.83 5715.46,2409.39 5643.44,2332.5C5571.43,2255.62 5535.42,2148.41 5535.42,2010.88C5535.42,1916.66 5553.29,1835.18 5589.03,1766.41C5624.76,1697.65 5673.22,1644.85 5734.41,1608.04C5795.59,1571.22 5865.17,1552.81 5943.14,1552.81C6040.6,1552.81 6118.84,1581.23 6177.86,1638.09C6236.88,1694.94 6266.39,1774.8 6266.39,1877.68C6266.39,1918.83 6259.62,1954.84 6246.08,1985.7C6232.55,2016.56 6204.66,2032 6162.43,2032L5811.57,2032C5814.82,2117.55 5834.58,2178.19 5870.86,2213.92C5907.13,2249.66 5954.51,2267.53 6012.99,2267.53C6049.81,2267.53 6083.92,2261.84 6115.32,2250.47C6146.73,2239.1 6175.97,2223.13 6203.04,2202.55C6212.78,2211.22 6220.64,2224.48 6226.59,2242.35C6232.55,2260.22 6235.53,2275.11 6235.53,2287.02C6235.53,2304.35 6223.34,2325.73 6198.98,2351.18C6174.61,2376.63 6139.96,2399.1 6095.02,2418.59C6050.08,2438.09 5996.2,2447.83 5933.39,2447.83ZM5811.57,1908.54L5975.63,1908.54C5994.04,1908.54 6005.68,1901.5 6010.55,1887.43C6015.42,1873.35 6017.86,1856.02 6017.86,1835.45C6017.86,1766.14 6009.47,1720.39 5992.68,1698.19C5975.9,1675.99 5956.13,1664.89 5933.39,1664.89C5914.98,1664.89 5896.57,1671.93 5878.16,1686.01C5859.76,1700.08 5844.6,1724.72 5832.68,1759.91C5820.77,1795.11 5813.73,1844.65 5811.57,1908.54Z" style="fill:rgb(0,151,85);fill-rule:nonzero;"/>
        <path d="M6675.73,2444.58C6630.25,2444.58 6588.55,2436.19 6550.65,2419.41C6512.75,2402.62 6482.16,2373.65 6458.88,2332.5C6435.59,2291.35 6423.95,2235.04 6423.95,2163.57L6423.95,1716.87L6321.62,1716.87L6321.62,1617.78C6350.86,1613.45 6378.47,1595.04 6404.46,1562.55C6430.45,1530.07 6452.92,1490 6471.87,1442.35C6490.82,1394.7 6503,1347.05 6508.42,1299.41C6527.91,1296.16 6545.78,1294.53 6562.02,1294.53C6605.34,1294.53 6635.39,1306.99 6652.18,1331.89C6668.96,1356.8 6677.35,1380.08 6677.35,1401.74L6677.35,1572.3L6865.78,1572.3C6865.78,1598.29 6864.43,1624.01 6861.72,1649.46C6859.01,1674.9 6851.7,1697.38 6839.79,1716.87L6680.6,1716.87L6680.6,2174.94C6680.6,2209.59 6687.64,2232.6 6701.72,2243.97C6715.8,2255.35 6733.66,2261.03 6755.32,2261.03C6776.98,2261.03 6798.91,2255.35 6821.11,2243.97C6843.31,2232.6 6860.91,2219.34 6873.9,2204.18C6885.81,2213.92 6893.94,2228.27 6898.27,2247.22C6902.6,2266.17 6904.76,2280.52 6904.76,2290.27C6904.76,2314.09 6896.64,2337.92 6880.4,2361.74C6864.15,2385.57 6838.98,2405.33 6804.86,2421.03C6770.75,2436.73 6727.71,2444.58 6675.73,2444.58Z" style="fill:rgb(0,151,85);fill-rule:nonzero;"/>
        <path d="M7288.11,2444.58C7242.63,2444.58 7200.94,2436.19 7163.04,2419.41C7125.14,2402.62 7094.54,2373.65 7071.26,2332.5C7047.98,2291.35 7036.34,2235.04 7036.34,2163.57L7036.34,1716.87L6934,1716.87L6934,1617.78C6963.24,1613.45 6990.86,1595.04 7016.85,1562.55C7042.84,1530.07 7065.31,1490 7084.26,1442.35C7103.21,1394.7 7115.39,1347.05 7120.8,1299.41C7140.3,1296.16 7158.16,1294.53 7174.41,1294.53C7217.73,1294.53 7247.78,1306.99 7264.56,1331.89C7281.35,1356.8 7289.74,1380.08 7289.74,1401.74L7289.74,1572.3L7478.16,1572.3C7478.16,1598.29 7476.81,1624.01 7474.1,1649.46C7471.4,1674.9 7464.09,1697.38 7452.18,1716.87L7292.99,1716.87L7292.99,2174.94C7292.99,2209.59 7300.03,2232.6 7314.1,2243.97C7328.18,2255.35 7346.05,2261.03 7367.71,2261.03C7389.37,2261.03 7411.3,2255.35 7433.49,2243.97C7455.69,2232.6 7473.29,2219.34 7486.29,2204.18C7498.2,2213.92 7506.32,2228.27 7510.65,2247.22C7514.98,2266.17 7517.15,2280.52 7517.15,2290.27C7517.15,2314.09 7509.03,2337.92 7492.78,2361.74C7476.54,2385.57 7451.36,2405.33 7417.25,2421.03C7383.14,2436.73 7340.09,2444.58 7288.11,2444.58Z" style="fill:rgb(0,151,85);fill-rule:nonzero;"/>
        <path d="M7950.86,2447.83C7829.57,2447.83 7732.92,2409.39 7660.91,2332.5C7588.89,2255.62 7552.89,2148.41 7552.89,2010.88C7552.89,1916.66 7570.75,1835.18 7606.49,1766.41C7642.23,1697.65 7690.69,1644.85 7751.87,1608.04C7813.06,1571.22 7882.63,1552.81 7960.6,1552.81C8058.06,1552.81 8136.3,1581.23 8195.32,1638.09C8254.34,1694.94 8283.85,1774.8 8283.85,1877.68C8283.85,1918.83 8277.08,1954.84 8263.55,1985.7C8250.01,2016.56 8222.12,2032 8179.89,2032L7829.03,2032C7832.28,2117.55 7852.04,2178.19 7888.32,2213.92C7924.6,2249.66 7971.97,2267.53 8030.45,2267.53C8067.27,2267.53 8101.38,2261.84 8132.78,2250.47C8164.19,2239.1 8193.43,2223.13 8220.5,2202.55C8230.25,2211.22 8238.1,2224.48 8244.05,2242.35C8250.01,2260.22 8252.99,2275.11 8252.99,2287.02C8252.99,2304.35 8240.8,2325.73 8216.44,2351.18C8192.07,2376.63 8157.42,2399.1 8112.48,2418.59C8067.54,2438.09 8013.66,2447.83 7950.86,2447.83ZM7829.03,1908.54L7993.09,1908.54C8011.5,1908.54 8023.14,1901.5 8028.01,1887.43C8032.89,1873.35 8035.32,1856.02 8035.32,1835.45C8035.32,1766.14 8026.93,1720.39 8010.15,1698.19C7993.36,1675.99 7973.6,1664.89 7950.86,1664.89C7932.45,1664.89 7914.04,1671.93 7895.63,1686.01C7877.22,1700.08 7862.06,1724.72 7850.15,1759.91C7838.23,1795.11 7831.19,1844.65 7829.03,1908.54Z" style="fill:rgb(0,151,85);fill-rule:nonzero;"/>
    </g>
    <g transform="matrix(0.585132,0,0,0.585132,-25.9114,1555.89)">
        <path d="M1656.23,741.486C1564.18,741.486 1478.63,719.828 1399.58,676.511C1320.52,633.195 1257.17,567.408 1209.53,479.151C1161.88,390.894 1138.05,280.166 1138.05,146.968C1138.05,19.185 1159.44,-87.482 1202.21,-173.032C1244.99,-258.582 1304.55,-323.285 1380.9,-367.143C1457.24,-411.001 1545.77,-432.93 1646.48,-432.93C1670.3,-432.93 1697.38,-429.681 1727.7,-423.184C1758.02,-416.687 1784.55,-408.023 1807.29,-397.194C1818.12,-402.609 1832.74,-407.752 1851.15,-412.626C1869.56,-417.499 1888.24,-422.101 1907.19,-426.433C1926.14,-430.764 1941.03,-432.93 1951.86,-432.93C1965.94,-398.277 1976.23,-357.397 1982.72,-310.291C1989.22,-263.184 1993.55,-216.619 1995.72,-170.595C1997.88,-124.571 1998.97,-85.316 1998.97,-52.829L1815.41,-52.829C1806.75,-123.218 1787.53,-180.612 1757.75,-225.011C1727.97,-269.411 1689.25,-291.61 1641.61,-291.61C1578.8,-291.61 1527.09,-261.83 1486.48,-202.27C1445.87,-142.71 1425.57,-45.248 1425.57,90.116C1425.57,201.655 1440.73,290.725 1471.05,357.324C1501.37,423.923 1541.44,471.571 1591.25,500.268C1641.07,528.965 1694.67,543.313 1752.06,543.313C1801.88,543.313 1844.11,533.838 1878.76,514.887C1913.42,495.936 1937.78,476.173 1951.86,455.598C1965.94,465.344 1977.04,480.234 1985.16,500.268C1993.28,520.302 1997.34,537.899 1997.34,553.06C1997.34,577.967 1984.08,605.31 1957.55,635.09C1931.01,664.87 1892.57,690.048 1842.22,710.623C1791.86,731.198 1729.86,741.486 1656.23,741.486Z" style="fill:rgb(137,24,92);fill-rule:nonzero;"/>
        <path d="M2437.55,739.862C2360.66,739.862 2292.43,723.347 2232.88,690.319C2173.32,657.29 2127.02,608.559 2093.99,544.126C2060.96,479.693 2044.45,399.828 2044.45,304.532C2044.45,202.738 2061.78,117.188 2096.43,47.882C2131.08,-21.424 2179.27,-73.945 2241,-109.681C2302.72,-145.417 2373.65,-163.285 2453.79,-163.285C2531.76,-163.285 2600.25,-146.5 2659.27,-112.93C2718.29,-79.36 2764.31,-29.817 2797.34,35.699C2830.37,101.215 2846.89,182.163 2846.89,278.542C2846.89,379.253 2829.56,463.99 2794.91,532.755C2760.25,601.52 2712.06,653.229 2650.34,687.882C2588.61,722.535 2517.68,739.862 2437.55,739.862ZM2450.54,622.907C2473.28,622.907 2493.04,614.786 2509.83,598.542C2526.62,582.298 2539.61,552.248 2548.81,508.39C2558.02,464.532 2562.62,400.911 2562.62,317.527C2562.62,215.733 2557.75,138.576 2548,86.055C2538.26,33.533 2524.18,-1.932 2505.77,-20.341C2487.36,-38.751 2465.7,-47.956 2440.79,-47.956C2418.05,-47.956 2398.02,-39.834 2380.69,-23.59C2363.37,-7.346 2350.1,22.975 2340.9,67.374C2331.69,111.774 2327.09,176.207 2327.09,260.674C2327.09,361.385 2332.23,437.73 2342.52,489.709C2352.81,541.689 2367.16,576.884 2385.57,595.293C2403.97,613.703 2425.63,622.907 2450.54,622.907Z" style="fill:rgb(137,24,92);fill-rule:nonzero;"/>
        <path d="M2954.09,718.745C2942.18,705.75 2932.98,692.214 2926.48,678.136C2919.98,664.058 2916.73,648.356 2916.73,631.029C2948.14,631.029 2970.88,624.261 2984.96,610.725C2999.03,597.188 3006.07,574.176 3006.07,541.689L3006.07,-320.849C3006.07,-345.756 2999.03,-365.519 2984.96,-380.138C2970.88,-394.758 2941.1,-402.067 2895.62,-402.067L2895.62,-467.042C2922.69,-482.203 2954.36,-495.468 2990.64,-506.839C3026.92,-518.209 3062.93,-527.414 3098.66,-534.453C3134.4,-541.492 3164.18,-545.011 3188,-545.011C3212.91,-545.011 3231.05,-539.597 3242.42,-528.768C3253.79,-517.939 3259.47,-498.988 3259.47,-471.915L3259.47,541.689C3259.47,575.259 3266.24,598.542 3279.78,611.537C3293.32,624.532 3316.33,631.029 3348.81,631.029C3348.81,648.356 3345.3,664.058 3338.26,678.136C3331.22,692.214 3321.74,705.75 3309.83,718.745L2954.09,718.745Z" style="fill:rgb(137,24,92);fill-rule:nonzero;"/>
        <path d="M3467.39,718.745C3455.48,705.75 3446.28,692.214 3439.78,678.136C3433.28,664.058 3430.03,648.356 3430.03,631.029C3461.44,631.029 3484.18,624.261 3498.26,610.725C3512.33,597.188 3519.37,574.176 3519.37,541.689L3519.37,-320.849C3519.37,-345.756 3512.33,-365.519 3498.26,-380.138C3484.18,-394.758 3454.4,-402.067 3408.92,-402.067L3408.92,-467.042C3435.99,-482.203 3467.66,-495.468 3503.94,-506.839C3540.22,-518.209 3576.22,-527.414 3611.96,-534.453C3647.7,-541.492 3677.48,-545.011 3701.3,-545.011C3726.21,-545.011 3744.35,-539.597 3755.72,-528.768C3767.09,-517.939 3772.77,-498.988 3772.77,-471.915L3772.77,541.689C3772.77,575.259 3779.54,598.542 3793.08,611.537C3806.62,624.532 3829.63,631.029 3862.11,631.029C3862.11,648.356 3858.59,664.058 3851.56,678.136C3844.52,692.214 3835.04,705.75 3823.13,718.745L3467.39,718.745Z" style="fill:rgb(137,24,92);fill-rule:nonzero;"/>
        <path d="M4325.06,733.364C4203.77,733.364 4107.12,694.921 4035.11,618.034C3963.1,541.148 3927.09,433.94 3927.09,296.41C3927.09,202.197 3944.96,120.708 3980.69,51.943C4016.43,-16.822 4064.89,-69.614 4126.07,-106.433C4187.26,-143.252 4256.84,-161.661 4334.8,-161.661C4432.27,-161.661 4510.51,-133.235 4569.53,-76.382C4628.54,-19.529 4658.05,60.335 4658.05,163.212C4658.05,204.363 4651.28,240.369 4637.75,271.232C4624.21,302.095 4596.33,317.527 4554.09,317.527L4203.23,317.527C4206.48,403.077 4226.24,463.72 4262.52,499.456C4298.8,535.192 4346.18,553.06 4404.65,553.06C4441.47,553.06 4475.58,547.374 4506.99,536.004C4538.39,524.633 4567.63,508.66 4594.7,488.085C4604.45,496.748 4612.3,510.014 4618.26,527.882C4624.21,545.75 4627.19,560.64 4627.19,572.552C4627.19,589.879 4615.01,611.266 4590.64,636.715C4566.28,662.163 4531.62,684.633 4486.68,704.126C4441.74,723.618 4387.87,733.364 4325.06,733.364ZM4203.23,194.075L4367.29,194.075C4385.7,194.075 4397.34,187.036 4402.22,172.958C4407.09,158.88 4409.53,141.554 4409.53,120.978C4409.53,51.672 4401.13,5.919 4384.35,-16.28C4367.56,-38.48 4347.8,-49.58 4325.06,-49.58C4306.65,-49.58 4288.24,-42.541 4269.83,-28.463C4251.42,-14.385 4236.26,10.251 4224.35,45.445C4212.44,80.64 4205.4,130.183 4203.23,194.075Z" style="fill:rgb(137,24,92);fill-rule:nonzero;"/>
        <path d="M5145.36,743.11C5066.31,743.11 4996.73,725.242 4936.63,689.506C4876.53,653.77 4829.42,602.603 4795.31,536.004C4761.2,469.405 4744.14,389.54 4744.14,296.41C4744.14,200.031 4762.55,117.459 4799.37,48.694C4836.19,-20.071 4886.55,-72.592 4950.44,-108.869C5014.33,-145.147 5086.34,-163.285 5166.48,-163.285C5249.86,-163.285 5313.21,-143.522 5356.53,-103.996C5399.85,-64.47 5421.51,-16.01 5421.51,41.385C5421.51,93.364 5408.51,133.432 5382.52,161.588C5356.53,189.743 5322.96,203.821 5281.81,203.821C5248.24,203.821 5220.08,191.368 5197.34,166.461C5174.6,141.554 5163.23,111.232 5163.23,75.496C5163.23,49.506 5167.83,28.39 5177.04,12.146C5186.24,-4.098 5197.88,-17.634 5211.96,-28.463C5201.13,-34.961 5192.2,-39.022 5185.16,-40.646C5178.12,-42.27 5171.35,-43.082 5164.86,-43.082C5144.28,-43.082 5123.16,-34.961 5101.51,-18.717C5079.85,-2.473 5061.71,26.224 5047.09,67.374C5032.47,108.525 5025.16,165.919 5025.16,239.557C5025.16,358.677 5042.49,442.332 5077.14,490.522C5111.79,538.711 5160.52,562.806 5223.33,562.806C5252.57,562.806 5282.08,558.474 5311.86,549.811C5341.64,541.148 5366.82,528.694 5387.39,512.451C5396.06,523.28 5403.37,536.545 5409.32,552.248C5415.28,567.95 5418.26,581.757 5418.26,593.669C5418.26,616.41 5406.07,639.422 5381.71,662.704C5357.34,685.987 5324.58,705.209 5283.43,720.369C5242.28,735.53 5196.26,743.11 5145.36,743.11Z" style="fill:rgb(137,24,92);fill-rule:nonzero;"/>
        <path d="M5822.72,730.116C5777.24,730.116 5735.55,721.723 5697.65,704.938C5659.74,688.153 5629.15,659.185 5605.87,618.034C5582.59,576.884 5570.95,520.572 5570.95,449.1L5570.95,2.4L5468.61,2.4L5468.61,-96.687C5497.85,-101.018 5525.46,-119.428 5551.45,-151.915C5577.44,-184.402 5599.91,-224.47 5618.86,-272.118C5637.82,-319.766 5650,-367.414 5655.41,-415.062C5674.91,-418.311 5692.77,-419.935 5709.02,-419.935C5752.33,-419.935 5782.39,-407.482 5799.17,-382.575C5815.95,-357.668 5824.35,-334.385 5824.35,-312.727L5824.35,-142.169L6012.77,-142.169C6012.77,-116.179 6011.42,-90.46 6008.71,-65.011C6006.01,-39.563 5998.7,-17.093 5986.78,2.4L5827.6,2.4L5827.6,460.471C5827.6,495.124 5834.64,518.136 5848.71,529.506C5862.79,540.877 5880.66,546.562 5902.32,546.562C5923.98,546.562 5945.9,540.877 5968.1,529.506C5990.3,518.136 6007.9,504.87 6020.9,489.709C6032.81,499.456 6040.93,513.804 6045.26,532.755C6049.59,551.706 6051.76,566.055 6051.76,575.801C6051.76,599.625 6043.64,623.449 6027.39,647.273C6011.15,671.097 5985.97,690.86 5951.86,706.562C5917.75,722.264 5874.7,730.116 5822.72,730.116Z" style="fill:rgb(137,24,92);fill-rule:nonzero;"/>
        <path d="M6323.03,-276.991C6276.46,-276.991 6239.37,-290.798 6211.76,-318.412C6184.14,-346.027 6170.34,-383.116 6170.34,-429.681C6170.34,-475.164 6184.69,-511.983 6213.38,-540.138C6242.08,-568.294 6279.71,-582.372 6326.28,-582.372C6373.92,-582.372 6411.56,-568.294 6439.17,-540.138C6466.78,-511.983 6480.59,-475.164 6480.59,-429.681C6480.59,-383.116 6466.24,-346.027 6437.55,-318.412C6408.85,-290.798 6370.68,-276.991 6323.03,-276.991ZM6141.1,718.745C6129.19,706.833 6119.98,693.838 6113.48,679.76C6106.99,665.682 6103.74,649.439 6103.74,631.029C6135.14,631.029 6158.43,624.261 6173.59,610.725C6188.75,597.188 6196.33,574.176 6196.33,541.689L6196.33,70.623C6196.33,42.467 6189.56,21.351 6176.02,7.273C6162.49,-6.805 6133.52,-13.844 6089.12,-13.844L6089.12,-85.316C6105.36,-95.062 6130.27,-106.162 6163.84,-118.615C6197.41,-131.069 6233.96,-141.627 6273.48,-150.291C6313.01,-158.954 6348.48,-163.285 6379.88,-163.285C6404.79,-163.285 6422.65,-157.6 6433.48,-146.23C6444.31,-134.859 6449.73,-115.637 6449.73,-88.565L6449.73,543.313C6449.73,575.801 6457.85,598.542 6474.09,611.537C6490.34,624.532 6514.16,631.029 6545.57,631.029C6545.57,649.439 6542.32,665.682 6535.82,679.76C6529.32,693.838 6520.12,706.833 6508.2,718.745L6141.1,718.745Z" style="fill:rgb(137,24,92);fill-rule:nonzero;"/>
        <path d="M7006.89,739.862C6930,739.862 6861.78,723.347 6802.22,690.319C6742.65,657.29 6696.36,608.559 6663.33,544.126C6630.3,479.693 6613.79,399.828 6613.79,304.532C6613.79,202.738 6631.11,117.188 6665.77,47.882C6700.42,-21.424 6748.61,-73.945 6810.34,-109.681C6872.06,-145.417 6942.99,-163.285 7023.13,-163.285C7101.1,-163.285 7169.59,-146.5 7228.61,-112.93C7287.63,-79.36 7333.65,-29.817 7366.68,35.699C7399.71,101.215 7416.23,182.163 7416.23,278.542C7416.23,379.253 7398.9,463.99 7364.25,532.755C7329.59,601.52 7281.4,653.229 7219.68,687.882C7157.95,722.535 7087.02,739.862 7006.89,739.862ZM7019.88,622.907C7042.62,622.907 7062.39,614.786 7079.17,598.542C7095.95,582.298 7108.95,552.248 7118.15,508.39C7127.36,464.532 7131.96,400.911 7131.96,317.527C7131.96,215.733 7127.09,138.576 7117.34,86.055C7107.6,33.533 7093.52,-1.932 7075.11,-20.341C7056.7,-38.751 7035.04,-47.956 7010.13,-47.956C6987.39,-47.956 6967.36,-39.834 6950.03,-23.59C6932.71,-7.346 6919.44,22.975 6910.24,67.374C6901.03,111.774 6896.43,176.207 6896.43,260.674C6896.43,361.385 6901.57,437.73 6911.86,489.709C6922.15,541.689 6936.5,576.884 6954.91,595.293C6973.32,613.703 6994.97,622.907 7019.88,622.907Z" style="fill:rgb(137,24,92);fill-rule:nonzero;"/>
        <path d="M7546.18,718.745C7534.26,706.833 7524.79,693.838 7517.75,679.76C7510.71,665.682 7507.19,649.98 7507.19,632.654C7539.68,632.654 7562.96,625.615 7577.04,611.537C7591.11,597.459 7598.15,574.718 7598.15,543.313L7598.15,68.999C7598.15,40.843 7590.3,20.268 7574.6,7.273C7558.9,-5.722 7530.47,-12.219 7489.32,-12.219L7489.32,-85.316C7514.23,-99.394 7545.9,-112.389 7584.35,-124.301C7622.79,-136.213 7660.15,-145.688 7696.43,-152.727C7732.71,-159.766 7760.59,-163.285 7780.08,-163.285C7802.82,-163.285 7821.51,-156.247 7836.12,-142.169C7850.74,-128.091 7859.14,-97.769 7861.3,-51.204C7888.37,-84.774 7922.76,-111.847 7964.45,-132.423C8006.14,-152.998 8054.6,-163.285 8109.83,-163.285C8185.63,-163.285 8242.76,-144.064 8281.2,-105.621C8319.64,-67.177 8338.86,-1.932 8338.86,90.116L8338.86,533.567C8338.86,586.63 8364.85,618.034 8416.84,627.781L8418.46,674.887C8407.63,685.716 8390.3,695.192 8366.48,703.313C8342.66,711.435 8316.94,717.662 8289.32,721.994C8261.71,726.325 8235.99,728.491 8212.17,728.491C8165.6,728.491 8131.22,719.828 8109.02,702.501C8086.82,685.175 8075.72,657.561 8075.72,619.659L8075.72,112.857C8075.72,68.457 8065.97,37.594 8046.48,20.268C8026.99,2.941 8003.16,-5.722 7975.01,-5.722C7930.61,-5.722 7893.25,12.146 7862.93,47.882L7862.93,543.313C7862.93,574.718 7869.69,597.459 7883.23,611.537C7896.77,625.615 7919.78,632.654 7952.27,632.654C7952.27,665.141 7939.81,693.838 7914.91,718.745L7546.18,718.745Z" style="fill:rgb(137,24,92);fill-rule:nonzero;"/>
    </g>
    <g id="Authority" transform="matrix(0.687876,0,0,0.687876,-3882.94,922.098)">
        <g transform="matrix(0.614901,0,0,0.824795,3708.48,-5.98404)">
            <path d="M3726.64,1133.34C3726.64,1160.2 3715.45,1180.95 3693.08,1195.6C3670.7,1210.25 3643.95,1217.57 3612.84,1217.57C3581.73,1217.57 3554.72,1210.25 3531.79,1195.6C3509.42,1180.95 3498.23,1160.2 3498.23,1133.34C3498.23,1107.3 3509.42,1086.55 3531.79,1071.09C3554.17,1056.03 3581.19,1048.51 3612.84,1048.51C3644.5,1048.51 3671.24,1056.03 3693.08,1071.09C3715.45,1086.55 3726.64,1107.3 3726.64,1133.34ZM3613.86,1386.03C3613.86,1412.48 3602.67,1433.43 3580.29,1448.9C3557.91,1463.54 3531.17,1470.87 3500.06,1470.87C3468.95,1470.87 3441.93,1463.54 3419.01,1448.9C3396.63,1433.43 3385.44,1412.48 3385.44,1386.03C3385.44,1359.17 3396.63,1338.42 3419.01,1323.77C3441.39,1308.72 3468.4,1301.19 3500.06,1301.19C3531.72,1301.19 3558.46,1308.72 3580.29,1323.77C3602.67,1338.42 3613.86,1359.17 3613.86,1386.03Z" style="fill:rgb(210,76,43);fill-rule:nonzero;"/>
        </g>
        <g transform="matrix(0.535714,0,0,1,2869.75,6.82121e-13)">
            <path d="M6381.93,1443.11C6335.98,1517.09 6206.78,1567 6061.24,1567C6003.23,1567 5957.78,1567 5957.78,1567C5929.81,1536.39 5941.85,1506.88 5968.98,1478.38L6007.95,1478.38C6051.69,1478.38 6090.51,1463.37 6104.32,1441.14C6183.85,1313.04 6448.56,886.697 6581.06,673.289C6627,599.298 6756.21,549.375 6901.77,549.375L6960.4,549.375C6985.3,576.433 6992.99,605.943 6982.8,638L6955.24,638C6911.51,638 6872.68,652.999 6858.88,675.23C6779.31,803.325 6514.48,1229.7 6381.93,1443.11Z" style="fill:rgb(235,167,14);"/>
        </g>
        <g transform="matrix(0.535714,0,0,1,2607.07,6.82121e-13)">
            <path d="M6381.93,1443.11C6335.98,1517.09 6206.78,1567 6061.24,1567C6003.23,1567 5957.78,1567 5957.78,1567C5929.81,1536.39 5941.85,1506.88 5968.98,1478.38L6007.95,1478.38C6051.69,1478.38 6090.51,1463.37 6104.32,1441.14C6183.85,1313.04 6448.56,886.697 6581.06,673.289C6627,599.298 6756.21,549.375 6901.77,549.375L6960.4,549.375C6985.3,576.433 6992.99,605.943 6982.8,638L6955.24,638C6911.51,638 6872.68,652.999 6858.88,675.23C6779.31,803.325 6514.48,1229.7 6381.93,1443.11Z" style="fill:rgb(235,167,14);"/>
        </g>
    </g>
</svg>
