<?xml version="1.0" encoding="UTF-8" standalone="no"?>
<!DOCTYPE svg PUBLIC "-//W3C//DTD SVG 1.1//EN" "http://www.w3.org/Graphics/SVG/1.1/DTD/svg11.dtd">
<svg width="100%" height="100%" viewBox="0 0 13500 2000" version="1.1" xmlns="http://www.w3.org/2000/svg" xmlns:xlink="http://www.w3.org/1999/xlink" xml:space="preserve" xmlns:serif="http://www.serif.com/" style="fill-rule:evenodd;clip-rule:evenodd;stroke-linejoin:round;stroke-miterlimit:2;">
    <g transform="matrix(0.938473,0,0,0.954329,-3103.19,13.7014)">
        <path d="M4080.05,1644.75C4056.23,1644.75 4029.29,1643.22 3999.25,1640.17C3969.21,1637.11 3930.88,1634.31 3884.26,1631.76C3837.64,1629.21 3776.52,1627.94 3700.89,1627.94C3678.1,1599.42 3666.7,1566.82 3666.7,1530.14C3700.89,1530.14 3725.5,1524.28 3740.52,1512.57C3755.54,1500.85 3763.05,1480.73 3763.05,1452.21L3763.05,733.987C3763.05,706.481 3755.54,686.87 3740.52,675.155C3725.5,663.439 3700.89,657.581 3666.7,657.581C3666.7,618.869 3678.1,586.778 3700.89,561.309C3803.45,561.309 3890.21,558.253 3961.18,552.141C4032.14,546.028 4079.02,542.972 4101.81,542.972C4191.94,542.972 4269.64,556.98 4334.9,584.995C4400.17,613.011 4454.04,651.214 4496.51,699.605C4538.98,747.995 4570.58,804.027 4591.3,867.698C4612.02,931.37 4622.38,999.372 4622.38,1071.7C4622.38,1150.15 4612.02,1224.01 4591.3,1293.28C4570.58,1362.56 4538.21,1423.43 4494.18,1475.89C4450.15,1528.36 4393.95,1569.62 4325.58,1599.67C4257.2,1629.72 4175.36,1644.75 4080.05,1644.75ZM4067.62,1517.92C4124.6,1517.92 4173.81,1504.16 4215.25,1476.66C4256.69,1449.15 4288.8,1404.33 4311.59,1342.18C4334.38,1280.04 4345.78,1197.52 4345.78,1094.62C4345.78,945.888 4319.36,837.136 4266.53,768.37C4213.69,699.605 4143.25,665.222 4055.19,665.222L4034.99,665.222C4028.77,665.222 4023.08,666.241 4017.9,668.278L4017.9,1514.86C4026.18,1515.88 4034.73,1516.64 4043.54,1517.15C4052.34,1517.66 4060.37,1517.92 4067.62,1517.92Z" style="fill:rgb(0,151,85);fill-rule:nonzero;"/>
        <path d="M4911.41,691.2C4866.87,691.2 4831.39,678.211 4804.97,652.233C4778.55,626.255 4765.34,591.363 4765.34,547.556C4765.34,504.769 4779.07,470.131 4806.52,443.644C4833.98,417.156 4869.98,403.912 4914.52,403.912C4960.1,403.912 4996.1,417.156 5022.52,443.644C5048.94,470.131 5062.15,504.769 5062.15,547.556C5062.15,591.363 5048.42,626.255 5020.97,652.233C4993.51,678.211 4957,691.2 4911.41,691.2ZM4737.37,1627.94C4725.98,1616.73 4717.17,1604.51 4710.95,1591.27C4704.74,1578.02 4701.63,1562.74 4701.63,1545.42C4731.67,1545.42 4753.95,1539.06 4768.45,1526.32C4782.95,1513.59 4790.21,1491.94 4790.21,1461.38L4790.21,1018.22C4790.21,991.731 4783.73,971.866 4770.78,958.622C4757.83,945.378 4730.12,938.756 4687.65,938.756L4687.65,871.519C4703.19,862.35 4727.01,851.908 4759.13,840.192C4791.24,828.477 4826.21,818.544 4864.02,810.394C4901.83,802.244 4935.76,798.169 4965.8,798.169C4989.63,798.169 5006.72,803.517 5017.08,814.214C5027.44,824.911 5032.62,842.994 5032.62,868.463L5032.62,1462.9C5032.62,1493.47 5040.39,1514.86 5055.93,1527.08C5071.47,1539.31 5094.26,1545.42 5124.3,1545.42C5124.3,1562.74 5121.2,1578.02 5114.98,1591.27C5108.76,1604.51 5099.96,1616.73 5088.56,1627.94L4737.37,1627.94Z" style="fill:rgb(0,151,85);fill-rule:nonzero;"/>
        <path d="M5508.13,1643.22C5470.83,1643.22 5433.28,1639.15 5395.47,1631C5357.65,1622.85 5322.95,1611.13 5291.35,1595.85C5259.76,1580.57 5234.12,1561.47 5214.43,1538.55C5194.75,1515.62 5184.91,1489.39 5184.91,1459.85C5184.91,1424.19 5195.27,1395.41 5215.99,1373.51C5236.71,1351.61 5263.12,1340.65 5295.24,1340.65C5324.24,1340.65 5348.85,1349.82 5369.05,1368.16C5389.25,1386.5 5399.35,1410.44 5399.35,1439.98C5399.35,1453.23 5397.28,1464.69 5393.14,1474.36C5388.99,1484.04 5382.78,1494.48 5374.49,1505.69C5383.81,1514.86 5400.39,1521.48 5424.22,1525.56C5448.04,1529.63 5471.35,1531.67 5494.14,1531.67C5530.4,1531.67 5558.37,1525.05 5578.06,1511.8C5597.74,1498.56 5607.58,1482.26 5607.58,1462.9C5607.58,1432.34 5591.01,1406.11 5557.85,1384.2C5524.7,1362.3 5486.89,1340.14 5444.42,1317.73C5406.09,1297.36 5368.01,1275.71 5330.2,1252.79C5292.39,1229.86 5260.79,1201.08 5235.41,1166.45C5210.03,1131.81 5197.34,1088 5197.34,1035.03C5197.34,967.791 5225.83,912.269 5282.81,868.463C5339.78,824.656 5420.59,802.753 5525.22,802.753C5597.74,802.753 5655.75,811.667 5699.26,829.495C5742.77,847.323 5774.37,869.736 5794.05,896.733C5813.74,923.73 5823.58,952 5823.58,981.544C5823.58,1013.12 5813.48,1038.34 5793.28,1057.19C5773.07,1076.03 5748.47,1085.46 5719.46,1085.46C5693.57,1085.46 5670.77,1077.56 5651.09,1061.77C5631.41,1045.98 5621.57,1025.35 5621.57,999.881C5621.57,987.656 5623.64,974.413 5627.78,960.15C5631.93,945.888 5637.62,934.172 5644.88,925.003C5633.48,915.834 5620.27,909.467 5605.25,905.902C5590.23,902.336 5572.36,900.553 5551.64,900.553C5517.45,900.553 5491.29,908.448 5473.16,924.239C5455.03,940.03 5445.97,959.131 5445.97,981.544C5445.97,1016.18 5462.81,1044.71 5496.47,1067.12C5530.14,1089.53 5567.7,1111.43 5609.13,1132.83C5647.47,1152.18 5685.02,1173.07 5721.8,1195.48C5758.57,1217.89 5789.39,1245.91 5814.26,1279.53C5839.12,1313.15 5851.55,1356.44 5851.55,1409.42C5851.55,1466.47 5834.97,1512.06 5801.82,1546.19C5768.67,1580.31 5725.94,1605.02 5673.62,1620.3C5621.31,1635.58 5566.14,1643.22 5508.13,1643.22Z" style="fill:rgb(0,151,85);fill-rule:nonzero;"/>
        <path d="M6642.51,1643.22C6585.53,1643.22 6539.95,1631.25 6505.76,1607.31C6471.57,1583.37 6443.86,1553.06 6422.62,1516.39C6401.39,1479.71 6382.48,1442.53 6365.9,1404.83C6349.33,1366.12 6331.72,1330.98 6313.07,1299.39C6294.42,1267.81 6270.08,1246.42 6240.03,1235.21L6240.03,1469.02C6240.03,1498.56 6246.51,1519.7 6259.46,1532.43C6272.41,1545.17 6294.94,1551.53 6327.06,1551.53C6327.06,1567.83 6323.69,1582.61 6316.95,1595.85C6310.22,1609.09 6301.16,1621.32 6289.76,1632.53L5947.89,1632.53C5923.03,1611.13 5910.6,1584.13 5910.6,1551.53C5941.68,1551.53 5963.69,1545.17 5976.64,1532.43C5989.59,1519.7 5996.07,1498.56 5996.07,1469.02L5996.07,640.772C5996.07,617.341 5989.33,598.748 5975.86,584.995C5962.4,571.242 5934.43,564.366 5891.95,564.366L5891.95,503.241C5917.85,489.997 5948.15,477.772 5982.86,466.566C6017.56,455.359 6052.01,446.191 6086.19,439.059C6120.38,431.928 6148.35,428.362 6170.11,428.362C6194.97,428.362 6212.84,433.711 6223.72,444.408C6234.6,455.105 6240.03,473.697 6240.03,500.184L6240.03,1180.2L6410.97,1005.99C6417.18,999.881 6423.66,992.495 6430.39,983.836C6437.13,975.177 6440.49,967.281 6440.49,960.15C6440.49,945.888 6429.36,932.644 6407.08,920.419C6384.81,908.194 6363.31,902.081 6342.6,902.081C6342.6,865.406 6354.51,834.334 6378.34,808.866L6727.97,808.866C6740.4,821.091 6748.43,835.353 6752.06,851.653C6755.69,867.953 6757.5,884.762 6757.5,902.081C6729.53,902.081 6708.55,906.411 6694.56,915.07C6680.58,923.73 6667.89,933.153 6656.49,943.341L6420.29,1172.56C6458.62,1178.67 6490.74,1190.9 6516.64,1209.23C6542.54,1227.57 6566.88,1256.61 6589.67,1296.34C6621.79,1352.37 6646.91,1396.43 6665.04,1428.52C6683.17,1460.61 6700.26,1484.81 6716.32,1501.11C6732.38,1517.41 6753.87,1530.14 6780.81,1539.31L6782.36,1575.98C6779.25,1597.38 6764.75,1613.93 6738.85,1625.65C6712.95,1637.36 6680.84,1643.22 6642.51,1643.22Z" style="fill:rgb(0,151,85);fill-rule:nonzero;"/>
        <path d="M7170.85,1641.69C7054.82,1641.69 6962.36,1605.53 6893.47,1533.2C6824.58,1460.87 6790.13,1360.01 6790.13,1230.63C6790.13,1142 6807.22,1065.34 6841.41,1000.64C6875.6,935.955 6921.96,886.291 6980.49,851.653C7039.02,817.016 7105.58,799.697 7180.17,799.697C7273.41,799.697 7348.26,826.439 7404.72,879.923C7461.18,933.408 7489.4,1008.54 7489.4,1105.32C7489.4,1144.03 7482.93,1177.91 7469.98,1206.94C7457.03,1235.98 7430.36,1250.49 7389.95,1250.49L7054.3,1250.49C7057.41,1330.98 7076.32,1388.03 7111.02,1421.64C7145.73,1455.26 7191.05,1472.07 7246.99,1472.07C7282.21,1472.07 7314.85,1466.72 7344.89,1456.03C7374.93,1445.33 7402.9,1430.3 7428.8,1410.95C7438.12,1419.1 7445.64,1431.58 7451.33,1448.39C7457.03,1465.19 7459.88,1479.2 7459.88,1490.41C7459.88,1506.71 7448.23,1526.83 7424.92,1550.77C7401.61,1574.71 7368.46,1595.85 7325.46,1614.19C7282.47,1632.53 7230.93,1641.69 7170.85,1641.69ZM7054.3,1134.36L7211.25,1134.36C7228.86,1134.36 7240,1127.73 7244.66,1114.49C7249.32,1101.25 7251.65,1084.95 7251.65,1065.59C7251.65,1000.39 7243.62,957.348 7227.57,936.464C7211.51,915.58 7192.6,905.137 7170.85,905.137C7153.24,905.137 7135.62,911.759 7118.01,925.003C7100.4,938.247 7085.9,961.423 7074.5,994.533C7063.11,1027.64 7056.37,1074.25 7054.3,1134.36Z" style="fill:rgb(0,151,85);fill-rule:nonzero;"/>
        <path d="M7881,1638.64C7837.49,1638.64 7797.6,1630.74 7761.35,1614.95C7725.09,1599.16 7695.82,1571.91 7673.55,1533.2C7651.27,1494.48 7640.14,1441.51 7640.14,1374.27L7640.14,954.037L7542.24,954.037L7542.24,860.822C7570.21,856.747 7596.63,839.428 7621.49,808.866C7646.35,778.303 7667.85,740.609 7685.98,695.784C7704.11,650.959 7715.76,606.134 7720.94,561.309C7739.59,558.253 7756.68,556.725 7772.22,556.725C7813.66,556.725 7842.41,568.441 7858.47,591.872C7874.52,615.303 7882.55,637.206 7882.55,657.581L7882.55,818.034L8062.81,818.034C8062.81,842.484 8061.52,866.68 8058.93,890.62C8056.34,914.561 8049.34,935.7 8037.95,954.037L7885.66,954.037L7885.66,1384.97C7885.66,1417.57 7892.39,1439.22 7905.86,1449.91C7919.33,1460.61 7936.42,1465.96 7957.14,1465.96C7977.86,1465.96 7998.84,1460.61 8020.08,1449.91C8041.31,1439.22 8058.15,1426.74 8070.58,1412.48C8081.98,1421.64 8089.74,1435.14 8093.89,1452.97C8098.03,1470.8 8100.11,1484.3 8100.11,1493.47C8100.11,1515.88 8092.34,1538.29 8076.8,1560.7C8061.26,1583.12 8037.17,1601.71 8004.54,1616.48C7971.9,1631.25 7930.73,1638.64 7881,1638.64Z" style="fill:rgb(0,151,85);fill-rule:nonzero;"/>
        <path d="M8466.84,1638.64C8423.33,1638.64 8383.44,1630.74 8347.18,1614.95C8310.92,1599.16 8281.66,1571.91 8259.38,1533.2C8237.11,1494.48 8225.97,1441.51 8225.97,1374.27L8225.97,954.037L8128.08,954.037L8128.08,860.822C8156.05,856.747 8182.46,839.428 8207.33,808.866C8232.19,778.303 8253.69,740.609 8271.82,695.784C8289.94,650.959 8301.6,606.134 8306.78,561.309C8325.43,558.253 8342.52,556.725 8358.06,556.725C8399.5,556.725 8428.25,568.441 8444.3,591.872C8460.36,615.303 8468.39,637.206 8468.39,657.581L8468.39,818.034L8648.65,818.034C8648.65,842.484 8647.35,866.68 8644.76,890.62C8642.17,914.561 8635.18,935.7 8623.78,954.037L8471.5,954.037L8471.5,1384.97C8471.5,1417.57 8478.23,1439.22 8491.7,1449.91C8505.17,1460.61 8522.26,1465.96 8542.98,1465.96C8563.7,1465.96 8584.68,1460.61 8605.91,1449.91C8627.15,1439.22 8643.99,1426.74 8656.42,1412.48C8667.81,1421.64 8675.58,1435.14 8679.73,1452.97C8683.87,1470.8 8685.94,1484.3 8685.94,1493.47C8685.94,1515.88 8678.17,1538.29 8662.63,1560.7C8647.09,1583.12 8623.01,1601.71 8590.37,1616.48C8557.74,1631.25 8516.56,1638.64 8466.84,1638.64Z" style="fill:rgb(0,151,85);fill-rule:nonzero;"/>
        <path d="M9100.84,1641.69C8984.82,1641.69 8892.36,1605.53 8823.47,1533.2C8754.57,1460.87 8720.13,1360.01 8720.13,1230.63C8720.13,1142 8737.22,1065.34 8771.41,1000.64C8805.59,935.955 8851.95,886.291 8910.49,851.653C8969.02,817.016 9035.58,799.697 9110.17,799.697C9203.4,799.697 9278.25,826.439 9334.71,879.923C9391.17,933.408 9419.4,1008.54 9419.4,1105.32C9419.4,1144.03 9412.93,1177.91 9399.98,1206.94C9387.03,1235.98 9360.35,1250.49 9319.95,1250.49L8984.3,1250.49C8987.41,1330.98 9006.31,1388.03 9041.02,1421.64C9075.72,1455.26 9121.05,1472.07 9176.99,1472.07C9212.21,1472.07 9244.84,1466.72 9274.89,1456.03C9304.93,1445.33 9332.9,1430.3 9358.8,1410.95C9368.12,1419.1 9375.63,1431.58 9381.33,1448.39C9387.03,1465.19 9389.88,1479.2 9389.88,1490.41C9389.88,1506.71 9378.22,1526.83 9354.91,1550.77C9331.6,1574.71 9298.45,1595.85 9255.46,1614.19C9212.47,1632.53 9160.93,1641.69 9100.84,1641.69ZM8984.3,1134.36L9141.25,1134.36C9158.86,1134.36 9169.99,1127.73 9174.66,1114.49C9179.32,1101.25 9181.65,1084.95 9181.65,1065.59C9181.65,1000.39 9173.62,957.348 9157.56,936.464C9141.51,915.58 9122.6,905.137 9100.84,905.137C9083.23,905.137 9065.62,911.759 9048.01,925.003C9030.4,938.247 9015.9,961.423 9004.5,994.533C8993.1,1027.64 8986.37,1074.25 8984.3,1134.36Z" style="fill:rgb(0,151,85);fill-rule:nonzero;"/>
    </g>
    <g transform="matrix(1.09194,0,0,0.954329,2608.17,13.7014)">
        <path d="M4085.73,1649.33C4010.05,1649.33 3939.71,1628.96 3874.71,1588.21C3809.72,1547.46 3757.63,1485.57 3718.45,1402.54C3679.28,1319.51 3659.69,1215.35 3659.69,1090.04C3659.69,969.828 3677.28,869.481 3712.45,789C3747.62,708.519 3796.59,647.648 3859.36,606.389C3922.13,565.13 3994.91,544.5 4077.72,544.5C4097.3,544.5 4119.56,547.556 4144.49,553.669C4169.42,559.781 4191.24,567.931 4209.94,578.119C4218.84,573.025 4230.86,568.186 4245.99,563.602C4261.13,559.017 4276.49,554.687 4292.07,550.612C4307.65,546.537 4319.9,544.5 4328.8,544.5C4340.37,577.1 4348.83,615.558 4354.17,659.873C4359.52,704.189 4363.08,747.995 4364.86,791.292C4366.64,834.589 4367.53,871.519 4367.53,902.081L4216.61,902.081C4209.49,835.862 4193.69,781.869 4169.2,740.1C4144.72,698.331 4112.89,677.447 4073.71,677.447C4022.07,677.447 3979.55,705.462 3946.16,761.494C3912.78,817.525 3896.08,909.212 3896.08,1036.56C3896.08,1141.49 3908.55,1225.28 3933.48,1287.93C3958.41,1350.59 3991.35,1395.41 4032.31,1422.41C4073.26,1449.4 4117.34,1462.9 4164.53,1462.9C4205.48,1462.9 4240.21,1453.99 4268.7,1436.16C4297.19,1418.33 4317.22,1399.74 4328.8,1380.38C4340.37,1389.55 4349.5,1403.56 4356.18,1422.41C4362.85,1441.26 4366.19,1457.81 4366.19,1472.07C4366.19,1495.5 4355.29,1521.23 4333.47,1549.24C4311.66,1577.26 4280.05,1600.94 4238.65,1620.3C4197.25,1639.66 4146.27,1649.33 4085.73,1649.33Z" style="fill:rgb(137,24,92);fill-rule:nonzero;"/>
        <path d="M4728.12,1647.81C4664.91,1647.81 4608.82,1632.27 4559.85,1601.2C4510.88,1570.13 4472.81,1524.28 4445.66,1463.67C4418.5,1403.05 4404.92,1327.92 4404.92,1238.27C4404.92,1142.51 4419.17,1062.03 4447.66,996.825C4476.15,931.625 4515.77,882.216 4566.53,848.597C4617.28,814.978 4675.59,798.169 4741.48,798.169C4805.59,798.169 4861.9,813.959 4910.43,845.541C4958.95,877.122 4996.79,923.73 5023.95,985.364C5051.1,1047 5064.68,1123.15 5064.68,1213.82C5064.68,1308.56 5050.44,1388.28 5021.94,1452.97C4993.45,1517.66 4953.83,1566.31 4903.08,1598.91C4852.33,1631.51 4794.01,1647.81 4728.12,1647.81ZM4738.81,1537.78C4757.51,1537.78 4773.76,1530.14 4787.56,1514.86C4801.36,1499.58 4812.04,1471.31 4819.61,1430.05C4827.18,1388.79 4830.96,1328.94 4830.96,1250.49C4830.96,1154.73 4826.95,1082.14 4818.94,1032.74C4810.93,983.327 4799.35,949.962 4784.22,932.644C4769.08,915.325 4751.28,906.666 4730.8,906.666C4712.1,906.666 4695.63,914.306 4681.38,929.587C4667.14,944.869 4656.23,973.394 4648.66,1015.16C4641.09,1056.93 4637.31,1117.55 4637.31,1197.01C4637.31,1291.75 4641.54,1363.58 4650,1412.48C4658.45,1461.38 4670.25,1494.48 4685.39,1511.8C4700.52,1529.12 4718.33,1537.78 4738.81,1537.78Z" style="fill:rgb(137,24,92);fill-rule:nonzero;"/>
        <path d="M5152.83,1627.94C5143.03,1615.72 5135.47,1602.98 5130.12,1589.74C5124.78,1576.49 5122.11,1561.72 5122.11,1545.42C5147.93,1545.42 5166.63,1539.06 5178.2,1526.32C5189.78,1513.59 5195.57,1491.94 5195.57,1461.38L5195.57,649.941C5195.57,626.509 5189.78,607.917 5178.2,594.164C5166.63,580.411 5142.14,573.534 5104.75,573.534L5104.75,512.409C5127.01,498.147 5153.05,485.667 5182.88,474.97C5212.7,464.273 5242.31,455.614 5271.69,448.992C5301.07,442.37 5325.56,439.059 5345.15,439.059C5365.62,439.059 5380.54,444.153 5389.89,454.341C5399.23,464.528 5403.91,482.356 5403.91,507.825L5403.91,1461.38C5403.91,1492.96 5409.47,1514.86 5420.6,1527.08C5431.73,1539.31 5450.65,1545.42 5477.36,1545.42C5477.36,1561.72 5474.47,1576.49 5468.68,1589.74C5462.9,1602.98 5455.11,1615.72 5445.31,1627.94L5152.83,1627.94Z" style="fill:rgb(137,24,92);fill-rule:nonzero;"/>
        <path d="M5574.86,1627.94C5565.07,1615.72 5557.5,1602.98 5552.15,1589.74C5546.81,1576.49 5544.14,1561.72 5544.14,1545.42C5569.96,1545.42 5588.66,1539.06 5600.23,1526.32C5611.81,1513.59 5617.6,1491.94 5617.6,1461.38L5617.6,649.941C5617.6,626.509 5611.81,607.917 5600.23,594.164C5588.66,580.411 5564.18,573.534 5526.78,573.534L5526.78,512.409C5549.04,498.147 5575.08,485.667 5604.91,474.97C5634.74,464.273 5664.34,455.614 5693.72,448.992C5723.1,442.37 5747.59,439.059 5767.18,439.059C5787.66,439.059 5802.57,444.153 5811.92,454.341C5821.27,464.528 5825.94,482.356 5825.94,507.825L5825.94,1461.38C5825.94,1492.96 5831.51,1514.86 5842.64,1527.08C5853.77,1539.31 5872.69,1545.42 5899.4,1545.42C5899.4,1561.72 5896.5,1576.49 5890.72,1589.74C5884.93,1602.98 5877.14,1615.72 5867.34,1627.94L5574.86,1627.94Z" style="fill:rgb(137,24,92);fill-rule:nonzero;"/>
        <path d="M6280.03,1641.69C6180.31,1641.69 6100.84,1605.53 6041.63,1533.2C5982.42,1460.87 5952.82,1360.01 5952.82,1230.63C5952.82,1142 5967.51,1065.34 5996.89,1000.64C6026.27,935.955 6066.12,886.291 6116.42,851.653C6166.73,817.016 6223.93,799.697 6288.04,799.697C6368.17,799.697 6432.5,826.439 6481.03,879.923C6529.55,933.408 6553.81,1008.54 6553.81,1105.32C6553.81,1144.03 6548.25,1177.91 6537.12,1206.94C6525.99,1235.98 6503.06,1250.49 6468.34,1250.49L6179.86,1250.49C6182.53,1330.98 6198.78,1388.03 6228.61,1421.64C6258.43,1455.26 6297.39,1472.07 6345.47,1472.07C6375.74,1472.07 6403.79,1466.72 6429.61,1456.03C6455.43,1445.33 6479.47,1430.3 6501.73,1410.95C6509.74,1419.1 6516.19,1431.58 6521.09,1448.39C6525.99,1465.19 6528.44,1479.2 6528.44,1490.41C6528.44,1506.71 6518.42,1526.83 6498.39,1550.77C6478.35,1574.71 6449.86,1595.85 6412.91,1614.19C6375.96,1632.53 6331.67,1641.69 6280.03,1641.69ZM6179.86,1134.36L6314.75,1134.36C6329.89,1134.36 6339.46,1127.73 6343.46,1114.49C6347.47,1101.25 6349.47,1084.95 6349.47,1065.59C6349.47,1000.39 6342.57,957.348 6328.77,936.464C6314.97,915.58 6298.72,905.137 6280.03,905.137C6264.89,905.137 6249.75,911.759 6234.62,925.003C6219.48,938.247 6207.02,961.423 6197.22,994.533C6187.43,1027.64 6181.64,1074.25 6179.86,1134.36Z" style="fill:rgb(137,24,92);fill-rule:nonzero;"/>
        <path d="M6954.47,1650.86C6889.48,1650.86 6832.27,1634.05 6782.86,1600.43C6733.44,1566.82 6694.71,1518.68 6666.66,1456.03C6638.62,1393.37 6624.6,1318.24 6624.6,1230.63C6624.6,1139.96 6639.73,1062.28 6670,997.589C6700.28,932.898 6741.68,883.489 6794.21,849.361C6846.74,815.233 6905.95,798.169 6971.84,798.169C7040.39,798.169 7092.48,816.761 7128.1,853.945C7163.71,891.13 7181.52,936.719 7181.52,990.712C7181.52,1039.61 7170.83,1077.31 7149.46,1103.79C7128.1,1130.28 7100.49,1143.53 7066.66,1143.53C7039.06,1143.53 7015.91,1131.81 6997.21,1108.38C6978.51,1084.95 6969.16,1056.42 6969.16,1022.8C6969.16,998.353 6972.95,978.487 6980.52,963.206C6988.09,947.925 6997.66,935.191 7009.23,925.003C7000.33,918.891 6992.98,915.07 6987.19,913.542C6981.41,912.014 6975.84,911.25 6970.5,911.25C6953.58,911.25 6936.22,918.891 6918.41,934.172C6900.61,949.453 6885.69,976.45 6873.67,1015.16C6861.65,1053.88 6855.64,1107.87 6855.64,1177.14C6855.64,1289.21 6869.89,1367.9 6898.38,1413.24C6926.87,1458.57 6966.94,1481.24 7018.58,1481.24C7042.62,1481.24 7066.88,1477.17 7091.37,1469.02C7115.85,1460.87 7136.55,1449.15 7153.47,1433.87C7160.59,1444.06 7166.6,1456.54 7171.5,1471.31C7176.4,1486.08 7178.85,1499.07 7178.85,1510.28C7178.85,1531.67 7168.83,1553.32 7148.8,1575.22C7128.76,1597.12 7101.83,1615.21 7067.99,1629.47C7034.16,1643.73 6996.32,1650.86 6954.47,1650.86Z" style="fill:rgb(137,24,92);fill-rule:nonzero;"/>
        <path d="M7511.4,1638.64C7474,1638.64 7439.72,1630.74 7408.56,1614.95C7377.4,1599.16 7352.24,1571.91 7333.1,1533.2C7313.96,1494.48 7304.39,1441.51 7304.39,1374.27L7304.39,954.037L7220.25,954.037L7220.25,860.822C7244.29,856.747 7266.99,839.428 7288.36,808.866C7309.73,778.303 7328.2,740.609 7343.78,695.784C7359.37,650.959 7369.38,606.134 7373.84,561.309C7389.86,558.253 7404.55,556.725 7417.91,556.725C7453.52,556.725 7478.23,568.441 7492.03,591.872C7505.83,615.303 7512.73,637.206 7512.73,657.581L7512.73,818.034L7667.65,818.034C7667.65,842.484 7666.54,866.68 7664.32,890.62C7662.09,914.561 7656.08,935.7 7646.28,954.037L7515.4,954.037L7515.4,1384.97C7515.4,1417.57 7521.19,1439.22 7532.76,1449.91C7544.34,1460.61 7559.03,1465.96 7576.84,1465.96C7594.64,1465.96 7612.67,1460.61 7630.93,1449.91C7649.18,1439.22 7663.65,1426.74 7674.33,1412.48C7684.13,1421.64 7690.8,1435.14 7694.36,1452.97C7697.93,1470.8 7699.71,1484.3 7699.71,1493.47C7699.71,1515.88 7693.03,1538.29 7679.67,1560.7C7666.32,1583.12 7645.62,1601.71 7617.57,1616.48C7589.53,1631.25 7554.13,1638.64 7511.4,1638.64Z" style="fill:rgb(137,24,92);fill-rule:nonzero;"/>
        <path d="M7922.74,691.2C7884.46,691.2 7853.96,678.211 7831.26,652.233C7808.55,626.255 7797.2,591.362 7797.2,547.556C7797.2,504.769 7809,470.131 7832.59,443.644C7856.19,417.156 7887.13,403.912 7925.41,403.912C7964.59,403.912 7995.53,417.156 8018.23,443.644C8040.94,470.131 8052.29,504.769 8052.29,547.556C8052.29,591.362 8040.49,626.255 8016.9,652.233C7993.3,678.211 7961.92,691.2 7922.74,691.2ZM7773.16,1627.94C7763.37,1616.73 7755.8,1604.51 7750.46,1591.27C7745.11,1578.02 7742.44,1562.74 7742.44,1545.42C7768.27,1545.42 7787.41,1539.06 7799.87,1526.32C7812.34,1513.59 7818.57,1491.94 7818.57,1461.38L7818.57,1018.22C7818.57,991.731 7813.01,971.866 7801.88,958.622C7790.75,945.378 7766.93,938.756 7730.42,938.756L7730.42,871.519C7743.78,862.35 7764.26,851.908 7791.86,840.192C7819.46,828.477 7849.51,818.544 7882.01,810.394C7914.51,802.244 7943.67,798.169 7969.49,798.169C7989.97,798.169 8004.66,803.517 8013.56,814.214C8022.46,824.911 8026.91,842.994 8026.91,868.462L8026.91,1462.9C8026.91,1493.47 8033.59,1514.86 8046.95,1527.08C8060.3,1539.31 8079.89,1545.42 8105.71,1545.42C8105.71,1562.74 8103.04,1578.02 8097.7,1591.27C8092.36,1604.51 8084.79,1616.73 8074.99,1627.94L7773.16,1627.94Z" style="fill:rgb(137,24,92);fill-rule:nonzero;"/>
        <path d="M8485.01,1647.81C8421.79,1647.81 8365.7,1632.27 8316.73,1601.2C8267.76,1570.13 8229.69,1524.28 8202.54,1463.67C8175.38,1403.05 8161.81,1327.92 8161.81,1238.27C8161.81,1142.51 8176.05,1062.03 8204.54,996.825C8233.03,931.625 8272.66,882.216 8323.41,848.597C8374.16,814.978 8432.47,798.169 8498.36,798.169C8562.47,798.169 8618.78,813.959 8667.31,845.541C8715.83,877.122 8753.67,923.73 8780.83,985.364C8807.98,1047 8821.56,1123.15 8821.56,1213.82C8821.56,1308.56 8807.32,1388.28 8778.83,1452.97C8750.33,1517.66 8710.71,1566.31 8659.96,1598.91C8609.21,1631.51 8550.89,1647.81 8485.01,1647.81ZM8495.69,1537.78C8514.39,1537.78 8530.64,1530.14 8544.44,1514.86C8558.24,1499.58 8568.92,1471.31 8576.49,1430.05C8584.06,1388.79 8587.84,1328.94 8587.84,1250.49C8587.84,1154.73 8583.84,1082.14 8575.82,1032.74C8567.81,983.327 8556.24,949.962 8541.1,932.644C8525.96,915.325 8508.16,906.666 8487.68,906.666C8468.98,906.666 8452.51,914.306 8438.26,929.587C8424.02,944.869 8413.11,973.394 8405.54,1015.16C8397.97,1056.93 8394.19,1117.55 8394.19,1197.01C8394.19,1291.75 8398.42,1363.58 8406.88,1412.48C8415.34,1461.38 8427.13,1494.48 8442.27,1511.8C8457.41,1529.12 8475.21,1537.78 8495.69,1537.78Z" style="fill:rgb(137,24,92);fill-rule:nonzero;"/>
        <path d="M8928.41,1627.94C8918.61,1616.73 8910.82,1604.51 8905.03,1591.27C8899.25,1578.02 8896.35,1563.25 8896.35,1546.95C8923.06,1546.95 8942.21,1540.33 8953.78,1527.08C8965.36,1513.84 8971.14,1492.45 8971.14,1462.9L8971.14,1016.69C8971.14,990.203 8964.69,970.847 8951.78,958.622C8938.87,946.397 8915.5,940.284 8881.66,940.284L8881.66,871.519C8902.14,858.275 8928.18,846.05 8959.79,834.844C8991.4,823.637 9022.12,814.723 9051.94,808.102C9081.77,801.48 9104.7,798.169 9120.72,798.169C9139.42,798.169 9154.78,804.791 9166.8,818.034C9178.82,831.278 9185.72,859.803 9187.5,903.609C9209.76,872.028 9238.03,846.559 9272.31,827.203C9306.59,807.847 9346.43,798.169 9391.84,798.169C9454.16,798.169 9501.13,816.252 9532.74,852.417C9564.35,888.583 9580.15,949.962 9580.15,1036.56L9580.15,1453.73C9580.15,1503.65 9601.52,1533.2 9644.26,1542.37L9645.59,1586.68C9636.69,1596.87 9622.44,1605.78 9602.85,1613.42C9583.27,1621.06 9562.12,1626.92 9539.42,1631C9516.71,1635.07 9495.57,1637.11 9475.98,1637.11C9437.69,1637.11 9409.42,1628.96 9391.17,1612.66C9372.92,1596.36 9363.79,1570.38 9363.79,1534.73L9363.79,1057.95C9363.79,1016.18 9355.78,987.147 9339.75,970.847C9323.73,954.547 9304.14,946.397 9280.99,946.397C9244.48,946.397 9213.77,963.206 9188.84,996.825L9188.84,1462.9C9188.84,1492.45 9194.4,1513.84 9205.53,1527.08C9216.66,1540.33 9235.58,1546.95 9262.29,1546.95C9262.29,1577.51 9252.05,1604.51 9231.57,1627.94L8928.41,1627.94Z" style="fill:rgb(137,24,92);fill-rule:nonzero;"/>
    </g>
    <g id="Authority">
        <g transform="matrix(0.614901,0,0,0.824795,3708.48,-5.98404)">
            <path d="M3726.64,1133.34C3726.64,1160.2 3715.45,1180.95 3693.08,1195.6C3670.7,1210.25 3643.95,1217.57 3612.84,1217.57C3581.73,1217.57 3554.72,1210.25 3531.79,1195.6C3509.42,1180.95 3498.23,1160.2 3498.23,1133.34C3498.23,1107.3 3509.42,1086.55 3531.79,1071.09C3554.17,1056.03 3581.19,1048.51 3612.84,1048.51C3644.5,1048.51 3671.24,1056.03 3693.08,1071.09C3715.45,1086.55 3726.64,1107.3 3726.64,1133.34ZM3613.86,1386.03C3613.86,1412.48 3602.67,1433.43 3580.29,1448.9C3557.91,1463.54 3531.17,1470.87 3500.06,1470.87C3468.95,1470.87 3441.93,1463.54 3419.01,1448.9C3396.63,1433.43 3385.44,1412.48 3385.44,1386.03C3385.44,1359.17 3396.63,1338.42 3419.01,1323.77C3441.39,1308.72 3468.4,1301.19 3500.06,1301.19C3531.72,1301.19 3558.46,1308.72 3580.29,1323.77C3602.67,1338.42 3613.86,1359.17 3613.86,1386.03Z" style="fill:rgb(210,76,43);fill-rule:nonzero;"/>
        </g>
        <g transform="matrix(0.535714,0,0,1,2869.75,5.68434e-13)">
            <path d="M6357.91,1481.78C6326.3,1532.67 6237.43,1567 6137.32,1567L5957.78,1567C5929.81,1536.39 5941.85,1506.88 5968.98,1478.38L6030.81,1478.38C6060.9,1478.38 6087.61,1468.06 6097.1,1452.76C6170.69,1334.23 6479.92,836.195 6605.08,634.613C6636.68,583.716 6725.56,549.375 6825.68,549.375L6994,549.375C7018.9,576.433 7026.59,605.943 7016.4,638L6932.38,638C6902.3,638 6875.59,648.317 6866.09,663.61C6792.48,782.134 6483.12,1280.2 6357.91,1481.78Z" style="fill:rgb(235,167,14);"/>
        </g>
        <g transform="matrix(0.535714,0,0,1,2618.88,5.68434e-13)">
            <path d="M6357.91,1481.78C6326.3,1532.67 6237.43,1567 6137.32,1567C6048.58,1567 5957.78,1567 5957.78,1567C5929.81,1536.39 5941.85,1506.88 5968.98,1478.38L6030.81,1478.38C6060.9,1478.38 6087.61,1468.06 6097.1,1452.76C6170.69,1334.23 6479.92,836.195 6605.08,634.613C6636.68,583.716 6725.56,549.375 6825.68,549.375C6909.79,549.375 6994,549.375 6994,549.375C7018.9,576.433 7026.59,605.943 7016.4,638L6932.38,638C6902.3,638 6875.59,648.317 6866.09,663.61C6792.48,782.134 6483.12,1280.2 6357.91,1481.78Z" style="fill:rgb(235,167,14);"/>
        </g>
    </g>
</svg>
