<?xml version="1.0" encoding="UTF-8" standalone="no"?>
<!DOCTYPE svg PUBLIC "-//W3C//DTD SVG 1.1//EN" "http://www.w3.org/Graphics/SVG/1.1/DTD/svg11.dtd">
<svg width="100%" height="100%" viewBox="0 0 10000 2000" version="1.1" xmlns="http://www.w3.org/2000/svg" xmlns:xlink="http://www.w3.org/1999/xlink" xml:space="preserve" xmlns:serif="http://www.serif.com/" style="fill-rule:evenodd;clip-rule:evenodd;stroke-linejoin:round;stroke-miterlimit:2;">
    <g transform="matrix(1,0,0,1,-3326.3,-8.34888e-14)">
        <g transform="matrix(1458.33,0,0,1458.33,3626.3,1544.47)">
            <path d="M0.017,-0L0.017,-0.025L0.065,-0.025L0.065,-0.675L0.017,-0.675L0.017,-0.7L0.236,-0.7C0.269,-0.7 0.301,-0.687 0.33,-0.661C0.359,-0.635 0.382,-0.596 0.4,-0.545C0.418,-0.494 0.427,-0.431 0.427,-0.356C0.427,-0.28 0.418,-0.215 0.4,-0.162C0.382,-0.109 0.358,-0.069 0.329,-0.042C0.3,-0.014 0.269,-0 0.236,-0L0.017,-0ZM0.216,-0.025L0.229,-0.025C0.238,-0.025 0.246,-0.038 0.253,-0.064C0.26,-0.09 0.265,-0.127 0.269,-0.176C0.273,-0.226 0.276,-0.285 0.276,-0.356C0.276,-0.421 0.273,-0.478 0.269,-0.525C0.265,-0.573 0.26,-0.61 0.253,-0.636C0.246,-0.662 0.238,-0.675 0.229,-0.675L0.216,-0.675L0.216,-0.025Z" style="fill:rgb(0,151,85);fill-rule:nonzero;"/>
        </g>
        <g transform="matrix(1458.33,0,0,1458.33,4286.2,1544.47)">
            <path d="M0.009,-0L0.009,-0.025L0.057,-0.025L0.057,-0.499L0.009,-0.499L0.009,-0.524L0.207,-0.524L0.207,-0.025L0.255,-0.025L0.255,-0L0.009,-0ZM0.132,-0.571C0.107,-0.571 0.085,-0.58 0.067,-0.598C0.049,-0.616 0.041,-0.638 0.041,-0.664C0.041,-0.689 0.049,-0.71 0.067,-0.728C0.085,-0.746 0.107,-0.755 0.132,-0.755C0.157,-0.755 0.179,-0.746 0.197,-0.728C0.214,-0.71 0.223,-0.689 0.223,-0.664C0.223,-0.638 0.214,-0.616 0.197,-0.598C0.179,-0.58 0.157,-0.571 0.132,-0.571Z" style="fill:rgb(0,151,85);fill-rule:nonzero;"/>
        </g>
        <g transform="matrix(1458.33,0,0,1458.33,4670.83,1544.47)">
            <path d="M0.159,0.011C0.141,0.011 0.126,0.008 0.114,0.003C0.102,-0.002 0.093,-0.007 0.085,-0.012C0.077,-0.017 0.069,-0.02 0.063,-0.02C0.057,-0.02 0.054,-0.018 0.052,-0.015C0.05,-0.011 0.049,-0.006 0.048,-0L0.025,-0L0.025,-0.174L0.053,-0.174C0.055,-0.157 0.059,-0.14 0.066,-0.122C0.072,-0.103 0.08,-0.086 0.09,-0.069C0.1,-0.053 0.111,-0.04 0.123,-0.03C0.135,-0.019 0.147,-0.014 0.16,-0.014C0.171,-0.014 0.18,-0.016 0.187,-0.019C0.194,-0.022 0.199,-0.027 0.202,-0.034C0.206,-0.04 0.208,-0.048 0.208,-0.057C0.208,-0.07 0.204,-0.084 0.196,-0.099C0.188,-0.114 0.177,-0.129 0.165,-0.144C0.152,-0.16 0.139,-0.175 0.125,-0.19C0.094,-0.222 0.07,-0.254 0.052,-0.285C0.034,-0.317 0.025,-0.353 0.025,-0.395C0.025,-0.428 0.032,-0.455 0.046,-0.474C0.06,-0.494 0.078,-0.508 0.099,-0.516C0.12,-0.525 0.141,-0.529 0.163,-0.529C0.179,-0.529 0.192,-0.527 0.202,-0.523C0.212,-0.519 0.22,-0.514 0.227,-0.51C0.233,-0.506 0.238,-0.504 0.243,-0.504C0.247,-0.504 0.25,-0.506 0.252,-0.509C0.254,-0.512 0.255,-0.517 0.255,-0.524L0.279,-0.524L0.279,-0.355L0.252,-0.355C0.25,-0.368 0.247,-0.384 0.242,-0.401C0.238,-0.418 0.232,-0.434 0.225,-0.449C0.218,-0.465 0.209,-0.478 0.199,-0.488C0.189,-0.498 0.177,-0.503 0.164,-0.503C0.151,-0.503 0.139,-0.498 0.129,-0.488C0.119,-0.478 0.114,-0.466 0.114,-0.45C0.114,-0.43 0.122,-0.411 0.138,-0.391C0.153,-0.372 0.172,-0.351 0.195,-0.329C0.212,-0.311 0.229,-0.293 0.244,-0.273C0.26,-0.253 0.273,-0.231 0.283,-0.207C0.293,-0.183 0.298,-0.155 0.298,-0.124C0.298,-0.091 0.292,-0.065 0.279,-0.045C0.267,-0.025 0.251,-0.011 0.23,-0.002C0.209,0.007 0.185,0.011 0.159,0.011Z" style="fill:rgb(0,151,85);fill-rule:nonzero;"/>
        </g>
        <g transform="matrix(1458.33,0,0,1458.33,5140.78,1544.47)">
            <path d="M0.011,-0L0.011,-0.025L0.059,-0.025L0.059,-0.725L0.011,-0.725L0.011,-0.75L0.209,-0.75L0.209,-0.33L0.345,-0.499L0.293,-0.499L0.293,-0.524L0.43,-0.524L0.43,-0.499L0.377,-0.499L0.32,-0.426L0.432,-0.025L0.474,-0.025L0.474,-0L0.24,-0L0.24,-0.025L0.276,-0.025L0.203,-0.292L0.209,-0.295L0.209,-0.025L0.24,-0.025L0.24,-0L0.011,-0Z" style="fill:rgb(0,151,85);fill-rule:nonzero;"/>
        </g>
        <g transform="matrix(1458.33,0,0,1458.33,5796.3,1544.47)">
            <path d="M0.217,0.01C0.189,0.01 0.163,0.004 0.139,-0.008C0.116,-0.019 0.095,-0.037 0.078,-0.06C0.06,-0.083 0.047,-0.111 0.037,-0.145C0.028,-0.179 0.023,-0.219 0.023,-0.264C0.023,-0.313 0.029,-0.354 0.041,-0.388C0.053,-0.422 0.069,-0.45 0.089,-0.47C0.108,-0.491 0.128,-0.506 0.15,-0.515C0.172,-0.524 0.192,-0.529 0.212,-0.529C0.235,-0.529 0.257,-0.524 0.279,-0.514C0.3,-0.503 0.318,-0.488 0.335,-0.468C0.351,-0.448 0.364,-0.424 0.374,-0.395C0.383,-0.366 0.388,-0.333 0.388,-0.297C0.388,-0.29 0.388,-0.283 0.388,-0.277C0.387,-0.27 0.387,-0.263 0.386,-0.256L0.165,-0.256L0.165,-0.281L0.244,-0.281C0.243,-0.337 0.242,-0.381 0.24,-0.413C0.237,-0.446 0.234,-0.469 0.229,-0.483C0.224,-0.497 0.219,-0.504 0.212,-0.504C0.204,-0.504 0.198,-0.496 0.192,-0.482C0.186,-0.468 0.182,-0.443 0.178,-0.409C0.175,-0.375 0.173,-0.328 0.173,-0.268C0.173,-0.224 0.174,-0.187 0.176,-0.155C0.178,-0.124 0.181,-0.098 0.186,-0.078C0.191,-0.058 0.198,-0.043 0.207,-0.034C0.215,-0.024 0.226,-0.02 0.24,-0.02C0.269,-0.02 0.293,-0.026 0.31,-0.039C0.328,-0.052 0.34,-0.066 0.347,-0.081L0.367,-0.065C0.359,-0.046 0.342,-0.029 0.316,-0.013C0.29,0.002 0.257,0.01 0.217,0.01Z" style="fill:rgb(0,151,85);fill-rule:nonzero;"/>
        </g>
        <g transform="matrix(1458.33,0,0,1458.33,6394.95,1544.47)">
            <path d="M0.201,0.009C0.179,0.009 0.158,0.005 0.137,-0.003C0.116,-0.011 0.099,-0.025 0.086,-0.046C0.073,-0.067 0.067,-0.097 0.067,-0.137L0.067,-0.499L-0.001,-0.499L-0.001,-0.524L0.067,-0.524C0.086,-0.524 0.104,-0.531 0.121,-0.545C0.137,-0.559 0.152,-0.578 0.164,-0.601C0.175,-0.624 0.184,-0.65 0.19,-0.678L0.217,-0.678L0.217,-0.524L0.296,-0.524L0.296,-0.499L0.217,-0.499L0.217,-0.058C0.217,-0.044 0.22,-0.035 0.228,-0.03C0.235,-0.025 0.241,-0.022 0.247,-0.022C0.253,-0.022 0.259,-0.023 0.264,-0.026C0.269,-0.029 0.273,-0.031 0.276,-0.034L0.29,-0.015C0.28,-0.007 0.268,-0.001 0.254,0.003C0.24,0.007 0.222,0.009 0.201,0.009Z" style="fill:rgb(0,151,85);fill-rule:nonzero;"/>
        </g>
        <g transform="matrix(1458.33,0,0,1458.33,6836.46,1544.47)">
            <path d="M0.201,0.009C0.179,0.009 0.158,0.005 0.137,-0.003C0.116,-0.011 0.099,-0.025 0.086,-0.046C0.073,-0.067 0.067,-0.097 0.067,-0.137L0.067,-0.499L-0.001,-0.499L-0.001,-0.524L0.067,-0.524C0.086,-0.524 0.104,-0.531 0.121,-0.545C0.137,-0.559 0.152,-0.578 0.164,-0.601C0.175,-0.624 0.184,-0.65 0.19,-0.678L0.217,-0.678L0.217,-0.524L0.296,-0.524L0.296,-0.499L0.217,-0.499L0.217,-0.058C0.217,-0.044 0.22,-0.035 0.228,-0.03C0.235,-0.025 0.241,-0.022 0.247,-0.022C0.253,-0.022 0.259,-0.023 0.264,-0.026C0.269,-0.029 0.273,-0.031 0.276,-0.034L0.29,-0.015C0.28,-0.007 0.268,-0.001 0.254,0.003C0.24,0.007 0.222,0.009 0.201,0.009Z" style="fill:rgb(0,151,85);fill-rule:nonzero;"/>
        </g>
        <g transform="matrix(1458.33,0,0,1458.33,7256.09,1544.47)">
            <path d="M0.217,0.01C0.189,0.01 0.163,0.004 0.139,-0.008C0.116,-0.019 0.095,-0.037 0.078,-0.06C0.06,-0.083 0.047,-0.111 0.037,-0.145C0.028,-0.179 0.023,-0.219 0.023,-0.264C0.023,-0.313 0.029,-0.354 0.041,-0.388C0.053,-0.422 0.069,-0.45 0.089,-0.47C0.108,-0.491 0.128,-0.506 0.15,-0.515C0.172,-0.524 0.192,-0.529 0.212,-0.529C0.235,-0.529 0.257,-0.524 0.279,-0.514C0.3,-0.503 0.318,-0.488 0.335,-0.468C0.351,-0.448 0.364,-0.424 0.374,-0.395C0.383,-0.366 0.388,-0.333 0.388,-0.297C0.388,-0.29 0.388,-0.283 0.388,-0.277C0.387,-0.27 0.387,-0.263 0.386,-0.256L0.165,-0.256L0.165,-0.281L0.244,-0.281C0.243,-0.337 0.242,-0.381 0.24,-0.413C0.237,-0.446 0.234,-0.469 0.229,-0.483C0.224,-0.497 0.219,-0.504 0.212,-0.504C0.204,-0.504 0.198,-0.496 0.192,-0.482C0.186,-0.468 0.182,-0.443 0.178,-0.409C0.175,-0.375 0.173,-0.328 0.173,-0.268C0.173,-0.224 0.174,-0.187 0.176,-0.155C0.178,-0.124 0.181,-0.098 0.186,-0.078C0.191,-0.058 0.198,-0.043 0.207,-0.034C0.215,-0.024 0.226,-0.02 0.24,-0.02C0.269,-0.02 0.293,-0.026 0.31,-0.039C0.328,-0.052 0.34,-0.066 0.347,-0.081L0.367,-0.065C0.359,-0.046 0.342,-0.029 0.316,-0.013C0.29,0.002 0.257,0.01 0.217,0.01Z" style="fill:rgb(0,151,85);fill-rule:nonzero;"/>
        </g>
        <g transform="matrix(1458.33,0,0,1458.33,7854.74,1544.47)">
        </g>
    </g>
    <g transform="matrix(1,0,0,1,1952.58,4.81257)">
        <g transform="matrix(1458.33,0,0,1458.33,3626.3,1544.47)">
            <path d="M0.009,-0L0.009,-0.025L0.055,-0.025L0.055,-0.675L0.009,-0.675L0.009,-0.7L0.248,-0.7L0.248,-0.675L0.203,-0.675L0.203,-0.372L0.365,-0.675L0.321,-0.675L0.321,-0.7L0.437,-0.7L0.437,-0.675L0.394,-0.675L0.293,-0.487L0.303,-0.518L0.423,-0.025L0.459,-0.025L0.459,-0L0.237,-0L0.237,-0.025L0.268,-0.025L0.191,-0.365L0.203,-0.36L0.203,-0.025L0.234,-0.025L0.234,-0L0.009,-0Z" style="fill:rgb(137,24,92);fill-rule:nonzero;"/>
        </g>
        <g transform="matrix(1458.33,0,0,1458.33,4308.44,1544.47)">
            <path d="M0.009,-0L0.009,-0.025L0.057,-0.025L0.057,-0.499L0.009,-0.499L0.009,-0.524L0.207,-0.524L0.207,-0.025L0.255,-0.025L0.255,-0L0.009,-0ZM0.132,-0.571C0.107,-0.571 0.085,-0.58 0.067,-0.598C0.049,-0.616 0.041,-0.638 0.041,-0.664C0.041,-0.689 0.049,-0.71 0.067,-0.728C0.085,-0.746 0.107,-0.755 0.132,-0.755C0.157,-0.755 0.179,-0.746 0.197,-0.728C0.214,-0.71 0.223,-0.689 0.223,-0.664C0.223,-0.638 0.214,-0.616 0.197,-0.598C0.179,-0.58 0.157,-0.571 0.132,-0.571Z" style="fill:rgb(137,24,92);fill-rule:nonzero;"/>
        </g>
        <g transform="matrix(1458.33,0,0,1458.33,4671.2,1544.47)">
            <path d="M0.201,0.009C0.179,0.009 0.158,0.005 0.137,-0.003C0.116,-0.011 0.099,-0.025 0.086,-0.046C0.073,-0.067 0.067,-0.097 0.067,-0.137L0.067,-0.499L-0.001,-0.499L-0.001,-0.524L0.067,-0.524C0.086,-0.524 0.104,-0.531 0.121,-0.545C0.137,-0.559 0.152,-0.578 0.164,-0.601C0.175,-0.624 0.184,-0.65 0.19,-0.678L0.217,-0.678L0.217,-0.524L0.296,-0.524L0.296,-0.499L0.217,-0.499L0.217,-0.058C0.217,-0.044 0.22,-0.035 0.228,-0.03C0.235,-0.025 0.241,-0.022 0.247,-0.022C0.253,-0.022 0.259,-0.023 0.264,-0.026C0.269,-0.029 0.273,-0.031 0.276,-0.034L0.29,-0.015C0.28,-0.007 0.268,-0.001 0.254,0.003C0.24,0.007 0.222,0.009 0.201,0.009Z" style="fill:rgb(137,24,92);fill-rule:nonzero;"/>
        </g>
        <g transform="matrix(1458.33,0,0,1458.33,5090.83,1544.47)">
            <path d="M0.21,0.011C0.186,0.011 0.163,0.005 0.141,-0.006C0.119,-0.017 0.099,-0.034 0.081,-0.056C0.063,-0.079 0.049,-0.107 0.039,-0.142C0.029,-0.176 0.024,-0.217 0.024,-0.264C0.024,-0.314 0.03,-0.357 0.044,-0.391C0.057,-0.425 0.073,-0.452 0.094,-0.472C0.114,-0.492 0.135,-0.507 0.157,-0.516C0.18,-0.525 0.2,-0.529 0.218,-0.529C0.243,-0.529 0.265,-0.523 0.285,-0.511C0.304,-0.498 0.32,-0.482 0.331,-0.461C0.343,-0.44 0.348,-0.416 0.348,-0.39C0.348,-0.363 0.343,-0.343 0.332,-0.329C0.321,-0.316 0.308,-0.309 0.291,-0.309C0.274,-0.309 0.26,-0.315 0.249,-0.326C0.238,-0.338 0.233,-0.354 0.233,-0.374C0.233,-0.388 0.236,-0.4 0.242,-0.411C0.248,-0.421 0.254,-0.43 0.26,-0.439C0.266,-0.447 0.269,-0.456 0.269,-0.465C0.269,-0.478 0.265,-0.488 0.257,-0.494C0.249,-0.5 0.239,-0.503 0.228,-0.503C0.217,-0.503 0.207,-0.495 0.201,-0.479C0.194,-0.462 0.189,-0.442 0.186,-0.417C0.183,-0.392 0.181,-0.366 0.18,-0.339C0.18,-0.312 0.179,-0.289 0.179,-0.268C0.179,-0.241 0.18,-0.213 0.181,-0.184C0.183,-0.155 0.185,-0.127 0.189,-0.102C0.193,-0.077 0.199,-0.057 0.207,-0.041C0.215,-0.026 0.226,-0.018 0.239,-0.018C0.259,-0.018 0.275,-0.025 0.288,-0.039C0.3,-0.052 0.308,-0.066 0.312,-0.08L0.333,-0.064C0.325,-0.044 0.311,-0.027 0.291,-0.012C0.271,0.003 0.244,0.011 0.21,0.011Z" style="fill:rgb(137,24,92);fill-rule:nonzero;"/>
        </g>
        <g transform="matrix(1458.33,0,0,1458.33,5622.4,1544.47)">
            <path d="M0.016,-0L0.016,-0.025L0.064,-0.025L0.064,-0.725L0.016,-0.725L0.016,-0.75L0.214,-0.75L0.214,-0.471C0.215,-0.476 0.218,-0.482 0.224,-0.492C0.23,-0.501 0.239,-0.51 0.252,-0.517C0.265,-0.525 0.282,-0.529 0.304,-0.529C0.327,-0.529 0.348,-0.524 0.367,-0.513C0.385,-0.502 0.399,-0.484 0.41,-0.46C0.42,-0.435 0.426,-0.401 0.426,-0.359L0.426,-0.025L0.472,-0.025L0.472,-0L0.245,-0L0.245,-0.025L0.276,-0.025L0.276,-0.356C0.276,-0.398 0.274,-0.428 0.271,-0.447C0.268,-0.465 0.262,-0.475 0.254,-0.475C0.248,-0.475 0.242,-0.471 0.236,-0.463C0.23,-0.456 0.225,-0.446 0.221,-0.432C0.217,-0.419 0.214,-0.403 0.214,-0.386L0.214,-0.025L0.245,-0.025L0.245,-0L0.016,-0Z" style="fill:rgb(137,24,92);fill-rule:nonzero;"/>
        </g>
        <g transform="matrix(1458.33,0,0,1458.33,6324.95,1544.47)">
            <path d="M0.217,0.01C0.189,0.01 0.163,0.004 0.139,-0.008C0.116,-0.019 0.095,-0.037 0.078,-0.06C0.06,-0.083 0.047,-0.111 0.037,-0.145C0.028,-0.179 0.023,-0.219 0.023,-0.264C0.023,-0.313 0.029,-0.354 0.041,-0.388C0.053,-0.422 0.069,-0.45 0.089,-0.47C0.108,-0.491 0.128,-0.506 0.15,-0.515C0.172,-0.524 0.192,-0.529 0.212,-0.529C0.235,-0.529 0.257,-0.524 0.279,-0.514C0.3,-0.503 0.318,-0.488 0.335,-0.468C0.351,-0.448 0.364,-0.424 0.374,-0.395C0.383,-0.366 0.388,-0.333 0.388,-0.297C0.388,-0.29 0.388,-0.283 0.388,-0.277C0.387,-0.27 0.387,-0.263 0.386,-0.256L0.165,-0.256L0.165,-0.281L0.244,-0.281C0.243,-0.337 0.242,-0.381 0.24,-0.413C0.237,-0.446 0.234,-0.469 0.229,-0.483C0.224,-0.497 0.219,-0.504 0.212,-0.504C0.204,-0.504 0.198,-0.496 0.192,-0.482C0.186,-0.468 0.182,-0.443 0.178,-0.409C0.175,-0.375 0.173,-0.328 0.173,-0.268C0.173,-0.224 0.174,-0.187 0.176,-0.155C0.178,-0.124 0.181,-0.098 0.186,-0.078C0.191,-0.058 0.198,-0.043 0.207,-0.034C0.215,-0.024 0.226,-0.02 0.24,-0.02C0.269,-0.02 0.293,-0.026 0.31,-0.039C0.328,-0.052 0.34,-0.066 0.347,-0.081L0.367,-0.065C0.359,-0.046 0.342,-0.029 0.316,-0.013C0.29,0.002 0.257,0.01 0.217,0.01Z" style="fill:rgb(137,24,92);fill-rule:nonzero;"/>
        </g>
        <g transform="matrix(1458.33,0,0,1458.33,6923.59,1544.47)">
            <path d="M0.016,-0L0.016,-0.025L0.065,-0.025L0.065,-0.499L0.016,-0.499L0.016,-0.524L0.212,-0.524L0.212,-0.465C0.214,-0.472 0.218,-0.48 0.224,-0.49C0.23,-0.5 0.24,-0.509 0.252,-0.517C0.265,-0.525 0.281,-0.529 0.302,-0.529C0.326,-0.529 0.347,-0.524 0.365,-0.515C0.384,-0.505 0.398,-0.489 0.409,-0.464C0.419,-0.44 0.424,-0.405 0.424,-0.359L0.424,-0.025L0.472,-0.025L0.472,-0L0.244,-0L0.244,-0.025L0.274,-0.025L0.274,-0.358C0.274,-0.399 0.273,-0.429 0.27,-0.449C0.267,-0.469 0.261,-0.479 0.252,-0.479C0.247,-0.479 0.243,-0.477 0.238,-0.472C0.234,-0.468 0.23,-0.461 0.227,-0.453C0.224,-0.444 0.221,-0.435 0.219,-0.424C0.217,-0.413 0.215,-0.401 0.215,-0.388L0.215,-0.025L0.244,-0.025L0.244,-0L0.016,-0Z" style="fill:rgb(137,24,92);fill-rule:nonzero;"/>
        </g>
        <g transform="matrix(1458.33,0,0,1458.33,7625.05,1544.47)">
        </g>
    </g>
    <g transform="matrix(0.745519,0,0,1,2146.68,-255.989)">
        <path d="M3651.73,1133.34C3651.73,1160.2 3640.54,1180.95 3618.16,1195.6C3595.78,1210.25 3569.04,1217.57 3537.93,1217.57C3506.82,1217.57 3479.8,1210.25 3456.88,1195.6C3434.5,1180.95 3423.31,1160.2 3423.31,1133.34C3423.31,1107.3 3434.5,1086.55 3456.88,1071.09C3479.26,1056.03 3506.27,1048.51 3537.93,1048.51C3569.59,1048.51 3596.33,1056.03 3618.16,1071.09C3640.54,1086.55 3651.73,1107.3 3651.73,1133.34ZM3502.63,1386.03C3502.63,1412.48 3491.45,1433.43 3469.07,1448.9C3446.69,1463.54 3419.95,1470.87 3388.84,1470.87C3357.72,1470.87 3330.71,1463.54 3307.78,1448.9C3285.41,1433.43 3274.22,1412.48 3274.22,1386.03C3274.22,1359.17 3285.41,1338.42 3307.78,1323.77C3330.16,1308.72 3357.18,1301.19 3388.84,1301.19C3420.49,1301.19 3447.24,1308.72 3469.07,1323.77C3491.45,1338.42 3502.63,1359.17 3502.63,1386.03Z" style="fill:rgb(235,167,14);fill-rule:nonzero;"/>
    </g>
    <g transform="matrix(1.14218,0,0,1.22852,457.093,-238.509)">
        <g transform="matrix(1,0,0,1,474.871,0)">
            <path d="M3746.15,627.363L3353.57,1459.88L3237.58,1459.88L3631.47,627.363L3746.15,627.363Z" style="fill:rgb(210,76,43);fill-rule:nonzero;"/>
        </g>
        <g transform="matrix(1,0,0,1,689.022,0)">
            <path d="M3746.15,627.363L3353.57,1459.88L3237.58,1459.88L3631.47,627.363L3746.15,627.363Z" style="fill:rgb(210,76,43);fill-rule:nonzero;"/>
        </g>
    </g>
</svg>
