<?xml version="1.0" encoding="UTF-8" standalone="no"?>
<!DOCTYPE svg PUBLIC "-//W3C//DTD SVG 1.1//EN" "http://www.w3.org/Graphics/SVG/1.1/DTD/svg11.dtd">
<svg width="100%" height="100%" viewBox="0 0 2000 2000" version="1.1" xmlns="http://www.w3.org/2000/svg" xmlns:xlink="http://www.w3.org/1999/xlink" xml:space="preserve" xmlns:serif="http://www.serif.com/" style="fill-rule:evenodd;clip-rule:evenodd;stroke-linejoin:round;stroke-miterlimit:2;">
    <g id="Mono" transform="matrix(0.389864,0,0,0.491461,254.191,-67.5765)">
        <rect x="-652" y="137.501" width="5130" height="4069.5" style="fill:none;"/>
        <g transform="matrix(4.99712,0,0,3.96409,703.325,612.152)">
            <path d="M0,787.177C0,800.072 10.453,810.525 23.348,810.525C40.694,810.525 57.037,794.848 72.381,763.496C87.725,732.141 100.285,685.008 110.071,622.07C119.848,559.145 124.747,480.541 124.747,386.25C124.747,300.424 120.078,227.043 110.739,166.107C101.399,105.182 89.497,58.371 75.049,25.684C60.591,-7.005 45.581,-23.349 30.019,-23.349L23.348,-23.349C10.453,-23.349 0,-12.895 0,-0L0,787.177ZM-224.144,837.209L-224.144,833.874C-224.144,820.979 -213.691,810.525 -200.796,810.525L-184.118,810.525C-171.223,810.525 -160.77,800.072 -160.77,787.177L-160.77,-0C-160.77,-12.895 -171.223,-23.349 -184.118,-23.349L-200.796,-23.349C-213.691,-23.349 -224.144,-33.802 -224.144,-46.697L-224.144,-50.033C-224.144,-62.928 -213.691,-73.381 -200.796,-73.381L34.023,-73.381C77.602,-73.381 118.18,-56.14 155.768,-21.681C193.345,12.79 223.698,64.042 246.827,132.086C269.946,200.13 281.516,284.851 281.516,386.25C281.516,488.546 269.946,574.936 246.827,645.418C223.698,715.913 193.229,769.395 155.434,805.854C117.628,842.327 77.155,860.558 34.023,860.558L-200.796,860.558C-213.691,860.558 -224.144,850.104 -224.144,837.209" style="fill:white;fill-rule:nonzero;"/>
        </g>
        <g transform="matrix(4.99712,0,0,3.96409,4242.75,2279.87)">
            <path d="M0,427.744L0,427.777C0,433.981 -5.037,439.018 -11.241,439.018L-188.856,439.018C-195.093,439.018 -200.13,433.981 -200.13,427.777L-200.13,427.744C-200.13,421.54 -195.093,416.503 -188.856,416.503L-179.95,416.503C-171.611,416.503 -166.174,407.698 -169.877,400.226L-238.455,262.503L-239.222,266.606C-239.355,267.273 -239.389,267.94 -239.389,268.641L-239.389,405.263C-239.389,411.467 -234.352,416.503 -228.148,416.503L-219.809,416.503C-213.572,416.503 -208.535,421.54 -208.535,427.744L-208.535,427.777C-208.535,433.981 -213.572,439.018 -219.809,439.018L-388.986,439.018C-395.223,439.018 -400.26,433.981 -400.26,427.777L-400.26,427.744C-400.26,421.54 -395.223,416.503 -388.986,416.503L-363.336,416.503C-357.132,416.503 -352.095,411.467 -352.095,405.263L-352.095,22.481C-352.095,16.277 -357.132,11.241 -363.336,11.241L-388.986,11.241C-395.223,11.241 -400.26,6.204 -400.26,-0L-400.26,-0.033C-400.26,-6.237 -395.223,-11.274 -388.986,-11.274L-250.663,-11.274C-244.458,-11.274 -239.389,-6.237 -239.389,-0.033L-239.389,206.1C-239.389,215.74 -228.081,220.943 -220.81,214.639L-165.541,167.008C-157.636,160.204 -162.472,147.229 -172.912,147.229L-178.116,147.229C-184.32,147.229 -189.356,142.192 -189.356,135.955C-189.356,132.853 -188.089,130.051 -186.054,128.016C-184.019,125.982 -181.218,124.714 -178.116,124.714L-58.471,124.714C-52.267,124.714 -47.231,129.751 -47.231,135.955C-47.231,139.09 -48.498,141.892 -50.533,143.927C-52.567,145.961 -55.369,147.229 -58.471,147.229L-94.628,147.229C-97.53,147.229 -100.298,148.329 -102.366,150.297L-145.394,190.991C-149.03,194.426 -149.964,199.796 -147.729,204.232L-43.795,410.299C-41.894,414.102 -37.991,416.503 -33.755,416.503L-11.241,416.503C-5.037,416.503 0,421.54 0,427.744" style="fill:white;fill-rule:nonzero;"/>
        </g>
        <g transform="matrix(4.99712,0,0,3.96409,3069.99,382.831)">
            <path d="M0,429.164L-113.45,10.488C-116.897,-2.703 -106.943,-15.592 -93.308,-15.592L-66.439,-15.592C-57.061,-15.592 -48.84,-9.321 -46.362,-0.276L72.307,418.425C75.939,431.681 65.957,444.756 52.212,444.745L20.125,444.719C10.661,444.712 2.393,438.321 0,429.164" style="fill:white;fill-rule:nonzero;"/>
        </g>
        <g transform="matrix(0,3.96409,4.99712,0,2255.1,757.597)">
            <path d="M41.694,-41.694C64.721,-41.694 83.388,-23.026 83.388,0.001C83.388,23.028 64.721,41.694 41.694,41.694C18.667,41.694 -0.001,23.028 -0.001,0.001C-0.001,-23.026 18.667,-41.694 41.694,-41.694" style="fill:white;fill-rule:nonzero;"/>
        </g>
        <g transform="matrix(0,3.96409,4.99712,0,2488.45,1564.15)">
            <path d="M41.694,-41.694C64.721,-41.694 83.388,-23.026 83.388,0.001C83.388,23.028 64.721,41.694 41.694,41.694C18.667,41.694 -0.001,23.028 -0.001,0.001C-0.001,-23.026 18.667,-41.694 41.694,-41.694" style="fill:white;fill-rule:nonzero;"/>
        </g>
        <g transform="matrix(4.99712,0,0,3.96409,3877.1,385.04)">
            <path d="M0,555.913L-156.812,10.488C-160.258,-2.703 -150.304,-15.592 -136.67,-15.592L-109.801,-15.592C-100.422,-15.592 -92.202,-9.321 -89.723,-0.276L72.307,545.174C75.94,558.43 65.957,571.505 52.212,571.494L20.125,571.468C10.661,571.461 2.393,565.07 0,555.913" style="fill:white;fill-rule:nonzero;"/>
        </g>
    </g>
</svg>
