<?xml version="1.0" encoding="UTF-8" standalone="no"?>
<!DOCTYPE svg PUBLIC "-//W3C//DTD SVG 1.1//EN" "http://www.w3.org/Graphics/SVG/1.1/DTD/svg11.dtd">
<svg width="100%" height="100%" viewBox="0 0 8000 2000" version="1.1" xmlns="http://www.w3.org/2000/svg" xmlns:xlink="http://www.w3.org/1999/xlink" xml:space="preserve" xmlns:serif="http://www.serif.com/" style="fill-rule:evenodd;clip-rule:evenodd;stroke-linejoin:round;stroke-miterlimit:2;">
    <g transform="matrix(1,0,0,1,-3326.3,2.40628)">
        <g transform="matrix(1458.33,0,0,1458.33,3626.3,1544.47)">
            <path d="M0.023,-0L0.023,-0.01L0.069,-0.01L0.069,-0.69L0.023,-0.69L0.023,-0.7L0.18,-0.7C0.211,-0.7 0.24,-0.687 0.267,-0.662C0.293,-0.637 0.314,-0.599 0.33,-0.548C0.346,-0.497 0.353,-0.433 0.353,-0.356C0.353,-0.278 0.345,-0.212 0.33,-0.159C0.314,-0.107 0.293,-0.067 0.266,-0.04C0.24,-0.013 0.211,-0 0.18,-0L0.023,-0ZM0.147,-0.01L0.169,-0.01C0.188,-0.01 0.205,-0.022 0.22,-0.047C0.235,-0.072 0.248,-0.11 0.257,-0.161C0.266,-0.212 0.271,-0.277 0.271,-0.356C0.271,-0.426 0.267,-0.485 0.258,-0.535C0.25,-0.585 0.239,-0.623 0.225,-0.65C0.212,-0.677 0.197,-0.69 0.181,-0.69L0.147,-0.69L0.147,-0.01Z" style="fill:rgb(0,151,85);fill-rule:nonzero;"/>
        </g>
        <g transform="matrix(1458.33,0,0,1458.33,4182.52,1544.47)">
            <path d="M0.014,-0L0.014,-0.01L0.059,-0.01L0.059,-0.514L0.014,-0.514L0.014,-0.524L0.137,-0.524L0.137,-0.01L0.182,-0.01L0.182,-0L0.014,-0ZM0.097,-0.62C0.082,-0.62 0.069,-0.625 0.059,-0.635C0.049,-0.646 0.043,-0.658 0.043,-0.673C0.043,-0.687 0.049,-0.7 0.059,-0.71C0.069,-0.721 0.082,-0.726 0.097,-0.726C0.111,-0.726 0.123,-0.721 0.134,-0.71C0.144,-0.7 0.149,-0.687 0.149,-0.673C0.149,-0.658 0.144,-0.646 0.134,-0.635C0.123,-0.625 0.111,-0.62 0.097,-0.62Z" style="fill:rgb(0,151,85);fill-rule:nonzero;"/>
        </g>
        <g transform="matrix(1458.33,0,0,1458.33,4467.48,1544.47)">
            <path d="M0.131,0.011C0.116,0.011 0.104,0.009 0.093,0.004C0.081,-0 0.072,-0.005 0.064,-0.009C0.056,-0.014 0.049,-0.016 0.044,-0.016C0.04,-0.016 0.038,-0.015 0.036,-0.012C0.035,-0.009 0.034,-0.005 0.033,-0L0.025,-0L0.025,-0.15L0.035,-0.15C0.037,-0.131 0.04,-0.113 0.045,-0.095C0.049,-0.077 0.056,-0.061 0.064,-0.047C0.072,-0.032 0.082,-0.021 0.093,-0.012C0.104,-0.003 0.117,0.001 0.132,0.001C0.147,0.001 0.158,-0.003 0.167,-0.011C0.176,-0.019 0.182,-0.029 0.186,-0.041C0.19,-0.054 0.192,-0.066 0.192,-0.079C0.192,-0.095 0.188,-0.11 0.182,-0.127C0.175,-0.143 0.166,-0.16 0.155,-0.177C0.143,-0.194 0.13,-0.21 0.115,-0.226C0.088,-0.255 0.067,-0.285 0.051,-0.315C0.034,-0.346 0.026,-0.379 0.026,-0.416C0.026,-0.441 0.031,-0.461 0.041,-0.478C0.052,-0.494 0.065,-0.506 0.081,-0.514C0.098,-0.522 0.115,-0.527 0.134,-0.527C0.146,-0.527 0.157,-0.525 0.165,-0.522C0.174,-0.518 0.181,-0.515 0.187,-0.512C0.193,-0.509 0.198,-0.507 0.201,-0.507C0.204,-0.507 0.207,-0.509 0.208,-0.512C0.209,-0.515 0.21,-0.519 0.21,-0.524L0.219,-0.524L0.219,-0.379L0.209,-0.379C0.207,-0.399 0.205,-0.418 0.201,-0.435C0.197,-0.452 0.193,-0.466 0.187,-0.478C0.181,-0.491 0.174,-0.5 0.165,-0.506C0.156,-0.513 0.146,-0.516 0.134,-0.516C0.117,-0.516 0.102,-0.51 0.091,-0.498C0.079,-0.487 0.073,-0.469 0.073,-0.445C0.073,-0.422 0.081,-0.399 0.095,-0.376C0.109,-0.353 0.127,-0.329 0.15,-0.305C0.169,-0.285 0.185,-0.265 0.199,-0.246C0.213,-0.226 0.224,-0.206 0.231,-0.185C0.239,-0.164 0.243,-0.142 0.243,-0.118C0.243,-0.091 0.238,-0.068 0.229,-0.049C0.219,-0.03 0.206,-0.015 0.189,-0.005C0.173,0.006 0.153,0.011 0.131,0.011Z" style="fill:rgb(0,151,85);fill-rule:nonzero;"/>
        </g>
        <g transform="matrix(1458.33,0,0,1458.33,4855.1,1544.47)">
            <path d="M0.019,-0L0.019,-0.01L0.062,-0.01L0.062,-0.74L0.019,-0.74L0.019,-0.75L0.14,-0.75L0.14,-0.301L0.276,-0.514L0.231,-0.514L0.231,-0.524L0.331,-0.524L0.331,-0.514L0.29,-0.514L0.209,-0.378L0.327,-0.01L0.364,-0.01L0.364,-0L0.207,-0L0.207,-0.01L0.246,-0.01L0.151,-0.304L0.14,-0.28L0.14,-0.01L0.179,-0.01L0.179,-0L0.019,-0Z" style="fill:rgb(0,151,85);fill-rule:nonzero;"/>
        </g>
        <g transform="matrix(1458.33,0,0,1458.33,5359.4,1544.47)">
            <path d="M0.163,0.011C0.139,0.011 0.118,0.003 0.1,-0.012C0.083,-0.028 0.069,-0.048 0.058,-0.074C0.046,-0.1 0.038,-0.129 0.033,-0.162C0.028,-0.195 0.025,-0.228 0.025,-0.263C0.025,-0.308 0.029,-0.347 0.037,-0.38C0.044,-0.413 0.054,-0.441 0.067,-0.462C0.08,-0.484 0.094,-0.5 0.11,-0.511C0.126,-0.521 0.142,-0.527 0.159,-0.527C0.179,-0.527 0.197,-0.52 0.212,-0.508C0.227,-0.496 0.24,-0.479 0.251,-0.458C0.261,-0.437 0.269,-0.414 0.274,-0.387C0.28,-0.36 0.283,-0.333 0.283,-0.304C0.283,-0.298 0.282,-0.293 0.282,-0.287C0.282,-0.282 0.282,-0.277 0.282,-0.271L0.097,-0.271L0.097,-0.281L0.204,-0.281C0.204,-0.33 0.203,-0.372 0.201,-0.407C0.198,-0.442 0.194,-0.47 0.187,-0.489C0.181,-0.508 0.171,-0.517 0.159,-0.517C0.148,-0.517 0.138,-0.508 0.13,-0.49C0.121,-0.472 0.115,-0.445 0.111,-0.408C0.107,-0.372 0.104,-0.326 0.104,-0.27C0.104,-0.235 0.105,-0.201 0.106,-0.169C0.107,-0.136 0.11,-0.108 0.114,-0.083C0.119,-0.057 0.126,-0.038 0.135,-0.023C0.145,-0.009 0.158,-0.002 0.174,-0.002C0.2,-0.002 0.221,-0.009 0.236,-0.022C0.252,-0.036 0.262,-0.051 0.267,-0.068L0.276,-0.062C0.268,-0.043 0.255,-0.026 0.237,-0.011C0.219,0.003 0.194,0.011 0.163,0.011Z" style="fill:rgb(0,151,85);fill-rule:nonzero;"/>
        </g>
        <g transform="matrix(1458.33,0,0,1458.33,5807.41,1544.47)">
            <path d="M0.137,0.009C0.124,0.009 0.111,0.007 0.099,0.002C0.087,-0.003 0.077,-0.013 0.069,-0.027C0.061,-0.041 0.057,-0.061 0.057,-0.088L0.057,-0.514L0.006,-0.514L0.006,-0.524L0.057,-0.524C0.066,-0.524 0.075,-0.53 0.084,-0.544C0.092,-0.558 0.1,-0.575 0.107,-0.597C0.115,-0.619 0.12,-0.642 0.123,-0.667L0.135,-0.667L0.135,-0.524L0.198,-0.524L0.198,-0.514L0.135,-0.514L0.135,-0.036C0.135,-0.024 0.138,-0.016 0.144,-0.011C0.149,-0.006 0.154,-0.004 0.16,-0.004C0.167,-0.004 0.173,-0.006 0.18,-0.01C0.187,-0.014 0.192,-0.017 0.194,-0.02L0.2,-0.013C0.193,-0.006 0.184,-0.001 0.174,0.003C0.163,0.007 0.151,0.009 0.137,0.009Z" style="fill:rgb(0,151,85);fill-rule:nonzero;"/>
        </g>
        <g transform="matrix(1458.33,0,0,1458.33,6123.87,1544.47)">
            <path d="M0.137,0.009C0.124,0.009 0.111,0.007 0.099,0.002C0.087,-0.003 0.077,-0.013 0.069,-0.027C0.061,-0.041 0.057,-0.061 0.057,-0.088L0.057,-0.514L0.006,-0.514L0.006,-0.524L0.057,-0.524C0.066,-0.524 0.075,-0.53 0.084,-0.544C0.092,-0.558 0.1,-0.575 0.107,-0.597C0.115,-0.619 0.12,-0.642 0.123,-0.667L0.135,-0.667L0.135,-0.524L0.198,-0.524L0.198,-0.514L0.135,-0.514L0.135,-0.036C0.135,-0.024 0.138,-0.016 0.144,-0.011C0.149,-0.006 0.154,-0.004 0.16,-0.004C0.167,-0.004 0.173,-0.006 0.18,-0.01C0.187,-0.014 0.192,-0.017 0.194,-0.02L0.2,-0.013C0.193,-0.006 0.184,-0.001 0.174,0.003C0.163,0.007 0.151,0.009 0.137,0.009Z" style="fill:rgb(0,151,85);fill-rule:nonzero;"/>
        </g>
        <g transform="matrix(1458.33,0,0,1458.33,6422.1,1544.47)">
            <path d="M0.163,0.011C0.139,0.011 0.118,0.003 0.1,-0.012C0.083,-0.028 0.069,-0.048 0.058,-0.074C0.046,-0.1 0.038,-0.129 0.033,-0.162C0.028,-0.195 0.025,-0.228 0.025,-0.263C0.025,-0.308 0.029,-0.347 0.037,-0.38C0.044,-0.413 0.054,-0.441 0.067,-0.462C0.08,-0.484 0.094,-0.5 0.11,-0.511C0.126,-0.521 0.142,-0.527 0.159,-0.527C0.179,-0.527 0.197,-0.52 0.212,-0.508C0.227,-0.496 0.24,-0.479 0.251,-0.458C0.261,-0.437 0.269,-0.414 0.274,-0.387C0.28,-0.36 0.283,-0.333 0.283,-0.304C0.283,-0.298 0.282,-0.293 0.282,-0.287C0.282,-0.282 0.282,-0.277 0.282,-0.271L0.097,-0.271L0.097,-0.281L0.204,-0.281C0.204,-0.33 0.203,-0.372 0.201,-0.407C0.198,-0.442 0.194,-0.47 0.187,-0.489C0.181,-0.508 0.171,-0.517 0.159,-0.517C0.148,-0.517 0.138,-0.508 0.13,-0.49C0.121,-0.472 0.115,-0.445 0.111,-0.408C0.107,-0.372 0.104,-0.326 0.104,-0.27C0.104,-0.235 0.105,-0.201 0.106,-0.169C0.107,-0.136 0.11,-0.108 0.114,-0.083C0.119,-0.057 0.126,-0.038 0.135,-0.023C0.145,-0.009 0.158,-0.002 0.174,-0.002C0.2,-0.002 0.221,-0.009 0.236,-0.022C0.252,-0.036 0.262,-0.051 0.267,-0.068L0.276,-0.062C0.268,-0.043 0.255,-0.026 0.237,-0.011C0.219,0.003 0.194,0.011 0.163,0.011Z" style="fill:rgb(0,151,85);fill-rule:nonzero;"/>
        </g>
        <g transform="matrix(1458.33,0,0,1458.33,6870.11,1544.47)">
        </g>
    </g>
    <g transform="matrix(1,0,0,1,1037.09,4.81257)">
        <g transform="matrix(1458.33,0,0,1458.33,3626.3,1544.47)">
            <path d="M0.011,-0L0.011,-0.01L0.057,-0.01L0.057,-0.69L0.011,-0.69L0.011,-0.7L0.173,-0.7L0.173,-0.69L0.129,-0.69L0.129,-0.35L0.281,-0.69L0.233,-0.69L0.233,-0.7L0.338,-0.7L0.338,-0.69L0.293,-0.69L0.17,-0.404L0.172,-0.429L0.308,-0.01L0.346,-0.01L0.346,-0L0.195,-0L0.195,-0.01L0.234,-0.01L0.126,-0.344L0.129,-0.345L0.129,-0.01L0.171,-0.01L0.171,-0L0.011,-0Z" style="fill:rgb(137,24,92);fill-rule:nonzero;"/>
        </g>
        <g transform="matrix(1458.33,0,0,1458.33,4151.88,1544.47)">
            <path d="M0.015,-0L0.015,-0.01L0.059,-0.01L0.059,-0.514L0.015,-0.514L0.015,-0.524L0.131,-0.524L0.131,-0.01L0.177,-0.01L0.177,-0L0.015,-0ZM0.095,-0.624C0.081,-0.624 0.069,-0.629 0.059,-0.638C0.049,-0.648 0.044,-0.66 0.044,-0.674C0.044,-0.687 0.049,-0.699 0.059,-0.709C0.069,-0.718 0.081,-0.723 0.095,-0.723C0.108,-0.723 0.119,-0.718 0.129,-0.709C0.138,-0.699 0.143,-0.687 0.143,-0.674C0.143,-0.66 0.138,-0.648 0.129,-0.638C0.119,-0.629 0.108,-0.624 0.095,-0.624Z" style="fill:rgb(137,24,92);fill-rule:nonzero;"/>
        </g>
        <g transform="matrix(1458.33,0,0,1458.33,4422.91,1544.47)">
            <path d="M0.133,0.009C0.12,0.009 0.109,0.007 0.097,0.002C0.085,-0.003 0.076,-0.012 0.068,-0.025C0.061,-0.039 0.057,-0.058 0.057,-0.084L0.057,-0.514L0.007,-0.514L0.007,-0.524L0.057,-0.524C0.065,-0.524 0.073,-0.53 0.081,-0.544C0.089,-0.558 0.096,-0.575 0.103,-0.597C0.109,-0.619 0.114,-0.642 0.117,-0.666L0.129,-0.666L0.129,-0.524L0.191,-0.524L0.191,-0.514L0.129,-0.514L0.129,-0.035C0.129,-0.024 0.132,-0.015 0.137,-0.011C0.142,-0.006 0.148,-0.003 0.153,-0.003C0.16,-0.003 0.167,-0.005 0.174,-0.01C0.181,-0.014 0.186,-0.017 0.188,-0.02L0.194,-0.013C0.187,-0.006 0.179,-0.001 0.168,0.003C0.158,0.007 0.146,0.009 0.133,0.009Z" style="fill:rgb(137,24,92);fill-rule:nonzero;"/>
        </g>
        <g transform="matrix(1458.33,0,0,1458.33,4712.38,1544.47)">
            <path d="M0.16,0.01C0.138,0.01 0.119,0.003 0.101,-0.012C0.084,-0.028 0.069,-0.048 0.057,-0.074C0.045,-0.1 0.036,-0.13 0.029,-0.163C0.023,-0.196 0.02,-0.23 0.02,-0.266C0.02,-0.31 0.024,-0.348 0.033,-0.381C0.041,-0.414 0.053,-0.441 0.067,-0.462C0.081,-0.484 0.097,-0.5 0.114,-0.51C0.131,-0.521 0.149,-0.527 0.166,-0.527C0.186,-0.527 0.203,-0.521 0.217,-0.509C0.232,-0.497 0.242,-0.481 0.25,-0.462C0.257,-0.443 0.261,-0.422 0.261,-0.399C0.261,-0.382 0.259,-0.369 0.254,-0.361C0.249,-0.352 0.242,-0.348 0.232,-0.348C0.222,-0.348 0.214,-0.352 0.209,-0.36C0.204,-0.367 0.201,-0.377 0.201,-0.39C0.201,-0.399 0.203,-0.408 0.206,-0.416C0.209,-0.424 0.212,-0.431 0.215,-0.438C0.218,-0.445 0.219,-0.452 0.219,-0.459C0.219,-0.478 0.215,-0.493 0.205,-0.502C0.196,-0.511 0.184,-0.516 0.169,-0.516C0.156,-0.516 0.144,-0.508 0.135,-0.492C0.125,-0.477 0.118,-0.457 0.112,-0.432C0.106,-0.408 0.102,-0.381 0.099,-0.352C0.097,-0.323 0.096,-0.296 0.096,-0.269C0.096,-0.242 0.096,-0.213 0.098,-0.182C0.1,-0.151 0.104,-0.122 0.109,-0.094C0.114,-0.067 0.122,-0.044 0.132,-0.027C0.141,-0.01 0.154,-0.001 0.17,-0.001C0.191,-0.001 0.207,-0.008 0.22,-0.023C0.232,-0.038 0.24,-0.053 0.243,-0.066L0.252,-0.062C0.245,-0.042 0.234,-0.025 0.219,-0.011C0.204,0.003 0.185,0.01 0.16,0.01Z" style="fill:rgb(137,24,92);fill-rule:nonzero;"/>
        </g>
        <g transform="matrix(1458.33,0,0,1458.33,5128.52,1544.47)">
            <path d="M0.018,-0L0.018,-0.01L0.062,-0.01L0.062,-0.74L0.018,-0.74L0.018,-0.75L0.134,-0.75L0.134,-0.456C0.135,-0.465 0.139,-0.476 0.146,-0.487C0.153,-0.498 0.162,-0.507 0.175,-0.515C0.187,-0.523 0.201,-0.527 0.219,-0.527C0.236,-0.527 0.251,-0.523 0.266,-0.514C0.281,-0.506 0.293,-0.49 0.302,-0.467C0.312,-0.445 0.316,-0.412 0.316,-0.368L0.316,-0.01L0.358,-0.01L0.358,-0L0.207,-0L0.207,-0.01L0.244,-0.01L0.244,-0.358C0.244,-0.411 0.241,-0.449 0.235,-0.474C0.228,-0.499 0.216,-0.512 0.199,-0.512C0.187,-0.512 0.177,-0.507 0.167,-0.497C0.157,-0.487 0.15,-0.474 0.144,-0.458C0.138,-0.442 0.135,-0.426 0.134,-0.409L0.134,-0.01L0.172,-0.01L0.172,-0L0.018,-0Z" style="fill:rgb(137,24,92);fill-rule:nonzero;"/>
        </g>
        <g transform="matrix(1458.33,0,0,1458.33,5674.98,1544.47)">
            <path d="M0.159,0.011C0.135,0.011 0.115,0.003 0.098,-0.013C0.081,-0.028 0.067,-0.049 0.057,-0.075C0.046,-0.101 0.038,-0.13 0.033,-0.163C0.028,-0.195 0.026,-0.229 0.026,-0.263C0.026,-0.307 0.029,-0.346 0.037,-0.379C0.044,-0.413 0.053,-0.44 0.066,-0.462C0.078,-0.483 0.092,-0.5 0.108,-0.51C0.123,-0.521 0.139,-0.527 0.156,-0.527C0.175,-0.527 0.193,-0.52 0.207,-0.508C0.222,-0.496 0.235,-0.479 0.245,-0.458C0.255,-0.437 0.262,-0.413 0.267,-0.386C0.272,-0.36 0.275,-0.332 0.275,-0.304C0.275,-0.299 0.275,-0.294 0.275,-0.288C0.275,-0.283 0.274,-0.278 0.274,-0.272L0.092,-0.272L0.092,-0.282L0.202,-0.282C0.202,-0.33 0.201,-0.372 0.198,-0.407C0.196,-0.442 0.191,-0.469 0.185,-0.488C0.178,-0.508 0.168,-0.517 0.156,-0.517C0.144,-0.517 0.134,-0.508 0.125,-0.49C0.117,-0.472 0.11,-0.445 0.106,-0.408C0.101,-0.372 0.099,-0.326 0.099,-0.271C0.099,-0.236 0.1,-0.203 0.101,-0.17C0.102,-0.138 0.105,-0.109 0.109,-0.084C0.113,-0.058 0.12,-0.038 0.13,-0.024C0.139,-0.009 0.153,-0.002 0.169,-0.002C0.195,-0.002 0.215,-0.008 0.23,-0.022C0.245,-0.036 0.255,-0.051 0.26,-0.068L0.269,-0.062C0.261,-0.043 0.249,-0.025 0.231,-0.011C0.213,0.003 0.189,0.011 0.159,0.011Z" style="fill:rgb(137,24,92);fill-rule:nonzero;"/>
        </g>
        <g transform="matrix(1458.33,0,0,1458.33,6112.73,1544.47)">
            <path d="M0.018,-0L0.018,-0.01L0.062,-0.01L0.062,-0.514L0.018,-0.514L0.018,-0.524L0.134,-0.524L0.134,-0.449C0.138,-0.461 0.143,-0.472 0.15,-0.484C0.157,-0.496 0.166,-0.506 0.177,-0.514C0.188,-0.522 0.201,-0.527 0.217,-0.527C0.233,-0.527 0.248,-0.523 0.262,-0.515C0.276,-0.508 0.288,-0.494 0.298,-0.472C0.307,-0.45 0.312,-0.418 0.312,-0.375L0.312,-0.01L0.354,-0.01L0.354,-0L0.202,-0L0.202,-0.01L0.24,-0.01L0.24,-0.365C0.24,-0.415 0.236,-0.452 0.229,-0.475C0.221,-0.499 0.209,-0.51 0.193,-0.51C0.186,-0.51 0.178,-0.507 0.171,-0.499C0.164,-0.492 0.158,-0.483 0.153,-0.472C0.147,-0.461 0.143,-0.45 0.139,-0.438C0.136,-0.427 0.134,-0.417 0.134,-0.409L0.134,-0.01L0.173,-0.01L0.173,-0L0.018,-0Z" style="fill:rgb(137,24,92);fill-rule:nonzero;"/>
        </g>
        <g transform="matrix(1458.33,0,0,1458.33,6652.57,1544.47)">
        </g>
    </g>
    <g transform="matrix(0.745519,0,0,1,1224.7,-259.687)">
        <path d="M3651.73,1133.34C3651.73,1160.2 3640.54,1180.95 3618.16,1195.6C3595.78,1210.25 3569.04,1217.57 3537.93,1217.57C3506.82,1217.57 3479.8,1210.25 3456.88,1195.6C3434.5,1180.95 3423.31,1160.2 3423.31,1133.34C3423.31,1107.3 3434.5,1086.55 3456.88,1071.09C3479.26,1056.03 3506.27,1048.51 3537.93,1048.51C3569.59,1048.51 3596.33,1056.03 3618.16,1071.09C3640.54,1086.55 3651.73,1107.3 3651.73,1133.34ZM3502.63,1386.03C3502.63,1412.48 3491.45,1433.43 3469.07,1448.9C3446.69,1463.54 3419.95,1470.87 3388.84,1470.87C3357.72,1470.87 3330.71,1463.54 3307.78,1448.9C3285.41,1433.43 3274.22,1412.48 3274.22,1386.03C3274.22,1359.17 3285.41,1338.42 3307.78,1323.77C3330.16,1308.72 3357.18,1301.19 3388.84,1301.19C3420.49,1301.19 3447.24,1308.72 3469.07,1323.77C3491.45,1338.42 3502.63,1359.17 3502.63,1386.03Z" style="fill:rgb(235,167,14);fill-rule:nonzero;"/>
    </g>
    <g transform="matrix(1.14218,0,0,1.22852,-464.893,-242.208)">
        <g transform="matrix(1,0,0,1,474.871,0)">
            <path d="M3746.15,627.363L3353.57,1459.88L3237.58,1459.88L3631.47,627.363L3746.15,627.363Z" style="fill:rgb(210,76,43);fill-rule:nonzero;"/>
        </g>
        <g transform="matrix(1,0,0,1,689.022,0)">
            <path d="M3746.15,627.363L3353.57,1459.88L3237.58,1459.88L3631.47,627.363L3746.15,627.363Z" style="fill:rgb(210,76,43);fill-rule:nonzero;"/>
        </g>
    </g>
</svg>
