<?xml version="1.0" encoding="UTF-8" standalone="no"?>
<!DOCTYPE svg PUBLIC "-//W3C//DTD SVG 1.1//EN" "http://www.w3.org/Graphics/SVG/1.1/DTD/svg11.dtd">
<svg width="100%" height="100%" viewBox="0 0 2200 4000" version="1.1" xmlns="http://www.w3.org/2000/svg" xmlns:xlink="http://www.w3.org/1999/xlink" xml:space="preserve" xmlns:serif="http://www.serif.com/" style="fill-rule:evenodd;clip-rule:evenodd;stroke-linejoin:round;stroke-miterlimit:2;">
    <g transform="matrix(1,0,0,1,-4994,-10573)">
        <g id="Eye-Colored" serif:id="Eye Colored" transform="matrix(0.558092,0,0,0.904364,4578.22,4734.43)">
            <rect x="745" y="6456" width="3942" height="4423" style="fill:none;"/>
            <g transform="matrix(1.80183,-2.70792e-16,-4.47944e-16,0.800749,-657.787,1593.4)">
                <path d="M2517.43,6522.32C2517.43,6426.52 2573.44,6348.74 2642.43,6348.74C2711.42,6348.74 2767.43,6426.52 2767.43,6522.32L2767.43,7477.24C2767.43,7573.04 2711.42,7650.81 2642.43,7650.81C2573.44,7650.81 2517.43,7573.04 2517.43,7477.24L2517.43,6522.32Z" style="fill:rgb(235,167,14);"/>
            </g>
            <g id="Eye" transform="matrix(2.05688,0,0,-1.13128,-985.528,19580.4)">
                <g transform="matrix(0.876,0,0,0.982889,852.748,1441.3)">
                    <path d="M1975.86,8011.81C1975.86,8010.87 1975.87,8009.94 1975.87,8009C1975.87,7673.45 1790.81,7380.78 1517.27,7227.57L373.394,6574.8C363.947,6569.32 353.72,6565.05 342.921,6562.19C331.73,6559.22 320.322,6557.87 309.014,6558.05C286.835,6558.37 266.046,6564.48 248.093,6574.94C230.114,6585.35 214.503,6600.38 203.23,6619.48C197.467,6629.21 192.986,6639.79 190.021,6650.98C187.154,6661.78 185.795,6672.78 185.866,6683.69L185.866,8020.96C185.866,8023.35 185.933,8025.73 186.066,8028.09C192.872,8352.73 372.901,8635.1 637.371,8786.41L1975.87,9561.66C1975.87,9561.67 1975.87,8012.86 1975.87,8012.86C1975.87,8012.51 1975.86,8012.16 1975.86,8011.81ZM1725.87,9127.96L1294.73,8878.24C1461.73,8837.23 1610.38,8749.3 1725.87,8629.23L1725.87,9127.96ZM435.866,7388.77L435.866,6898.29L861.425,7141.15C696.689,7182.73 550.064,7270.04 435.866,7388.77ZM757.26,8566.95C565.138,8455.21 435.866,8247.08 435.866,8009C435.866,7653.02 724.881,7364 1080.87,7364C1194.91,7364 1302.08,7393.66 1395.08,7445.69L1403.91,7450.73L1404.46,7451.04C1596.59,7562.79 1725.87,7770.92 1725.87,8009C1725.87,8364.99 1436.85,8654 1080.87,8654C964.621,8654 855.517,8623.18 761.286,8569.28L758.515,8567.67C758.098,8567.43 757.679,8567.19 757.26,8566.95Z" style="fill:rgb(137,24,92);"/>
                </g>
                <g transform="matrix(3.93796,-1.47315e-15,-2.40707e-15,-4.41846,-2138.37,11403.7)">
                    <circle cx="1000" cy="471.41" r="87.59" style="fill:rgb(0,151,85);"/>
                </g>
            </g>
        </g>
    </g>
</svg>
