<?xml version="1.0" encoding="UTF-8" standalone="no"?>
<!DOCTYPE svg PUBLIC "-//W3C//DTD SVG 1.1//EN" "http://www.w3.org/Graphics/SVG/1.1/DTD/svg11.dtd">
<svg width="100%" height="100%" viewBox="0 0 4500 4500" version="1.1" xmlns="http://www.w3.org/2000/svg" xmlns:xlink="http://www.w3.org/1999/xlink" xml:space="preserve" xmlns:serif="http://www.serif.com/" style="fill-rule:evenodd;clip-rule:evenodd;stroke-linejoin:round;stroke-miterlimit:2;">
    <g transform="matrix(1,0,0,1,-4994,0)">
        <g id="Hex-Colored" serif:id="Hex Colored" transform="matrix(0.906162,0,0,1.05634,11434.1,700.352)">
            <rect x="-7107" y="-663" width="4966" height="4260" style="fill:none;"/>
            <g transform="matrix(2.58914,0,0,2.97157,-7225.84,-2247.47)">
                <path d="M1119.61,1452.14L1119.61,1859.02C1091.7,1865.12 1063.12,1868.94 1034.36,1870.49L1034.36,1465.31C1034.36,1340.18 1123.63,1224.55 1268.56,1161.92L1751.96,953.051C1764.06,972.89 1772.4,994.08 1776.54,1016.03L1707.64,1045.8L1317.56,1214.13C1313.71,1215.72 1309.91,1217.36 1306.15,1219.05L1296.52,1223.21L1296.7,1223.44C1194.77,1272.24 1125.7,1356.08 1120,1452.14L1119.61,1452.14ZM890.198,1859.02L890.198,1452.14L889.811,1452.14C889.785,1451.71 889.758,1451.29 889.731,1450.87C886.687,1404.23 868.702,1360.5 839.281,1322.3C808.934,1282.78 766.004,1248.67 713.177,1223.45L713.4,1223.16L233.276,1015.97C237.42,994.045 245.762,972.874 257.845,953.05L741.019,1161.56C886.081,1224.15 975.442,1339.84 975.442,1465.04L975.442,1870.49C946.691,1868.94 918.11,1865.12 890.198,1859.02ZM347.984,867.512L416.933,897.228L807.835,1065.91C811.598,1067.6 815.402,1069.25 819.247,1070.84L828.106,1074.66L828.262,1074.46C881.143,1095.02 941.221,1106.64 1004.9,1106.64C1068.61,1106.64 1128.71,1095.01 1181.6,1074.44L1181.81,1074.71L1661.88,867.547C1685.22,881.192 1705.57,897.177 1722.5,914.91L1239.64,1123.28C1094.66,1185.84 916.047,1185.88 771.019,1123.38L287.306,914.91C304.248,897.162 324.626,881.165 347.984,867.512Z" style="fill:rgb(235,167,14);"/>
            </g>
            <g transform="matrix(4.96091,8.27671e-16,-2.25129e-15,4.25563,-9584.91,-1817.15)">
                <circle cx="1000" cy="471.41" r="87.59" style="fill:rgb(0,151,85);"/>
            </g>
            <g transform="matrix(4.96091,8.27671e-16,-2.25129e-15,4.25563,-8294.7,99.8525)">
                <circle cx="1000" cy="471.41" r="87.59" style="fill:rgb(0,151,85);"/>
            </g>
            <g transform="matrix(4.96091,1.41887e-15,-3.03235e-15,4.25563,-10875.1,99.8525)">
                <circle cx="1000" cy="471.41" r="87.59" style="fill:rgb(0,151,85);"/>
            </g>
            <g transform="matrix(1.25977,0,0,0.963147,-8045.53,-6881.08)">
                <path d="M990.86,9735.96C929.847,9604 896.471,9455.55 896.471,9301.77L896.471,8033.23C896.471,7696.34 1056.65,7385.05 1316.67,7216.61L2295.8,6582.33C2425.81,6498.11 2570.9,6456 2716,6456C2861.1,6456 3006.19,6498.11 3136.2,6582.33L4115.33,7216.61C4375.35,7385.05 4535.53,7696.34 4535.53,8033.23L4535.53,9301.77C4535.53,9455.55 4502.15,9604 4441.14,9735.96C4434.22,9751 4426.92,9765.79 4419.27,9780.31C4346.86,9918.25 4243.16,10035.6 4115.33,10118.4L3136.2,10752.7C2876.18,10921.1 2555.82,10921.1 2295.8,10752.7L1316.67,10118.4C1188.84,10035.6 1085.14,9918.25 1012.74,9780.31C1005.08,9765.79 997.783,9751 990.86,9735.96ZM1958.27,7095.65L1580.7,7340.24L1958.05,7584.68C1938.22,7507.14 1927.6,7425.25 1927.6,7340.6C1927.6,7255.64 1938.3,7173.45 1958.27,7095.65ZM1365.95,7487.34C1237.53,7599.98 1152.9,7764.37 1130.11,7945.46L2086.16,8564.79L2086.1,8564.89C2320.48,8717.19 2478.66,9001 2480.23,9326.09L2480.24,9326.09L2480.24,10546.5C2634.12,10596.9 2797.89,10596.9 2951.76,10546.5L2951.76,9330.95C2951.76,8997.72 3116.33,8707.28 3359.18,8556.45L4301.93,7945.74C4279.2,7764.64 4194.62,7600.2 4066.25,7487.51L3110.32,8106.76L3110.26,8106.66C2994.26,8182.04 2859.59,8225.2 2716,8225.2C2567.71,8225.2 2428.93,8179.16 2310.4,8099.15L1365.95,7487.34ZM1123.91,8227.66L1123.91,8717.63C1225.18,8599.61 1355.35,8513.04 1501.59,8472.32L1123.91,8227.66ZM4308.09,8717.63L4308.09,8227.96L3930.73,8472.41C4076.84,8513.17 4206.9,8599.7 4308.09,8717.63ZM3851.53,7340.39L3473.73,7095.65C3493.7,7173.45 3504.4,7255.64 3504.4,7340.6C3504.4,7425.38 3493.75,7507.4 3473.86,7585.05L3851.53,7340.39ZM1881.63,10189.7L2259.33,10434.4L2259.33,9944.78C2158.02,10062.7 2027.85,10149.1 1881.63,10189.7ZM3172.67,10434.4L3550.37,10189.7C3404.16,10149.1 3273.98,10062.7 3172.67,9944.78L3172.67,10434.4ZM2436.09,6787.76C2264.88,6897.2 2149.34,7103.88 2149.34,7340.6C2149.34,7691.51 2403.25,7976.41 2716,7976.41C3028.75,7976.41 3282.66,7691.51 3282.66,7340.6C3282.66,7103.88 3167.12,6897.2 2995.91,6787.76C2819.62,6689.69 2612.38,6689.69 2436.09,6787.76ZM1404.93,9879.24C1489.11,9934.85 1587.18,9966.76 1691.84,9966.76C2004.59,9966.76 2258.5,9681.86 2258.5,9330.95C2258.5,8980.04 2004.59,8695.14 1691.84,8695.14C1379.09,8695.14 1125.18,8980.04 1125.18,9330.95C1125.18,9332.51 1125.18,9334.08 1125.19,9335.64C1137.7,9555.81 1241.24,9757.02 1404.93,9879.24ZM4306.81,9335.64C4306.82,9334.08 4306.82,9332.51 4306.82,9330.95C4306.82,8980.04 4052.91,8695.14 3740.16,8695.14C3427.41,8695.14 3173.5,8980.04 3173.5,9330.95C3173.5,9681.86 3427.41,9966.76 3740.16,9966.76C3844.82,9966.76 3942.89,9934.85 4027.07,9879.24C4190.76,9757.02 4294.3,9555.81 4306.81,9335.64Z" style="fill:rgb(137,24,92);"/>
            </g>
        </g>
    </g>
</svg>
