<?xml version="1.0" encoding="UTF-8" standalone="no"?>
<!DOCTYPE svg PUBLIC "-//W3C//DTD SVG 1.1//EN" "http://www.w3.org/Graphics/SVG/1.1/DTD/svg11.dtd">
<svg width="100%" height="100%" viewBox="0 0 6001 3100" version="1.1" xmlns="http://www.w3.org/2000/svg" xmlns:xlink="http://www.w3.org/1999/xlink" xml:space="preserve" xmlns:serif="http://www.serif.com/" style="fill-rule:evenodd;clip-rule:evenodd;stroke-linejoin:round;stroke-miterlimit:2;">
    <g transform="matrix(1,0,0,1,-47,-3615)">
        <g id="GlowStack" transform="matrix(0.214286,0,0,0.213793,6368.67,1797.76)">
            <rect x="-29500" y="8500" width="28000" height="14500" style="fill:none;"/>
            <g id="Diskette" transform="matrix(4.74305,0,0,4.75226,-30456.2,7544.21)">
                <g id="e2" transform="matrix(0.971357,0,0,0.987768,-3143.01,-71.613)">
                    <path d="M9100.84,1641.69C8984.82,1641.69 8892.36,1605.53 8823.47,1533.2C8754.57,1460.87 8720.13,1360.01 8720.13,1230.63C8720.13,1142 8737.22,1065.34 8771.41,1000.64C8805.59,935.955 8851.95,886.291 8910.49,851.653C8969.02,817.016 9035.58,799.697 9110.17,799.697C9203.4,799.697 9278.25,826.439 9334.71,879.923C9391.17,933.408 9419.4,1008.54 9419.4,1105.32C9419.4,1144.03 9412.93,1177.91 9399.98,1206.94C9387.03,1235.98 9360.35,1250.49 9319.95,1250.49L8984.3,1250.49C8987.41,1330.98 9006.31,1388.03 9041.02,1421.64C9075.72,1455.26 9121.05,1472.07 9176.99,1472.07C9212.21,1472.07 9244.84,1466.72 9274.89,1456.03C9304.93,1445.33 9332.9,1430.3 9358.8,1410.95C9368.12,1419.1 9375.63,1431.58 9381.33,1448.39C9387.03,1465.19 9389.88,1479.2 9389.88,1490.41C9389.88,1506.71 9378.22,1526.83 9354.91,1550.77C9331.6,1574.71 9298.45,1595.85 9255.46,1614.19C9212.47,1632.53 9160.93,1641.69 9100.84,1641.69ZM8984.3,1134.36L9141.25,1134.36C9158.86,1134.36 9169.99,1127.73 9174.66,1114.49C9179.32,1101.25 9181.65,1084.95 9181.65,1065.59C9181.65,1000.39 9173.62,957.348 9157.56,936.464C9141.51,915.58 9122.6,905.137 9100.84,905.137C9083.23,905.137 9065.62,911.759 9048.01,925.003C9030.4,938.247 9015.9,961.423 9004.5,994.533C8993.1,1027.64 8986.37,1074.25 8984.3,1134.36Z" style="fill:rgb(0,151,85);fill-rule:nonzero;"/>
                </g>
                <g id="t2" transform="matrix(0.971357,0,0,0.987768,-3149.04,-68.5941)">
                    <path d="M8466.84,1638.64C8423.33,1638.64 8383.44,1630.74 8347.18,1614.95C8310.92,1599.16 8281.66,1571.91 8259.38,1533.2C8237.11,1494.48 8225.97,1441.51 8225.97,1374.27L8225.97,954.037L8128.08,954.037L8128.08,860.822C8156.05,856.747 8182.46,839.428 8207.33,808.866C8232.19,778.303 8253.69,740.609 8271.82,695.784C8289.94,650.959 8301.6,606.134 8306.78,561.309C8325.43,558.253 8342.52,556.725 8358.06,556.725C8399.5,556.725 8428.25,568.441 8444.3,591.872C8460.36,615.303 8468.39,637.206 8468.39,657.581L8468.39,818.034L8648.65,818.034C8648.65,842.484 8647.35,866.68 8644.76,890.62C8642.17,914.561 8635.18,935.7 8623.78,954.037L8471.5,954.037L8471.5,1384.97C8471.5,1417.57 8478.23,1439.22 8491.7,1449.91C8505.17,1460.61 8522.26,1465.96 8542.98,1465.96C8563.7,1465.96 8584.68,1460.61 8605.91,1449.91C8627.15,1439.22 8643.99,1426.74 8656.42,1412.48C8667.81,1421.64 8675.58,1435.14 8679.73,1452.97C8683.87,1470.8 8685.94,1484.3 8685.94,1493.47C8685.94,1515.88 8678.17,1538.29 8662.63,1560.7C8647.09,1583.12 8623.01,1601.71 8590.37,1616.48C8557.74,1631.25 8516.56,1638.64 8466.84,1638.64Z" style="fill:rgb(0,151,85);fill-rule:nonzero;"/>
                </g>
                <g id="t" transform="matrix(0.971357,0,0,0.987768,-3149.04,-68.5941)">
                    <path d="M7881,1638.64C7837.49,1638.64 7797.6,1630.74 7761.35,1614.95C7725.09,1599.16 7695.82,1571.91 7673.55,1533.2C7651.27,1494.48 7640.14,1441.51 7640.14,1374.27L7640.14,954.037L7542.24,954.037L7542.24,860.822C7570.21,856.747 7596.63,839.428 7621.49,808.866C7646.35,778.303 7667.85,740.609 7685.98,695.784C7704.11,650.959 7715.76,606.134 7720.94,561.309C7739.59,558.253 7756.68,556.725 7772.22,556.725C7813.66,556.725 7842.41,568.441 7858.47,591.872C7874.52,615.303 7882.55,637.206 7882.55,657.581L7882.55,818.034L8062.81,818.034C8062.81,842.484 8061.52,866.68 8058.93,890.62C8056.34,914.561 8049.34,935.7 8037.95,954.037L7885.66,954.037L7885.66,1384.97C7885.66,1417.57 7892.39,1439.22 7905.86,1449.91C7919.33,1460.61 7936.42,1465.96 7957.14,1465.96C7977.86,1465.96 7998.84,1460.61 8020.08,1449.91C8041.31,1439.22 8058.15,1426.74 8070.58,1412.48C8081.98,1421.64 8089.74,1435.14 8093.89,1452.97C8098.03,1470.8 8100.11,1484.3 8100.11,1493.47C8100.11,1515.88 8092.34,1538.29 8076.8,1560.7C8061.26,1583.12 8037.17,1601.71 8004.54,1616.48C7971.9,1631.25 7930.73,1638.64 7881,1638.64Z" style="fill:rgb(0,151,85);fill-rule:nonzero;"/>
                </g>
                <g id="e" transform="matrix(0.971357,0,0,0.987768,-3136.97,-71.613)">
                    <path d="M7170.85,1641.69C7054.82,1641.69 6962.36,1605.53 6893.47,1533.2C6824.58,1460.87 6790.13,1360.01 6790.13,1230.63C6790.13,1142 6807.22,1065.34 6841.41,1000.64C6875.6,935.955 6921.96,886.291 6980.49,851.653C7039.02,817.016 7105.58,799.697 7180.17,799.697C7273.41,799.697 7348.26,826.439 7404.72,879.923C7461.18,933.408 7489.4,1008.54 7489.4,1105.32C7489.4,1144.03 7482.93,1177.91 7469.98,1206.94C7457.03,1235.98 7430.36,1250.49 7389.95,1250.49L7054.3,1250.49C7057.41,1330.98 7076.32,1388.03 7111.02,1421.64C7145.73,1455.26 7191.05,1472.07 7246.99,1472.07C7282.21,1472.07 7314.85,1466.72 7344.89,1456.03C7374.93,1445.33 7402.9,1430.3 7428.8,1410.95C7438.12,1419.1 7445.64,1431.58 7451.33,1448.39C7457.03,1465.19 7459.88,1479.2 7459.88,1490.41C7459.88,1506.71 7448.23,1526.83 7424.92,1550.77C7401.61,1574.71 7368.46,1595.85 7325.46,1614.19C7282.47,1632.53 7230.93,1641.69 7170.85,1641.69ZM7054.3,1134.36L7211.25,1134.36C7228.86,1134.36 7240,1127.73 7244.66,1114.49C7249.32,1101.25 7251.65,1084.95 7251.65,1065.59C7251.65,1000.39 7243.62,957.348 7227.57,936.464C7211.51,915.58 7192.6,905.137 7170.85,905.137C7153.24,905.137 7135.62,911.759 7118.01,925.003C7100.4,938.247 7085.9,961.423 7074.5,994.533C7063.11,1027.64 7056.37,1074.25 7054.3,1134.36Z" style="fill:rgb(0,151,85);fill-rule:nonzero;"/>
                </g>
                <g id="k" transform="matrix(0.971357,0,0,0.987768,-3149.04,-73.1224)">
                    <path d="M6642.51,1643.22C6585.53,1643.22 6539.95,1631.25 6505.76,1607.31C6471.57,1583.37 6443.86,1553.06 6422.62,1516.39C6401.39,1479.71 6382.48,1442.53 6365.9,1404.83C6349.33,1366.12 6331.72,1330.98 6313.07,1299.39C6294.42,1267.81 6270.08,1246.42 6240.03,1235.21L6240.03,1469.02C6240.03,1498.56 6248.06,1530.39 6261.01,1543.13C6273.96,1555.86 6296.49,1562.23 6328.61,1562.23C6328.61,1578.53 6325.24,1593.3 6318.51,1606.55C6311.78,1619.79 6302.71,1632.02 6291.32,1643.22L5949.45,1643.22C5924.59,1621.83 5912.15,1594.83 5912.15,1562.23C5943.23,1562.23 5965.25,1555.86 5978.2,1543.13C5991.15,1530.39 5996.07,1498.56 5996.07,1469.02L5996.07,640.772C5996.07,617.341 5989.33,598.748 5975.86,584.995C5962.4,571.242 5934.43,564.366 5891.95,564.366L5891.95,503.241C5917.85,489.997 5948.15,477.772 5982.86,466.566C6017.56,455.359 6052.01,446.191 6086.19,439.059C6120.38,431.928 6148.35,428.362 6170.11,428.362C6194.97,428.362 6212.84,433.711 6223.72,444.408C6234.6,455.105 6240.03,473.697 6240.03,500.184L6240.03,1180.2L6410.97,1005.99C6417.18,999.881 6423.66,992.495 6430.39,983.836C6437.13,975.177 6440.49,967.281 6440.49,960.15C6440.49,945.888 6429.36,932.644 6407.08,920.419C6384.81,908.194 6363.31,902.081 6342.6,902.081C6342.6,865.406 6354.51,834.334 6378.34,808.866L6727.97,808.866C6740.4,821.091 6748.43,835.353 6752.06,851.653C6755.69,867.953 6757.5,884.762 6757.5,902.081C6729.53,902.081 6708.55,906.411 6694.56,915.07C6680.58,923.73 6667.89,933.153 6656.49,943.341L6420.29,1172.56C6458.62,1178.67 6490.74,1190.9 6516.64,1209.23C6542.54,1227.57 6566.88,1256.61 6589.67,1296.34C6621.79,1352.37 6646.91,1396.43 6665.04,1428.52C6683.17,1460.61 6700.26,1484.81 6716.32,1501.11C6732.38,1517.41 6753.87,1530.14 6780.81,1539.31L6782.36,1575.98C6779.25,1597.38 6764.75,1613.93 6738.85,1625.65C6712.95,1637.36 6680.84,1643.22 6642.51,1643.22Z" style="fill:rgb(0,151,85);fill-rule:nonzero;"/>
                </g>
                <g id="s" transform="matrix(0.971357,0,0,0.987768,-3149.04,-73.1224)">
                    <path d="M5508.13,1643.22C5470.83,1643.22 5433.28,1639.15 5395.47,1631C5357.65,1622.85 5322.95,1611.13 5291.35,1595.85C5259.76,1580.57 5234.12,1561.47 5214.43,1538.55C5194.75,1515.62 5184.91,1489.39 5184.91,1459.85C5184.91,1424.19 5195.27,1395.41 5215.99,1373.51C5236.71,1351.61 5263.12,1340.65 5295.24,1340.65C5324.24,1340.65 5348.85,1349.82 5369.05,1368.16C5389.25,1386.5 5399.35,1410.44 5399.35,1439.98C5399.35,1453.23 5397.28,1464.69 5393.14,1474.36C5388.99,1484.04 5382.78,1494.48 5374.49,1505.69C5383.81,1514.86 5400.39,1521.48 5424.22,1525.56C5448.04,1529.63 5471.35,1531.67 5494.14,1531.67C5530.4,1531.67 5558.37,1525.05 5578.06,1511.8C5597.74,1498.56 5607.58,1482.26 5607.58,1462.9C5607.58,1432.34 5591.01,1406.11 5557.85,1384.2C5524.7,1362.3 5486.89,1340.14 5444.42,1317.73C5406.09,1297.36 5368.01,1275.71 5330.2,1252.79C5292.39,1229.86 5260.79,1201.08 5235.41,1166.45C5210.03,1131.81 5197.34,1088 5197.34,1035.03C5197.34,967.791 5225.83,912.269 5282.81,868.463C5339.78,824.656 5420.59,802.753 5525.22,802.753C5597.74,802.753 5655.75,811.667 5699.26,829.495C5742.77,847.323 5774.37,869.736 5794.05,896.733C5813.74,923.73 5823.58,952 5823.58,981.544C5823.58,1013.12 5813.48,1038.34 5793.28,1057.19C5773.07,1076.03 5748.47,1085.46 5719.46,1085.46C5693.57,1085.46 5670.77,1077.56 5651.09,1061.77C5631.41,1045.98 5621.57,1025.35 5621.57,999.881C5621.57,987.656 5623.64,974.413 5627.78,960.15C5631.93,945.888 5637.62,934.172 5644.88,925.003C5633.48,915.834 5620.27,909.467 5605.25,905.902C5590.23,902.336 5572.36,900.553 5551.64,900.553C5517.45,900.553 5491.29,908.448 5473.16,924.239C5455.03,940.03 5445.97,959.131 5445.97,981.544C5445.97,1016.18 5462.81,1044.71 5496.47,1067.12C5530.14,1089.53 5567.7,1111.43 5609.13,1132.83C5647.47,1152.18 5685.02,1173.07 5721.8,1195.48C5758.57,1217.89 5789.39,1245.91 5814.26,1279.53C5839.12,1313.15 5851.55,1356.44 5851.55,1409.42C5851.55,1466.47 5834.97,1512.06 5801.82,1546.19C5768.67,1580.31 5725.94,1605.02 5673.62,1620.3C5621.31,1635.58 5566.14,1643.22 5508.13,1643.22Z" style="fill:rgb(0,151,85);fill-rule:nonzero;"/>
                </g>
                <g id="i" transform="matrix(0.971357,0,0,0.987768,-3149.04,-58.0281)">
                    <path d="M4911.41,691.2C4866.87,691.2 4831.39,678.211 4804.97,652.233C4778.55,626.255 4765.34,591.363 4765.34,547.556C4765.34,504.769 4779.07,470.131 4806.52,443.644C4833.98,417.156 4869.98,403.912 4914.52,403.912C4960.1,403.912 4996.1,417.156 5022.52,443.644C5048.94,470.131 5062.15,504.769 5062.15,547.556C5062.15,591.363 5048.42,626.255 5020.97,652.233C4993.51,678.211 4957,691.2 4911.41,691.2ZM4737.37,1627.94C4725.98,1616.73 4717.17,1604.51 4710.95,1591.27C4704.74,1578.02 4701.63,1562.74 4701.63,1545.42C4731.67,1545.42 4753.95,1539.06 4768.45,1526.32C4782.95,1513.59 4790.21,1491.94 4790.21,1461.38L4790.21,1018.22C4790.21,991.731 4783.73,971.866 4770.78,958.622C4757.83,945.378 4730.12,938.756 4687.65,938.756L4687.65,871.519C4703.19,862.35 4727.01,851.908 4759.13,840.192C4791.24,828.477 4826.21,818.544 4864.02,810.394C4901.83,802.244 4935.76,798.169 4965.8,798.169C4989.63,798.169 5006.72,803.517 5017.08,814.214C5027.44,824.911 5032.62,842.994 5032.62,868.463L5032.62,1462.9C5032.62,1493.47 5040.39,1514.86 5055.93,1527.08C5071.47,1539.31 5094.26,1545.42 5124.3,1545.42C5124.3,1562.74 5121.2,1578.02 5114.98,1591.27C5108.76,1604.51 5099.96,1616.73 5088.56,1627.94L4737.37,1627.94Z" style="fill:rgb(0,151,85);fill-rule:nonzero;"/>
                </g>
                <g id="D" transform="matrix(1.04606,0,0,1.10265,-2075.03,-1132.79)">
                    <path d="M2371.16,2248.98L2371.16,1482.96C2371.16,1453.72 2363.31,1432.88 2347.61,1420.42C2331.9,1407.97 2306.18,1401.74 2270.45,1401.74C2270.45,1360.59 2282.36,1326.48 2306.18,1299.41L2705.38,1299.41C2799.6,1299.41 2901.42,1315.13 2973.45,1340.48C3044.38,1365.45 3093.46,1394.97 3137.86,1446.41C3182.26,1497.85 3215.29,1557.41 3236.95,1625.09C3258.61,1692.77 3269.43,1789.08 3269.43,1865.97C3269.43,1942.86 3258.61,2039.17 3236.95,2106.85C3215.29,2174.53 3182.26,2234.09 3137.86,2285.53C3093.46,2336.97 3044.38,2366.49 2973.45,2391.46C2901.42,2416.81 2799.6,2432.53 2705.38,2432.53L2306.18,2432.53C2282.36,2405.46 2270.45,2371.35 2270.45,2330.2C2306.18,2330.2 2331.9,2323.97 2347.61,2311.52C2363.31,2299.07 2371.16,2278.22 2371.16,2248.98ZM2980.3,1865.97C2980.3,1707.87 2952.68,1592.6 2897.45,1519.51C2842.23,1446.41 2768.59,1409.86 2676.54,1409.86L2655.42,1409.86C2648.93,1409.86 2642.97,1410.95 2637.56,1413.11L2637.56,2318.83C2642.97,2320.99 2648.93,2322.08 2655.42,2322.08L2676.54,2322.08C2768.59,2322.08 2842.23,2285.53 2897.45,2212.43C2952.68,2139.34 2980.3,2024.08 2980.3,1865.97Z" style="fill:rgb(0,151,85);"/>
                </g>
            </g>
            <g id="Glow" transform="matrix(2.14,0,0,0.565161,1756.67,10122.9)">
                <g transform="matrix(3.51986,0,0,13.3588,-37802.2,3148.11)">
                    <path d="M7931.88,1408C7841.05,1408 7762.43,1388.71 7696.02,1350.15C7629.61,1311.59 7578.41,1258.04 7542.42,1189.49C7506.43,1120.93 7488.43,1042.53 7488.43,954.267C7488.43,848.869 7506.43,761.037 7542.42,690.771C7578.41,620.506 7628.11,567.592 7691.52,532.031C7754.93,496.47 7827.77,478.689 7910.03,478.689C7929.74,478.689 7952.66,480.403 7978.79,483.83C8004.93,487.258 8033.85,494.97 8065.55,506.967C8074.12,502.682 8085.69,498.612 8100.26,494.756C8114.82,490.9 8129.39,487.258 8143.96,483.83C8158.53,480.403 8170.1,478.689 8178.66,478.689C8189.8,506.11 8197.94,537.601 8203.09,573.162C8208.23,608.723 8211.66,643.856 8213.37,678.56C8215.08,713.265 8215.94,743.47 8215.94,769.177L8091.26,769.177C8082.69,713.479 8061.27,670.848 8026.99,641.285C7992.72,611.722 7952.44,596.941 7906.17,596.941C7871.9,596.941 7841.05,606.367 7813.63,625.219C7786.2,644.07 7764.57,676.847 7748.72,723.548C7732.86,770.249 7724.94,836.015 7724.94,920.848C7724.94,1011.68 7732.44,1083.44 7747.43,1136.14C7762.43,1188.84 7784.28,1226.55 7812.98,1249.25C7841.69,1271.96 7876.61,1283.32 7917.74,1283.32C7964.01,1283.32 7997.86,1272.18 8019.28,1249.9L8019.28,1103.37C8019.28,1081.09 8009.43,1065.02 7989.72,1055.17C7970.01,1045.31 7940.02,1040.39 7899.74,1040.39C7899.74,1025.82 7902.74,1008.25 7908.74,987.686C7914.74,967.121 7922.02,951.697 7930.59,941.414L8208.23,941.414C8233.93,941.414 8253.21,947.198 8266.07,958.766C8278.92,970.334 8287.28,982.973 8291.13,996.684C8294.99,1010.39 8296.92,1020.68 8296.92,1027.53C8296.92,1036.1 8294.77,1043.81 8290.49,1050.67C8276.78,1050.67 8263.71,1051.31 8251.29,1052.6C8238.86,1053.88 8227.94,1056.67 8218.51,1060.95L8218.51,1208.77C8218.51,1227.62 8220.01,1240.9 8223.01,1248.61C8226.01,1256.32 8229.22,1262.32 8232.65,1266.61C8235.22,1269.18 8237.36,1271.96 8239.08,1274.96C8240.79,1277.96 8241.65,1282.89 8241.65,1289.74C8241.65,1305.17 8227.94,1322.09 8200.51,1340.51C8173.09,1358.94 8136.03,1374.79 8089.33,1388.07C8042.63,1401.35 7990.15,1408 7931.88,1408Z" style="fill:rgb(231,80,34);fill-rule:nonzero;"/>
                </g>
                <g transform="matrix(3.27357,0,0,12.4144,-35852.7,4701.2)">
                    <path d="M8362.47,1390C8353.04,1379.72 8345.76,1369.01 8340.62,1357.87C8335.48,1346.73 8332.91,1334.3 8332.91,1320.59C8357.76,1320.59 8375.75,1315.24 8386.89,1304.52C8398.03,1293.81 8403.6,1275.6 8403.6,1249.9L8403.6,567.378C8403.6,547.669 8398.03,532.031 8386.89,520.463C8375.75,508.895 8352.19,503.111 8316.2,503.111L8316.2,451.697C8337.62,439.7 8362.68,429.203 8391.39,420.206C8420.09,411.208 8448.59,403.925 8476.86,398.355C8505.14,392.785 8528.71,390 8547.56,390C8567.27,390 8581.62,394.284 8590.62,402.853C8599.61,411.422 8604.11,426.418 8604.11,447.841L8604.11,1249.9C8604.11,1276.46 8609.47,1294.88 8620.18,1305.17C8630.89,1315.45 8649.1,1320.59 8674.81,1320.59C8674.81,1334.3 8672.02,1346.73 8666.45,1357.87C8660.88,1369.01 8653.39,1379.72 8643.96,1390L8362.47,1390Z" style="fill:rgb(231,80,34);fill-rule:nonzero;"/>
                </g>
                <g transform="matrix(3.21321,0,0,12.1949,-35384.7,4752.8)">
                    <path d="M9042.42,1406.71C8981.58,1406.71 8927.59,1393.64 8880.46,1367.51C8833.33,1341.37 8796.7,1302.81 8770.57,1251.83C8744.43,1200.84 8731.36,1137.64 8731.36,1062.24C8731.36,981.688 8745.07,913.993 8772.5,859.152C8799.92,804.31 8838.05,762.751 8886.89,734.473C8935.73,706.195 8991.86,692.057 9055.27,692.057C9116.97,692.057 9171.17,705.338 9217.87,731.902C9264.57,758.466 9300.99,797.669 9327.12,849.512C9353.26,901.354 9366.33,965.407 9366.33,1041.67C9366.33,1121.36 9352.61,1188.41 9325.19,1242.83C9297.77,1297.24 9259.64,1338.16 9210.8,1365.58C9161.95,1393 9105.83,1406.71 9042.42,1406.71ZM9052.7,1314.16C9070.69,1314.16 9086.33,1307.74 9099.61,1294.88C9112.9,1282.03 9123.18,1258.25 9130.46,1223.55C9137.75,1188.84 9141.39,1138.5 9141.39,1072.52C9141.39,991.971 9137.53,930.917 9129.82,889.357C9122.11,847.798 9110.97,819.734 9096.4,805.167C9081.84,790.6 9064.7,783.316 9044.99,783.316C9026.99,783.316 9011.14,789.743 8997.43,802.596C8983.72,815.45 8973.22,839.443 8965.94,874.576C8958.66,909.709 8955.01,960.694 8955.01,1027.53C8955.01,1107.22 8959.08,1167.63 8967.23,1208.77C8975.36,1249.9 8986.72,1277.75 9001.29,1292.31C9015.85,1306.88 9032.99,1314.16 9052.7,1314.16Z" style="fill:rgb(231,80,34);fill-rule:nonzero;"/>
                </g>
                <g transform="matrix(3.21321,0,0,12.1949,-35384.7,4896.51)">
                    <path d="M9615.68,1399L9440.88,851.44C9433.16,828.303 9424.38,811.38 9414.52,800.668C9404.67,789.957 9388.6,784.602 9366.33,784.602C9366.33,770.891 9368.47,756.967 9372.75,742.828C9377.04,728.689 9383.89,716.907 9393.32,707.481L9682.52,707.481C9691.95,716.907 9699.23,728.689 9704.37,742.828C9709.51,756.967 9712.08,770.891 9712.08,784.602C9694.94,784.602 9680.59,789.314 9669.02,798.74C9657.46,808.166 9651.67,822.734 9651.67,842.442C9651.67,845.87 9652.32,850.154 9653.6,855.296C9654.89,860.437 9655.96,865.15 9656.81,869.434L9690.23,1044.24L9728.79,1225.48L9785.35,1044.24L9822.62,910.566C9832.91,870.291 9844.26,836.23 9856.68,808.38C9869.11,780.531 9890.75,766.607 9921.59,766.607L10020.6,766.607L10087.4,1042.96L10144,1220.33L10172.2,1042.96L10214.7,861.722C10218.1,848.869 10219.8,837.301 10219.8,827.018C10219.8,798.74 10202.7,784.602 10168.4,784.602C10168.4,770.891 10170.1,756.967 10173.5,742.828C10177,728.689 10183.4,716.907 10192.8,707.481L10438.3,707.481C10448.6,716.907 10455.4,728.689 10458.9,742.828C10462.3,756.967 10464,770.891 10464,784.602C10440,784.602 10421.4,788.672 10408.1,796.812C10394.8,804.953 10384.7,820.591 10377.9,843.728L10263.5,1258.89C10254.9,1292.31 10245.9,1319.31 10236.5,1339.87C10227.1,1360.44 10214.9,1375.43 10199.9,1384.86C10184.9,1394.28 10163.2,1399 10135,1399L10033.4,1399L9912.6,1013.39L9843.19,1261.46C9832.05,1303.45 9820.48,1335.37 9808.48,1357.22C9796.49,1379.08 9775.92,1392.57 9746.79,1397.71L9746.79,1399L9615.68,1399Z" style="fill:rgb(231,80,34);fill-rule:nonzero;"/>
                </g>
            </g>
            <g id="Authority" transform="matrix(6.54804,0,0,6.89461,-66437.6,11728.4)">
                <g id="Colon" transform="matrix(0.852062,0,0,1.14291,2827.67,-441.826)">
                    <path d="M3726.64,1133.34C3726.64,1160.2 3715.45,1180.95 3693.08,1195.6C3670.7,1210.25 3643.95,1217.57 3612.84,1217.57C3581.73,1217.57 3554.72,1210.25 3531.79,1195.6C3509.42,1180.95 3498.23,1160.2 3498.23,1133.34C3498.23,1107.3 3509.42,1086.55 3531.79,1071.09C3554.17,1056.03 3581.19,1048.51 3612.84,1048.51C3644.5,1048.51 3671.24,1056.03 3693.08,1071.09C3715.45,1086.55 3726.64,1107.3 3726.64,1133.34ZM3613.86,1386.03C3613.86,1412.48 3602.67,1433.43 3580.29,1448.9C3557.91,1463.54 3531.17,1470.87 3500.06,1470.87C3468.95,1470.87 3441.93,1463.54 3419.01,1448.9C3396.63,1433.43 3385.44,1412.48 3385.44,1386.03C3385.44,1359.17 3396.63,1338.42 3419.01,1323.77C3441.39,1308.72 3468.4,1301.19 3500.06,1301.19C3531.72,1301.19 3558.46,1308.72 3580.29,1323.77C3602.67,1338.42 3613.86,1359.17 3613.86,1386.03Z" style="fill:rgb(252,180,20);fill-rule:nonzero;"/>
                </g>
                <g id="Slash" transform="matrix(0.535714,0,0,1,2618.88,6.82121e-13)">
                    <path d="M6430.66,1453C6388.5,1520.88 6264.98,1567 6125.37,1567L5957.78,1567C5929.81,1536.39 5941.85,1506.88 5968.98,1478.38C5968.98,1478.38 5981.45,1478.38 5998.08,1478.38C6047.57,1478.38 6091.35,1462.02 6106.29,1437.96C6189.43,1304.05 6457.97,871.549 6587.21,663.388C6629.36,595.507 6752.89,549.375 6892.51,549.375L7048.88,549.375C7073.78,576.433 7081.46,605.943 7071.28,638L7036.35,638C6977.12,638 6924.72,657.567 6906.84,686.36C6818.44,828.675 6557.49,1248.8 6430.66,1453Z" style="fill:rgb(252,180,20);"/>
                </g>
                <g id="Slash1" serif:id="Slash" transform="matrix(0.535714,0,0,1,2909.1,6.25278e-13)">
                    <path d="M6430.66,1453C6388.5,1520.88 6264.98,1567 6125.37,1567L5957.78,1567C5929.81,1536.39 5941.85,1506.88 5968.98,1478.38L5998.08,1478.38C6047.57,1478.38 6091.35,1462.02 6106.29,1437.96C6189.43,1304.05 6457.97,871.549 6587.21,663.388C6629.36,595.507 6752.89,549.375 6892.51,549.375L7048.88,549.375C7073.78,576.433 7081.46,605.943 7071.28,638L7036.35,638C6977.12,638 6924.72,657.567 6906.84,686.36C6818.44,828.675 6557.49,1248.8 6430.66,1453Z" style="fill:rgb(252,180,20);"/>
                </g>
            </g>
        </g>
    </g>
</svg>
