<?xml version="1.0" encoding="UTF-8" standalone="no"?>
<!DOCTYPE svg PUBLIC "-//W3C//DTD SVG 1.1//EN" "http://www.w3.org/Graphics/SVG/1.1/DTD/svg11.dtd">
<svg width="100%" height="100%" viewBox="0 0 5000 2800" version="1.1" xmlns="http://www.w3.org/2000/svg" xmlns:xlink="http://www.w3.org/1999/xlink" xml:space="preserve" xmlns:serif="http://www.serif.com/" style="fill-rule:evenodd;clip-rule:evenodd;stroke-linejoin:round;stroke-miterlimit:2;">
    <g transform="matrix(1.29283,0,0,1.29964,-839.093,-2176.99)">
        <path d="M726.385,2700L726.385,2649.74L786.694,2649.74L786.694,1870.75L726.385,1870.75L726.385,1820.49L1001.55,1820.49C1043.85,1820.49 1083.42,1836.93 1120.28,1869.81C1157.13,1902.68 1186.98,1951.16 1209.8,2015.24C1232.63,2079.32 1244.04,2158.68 1244.04,2253.34C1244.04,2348.83 1232.52,2429.76 1209.49,2496.14C1186.45,2562.52 1156.51,2613.1 1119.65,2647.86C1082.8,2682.62 1043.43,2700 1001.55,2700L726.385,2700ZM976.417,2649.74L993.379,2649.74C1004.69,2649.74 1015.47,2634.46 1025.73,2603.88C1035.99,2573.31 1044.47,2528.5 1051.17,2469.44C1057.88,2410.39 1061.23,2338.35 1061.23,2253.34C1061.23,2174.18 1057.88,2106.02 1051.17,2048.85C1044.47,1991.68 1035.99,1947.71 1025.73,1916.92C1015.47,1886.14 1004.69,1870.75 993.379,1870.75L976.417,1870.75L976.417,2649.74Z" style="fill:rgb(0,151,85);fill-rule:nonzero;"/>
        <path d="M1293.67,2700L1293.67,2649.74L1357.75,2649.74L1357.75,2092.51L1293.67,2092.51L1293.67,2042.25L1546.21,2042.25L1546.21,2649.74L1610.29,2649.74L1610.29,2700L1293.67,2700ZM1452.61,1982.57C1420.78,1982.57 1393.66,1971.3 1371.25,1948.75C1348.85,1926.2 1337.64,1898.73 1337.64,1866.35C1337.64,1834.94 1348.85,1808.03 1371.25,1785.62C1393.66,1763.22 1420.78,1752.02 1452.61,1752.02C1484.02,1752.02 1510.93,1763.22 1533.34,1785.62C1555.74,1808.03 1566.94,1834.94 1566.94,1866.35C1566.94,1898.73 1555.74,1926.2 1533.34,1948.75C1510.93,1971.3 1484.02,1982.57 1452.61,1982.57Z" style="fill:rgb(0,151,85);fill-rule:nonzero;"/>
        <path d="M1835.82,2713.82C1809.86,2713.82 1790.07,2710.58 1776.46,2704.08C1762.85,2697.59 1752.38,2691.1 1745.05,2684.61C1737.72,2678.12 1730.49,2674.87 1723.37,2674.87C1716.67,2674.87 1712.17,2676.97 1709.87,2681.15C1707.56,2685.34 1706.41,2691.62 1706.41,2700L1658.66,2700L1658.66,2482.01L1715.2,2482.01C1717.72,2502.53 1722.43,2523.47 1729.34,2544.83C1736.25,2566.19 1744.84,2585.77 1755.1,2603.57C1765.36,2621.37 1777.19,2635.82 1790.59,2646.91C1803.99,2658.01 1818.44,2663.56 1833.94,2663.56C1846.08,2663.56 1856.03,2661.78 1863.78,2658.22C1871.53,2654.66 1877.29,2649.22 1881.06,2641.89C1884.83,2634.56 1886.71,2625.24 1886.71,2613.93C1886.71,2598.44 1882.52,2582.73 1874.14,2566.82C1865.77,2550.9 1854.15,2534.25 1839.28,2516.87C1824.41,2499.49 1807.13,2481.17 1787.45,2461.9C1751.43,2425.89 1720.86,2388.82 1695.73,2350.71C1670.6,2312.6 1658.04,2265.69 1658.04,2209.99C1658.04,2167.27 1666.41,2132.93 1683.17,2106.96C1699.92,2080.99 1721.49,2062.04 1747.87,2050.11C1774.26,2038.17 1801.9,2032.2 1830.8,2032.2C1850.48,2032.2 1866.19,2035.03 1877.91,2040.68C1889.64,2046.34 1899.17,2051.99 1906.5,2057.64C1913.83,2063.3 1920.21,2066.12 1925.66,2066.12C1929.43,2066.12 1932.67,2064.45 1935.4,2061.1C1938.12,2057.75 1939.48,2051.47 1939.48,2042.25L1988.48,2042.25L1988.48,2254.59L1931.94,2254.59C1930.68,2238.68 1927.65,2220.88 1922.83,2201.19C1918.02,2181.51 1911.52,2162.77 1903.36,2144.97C1895.19,2127.17 1885.35,2112.51 1873.83,2100.99C1862.31,2089.47 1849.02,2083.72 1833.94,2083.72C1813.84,2083.72 1799.28,2091.25 1790.28,2106.33C1781.27,2121.41 1776.77,2137.53 1776.77,2154.7C1776.77,2176.06 1785.67,2197 1803.47,2217.53C1821.27,2238.05 1845.46,2261.92 1876.03,2289.14C1896.97,2307.99 1917.39,2329.04 1937.28,2352.28C1957.17,2375.52 1973.61,2402.33 1986.6,2432.69C1999.58,2463.06 2006.07,2498.13 2006.07,2537.92C2006.07,2582.31 1998.74,2617.39 1984.08,2643.15C1969.42,2668.9 1949.22,2687.12 1923.46,2697.8C1897.7,2708.48 1868.49,2713.82 1835.82,2713.82Z" style="fill:rgb(0,151,85);fill-rule:nonzero;"/>
        <path d="M2051.3,2700L2051.3,2649.74L2116.64,2649.74L2116.64,1807.93L2051.3,1807.93L2051.3,1757.67L2305.1,1757.67L2305.1,2252.71L2438.91,2092.51L2371.7,2092.51L2371.7,2042.25L2580.26,2042.25L2580.26,2092.51L2502.99,2092.51L2444.57,2165.38L2594.09,2649.74L2649.37,2649.74L2649.37,2700L2341.54,2700L2341.54,2649.74L2391.8,2649.74L2297.57,2333.12L2305.1,2329.98L2305.1,2649.74L2341.54,2649.74L2341.54,2700L2051.3,2700Z" style="fill:rgb(0,151,85);fill-rule:nonzero;"/>
        <path d="M2903.17,2712.56C2868.83,2712.56 2836.58,2706.07 2806.43,2693.09C2776.27,2680.11 2749.78,2659.9 2726.95,2632.47C2704.13,2605.03 2686.22,2569.54 2673.24,2525.98C2660.26,2482.43 2653.77,2430.07 2653.77,2368.93C2653.77,2306.94 2661.62,2254.49 2677.33,2211.56C2693.03,2168.63 2713.45,2133.97 2738.58,2107.59C2763.71,2081.2 2790.41,2062.04 2818.68,2050.11C2846.95,2038.17 2873.64,2032.2 2898.77,2032.2C2928.93,2032.2 2957.51,2038.9 2984.53,2052.3C3011.54,2065.71 3035.41,2085.08 3056.14,2110.41C3076.87,2135.75 3093.21,2166.64 3105.14,2203.08C3117.08,2239.51 3123.05,2280.98 3123.05,2327.47C3123.05,2335.84 3122.94,2344.22 3122.73,2352.59C3122.52,2360.97 3122,2369.56 3121.16,2378.35L2833.44,2378.35L2833.44,2328.09L2945.26,2328.09C2945.26,2260.24 2943.27,2208.84 2939.29,2173.87C2935.32,2138.89 2929.87,2115.13 2922.96,2102.56C2916.05,2090 2907.99,2083.72 2898.77,2083.72C2889.14,2083.72 2880.03,2090.31 2871.45,2103.5C2862.86,2116.7 2855.85,2142.35 2850.4,2180.46C2844.95,2218.57 2842.23,2275.32 2842.23,2350.71C2842.23,2407.67 2843.91,2455.62 2847.26,2494.57C2850.61,2533.52 2855.85,2564.72 2862.96,2588.18C2870.08,2611.63 2878.98,2628.49 2889.66,2638.75C2900.34,2649.01 2913.22,2654.14 2928.3,2654.14C2960.55,2654.14 2986.51,2646.29 3006.2,2630.58C3025.88,2614.88 3040.12,2598.86 3048.92,2582.52L3090.38,2615.82C3079.49,2638.85 3056.98,2660.74 3022.85,2681.47C2988.71,2702.2 2948.82,2712.56 2903.17,2712.56Z" style="fill:rgb(0,151,85);fill-rule:nonzero;"/>
        <path d="M3432.13,2711.31C3401.14,2711.31 3371.72,2706.39 3343.87,2696.55C3316.02,2686.7 3293.51,2668.59 3276.33,2642.2C3259.16,2615.82 3250.58,2577.92 3250.58,2528.5L3250.58,2092.51L3155.72,2092.51L3155.72,2042.25L3250.58,2042.25C3275.29,2042.25 3297.07,2033.14 3315.91,2014.92C3334.76,1996.71 3350.15,1972.94 3362.09,1943.62C3374.02,1914.31 3381.88,1882.68 3385.64,1848.76L3439.04,1848.76L3439.04,2042.25L3547.72,2042.25L3547.72,2092.51L3439.04,2092.51L3439.04,2609.54C3439.04,2626.71 3443.34,2638.43 3451.92,2644.72C3460.51,2651 3468.78,2654.14 3476.74,2654.14C3484.28,2654.14 3491.39,2652.88 3498.1,2650.37C3504.8,2647.86 3509.61,2644.93 3512.55,2641.58L3540.82,2681.78C3527.83,2691 3512.75,2698.22 3495.58,2703.45C3478.41,2708.69 3457.26,2711.31 3432.13,2711.31Z" style="fill:rgb(0,151,85);fill-rule:nonzero;"/>
        <path d="M3829.8,2711.31C3798.8,2711.31 3769.38,2706.39 3741.53,2696.55C3713.68,2686.7 3691.17,2668.59 3674,2642.2C3656.83,2615.82 3648.24,2577.92 3648.24,2528.5L3648.24,2092.51L3553.38,2092.51L3553.38,2042.25L3648.24,2042.25C3672.95,2042.25 3694.73,2033.14 3713.58,2014.92C3732.42,1996.71 3747.81,1972.94 3759.75,1943.62C3771.69,1914.31 3779.54,1882.68 3783.31,1848.76L3836.71,1848.76L3836.71,2042.25L3945.39,2042.25L3945.39,2092.51L3836.71,2092.51L3836.71,2609.54C3836.71,2626.71 3841,2638.43 3849.59,2644.72C3858.17,2651 3866.44,2654.14 3874.4,2654.14C3881.94,2654.14 3889.06,2652.88 3895.76,2650.37C3902.46,2647.86 3907.28,2644.93 3910.21,2641.58L3938.48,2681.78C3925.49,2691 3910.42,2698.22 3893.25,2703.45C3876.08,2708.69 3854.93,2711.31 3829.8,2711.31Z" style="fill:rgb(0,151,85);fill-rule:nonzero;"/>
        <path d="M4219.29,2712.56C4184.95,2712.56 4152.7,2706.07 4122.55,2693.09C4092.39,2680.11 4065.9,2659.9 4043.08,2632.47C4020.25,2605.03 4002.35,2569.54 3989.36,2525.98C3976.38,2482.43 3969.89,2430.07 3969.89,2368.93C3969.89,2306.94 3977.74,2254.49 3993.45,2211.56C4009.15,2168.63 4029.57,2133.97 4054.7,2107.59C4079.83,2081.2 4106.53,2062.04 4134.8,2050.11C4163.07,2038.17 4189.77,2032.2 4214.9,2032.2C4245.05,2032.2 4273.63,2038.9 4300.65,2052.3C4327.66,2065.71 4351.53,2085.08 4372.27,2110.41C4393,2135.75 4409.33,2166.64 4421.27,2203.08C4433.2,2239.51 4439.17,2280.98 4439.17,2327.47C4439.17,2335.84 4439.07,2344.22 4438.86,2352.59C4438.65,2360.97 4438.12,2369.56 4437.29,2378.35L4149.56,2378.35L4149.56,2328.09L4261.38,2328.09C4261.38,2260.24 4259.4,2208.84 4255.42,2173.87C4251.44,2138.89 4245.99,2115.13 4239.08,2102.56C4232.17,2090 4224.11,2083.72 4214.9,2083.72C4205.26,2083.72 4196.15,2090.31 4187.57,2103.5C4178.98,2116.7 4171.97,2142.35 4166.52,2180.46C4161.08,2218.57 4158.36,2275.32 4158.36,2350.71C4158.36,2407.67 4160.03,2455.62 4163.38,2494.57C4166.73,2533.52 4171.97,2564.72 4179.09,2588.18C4186.21,2611.63 4195.11,2628.49 4205.79,2638.75C4216.47,2649.01 4229.35,2654.14 4244.42,2654.14C4276.67,2654.14 4302.64,2646.29 4322.32,2630.58C4342.01,2614.88 4356.24,2598.86 4365.04,2582.52L4406.5,2615.82C4395.61,2638.85 4373.1,2660.74 4338.97,2681.47C4304.84,2702.2 4264.94,2712.56 4219.29,2712.56Z" style="fill:rgb(0,151,85);fill-rule:nonzero;"/>
    </g>
    <g transform="matrix(1.0563,0,0,1.0563,400.017,-366.615)">
        <path d="M719.475,2700L719.475,2649.74L777.899,2649.74L777.899,1870.75L719.475,1870.75L719.475,1820.49L1029.19,1820.49L1029.19,1870.75L963.853,1870.75L963.853,2209.99L1153.58,1870.75L1096.41,1870.75L1096.41,1820.49L1265.4,1820.49L1265.4,1870.75L1212,1870.75L1076.93,2110.73L1096.41,2062.36L1245.92,2649.74L1288.02,2649.74L1288.02,2700L1005.94,2700L1005.94,2649.74L1044.89,2649.74L938.724,2220.04L963.853,2233.86L963.853,2649.74L1001.55,2649.74L1001.55,2700L719.475,2700Z" style="fill:rgb(137,24,92);fill-rule:nonzero;"/>
        <path d="M1320.68,2700L1320.68,2649.74L1384.76,2649.74L1384.76,2092.51L1320.68,2092.51L1320.68,2042.25L1573.23,2042.25L1573.23,2649.74L1637.31,2649.74L1637.31,2700L1320.68,2700ZM1479.62,1982.57C1447.79,1982.57 1420.67,1971.3 1398.27,1948.75C1375.86,1926.2 1364.66,1898.73 1364.66,1866.35C1364.66,1834.94 1375.86,1808.03 1398.27,1785.62C1420.67,1763.22 1447.79,1752.02 1479.62,1752.02C1511.03,1752.02 1537.94,1763.22 1560.35,1785.62C1582.76,1808.03 1593.96,1834.94 1593.96,1866.35C1593.96,1898.73 1582.76,1926.2 1560.35,1948.75C1537.94,1971.3 1511.03,1982.57 1479.62,1982.57Z" style="fill:rgb(137,24,92);fill-rule:nonzero;"/>
        <path d="M1908.7,2711.31C1877.7,2711.31 1848.28,2706.39 1820.43,2696.55C1792.58,2686.7 1770.07,2668.59 1752.9,2642.2C1735.73,2615.82 1727.14,2577.92 1727.14,2528.5L1727.14,2092.51L1632.28,2092.51L1632.28,2042.25L1727.14,2042.25C1751.85,2042.25 1773.63,2033.14 1792.48,2014.92C1811.32,1996.71 1826.71,1972.94 1838.65,1943.62C1850.59,1914.31 1858.44,1882.68 1862.21,1848.76L1915.61,1848.76L1915.61,2042.25L2024.29,2042.25L2024.29,2092.51L1915.61,2092.51L1915.61,2609.54C1915.61,2626.71 1919.9,2638.43 1928.49,2644.72C1937.07,2651 1945.34,2654.14 1953.3,2654.14C1960.84,2654.14 1967.96,2652.88 1974.66,2650.37C1981.36,2647.86 1986.18,2644.93 1989.11,2641.58L2017.38,2681.78C2004.4,2691 1989.32,2698.22 1972.15,2703.45C1954.98,2708.69 1933.83,2711.31 1908.7,2711.31Z" style="fill:rgb(137,24,92);fill-rule:nonzero;"/>
        <path d="M2288.14,2713.82C2258.41,2713.82 2229.3,2706.91 2200.82,2693.09C2172.34,2679.27 2146.58,2658.22 2123.55,2629.95C2100.51,2601.68 2082.19,2565.88 2068.58,2522.53C2054.97,2479.18 2048.16,2427.98 2048.16,2368.93C2048.16,2305.27 2056.75,2251.87 2073.92,2208.73C2091.09,2165.59 2112.66,2131.15 2138.63,2105.39C2164.59,2079.63 2191.71,2060.99 2219.98,2049.48C2248.25,2037.96 2273.27,2032.2 2295.05,2032.2C2329.81,2032.2 2359.97,2040.89 2385.52,2058.27C2411.06,2075.65 2430.75,2098.48 2444.57,2126.75C2458.39,2155.02 2465.3,2185.49 2465.3,2218.16C2465.3,2248.31 2458.49,2271.45 2444.88,2287.57C2431.27,2303.7 2414.2,2311.76 2393.68,2311.76C2372.32,2311.76 2354.73,2304.95 2340.91,2291.34C2327.09,2277.73 2320.18,2258.99 2320.18,2235.12C2320.18,2220.04 2323.32,2207.79 2329.61,2198.37C2335.89,2188.94 2342.17,2179.62 2348.45,2170.41C2354.73,2161.2 2357.88,2149.68 2357.88,2135.86C2357.88,2117.43 2352.53,2104.13 2341.86,2095.97C2331.18,2087.8 2319.76,2083.72 2307.62,2083.72C2292.54,2083.72 2280.71,2093.14 2272.12,2111.99C2263.54,2130.83 2257.15,2154.81 2252.96,2183.92C2248.77,2213.02 2246.16,2243.7 2245.11,2275.95C2244.06,2308.2 2243.54,2337.52 2243.54,2363.9C2243.54,2397.83 2244.48,2431.96 2246.37,2466.3C2248.25,2500.64 2251.91,2532.16 2257.36,2560.85C2262.8,2589.54 2270.97,2612.68 2281.86,2630.27C2292.75,2647.86 2306.99,2656.65 2324.58,2656.65C2349.71,2656.65 2368.97,2648.91 2382.38,2633.41C2395.78,2617.91 2405.41,2601.58 2411.27,2584.41L2450.22,2618.33C2440.17,2643.46 2421.43,2665.66 2394,2684.92C2366.57,2704.19 2331.28,2713.82 2288.14,2713.82Z" style="fill:rgb(137,24,92);fill-rule:nonzero;"/>
        <path d="M2508.02,2700L2508.02,2649.74L2573.98,2649.74L2573.98,1807.93L2508.02,1807.93L2508.02,1757.67L2762.45,1757.67L2762.45,2091.25C2762.45,2090.42 2766.74,2085.08 2775.33,2075.23C2783.91,2065.39 2797,2055.76 2814.59,2046.34C2832.18,2036.91 2854.38,2032.2 2881.18,2032.2C2910.92,2032.2 2937.3,2039.22 2960.34,2053.25C2983.37,2067.28 3001.49,2090.1 3014.68,2121.72C3027.87,2153.34 3034.47,2195.75 3034.47,2248.94L3034.47,2649.74L3099.8,2649.74L3099.8,2700L2805.8,2700L2805.8,2649.74L2846,2649.74L2846,2253.34C2846,2209.36 2843.07,2179.73 2837.21,2164.44C2831.34,2149.16 2823.18,2141.51 2812.71,2141.51C2805.17,2141.51 2797.73,2144.55 2790.41,2150.62C2783.08,2156.69 2776.79,2167.16 2771.56,2182.03C2766.32,2196.9 2763.29,2217.32 2762.45,2243.28L2762.45,2649.74L2805.8,2649.74L2805.8,2700L2508.02,2700Z" style="fill:rgb(137,24,92);fill-rule:nonzero;"/>
        <path d="M3395.7,2712.56C3361.35,2712.56 3329.1,2706.07 3298.95,2693.09C3268.8,2680.11 3242.31,2659.9 3219.48,2632.47C3196.65,2605.03 3178.75,2569.54 3165.77,2525.98C3152.78,2482.43 3146.29,2430.07 3146.29,2368.93C3146.29,2306.94 3154.14,2254.49 3169.85,2211.56C3185.56,2168.63 3205.97,2133.97 3231.1,2107.59C3256.23,2081.2 3282.93,2062.04 3311.2,2050.11C3339.47,2038.17 3366.17,2032.2 3391.3,2032.2C3421.45,2032.2 3450.04,2038.9 3477.05,2052.3C3504.06,2065.71 3527.94,2085.08 3548.67,2110.41C3569.4,2135.75 3585.73,2166.64 3597.67,2203.08C3609.61,2239.51 3615.57,2280.98 3615.57,2327.47C3615.57,2335.84 3615.47,2344.22 3615.26,2352.59C3615.05,2360.97 3614.53,2369.56 3613.69,2378.35L3325.96,2378.35L3325.96,2328.09L3437.79,2328.09C3437.79,2260.24 3435.8,2208.84 3431.82,2173.87C3427.84,2138.89 3422.39,2115.13 3415.49,2102.56C3408.57,2090 3400.51,2083.72 3391.3,2083.72C3381.66,2083.72 3372.56,2090.31 3363.97,2103.5C3355.39,2116.7 3348.37,2142.35 3342.93,2180.46C3337.48,2218.57 3334.76,2275.32 3334.76,2350.71C3334.76,2407.67 3336.43,2455.62 3339.78,2494.57C3343.14,2533.52 3348.37,2564.72 3355.49,2588.18C3362.61,2611.63 3371.51,2628.49 3382.19,2638.75C3392.87,2649.01 3405.75,2654.14 3420.83,2654.14C3453.07,2654.14 3479.04,2646.29 3498.72,2630.58C3518.41,2614.88 3532.65,2598.86 3541.44,2582.52L3582.91,2615.82C3572.02,2638.85 3549.51,2660.74 3515.37,2681.47C3481.24,2702.2 3441.35,2712.56 3395.7,2712.56Z" style="fill:rgb(137,24,92);fill-rule:nonzero;"/>
        <path d="M3670.23,2700L3670.23,2649.74L3738.7,2649.74L3738.7,2092.51L3670.23,2092.51L3670.23,2042.25L3921.52,2042.25L3921.52,2102.56C3922.35,2099.21 3927.17,2091.78 3935.97,2080.26C3944.76,2068.74 3957.85,2057.85 3975.23,2047.59C3992.61,2037.33 4014.28,2032.2 4040.25,2032.2C4069.99,2032.2 4096.37,2038.38 4119.41,2050.73C4142.44,2063.09 4160.56,2084.87 4173.75,2116.07C4186.94,2147.27 4193.54,2191.56 4193.54,2248.94L4193.54,2649.74L4260.13,2649.74L4260.13,2700L3964.86,2700L3964.86,2649.74L4005.07,2649.74L4005.07,2247.05C4005.07,2207.68 4002.77,2178.26 3998.16,2158.79C3993.55,2139.31 3985.18,2129.57 3973.03,2129.57C3966.33,2129.57 3960.36,2131.77 3955.13,2136.17C3949.89,2140.57 3945.28,2147.27 3941.31,2156.28C3937.33,2165.28 3934.19,2176.48 3931.88,2189.89C3929.58,2203.29 3928.01,2218.99 3927.17,2237L3927.17,2649.74L3964.86,2649.74L3964.86,2700L3670.23,2700Z" style="fill:rgb(137,24,92);fill-rule:nonzero;"/>
    </g>
    <g transform="matrix(1.03252,0,0,1.11057,-3542.49,858.693)">
        <g transform="matrix(1,0,0,1,474.871,0)">
            <path d="M3746.15,627.363L3353.57,1459.88L3237.58,1459.88L3631.47,627.363L3746.15,627.363Z" style="fill:rgb(210,76,43);fill-rule:nonzero;"/>
        </g>
        <g transform="matrix(1,0,0,1,689.022,0)">
            <path d="M3746.15,627.363L3353.57,1459.88L3237.58,1459.88L3631.47,627.363L3746.15,627.363Z" style="fill:rgb(210,76,43);fill-rule:nonzero;"/>
        </g>
    </g>
    <g transform="matrix(0.673944,0,0,0.903992,-2066.64,839.549)">
        <path d="M3651.73,1133.34C3651.73,1160.2 3640.54,1180.95 3618.16,1195.6C3595.78,1210.25 3569.04,1217.57 3537.93,1217.57C3506.82,1217.57 3479.8,1210.25 3456.88,1195.6C3434.5,1180.95 3423.31,1160.2 3423.31,1133.34C3423.31,1107.3 3434.5,1086.55 3456.88,1071.09C3479.26,1056.03 3506.27,1048.51 3537.93,1048.51C3569.59,1048.51 3596.33,1056.03 3618.16,1071.09C3640.54,1086.55 3651.73,1107.3 3651.73,1133.34ZM3502.63,1386.03C3502.63,1412.48 3491.45,1433.43 3469.07,1448.9C3446.69,1463.54 3419.95,1470.87 3388.84,1470.87C3357.72,1470.87 3330.71,1463.54 3307.78,1448.9C3285.41,1433.43 3274.22,1412.48 3274.22,1386.03C3274.22,1359.17 3285.41,1338.42 3307.78,1323.77C3330.16,1308.72 3357.18,1301.19 3388.84,1301.19C3420.49,1301.19 3447.24,1308.72 3469.07,1323.77C3491.45,1338.42 3502.63,1359.17 3502.63,1386.03Z" style="fill:rgb(235,167,14);fill-rule:nonzero;"/>
    </g>
</svg>
