<?xml version="1.0" encoding="UTF-8" standalone="no"?><!DOCTYPE svg PUBLIC "-//W3C//DTD SVG 1.1//EN" "http://www.w3.org/Graphics/SVG/1.1/DTD/svg11.dtd"><svg width="100%" height="100%" viewBox="0 0 1080 1080" version="1.1" xmlns="http://www.w3.org/2000/svg" xmlns:xlink="http://www.w3.org/1999/xlink" xml:space="preserve" xmlns:serif="http://www.serif.com/" style="fill-rule:evenodd;clip-rule:evenodd;stroke-linejoin:round;stroke-miterlimit:2;"><rect id="Hex-Colored" serif:id="Hex Colored" x="0" y="0" width="1080" height="1080" style="fill:none;"/><path d="M659.078,890.554c-37.397,12.719 -77.472,19.626 -119.148,19.626c-41.764,-0 -81.921,-6.937 -119.386,-19.708c6.437,-19.839 10.991,-40.27 13.583,-60.997c1.659,0.286 3.316,0.711 4.958,1.281c31.598,10.97 65.532,16.924 100.845,16.924c35.236,-0 69.097,-5.928 100.636,-16.852c1.63,-0.564 3.275,-0.986 4.922,-1.271c2.594,20.727 7.15,41.158 13.59,60.997Z" style="fill:#eba70e;"/><path d="M784.175,261.458c29.713,26.027 55.733,57.28 76.57,93.372c20.882,36.169 34.954,74.414 42.626,113.245c-20.4,4.345 -40.37,10.617 -59.617,18.736c-0.581,-1.58 -1.042,-3.228 -1.369,-4.934c-6.299,-32.85 -18.109,-65.215 -35.766,-95.797c-17.618,-30.515 -39.682,-56.876 -64.912,-78.728c-1.304,-1.129 -2.492,-2.343 -3.562,-3.626c16.653,-12.611 32.068,-26.772 46.03,-42.268Z" style="fill:#eba70e;"/><path d="M176.693,467.591c7.683,-38.746 21.739,-76.906 42.577,-112.998c20.882,-36.169 46.968,-67.478 76.76,-93.538c13.963,15.495 29.38,29.654 46.034,42.263c-1.077,1.293 -2.274,2.516 -3.588,3.652c-25.3,21.88 -47.423,48.291 -65.08,78.873c-17.617,30.515 -29.415,62.804 -35.724,95.579c-0.326,1.694 -0.783,3.329 -1.359,4.898c-19.248,-8.117 -39.219,-14.386 -59.62,-18.729Z" style="fill:#eba70e;"/><path d="M642.941,790.737c-31.801,13.097 -66.629,20.323 -103.131,20.323c-36.544,-0 -71.41,-7.242 -103.24,-20.368c0.141,-24.778 -2.521,-49.715 -8.114,-74.324c32.234,20.388 70.426,32.192 111.354,32.192c40.881,-0 79.033,-11.777 111.244,-32.122c-5.591,24.601 -8.253,49.529 -8.113,74.299Z" style="fill:#009755;"/><path d="M705.298,325.101c27.243,20.991 50.915,47.54 69.166,79.152c18.272,31.648 29.433,65.464 33.981,99.593c-21.529,12.267 -41.794,27.04 -60.31,44.189c1.54,-38.11 -7.334,-77.088 -27.798,-112.532c-20.44,-35.404 -49.715,-62.557 -83.441,-80.279c24.101,-7.459 47.02,-17.618 68.402,-30.123Z" style="fill:#009755;"/><path d="M270.799,503.711c4.558,-34.089 15.714,-67.863 33.965,-99.475c18.272,-31.649 41.977,-58.222 69.259,-79.225c21.388,12.511 44.315,22.674 68.424,30.135c-33.774,17.722 -63.093,44.895 -83.557,80.34c-20.44,35.404 -29.317,74.333 -27.803,112.401c-18.51,-17.143 -38.767,-31.912 -60.288,-44.176Z" style="fill:#009755;"/><path d="M540,396c79.476,-0 144,64.524 144,144c0,79.476 -64.524,144 -144,144c-79.476,-0 -144,-64.524 -144,-144c0,-79.476 64.524,-144 144,-144Zm0,102c-23.18,-0 -42,18.82 -42,42c0,23.18 18.82,42 42,42c23.18,-0 42,-18.82 42,-42c0,-23.18 -18.82,-42 -42,-42Z" style="fill:#d24c2b;"/><path d="M803.155,237.973c-59.937,80.114 -155.595,131.97 -263.254,131.97c-107.624,-0 -203.254,-51.822 -263.194,-131.89l69.884,-40.344c45.596,56.24 115.238,92.207 193.211,92.207c78.045,-0 147.743,-36.033 193.337,-92.363l70.016,40.42Zm-105.172,-60.715c-38.276,44.473 -94.962,72.658 -158.181,72.658c-63.147,-0 -119.776,-28.12 -158.049,-72.505l71.375,-41.204c22.887,20.939 53.343,33.736 86.773,33.736c33.467,-0 63.954,-12.826 86.849,-33.806l71.233,41.121Z" style="fill:#89185c;"/><path d="M146.831,584.283c57.51,10.99 110.105,45.956 141.648,100.59c31.591,54.718 35.539,117.86 16.201,173.22l-71.116,-41.051c6.729,-30.325 2.595,-63.148 -14.143,-92.139c-16.712,-28.947 -43.017,-48.922 -72.59,-58.275l0,-82.345Zm193.008,294.105c25.943,-67.627 22.284,-145.96 -16.719,-213.515c-38.956,-67.473 -104.851,-109.787 -176.289,-121.195l0,-80.76c99.303,11.881 191.987,68.787 245.795,161.985c53.829,93.234 56.75,202.002 17.34,293.964l-70.127,-40.479Z" style="fill:#89185c;"/><path d="M669.724,919.046c-39.494,-92.002 -36.605,-200.853 17.26,-294.15c53.878,-93.32 146.734,-150.252 246.185,-162.032l-0,80.679c-71.769,11.204 -138.036,53.587 -177.148,121.33c-39.081,67.691 -42.677,146.201 -16.563,213.921l-69.734,40.252Zm104.881,-60.541c-19.502,-55.458 -15.613,-118.778 16.057,-173.632c31.7,-54.906 84.662,-89.948 142.507,-100.752l-0,82.377c-29.731,9.301 -56.194,29.324 -72.98,58.398c-16.775,29.056 -20.89,61.963 -14.096,92.345l-71.488,41.264Z" style="fill:#89185c;"/><path d="M90,371.851c0,-56.708 30.256,-109.099 79.357,-137.442l291.282,-168.154c49.12,-28.34 109.602,-28.34 158.724,0.002l291.279,168.152c49.102,28.343 79.358,80.734 79.358,137.442l0,336.301c0,56.684 -30.251,109.075 -79.354,137.441l-291.277,168.133c-49.125,28.365 -109.613,28.365 -158.734,0.002l-291.285,-168.138c-49.099,-28.363 -79.35,-80.754 -79.35,-137.438l0,-336.301Zm56.831,0l0,336.301c0,36.391 19.426,70.024 50.948,88.234l291.273,168.131c31.534,18.208 70.362,18.208 101.898,-0.001l291.271,-168.13c31.522,-18.21 50.948,-51.843 50.948,-88.234l-0,-336.301c-0,-36.403 -19.421,-70.036 -50.941,-88.23l-291.273,-168.148c-31.538,-18.197 -70.372,-18.197 -101.91,-0l-291.273,168.148c-31.52,18.194 -50.941,51.827 -50.941,88.23Z" style="fill:#16274a;"/></svg>