<?xml version="1.0" encoding="UTF-8" standalone="no"?><!DOCTYPE svg PUBLIC "-//W3C//DTD SVG 1.1//EN" "http://www.w3.org/Graphics/SVG/1.1/DTD/svg11.dtd"><svg width="100%" height="100%" viewBox="0 0 1080 1080" version="1.1" xmlns="http://www.w3.org/2000/svg" xmlns:xlink="http://www.w3.org/1999/xlink" xml:space="preserve" xmlns:serif="http://www.serif.com/" style="fill-rule:evenodd;clip-rule:evenodd;stroke-linejoin:round;stroke-miterlimit:2;"><rect id="No-Boarder-Colored" serif:id="No Boarder Colored" x="0" y="0" width="1080" height="1080" style="fill:none;"/><path d="M158.683,472.302c16.361,-89.4 63.438,-168.125 129.875,-224.816c5.853,11.613 13.981,22.32 24.34,31.427c6.543,5.753 13.306,11.261 20.274,16.51c-57.069,47.835 -97.341,115.064 -110.632,191.504c-7.968,-3.385 -16.056,-6.467 -24.244,-9.242c-13.14,-4.454 -26.556,-6.144 -39.613,-5.383Zm270.553,372.701c34.522,12.646 71.802,19.548 110.683,19.548c38.77,0 75.949,-6.863 110.388,-19.441c1.071,8.705 2.472,17.36 4.198,25.946c2.71,13.483 7.904,25.839 15.011,36.686c-40.53,14.396 -84.156,22.233 -129.597,22.233c-45.535,0 -89.246,-7.869 -129.846,-22.321c7.079,-10.828 12.253,-23.157 14.955,-36.607c1.732,-8.618 3.136,-17.306 4.208,-26.044Zm-222.136,-103.999c-1.961,-3.276 -3.874,-6.584 -5.74,-9.923c1.042,1.638 2.053,3.306 3.033,5.003c0.94,1.629 1.843,3.269 2.707,4.92Zm324.631,-586.085c2.723,-0.057 5.452,-0.085 8.188,-0.085c2.737,-0 5.468,0.028 8.193,0.085c-2.709,0.163 -5.44,0.246 -8.19,0.246c-2.75,-0 -5.481,-0.083 -8.191,-0.246Zm259.572,92.588c66.377,56.649 113.426,135.294 129.816,224.605c-12.925,-0.728 -26.199,0.946 -39.21,5.325c-8.322,2.801 -16.54,5.92 -24.636,9.35c-13.315,-76.38 -53.572,-143.556 -110.604,-191.361c6.994,-5.269 13.781,-10.798 20.346,-16.573c10.331,-9.088 18.442,-19.765 24.288,-31.346Zm88.91,480.435c-3.018,5.519 -6.166,10.956 -9.44,16.308c1.351,-2.757 2.804,-5.486 4.362,-8.184c1.609,-2.788 3.304,-5.497 5.078,-8.124Z" style="fill:#eba70e;"/><path d="M647.748,804.944c-33.288,13.71 -69.745,21.274 -107.955,21.274c-38.254,0 -74.751,-7.581 -108.07,-21.321c0.148,-25.937 -2.639,-52.04 -8.494,-77.801c33.743,21.342 73.722,33.698 116.564,33.698c42.794,0 82.731,-12.327 116.448,-33.625c-5.852,25.753 -8.639,51.847 -8.493,77.775Z" style="fill:#009755;"/><path d="M713.023,317.525c28.517,21.974 53.296,49.765 72.401,82.855c19.127,33.129 30.81,68.527 35.571,104.252c-22.536,12.841 -43.749,28.305 -63.131,46.256c1.611,-39.892 -7.677,-80.693 -29.098,-117.796c-21.397,-37.06 -52.042,-65.483 -87.345,-84.034c25.229,-7.808 49.22,-18.442 71.602,-31.533Z" style="fill:#009755;"/><path d="M258.198,504.491c4.77,-35.683 16.448,-71.038 35.553,-104.129c19.127,-33.128 43.941,-60.945 72.5,-82.931c22.388,13.097 46.387,23.735 71.624,31.546c-35.353,18.55 -66.044,46.995 -87.465,84.097c-21.397,37.061 -30.689,77.811 -29.104,117.66c-19.376,-17.945 -40.581,-33.405 -63.108,-46.243Z" style="fill:#009755;"/><path d="M540,396c79.476,0 144,64.524 144,144c-0,79.476 -64.524,144 -144,144c-79.476,0 -144,-64.524 -144,-144c-0,-79.476 64.524,-144 144,-144Zm0,102c-23.18,-0 -42,18.82 -42,42c0,23.18 18.82,42 42,42c23.18,-0 42,-18.82 42,-42c0,-23.18 -18.82,-42 -42,-42Z" style="fill:#d24c2b;"/><path d="M628.739,121.66c43.378,-38.159 109.576,-33.921 147.735,9.458c38.158,43.379 33.92,109.576 -9.459,147.735c-60.611,53.317 -140.104,85.668 -227.093,85.668c-86.956,-0 -166.421,-32.327 -227.024,-85.608c-43.388,-38.147 -47.644,-104.343 -9.497,-147.732c38.147,-43.389 104.343,-47.644 147.732,-9.497c23.702,20.838 54.781,33.481 88.789,33.481c34.022,-0 65.112,-12.653 88.817,-33.505Zm55.351,63.167c-38.528,33.892 -89.059,54.456 -144.355,54.456c-55.275,0 -105.788,-20.549 -144.311,-54.417c-8.535,-7.504 -21.556,-6.667 -29.059,1.868c-7.504,8.535 -6.667,21.556 1.868,29.059c45.781,40.251 105.812,64.672 171.502,64.672c65.715,-0 125.767,-24.44 171.554,-64.717c8.533,-7.506 9.367,-20.528 1.861,-29.06c-7.506,-8.533 -20.527,-9.367 -29.06,-1.861Z" style="fill:#89185c;"/><path d="M131.1,675.964c-54.717,-18.543 -84.085,-78.021 -65.541,-132.738c18.543,-54.717 78.021,-84.085 132.737,-65.541c76.343,25.872 143.973,78.496 187.405,153.721c43.52,75.379 55.237,160.453 39.327,239.641c-11.38,56.642 -66.605,93.389 -123.246,82.008c-56.642,-11.38 -93.388,-66.604 -82.008,-123.246c6.222,-30.971 1.64,-64.244 -15.381,-93.725c-16.986,-29.42 -43.436,-50.001 -73.293,-60.12Zm26.749,-79.638c48.528,16.446 91.518,49.897 119.126,97.715c27.664,47.915 35.112,101.994 24.999,152.331c-2.239,11.142 4.989,22.005 16.131,24.243c11.142,2.239 22.005,-4.989 24.243,-16.131c12.019,-59.822 3.167,-124.09 -29.709,-181.034c-32.81,-56.828 -83.9,-96.582 -141.572,-116.127c-10.763,-3.647 -22.463,2.129 -26.11,12.892c-3.648,10.763 2.129,22.463 12.892,26.111Z" style="fill:#89185c;"/><path d="M859.756,829.801c11.384,56.64 -25.358,111.868 -81.998,123.253c-56.641,11.384 -111.869,-25.358 -123.253,-81.998c-15.918,-79.197 -4.203,-164.281 39.322,-239.669c43.56,-75.447 111.461,-128.16 188.082,-153.95c54.754,-18.43 114.171,11.061 132.602,65.816c18.43,54.755 -11.061,114.172 -65.816,132.602c-29.967,10.087 -56.524,30.702 -73.56,60.211c-17.023,29.484 -21.605,62.761 -15.379,93.735Zm-82.728,16.536c-10.118,-50.343 -2.671,-104.428 24.996,-152.349c27.689,-47.96 70.852,-81.467 119.557,-97.861c10.771,-3.625 16.572,-15.313 12.947,-26.083c-3.626,-10.771 -15.313,-16.572 -26.084,-12.947c-57.882,19.483 -109.177,59.304 -142.084,116.3c-32.881,56.951 -41.731,121.227 -29.706,181.055c2.24,11.141 13.103,18.369 24.245,16.129c11.141,-2.239 18.369,-13.103 16.129,-24.244Z" style="fill:#89185c;"/></svg>