<?xml version="1.0" encoding="UTF-8" standalone="no"?>
<!DOCTYPE svg PUBLIC "-//W3C//DTD SVG 1.1//EN" "http://www.w3.org/Graphics/SVG/1.1/DTD/svg11.dtd">
<svg width="100%" height="100%" viewBox="0 0 5000 2300" version="1.1" xmlns="http://www.w3.org/2000/svg" xmlns:xlink="http://www.w3.org/1999/xlink" xml:space="preserve" xmlns:serif="http://www.serif.com/" style="fill-rule:evenodd;clip-rule:evenodd;stroke-linejoin:round;stroke-miterlimit:2;">
    <g transform="matrix(0.798217,0,0,0.798217,-1712.31,-788.528)">
        <path d="M2702.53,2451.08C2677.62,2451.08 2649.47,2449.46 2618.06,2446.21C2586.66,2442.96 2546.59,2439.98 2497.86,2437.27C2449.13,2434.57 2385.24,2433.21 2306.18,2433.21C2282.36,2402.89 2270.45,2368.24 2270.45,2329.25C2306.18,2329.25 2331.9,2323.03 2347.61,2310.57C2363.31,2298.12 2371.16,2276.73 2371.16,2246.41L2371.16,1482.96C2371.16,1453.72 2363.31,1432.88 2347.61,1420.42C2331.9,1407.97 2306.18,1401.74 2270.45,1401.74C2270.45,1360.59 2282.36,1326.48 2306.18,1299.41C2413.39,1299.41 2504.09,1296.16 2578.27,1289.66C2652.45,1283.16 2701.45,1279.91 2725.27,1279.91C2819.49,1279.91 2900.7,1294.8 2968.93,1324.58C3037.15,1354.36 3093.46,1394.97 3137.86,1446.41C3182.26,1497.85 3215.29,1557.41 3236.95,1625.09C3258.61,1692.77 3269.43,1765.06 3269.43,1841.94C3269.43,1925.33 3258.61,2003.84 3236.95,2077.48C3215.29,2151.12 3181.45,2215.82 3135.42,2271.59C3089.4,2327.36 3030.65,2371.22 2959.18,2403.16C2887.71,2435.11 2802.16,2451.08 2702.53,2451.08ZM2689.53,2316.26C2749.1,2316.26 2800.53,2301.64 2843.85,2272.4C2887.17,2243.16 2920.74,2195.51 2944.56,2129.46C2968.39,2063.4 2980.3,1975.68 2980.3,1866.31C2980.3,1708.2 2952.68,1592.6 2897.45,1519.51C2842.23,1446.41 2768.59,1409.86 2676.54,1409.86L2655.42,1409.86C2648.93,1409.86 2642.97,1410.95 2637.56,1413.11L2637.56,2313.01C2646.22,2314.09 2655.15,2314.91 2664.36,2315.45C2673.56,2315.99 2681.95,2316.26 2689.53,2316.26Z" style="fill:rgb(0,151,85);fill-rule:nonzero;"/>
        <path d="M3571.57,1437.48C3525,1437.48 3487.91,1423.67 3460.3,1396.06C3432.68,1368.44 3418.88,1331.35 3418.88,1284.79C3418.88,1239.31 3433.22,1202.49 3461.92,1174.33C3490.62,1146.17 3528.25,1132.1 3574.82,1132.1C3622.46,1132.1 3660.09,1146.17 3687.71,1174.33C3715.32,1202.49 3729.13,1239.31 3729.13,1284.79C3729.13,1331.35 3714.78,1368.44 3686.08,1396.06C3657.39,1423.67 3619.21,1437.48 3571.57,1437.48ZM3389.64,2433.21C3377.72,2421.3 3368.52,2408.31 3362.02,2394.23C3355.53,2380.15 3352.28,2363.91 3352.28,2345.5C3383.68,2345.5 3406.96,2338.73 3422.12,2325.19C3437.28,2311.66 3444.87,2288.64 3444.87,2256.16L3444.87,1785.09C3444.87,1756.94 3438.1,1735.82 3424.56,1721.74C3411.02,1707.66 3382.06,1700.62 3337.66,1700.62L3337.66,1629.15C3353.9,1619.41 3378.81,1608.31 3412.38,1595.85C3445.95,1583.4 3482.5,1572.84 3522.02,1564.18C3561.55,1555.51 3597.01,1551.18 3628.42,1551.18C3653.33,1551.18 3671.19,1556.87 3682.02,1568.24C3692.85,1579.61 3698.27,1598.83 3698.27,1625.9L3698.27,2257.78C3698.27,2290.27 3706.39,2313.01 3722.63,2326.01C3738.88,2339 3762.7,2345.5 3794.1,2345.5C3794.1,2363.91 3790.86,2380.15 3784.36,2394.23C3777.86,2408.31 3768.66,2421.3 3756.74,2433.21L3389.64,2433.21Z" style="fill:rgb(0,151,85);fill-rule:nonzero;"/>
        <path d="M4195.32,2449.46C4156.34,2449.46 4117.08,2445.12 4077.56,2436.46C4038.03,2427.8 4001.75,2415.35 3968.72,2399.1C3935.69,2382.86 3908.89,2362.55 3888.32,2338.19C3867.74,2313.82 3857.45,2285.94 3857.45,2254.53C3857.45,2216.63 3868.28,2186.04 3889.94,2162.76C3911.6,2139.47 3939.21,2127.83 3972.78,2127.83C4003.11,2127.83 4028.83,2137.58 4049.94,2157.07C4071.06,2176.56 4081.62,2202.01 4081.62,2233.42C4081.62,2247.49 4079.45,2259.68 4075.12,2269.96C4070.79,2280.25 4064.29,2291.35 4055.63,2303.26C4065.37,2313.01 4082.7,2320.05 4107.61,2324.38C4132.51,2328.71 4156.88,2330.88 4180.7,2330.88C4218.61,2330.88 4247.84,2323.84 4268.42,2309.76C4288.99,2295.68 4299.28,2278.36 4299.28,2257.78C4299.28,2225.29 4281.95,2197.41 4247.3,2174.13C4212.65,2150.84 4173.12,2127.29 4128.72,2103.47C4088.66,2081.81 4048.86,2058.8 4009.33,2034.43C3969.81,2010.07 3936.78,1979.47 3910.25,1942.65C3883.72,1905.84 3870.45,1859.27 3870.45,1802.96C3870.45,1731.49 3900.23,1672.47 3959.79,1625.9C4019.35,1579.34 4103.82,1556.06 4213.19,1556.06C4288.99,1556.06 4349.64,1565.53 4395.12,1584.48C4440.6,1603.43 4473.63,1627.26 4494.2,1655.95C4514.78,1684.65 4525.07,1714.7 4525.07,1746.11C4525.07,1779.68 4514.51,1806.48 4493.39,1826.51C4472.28,1846.55 4446.56,1856.56 4416.24,1856.56C4389.16,1856.56 4365.34,1848.17 4344.76,1831.39C4324.19,1814.6 4313.9,1792.67 4313.9,1765.6C4313.9,1752.6 4316.07,1738.53 4320.4,1723.37C4324.73,1708.2 4330.69,1695.75 4338.27,1686.01C4326.35,1676.26 4312.55,1669.49 4296.85,1665.7C4281.14,1661.91 4262.46,1660.02 4240.8,1660.02C4205.07,1660.02 4177.73,1668.41 4158.77,1685.19C4139.82,1701.98 4130.35,1722.28 4130.35,1746.11C4130.35,1782.93 4147.94,1813.25 4183.14,1837.07C4218.33,1860.89 4257.59,1884.18 4300.91,1906.92C4340.97,1927.49 4380.23,1949.69 4418.67,1973.52C4457.12,1997.34 4489.33,2027.12 4515.32,2062.86C4541.31,2098.59 4554.31,2144.62 4554.31,2200.93C4554.31,2261.57 4536.98,2310.03 4502.33,2346.31C4467.67,2382.59 4423,2408.85 4368.32,2425.09C4313.63,2441.34 4255.97,2449.46 4195.32,2449.46Z" style="fill:rgb(0,151,85);fill-rule:nonzero;"/>
        <path d="M5381.11,2449.46C5321.55,2449.46 5273.9,2436.73 5238.16,2411.28C5202.43,2385.84 5173.46,2353.62 5151.26,2314.63C5129.06,2275.65 5109.3,2236.12 5091.97,2196.06C5074.65,2154.91 5056.24,2117.55 5036.74,2083.97C5017.25,2050.4 4991.8,2027.66 4960.4,2015.75L4960.4,2264.28C4960.4,2295.68 4967.17,2318.15 4980.7,2331.69C4994.24,2345.23 5017.79,2351.99 5051.36,2351.99C5051.36,2369.32 5047.84,2385.02 5040.8,2399.1C5033.77,2413.18 5024.29,2426.17 5012.38,2438.09L4655.02,2438.09C4629.03,2415.35 4616.03,2386.65 4616.03,2351.99C4648.52,2351.99 4671.53,2345.23 4685.07,2331.69C4698.61,2318.15 4705.37,2295.68 4705.37,2264.28L4705.37,1383.87C4705.37,1358.97 4698.33,1339.2 4684.26,1324.58C4670.18,1309.96 4640.94,1302.65 4596.54,1302.65L4596.54,1237.68C4623.61,1223.6 4655.29,1210.61 4691.57,1198.69C4727.84,1186.78 4763.85,1177.04 4799.59,1169.46C4835.32,1161.88 4864.56,1158.09 4887.3,1158.09C4913.29,1158.09 4931.97,1163.77 4943.34,1175.14C4954.71,1186.51 4960.4,1206.28 4960.4,1234.43L4960.4,1957.27L5139.08,1772.1C5145.58,1765.6 5152.34,1757.75 5159.38,1748.54C5166.42,1739.34 5169.94,1730.95 5169.94,1723.37C5169.94,1708.2 5158.3,1694.13 5135.02,1681.13C5111.73,1668.14 5089.27,1661.64 5067.61,1661.64C5067.61,1622.65 5080.06,1589.63 5104.97,1562.55L5470.45,1562.55C5483.44,1575.55 5491.84,1590.71 5495.63,1608.04C5499.42,1625.36 5501.31,1643.23 5501.31,1661.64C5472.07,1661.64 5450.15,1666.24 5435.53,1675.45C5420.91,1684.65 5407.64,1694.67 5395.73,1705.5L5148.82,1949.15C5188.89,1955.65 5222.46,1968.64 5249.53,1988.14C5276.61,2007.63 5302.06,2038.49 5325.88,2080.73C5359.45,2140.29 5385.71,2187.12 5404.66,2221.23C5423.61,2255.35 5441.48,2281.06 5458.27,2298.39C5475.05,2315.72 5497.52,2329.25 5525.68,2339L5527.3,2377.99C5524.05,2400.73 5508.89,2418.32 5481.82,2430.78C5454.75,2443.23 5421.18,2449.46 5381.11,2449.46Z" style="fill:rgb(0,151,85);fill-rule:nonzero;"/>
        <path d="M5933.39,2447.83C5812.11,2447.83 5715.46,2409.39 5643.44,2332.5C5571.43,2255.62 5535.42,2148.41 5535.42,2010.88C5535.42,1916.66 5553.29,1835.18 5589.03,1766.41C5624.76,1697.65 5673.22,1644.85 5734.41,1608.04C5795.59,1571.22 5865.17,1552.81 5943.14,1552.81C6040.6,1552.81 6118.84,1581.23 6177.86,1638.09C6236.88,1694.94 6266.39,1774.8 6266.39,1877.68C6266.39,1918.83 6259.62,1954.84 6246.08,1985.7C6232.55,2016.56 6204.66,2032 6162.43,2032L5811.57,2032C5814.82,2117.55 5834.58,2178.19 5870.86,2213.92C5907.13,2249.66 5954.51,2267.53 6012.99,2267.53C6049.81,2267.53 6083.92,2261.84 6115.32,2250.47C6146.73,2239.1 6175.97,2223.13 6203.04,2202.55C6212.78,2211.22 6220.64,2224.48 6226.59,2242.35C6232.55,2260.22 6235.53,2275.11 6235.53,2287.02C6235.53,2304.35 6223.34,2325.73 6198.98,2351.18C6174.61,2376.63 6139.96,2399.1 6095.02,2418.59C6050.08,2438.09 5996.2,2447.83 5933.39,2447.83ZM5811.57,1908.54L5975.63,1908.54C5994.04,1908.54 6005.68,1901.5 6010.55,1887.43C6015.42,1873.35 6017.86,1856.02 6017.86,1835.45C6017.86,1766.14 6009.47,1720.39 5992.68,1698.19C5975.9,1675.99 5956.13,1664.89 5933.39,1664.89C5914.98,1664.89 5896.57,1671.93 5878.16,1686.01C5859.76,1700.08 5844.6,1724.72 5832.68,1759.91C5820.77,1795.11 5813.73,1844.65 5811.57,1908.54Z" style="fill:rgb(0,151,85);fill-rule:nonzero;"/>
        <path d="M6675.73,2444.58C6630.25,2444.58 6588.55,2436.19 6550.65,2419.41C6512.75,2402.62 6482.16,2373.65 6458.88,2332.5C6435.59,2291.35 6423.95,2235.04 6423.95,2163.57L6423.95,1716.87L6321.62,1716.87L6321.62,1617.78C6350.86,1613.45 6378.47,1595.04 6404.46,1562.55C6430.45,1530.07 6452.92,1490 6471.87,1442.35C6490.82,1394.7 6503,1347.05 6508.42,1299.41C6527.91,1296.16 6545.78,1294.53 6562.02,1294.53C6605.34,1294.53 6635.39,1306.99 6652.18,1331.89C6668.96,1356.8 6677.35,1380.08 6677.35,1401.74L6677.35,1572.3L6865.78,1572.3C6865.78,1598.29 6864.43,1624.01 6861.72,1649.46C6859.01,1674.9 6851.7,1697.38 6839.79,1716.87L6680.6,1716.87L6680.6,2174.94C6680.6,2209.59 6687.64,2232.6 6701.72,2243.97C6715.8,2255.35 6733.66,2261.03 6755.32,2261.03C6776.98,2261.03 6798.91,2255.35 6821.11,2243.97C6843.31,2232.6 6860.91,2219.34 6873.9,2204.18C6885.81,2213.92 6893.94,2228.27 6898.27,2247.22C6902.6,2266.17 6904.76,2280.52 6904.76,2290.27C6904.76,2314.09 6896.64,2337.92 6880.4,2361.74C6864.15,2385.57 6838.98,2405.33 6804.86,2421.03C6770.75,2436.73 6727.71,2444.58 6675.73,2444.58Z" style="fill:rgb(0,151,85);fill-rule:nonzero;"/>
        <path d="M7288.11,2444.58C7242.63,2444.58 7200.94,2436.19 7163.04,2419.41C7125.14,2402.62 7094.54,2373.65 7071.26,2332.5C7047.98,2291.35 7036.34,2235.04 7036.34,2163.57L7036.34,1716.87L6934,1716.87L6934,1617.78C6963.24,1613.45 6990.86,1595.04 7016.85,1562.55C7042.84,1530.07 7065.31,1490 7084.26,1442.35C7103.21,1394.7 7115.39,1347.05 7120.8,1299.41C7140.3,1296.16 7158.16,1294.53 7174.41,1294.53C7217.73,1294.53 7247.78,1306.99 7264.56,1331.89C7281.35,1356.8 7289.74,1380.08 7289.74,1401.74L7289.74,1572.3L7478.16,1572.3C7478.16,1598.29 7476.81,1624.01 7474.1,1649.46C7471.4,1674.9 7464.09,1697.38 7452.18,1716.87L7292.99,1716.87L7292.99,2174.94C7292.99,2209.59 7300.03,2232.6 7314.1,2243.97C7328.18,2255.35 7346.05,2261.03 7367.71,2261.03C7389.37,2261.03 7411.3,2255.35 7433.49,2243.97C7455.69,2232.6 7473.29,2219.34 7486.29,2204.18C7498.2,2213.92 7506.32,2228.27 7510.65,2247.22C7514.98,2266.17 7517.15,2280.52 7517.15,2290.27C7517.15,2314.09 7509.03,2337.92 7492.78,2361.74C7476.54,2385.57 7451.36,2405.33 7417.25,2421.03C7383.14,2436.73 7340.09,2444.58 7288.11,2444.58Z" style="fill:rgb(0,151,85);fill-rule:nonzero;"/>
        <path d="M7950.86,2447.83C7829.57,2447.83 7732.92,2409.39 7660.91,2332.5C7588.89,2255.62 7552.89,2148.41 7552.89,2010.88C7552.89,1916.66 7570.75,1835.18 7606.49,1766.41C7642.23,1697.65 7690.69,1644.85 7751.87,1608.04C7813.06,1571.22 7882.63,1552.81 7960.6,1552.81C8058.06,1552.81 8136.3,1581.23 8195.32,1638.09C8254.34,1694.94 8283.85,1774.8 8283.85,1877.68C8283.85,1918.83 8277.08,1954.84 8263.55,1985.7C8250.01,2016.56 8222.12,2032 8179.89,2032L7829.03,2032C7832.28,2117.55 7852.04,2178.19 7888.32,2213.92C7924.6,2249.66 7971.97,2267.53 8030.45,2267.53C8067.27,2267.53 8101.38,2261.84 8132.78,2250.47C8164.19,2239.1 8193.43,2223.13 8220.5,2202.55C8230.25,2211.22 8238.1,2224.48 8244.05,2242.35C8250.01,2260.22 8252.99,2275.11 8252.99,2287.02C8252.99,2304.35 8240.8,2325.73 8216.44,2351.18C8192.07,2376.63 8157.42,2399.1 8112.48,2418.59C8067.54,2438.09 8013.66,2447.83 7950.86,2447.83ZM7829.03,1908.54L7993.09,1908.54C8011.5,1908.54 8023.14,1901.5 8028.01,1887.43C8032.89,1873.35 8035.32,1856.02 8035.32,1835.45C8035.32,1766.14 8026.93,1720.39 8010.15,1698.19C7993.36,1675.99 7973.6,1664.89 7950.86,1664.89C7932.45,1664.89 7914.04,1671.93 7895.63,1686.01C7877.22,1700.08 7862.06,1724.72 7850.15,1759.91C7838.23,1795.11 7831.19,1844.65 7829.03,1908.54Z" style="fill:rgb(0,151,85);fill-rule:nonzero;"/>
    </g>
    <g transform="matrix(0.731612,0,0,0.731612,-33.8019,1641.2)">
        <path d="M2011.96,741.486C1966.48,741.486 1928.04,733.906 1896.63,718.745C1865.23,703.584 1839.24,683.821 1818.66,659.456C1798.09,635.09 1780.49,609.1 1765.87,581.486C1751.25,553.872 1737.99,528.153 1726.07,504.329C1715.24,481.588 1701.71,454.786 1685.46,423.923C1669.22,393.06 1651.62,362.197 1632.67,331.334C1613.72,300.471 1593.96,273.398 1573.38,250.116C1552.81,226.833 1532.23,210.86 1511.66,202.197L1511.66,533.567C1511.66,563.889 1518.97,585.006 1533.59,596.918C1548.2,608.83 1573.38,614.786 1609.12,614.786C1609.12,634.278 1605.87,653.229 1599.37,671.638C1592.88,690.048 1584.21,705.75 1573.38,718.745L1175.41,718.745C1151.59,691.672 1139.68,657.019 1139.68,614.786C1175.41,614.786 1200.59,608.83 1215.21,596.918C1229.83,585.006 1237.14,563.889 1237.14,533.567L1237.14,-229.884C1237.14,-260.206 1229.83,-281.593 1215.21,-294.047C1200.59,-306.5 1175.41,-312.727 1139.68,-312.727C1139.68,-353.878 1151.59,-387.989 1175.41,-415.062L1573.38,-415.062C1584.21,-402.067 1592.88,-386.365 1599.37,-367.956C1605.87,-349.546 1609.12,-331.137 1609.12,-312.727C1573.38,-312.727 1548.2,-306.5 1533.59,-294.047C1518.97,-281.593 1511.66,-260.206 1511.66,-229.884L1511.66,91.74L1539.27,91.74C1550.1,91.74 1560.93,92.823 1571.76,94.989L1800.79,-208.768C1808.37,-217.431 1813.79,-227.177 1817.04,-238.006C1820.29,-248.835 1821.91,-258.582 1821.91,-267.245C1821.91,-281.323 1811.62,-292.423 1791.05,-300.544C1770.47,-308.666 1749.36,-312.727 1727.7,-312.727C1727.7,-350.629 1740.15,-384.741 1765.06,-415.062L2143.53,-415.062C2154.36,-400.984 2163.03,-385.011 2169.53,-367.143C2176.02,-349.275 2179.27,-331.137 2179.27,-312.727C2132.71,-312.727 2096.97,-303.522 2072.06,-285.113C2047.16,-266.703 2028.75,-249.918 2016.84,-234.758L1709.83,129.1C1762.89,152.924 1806.48,181.892 1840.59,216.004C1874.7,250.116 1907.46,291.537 1938.87,340.268C1971.35,388.999 1998.97,432.586 2021.71,471.029C2044.45,509.473 2067.73,540.065 2091.55,562.806C2115.38,585.547 2143.53,599.083 2176.02,603.415L2176.02,668.39C2158.7,691.131 2137.85,708.999 2113.48,721.994C2089.12,734.989 2055.28,741.486 2011.96,741.486Z" style="fill:rgb(137,24,92);fill-rule:nonzero;"/>
        <path d="M2435.92,-276.991C2389.36,-276.991 2352.27,-290.798 2324.65,-318.412C2297.04,-346.027 2283.23,-383.116 2283.23,-429.681C2283.23,-475.164 2297.58,-511.983 2326.28,-540.138C2354.97,-568.294 2392.6,-582.372 2439.17,-582.372C2486.82,-582.372 2524.45,-568.294 2552.06,-540.138C2579.68,-511.983 2593.48,-475.164 2593.48,-429.681C2593.48,-383.116 2579.14,-346.027 2550.44,-318.412C2521.74,-290.798 2483.57,-276.991 2435.92,-276.991ZM2253.99,718.745C2242.08,706.833 2232.88,693.838 2226.38,679.76C2219.88,665.682 2216.63,649.439 2216.63,631.029C2248.04,631.029 2271.32,624.261 2286.48,610.725C2301.64,597.188 2309.22,574.176 2309.22,541.689L2309.22,70.623C2309.22,42.467 2302.45,21.351 2288.92,7.273C2275.38,-6.805 2246.41,-13.844 2202.01,-13.844L2202.01,-85.316C2218.26,-95.062 2243.16,-106.162 2276.73,-118.615C2310.3,-131.069 2346.85,-141.627 2386.38,-150.291C2425.9,-158.954 2461.37,-163.285 2492.77,-163.285C2517.68,-163.285 2535.55,-157.6 2546.38,-146.23C2557.21,-134.859 2562.62,-115.637 2562.62,-88.565L2562.62,543.313C2562.62,575.801 2570.74,598.542 2586.99,611.537C2603.23,624.532 2627.05,631.029 2658.46,631.029C2658.46,649.439 2655.21,665.682 2648.71,679.76C2642.22,693.838 2633.01,706.833 2621.1,718.745L2253.99,718.745Z" style="fill:rgb(137,24,92);fill-rule:nonzero;"/>
        <path d="M3041.81,730.116C2996.33,730.116 2954.64,721.723 2916.73,704.938C2878.83,688.153 2848.24,659.185 2824.96,618.034C2801.67,576.884 2790.03,520.572 2790.03,449.1L2790.03,2.4L2687.7,2.4L2687.7,-96.687C2716.94,-101.018 2744.55,-119.428 2770.54,-151.915C2796.53,-184.402 2819,-224.47 2837.95,-272.118C2856.9,-319.766 2869.09,-367.414 2874.5,-415.062C2893.99,-418.311 2911.86,-419.935 2928.1,-419.935C2971.42,-419.935 3001.47,-407.482 3018.26,-382.575C3035.04,-357.668 3043.43,-334.385 3043.43,-312.727L3043.43,-142.169L3231.86,-142.169C3231.86,-116.179 3230.51,-90.46 3227.8,-65.011C3225.09,-39.563 3217.78,-17.093 3205.87,2.4L3046.68,2.4L3046.68,460.471C3046.68,495.124 3053.72,518.136 3067.8,529.506C3081.88,540.877 3099.74,546.562 3121.4,546.562C3143.06,546.562 3164.99,540.877 3187.19,529.506C3209.39,518.136 3226.99,504.87 3239.98,489.709C3251.89,499.456 3260.02,513.804 3264.35,532.755C3268.68,551.706 3270.85,566.055 3270.85,575.801C3270.85,599.625 3262.72,623.449 3246.48,647.273C3230.24,671.097 3205.06,690.86 3170.95,706.562C3136.84,722.264 3093.79,730.116 3041.81,730.116Z" style="fill:rgb(137,24,92);fill-rule:nonzero;"/>
        <path d="M3707.8,743.11C3628.75,743.11 3559.17,725.242 3499.07,689.506C3438.97,653.77 3391.86,602.603 3357.75,536.004C3323.64,469.405 3306.58,389.54 3306.58,296.41C3306.58,200.031 3324.99,117.459 3361.81,48.694C3398.63,-20.071 3448.98,-72.592 3512.88,-108.869C3576.77,-145.147 3648.78,-163.285 3728.92,-163.285C3812.3,-163.285 3875.65,-143.522 3918.97,-103.996C3962.28,-64.47 3983.94,-16.01 3983.94,41.385C3983.94,93.364 3970.95,133.432 3944.96,161.588C3918.97,189.743 3885.4,203.821 3844.25,203.821C3810.68,203.821 3782.52,191.368 3759.78,166.461C3737.04,141.554 3725.67,111.232 3725.67,75.496C3725.67,49.506 3730.27,28.39 3739.47,12.146C3748.68,-4.098 3760.32,-17.634 3774.4,-28.463C3763.57,-34.961 3754.64,-39.022 3747.6,-40.646C3740.56,-42.27 3733.79,-43.082 3727.29,-43.082C3706.72,-43.082 3685.6,-34.961 3663.94,-18.717C3642.28,-2.473 3624.14,26.224 3609.53,67.374C3594.91,108.525 3587.6,165.919 3587.6,239.557C3587.6,358.677 3604.92,442.332 3639.58,490.522C3674.23,538.711 3722.96,562.806 3785.77,562.806C3815.01,562.806 3844.52,558.474 3874.3,549.811C3904.08,541.148 3929.25,528.694 3949.83,512.451C3958.49,523.28 3965.8,536.545 3971.76,552.248C3977.71,567.95 3980.69,581.757 3980.69,593.669C3980.69,616.41 3968.51,639.422 3944.14,662.704C3919.78,685.987 3887.02,705.209 3845.87,720.369C3804.72,735.53 3758.7,743.11 3707.8,743.11Z" style="fill:rgb(137,24,92);fill-rule:nonzero;"/>
        <path d="M4768.51,728.491C4715.45,728.491 4674.84,720.369 4646.68,704.126C4618.53,687.882 4604.45,661.892 4604.45,626.156L4604.45,103.11C4604.45,68.457 4594.7,41.655 4575.21,22.704C4555.72,3.753 4530.27,-5.722 4498.86,-5.722C4478.29,-5.722 4456.36,1.046 4433.08,14.583C4409.8,28.119 4392.2,46.258 4380.29,68.999L4380.29,543.313C4380.29,574.718 4387.06,597.188 4400.59,610.725C4414.13,624.261 4437.14,631.029 4469.63,631.029C4469.63,664.599 4457.17,693.838 4432.27,718.745L4073.28,718.745C4048.37,693.838 4035.92,664.599 4035.92,631.029C4068.41,631.029 4091.42,624.261 4104.96,610.725C4118.49,597.188 4125.26,574.718 4125.26,543.313L4125.26,-337.093C4125.26,-362 4118.22,-381.492 4104.14,-395.57C4090.07,-409.648 4060.83,-416.687 4016.43,-416.687L4016.43,-483.285C4043.5,-497.363 4075.18,-510.358 4111.45,-522.27C4147.73,-534.182 4184.01,-543.658 4220.29,-550.697C4256.56,-557.736 4286.61,-561.255 4310.44,-561.255C4335.35,-561.255 4353.21,-555.57 4364.04,-544.199C4374.87,-532.829 4380.29,-513.607 4380.29,-486.534L4380.29,-166.534L4377.04,-36.585C4405.19,-72.321 4441.47,-102.643 4485.87,-127.549C4530.27,-152.456 4580.62,-164.91 4636.94,-164.91C4790.71,-164.91 4867.6,-84.774 4867.6,75.496L4867.6,530.319C4867.6,585.547 4893.59,618.034 4945.57,627.781L4947.19,674.887C4908.2,710.623 4848.65,728.491 4768.51,728.491Z" style="fill:rgb(137,24,92);fill-rule:nonzero;"/>
        <path d="M5416.63,733.364C5295.35,733.364 5198.7,694.921 5126.68,618.034C5054.67,541.148 5018.66,433.94 5018.66,296.41C5018.66,202.197 5036.53,120.708 5072.27,51.943C5108,-16.822 5156.46,-69.614 5217.65,-106.433C5278.83,-143.252 5348.41,-161.661 5426.38,-161.661C5523.84,-161.661 5602.08,-133.235 5661.1,-76.382C5720.12,-19.529 5749.63,60.335 5749.63,163.212C5749.63,204.363 5742.86,240.369 5729.32,271.232C5715.79,302.095 5687.9,317.527 5645.67,317.527L5294.8,317.527C5298.05,403.077 5317.82,463.72 5354.09,499.456C5390.37,535.192 5437.75,553.06 5496.23,553.06C5533.04,553.06 5567.16,547.374 5598.56,536.004C5629.97,524.633 5659.2,508.66 5686.28,488.085C5696.02,496.748 5703.87,510.014 5709.83,527.882C5715.79,545.75 5718.76,560.64 5718.76,572.552C5718.76,589.879 5706.58,611.266 5682.22,636.715C5657.85,662.163 5623.2,684.633 5578.26,704.126C5533.32,723.618 5479.44,733.364 5416.63,733.364ZM5294.8,194.075L5458.86,194.075C5477.28,194.075 5488.92,187.036 5493.79,172.958C5498.66,158.88 5501.1,141.554 5501.1,120.978C5501.1,51.672 5492.71,5.919 5475.92,-16.28C5459.14,-38.48 5439.37,-49.58 5416.63,-49.58C5398.22,-49.58 5379.81,-42.541 5361.4,-28.463C5342.99,-14.385 5327.83,10.251 5315.92,45.445C5304.01,80.64 5296.97,130.183 5294.8,194.075Z" style="fill:rgb(137,24,92);fill-rule:nonzero;"/>
        <path d="M5871.45,718.745C5859.54,706.833 5850.07,693.838 5843.03,679.76C5835.99,665.682 5832.47,649.98 5832.47,632.654C5864.96,632.654 5888.24,625.615 5902.32,611.537C5916.4,597.459 5923.43,574.718 5923.43,543.313L5923.43,68.999C5923.43,40.843 5915.58,20.268 5899.88,7.273C5884.18,-5.722 5855.75,-12.219 5814.6,-12.219L5814.6,-85.316C5839.51,-99.394 5871.18,-112.389 5909.63,-124.301C5948.07,-136.213 5985.43,-145.688 6021.71,-152.727C6057.98,-159.766 6085.87,-163.285 6105.36,-163.285C6128.1,-163.285 6146.78,-156.247 6161.4,-142.169C6176.02,-128.091 6184.41,-97.769 6186.58,-51.204C6213.65,-84.774 6248.04,-111.847 6289.73,-132.423C6331.42,-152.998 6379.88,-163.285 6435.11,-163.285C6510.91,-163.285 6568.04,-144.064 6606.48,-105.621C6644.92,-67.177 6664.14,-1.932 6664.14,90.116L6664.14,533.567C6664.14,586.63 6690.13,618.034 6742.11,627.781L6743.74,674.887C6732.91,685.716 6715.58,695.192 6691.76,703.313C6667.93,711.435 6642.22,717.662 6614.6,721.994C6586.99,726.325 6561.27,728.491 6537.44,728.491C6490.88,728.491 6456.5,719.828 6434.3,702.501C6412.1,685.175 6401,657.561 6401,619.659L6401,112.857C6401,68.457 6391.25,37.594 6371.76,20.268C6352.27,2.941 6328.44,-5.722 6300.29,-5.722C6255.89,-5.722 6218.53,12.146 6188.2,47.882L6188.2,543.313C6188.2,574.718 6194.97,597.459 6208.51,611.537C6222.05,625.615 6245.06,632.654 6277.55,632.654C6277.55,665.141 6265.09,693.838 6240.19,718.745L5871.45,718.745Z" style="fill:rgb(137,24,92);fill-rule:nonzero;"/>
    </g>
    <g id="Authority" transform="matrix(0.807773,0,0,0.807773,-4574.44,895.355)">
        <g transform="matrix(0.614901,0,0,0.824795,3708.48,-5.98404)">
            <path d="M3726.64,1133.34C3726.64,1160.2 3715.45,1180.95 3693.08,1195.6C3670.7,1210.25 3643.95,1217.57 3612.84,1217.57C3581.73,1217.57 3554.72,1210.25 3531.79,1195.6C3509.42,1180.95 3498.23,1160.2 3498.23,1133.34C3498.23,1107.3 3509.42,1086.55 3531.79,1071.09C3554.17,1056.03 3581.19,1048.51 3612.84,1048.51C3644.5,1048.51 3671.24,1056.03 3693.08,1071.09C3715.45,1086.55 3726.64,1107.3 3726.64,1133.34ZM3613.86,1386.03C3613.86,1412.48 3602.67,1433.43 3580.29,1448.9C3557.91,1463.54 3531.17,1470.87 3500.06,1470.87C3468.95,1470.87 3441.93,1463.54 3419.01,1448.9C3396.63,1433.43 3385.44,1412.48 3385.44,1386.03C3385.44,1359.17 3396.63,1338.42 3419.01,1323.77C3441.39,1308.72 3468.4,1301.19 3500.06,1301.19C3531.72,1301.19 3558.46,1308.72 3580.29,1323.77C3602.67,1338.42 3613.86,1359.17 3613.86,1386.03Z" style="fill:rgb(210,76,43);fill-rule:nonzero;"/>
        </g>
        <g transform="matrix(0.535714,0,0,1,2869.75,6.82121e-13)">
            <path d="M6370.51,1461.5C6331.38,1524.5 6221.36,1567 6097.42,1567L5957.78,1567C5929.81,1536.39 5941.85,1506.88 5968.98,1478.38L6018.82,1478.38C6056.07,1478.38 6089.13,1465.6 6100.89,1446.67C6178.12,1322.27 6462.56,864.161 6592.48,654.897C6631.6,591.888 6741.63,549.375 6865.58,549.375C6918.34,549.375 6960.4,549.375 6960.4,549.375C6985.3,576.433 6992.99,605.943 6982.8,638L6944.37,638C6907.13,638 6874.07,650.773 6862.31,669.704C6785.04,794.098 6500.49,1252.24 6370.51,1461.5Z" style="fill:rgb(235,167,14);"/>
        </g>
        <g transform="matrix(0.535714,0,0,1,2607.07,6.82121e-13)">
            <path d="M6370.51,1461.5C6331.38,1524.5 6221.36,1567 6097.42,1567L5957.78,1567C5929.81,1536.39 5941.85,1506.88 5968.98,1478.38L6018.82,1478.38C6056.07,1478.38 6089.13,1465.6 6100.89,1446.67C6178.12,1322.27 6462.56,864.161 6592.48,654.897C6631.6,591.888 6741.63,549.375 6865.58,549.375C6918.34,549.375 6960.4,549.375 6960.4,549.375C6985.3,576.433 6992.99,605.943 6982.8,638L6944.37,638C6907.13,638 6874.07,650.773 6862.31,669.704C6785.04,794.098 6500.49,1252.24 6370.51,1461.5Z" style="fill:rgb(235,167,14);"/>
        </g>
    </g>
</svg>
