<?xml version="1.0" encoding="UTF-8" standalone="no"?><!DOCTYPE svg PUBLIC "-//W3C//DTD SVG 1.1//EN" "http://www.w3.org/Graphics/SVG/1.1/DTD/svg11.dtd"><svg width="100%" height="100%" viewBox="0 0 9456 1095" version="1.1" xmlns="http://www.w3.org/2000/svg" xmlns:xlink="http://www.w3.org/1999/xlink" xml:space="preserve" xmlns:serif="http://www.serif.com/" style="fill-rule:evenodd;clip-rule:evenodd;stroke-linejoin:round;stroke-miterlimit:2;"><rect id="Wordwide" x="0.071" y="-0" width="9454.72" height="1095" style="fill:none;"/><g><g id="Kitchen"><path id="n" d="M8766.55,1012.5c-8.302,-8.302 -14.905,-17.358 -19.811,-27.17c-4.906,-9.811 -7.359,-20.755 -7.359,-32.83c22.642,0 38.868,-4.906 48.68,-14.717c9.811,-9.811 14.717,-25.66 14.717,-47.547l0.592,-337.358c-0,-19.623 -5.472,-33.963 -16.415,-43.019c-10.943,-9.057 -30.755,-13.585 -59.434,-13.585l-0,-50.944c17.358,-9.811 39.434,-18.868 66.226,-27.169c26.793,-8.302 52.831,-14.906 78.114,-19.812c25.283,-4.905 44.716,-7.358 58.301,-7.358c15.849,-0 28.868,4.905 39.057,14.717c10.189,9.811 16.038,30.943 17.547,63.396c18.868,-23.396 42.83,-42.264 71.887,-56.604c29.056,-14.339 62.83,-21.509 101.321,-21.509c52.83,-0 92.641,13.396 119.434,40.188c26.792,26.793 40.188,72.265 40.188,136.416l0,309.056c0,36.981 18.113,58.868 54.34,65.66l1.132,32.831c-7.547,7.547 -19.623,14.15 -36.227,19.811c-16.603,5.66 -34.528,10 -53.773,13.019c-19.245,3.019 -37.17,4.528 -53.774,4.528c-32.452,0 -56.415,-6.038 -71.886,-18.113c-15.472,-12.076 -23.208,-31.321 -23.208,-57.736l0,-353.207c0,-30.944 -6.792,-52.453 -20.377,-64.529c-13.585,-12.075 -30.189,-18.113 -49.812,-18.113c-30.943,0 -56.981,12.453 -78.113,37.359l-0.592,352.075c-0,21.887 4.717,37.736 14.151,47.547c9.434,9.811 25.471,14.717 48.113,14.717c-0,22.642 -8.679,42.642 -26.038,60l-256.981,0Z" style="fill:#89185c;fill-rule:nonzero;"/><path id="e" d="M8450.17,1012.5c-84.529,0 -151.887,-26.792 -202.076,-80.377c-50.188,-53.585 -75.283,-128.302 -75.283,-224.151c0,-65.661 12.453,-122.453 37.359,-170.377c24.905,-47.925 58.679,-84.717 101.32,-110.378c42.642,-25.66 91.132,-38.49 145.472,-38.49c67.925,-0 122.453,19.811 163.585,59.434c41.132,39.622 61.698,95.283 61.698,166.981c-0,28.679 -4.717,53.773 -14.151,75.283c-9.434,21.509 -28.868,32.264 -58.302,32.264l-244.528,-0c2.264,59.622 16.038,101.887 41.321,126.792c25.283,24.906 58.302,37.359 99.056,37.359c25.661,-0 49.434,-3.963 71.321,-11.887c21.887,-7.925 42.264,-19.057 61.132,-33.396c6.792,6.037 12.264,15.283 16.415,27.736c4.151,12.452 6.227,22.83 6.227,31.132c-0,12.075 -8.491,26.981 -25.472,44.717c-16.981,17.735 -41.132,33.396 -72.453,46.981c-31.321,13.585 -68.868,20.377 -112.641,20.377Zm-84.906,-375.849l114.34,0c12.83,0 20.943,-4.906 24.339,-14.717c3.396,-9.811 5.094,-21.887 5.094,-36.226c0,-48.302 -5.849,-80.189 -17.547,-95.661c-11.698,-15.471 -25.471,-23.207 -41.32,-23.207c-12.831,-0 -25.661,4.905 -38.491,14.717c-12.83,9.811 -23.396,26.981 -31.698,51.509c-8.302,24.529 -13.208,59.057 -14.717,103.585Z" style="fill:#89185c;fill-rule:nonzero;"/><path id="h" d="M8000.73,1012.5c-36.981,0 -65.283,-5.66 -84.906,-16.981c-19.622,-11.321 -29.434,-29.434 -29.434,-54.34l0,-364.528c0,-24.151 -6.792,-42.83 -20.377,-56.038c-13.585,-13.207 -31.321,-19.811 -53.208,-19.811c-14.339,0 -29.622,4.717 -45.849,14.151c-16.226,9.434 -28.49,22.075 -36.792,37.925l1.132,337.358c-0,21.887 4.717,37.547 14.151,46.981c9.434,9.434 24.339,7.358 46.981,7.358c-0,23.397 -7.547,50.567 -24.906,67.925l-250.188,0c-17.359,-17.358 -26.038,-37.736 -26.038,-61.132c22.642,-0 38.679,-4.717 48.113,-14.151c9.434,-9.434 14.151,-25.094 14.151,-46.981l-1.132,-620.377c0,-17.359 -4.906,-30.944 -14.717,-40.755c-9.811,-9.811 -30.189,-14.717 -61.132,-14.717l0,-46.415c18.868,-9.811 40.943,-18.868 66.226,-27.17c25.283,-8.302 50.566,-14.905 75.849,-19.811c25.283,-4.906 46.227,-7.359 62.831,-7.359c17.358,0 29.811,3.963 37.358,11.887c7.547,7.925 11.321,21.321 11.321,40.189l-0,223.019l-2.264,90.566c19.622,-24.906 44.905,-46.038 75.849,-63.397c30.943,-17.358 66.037,-26.037 105.283,-26.037c107.169,-0 160.754,55.849 160.754,167.547l0,316.981c0,38.49 18.114,61.132 54.34,67.924l1.132,32.831c-27.17,24.905 -68.679,37.358 -124.528,37.358Z" style="fill:#89185c;fill-rule:nonzero;"/><path id="c" d="M7259.22,1012.5c-55.095,0 -103.585,-12.453 -145.472,-37.358c-41.887,-24.906 -74.717,-60.566 -98.491,-106.982c-23.773,-46.415 -35.66,-102.075 -35.66,-166.981c0,-67.169 12.83,-124.717 38.491,-172.641c25.66,-47.925 60.754,-84.528 105.283,-109.811c44.528,-25.283 94.717,-37.925 150.566,-37.925c58.113,0 102.264,13.774 132.452,41.321c30.189,27.547 45.283,61.321 45.283,101.321c0,36.226 -9.056,64.151 -27.169,83.773c-18.114,19.623 -41.51,29.434 -70.189,29.434c-23.396,0 -43.019,-8.679 -58.868,-26.038c-15.849,-17.358 -23.774,-38.49 -23.774,-63.396c0,-18.113 3.208,-32.83 9.623,-44.151c6.415,-11.321 14.528,-20.754 24.34,-28.302c-7.547,-4.528 -13.774,-7.358 -18.68,-8.49c-4.905,-1.132 -9.622,-1.698 -14.15,-1.698c-14.34,-0 -29.057,5.66 -44.151,16.981c-15.095,11.321 -27.736,31.321 -37.925,60c-10.189,28.679 -15.283,68.679 -15.283,120c0,83.019 12.076,141.32 36.227,174.905c24.15,33.585 58.113,50.378 101.886,50.378c20.378,-0 40.944,-3.019 61.698,-9.057c20.755,-6.038 38.302,-14.717 52.642,-26.038c6.038,7.548 11.132,16.793 15.283,27.736c4.151,10.944 6.226,20.566 6.226,28.868c0,15.849 -8.49,31.887 -25.471,48.113c-16.982,16.227 -39.812,29.623 -68.491,40.189c-28.679,10.566 -60.755,15.849 -96.226,15.849Z" style="fill:#89185c;fill-rule:nonzero;"/><path id="t" d="M6795.07,1012.5c-31.698,0 -60.755,-5.849 -87.17,-17.547c-26.415,-11.698 -47.736,-31.887 -63.962,-60.566c-16.227,-28.679 -24.34,-67.925 -24.34,-117.736l0,-311.321l-71.32,0l-0,-69.056c20.377,-3.019 39.622,-15.849 57.735,-38.491c18.114,-22.641 33.774,-50.566 46.981,-83.773c13.208,-33.208 21.699,-66.415 25.472,-99.623c13.585,-2.264 26.038,-3.396 37.359,-3.396c30.188,-0 51.132,8.679 62.83,26.038c11.698,17.358 17.547,33.585 17.547,48.679l-0,118.868l131.321,-0c-0,18.113 -0.944,36.037 -2.831,53.773c-1.886,17.736 -6.981,33.396 -15.283,46.981l-110.943,0l0,319.246c0,24.15 4.906,40.188 14.717,48.113c9.811,7.924 22.264,11.887 37.359,11.887c15.094,-0 30.377,-3.963 45.849,-11.887c15.471,-7.925 27.735,-17.17 36.792,-27.736c8.302,6.792 13.962,16.792 16.981,30c3.019,13.207 4.528,23.207 4.528,30c0,16.604 -5.66,33.207 -16.981,49.811c-11.32,16.604 -28.868,30.378 -52.641,41.321c-23.774,10.943 -53.774,16.415 -90,16.415Z" style="fill:#89185c;fill-rule:nonzero;"/><path id="i" d="M6372.81,318.538c-32.453,0 -58.302,-9.623 -77.547,-28.868c-19.246,-19.245 -28.868,-45.094 -28.868,-77.547c-0,-31.698 10,-57.359 30,-76.981c20,-19.623 46.226,-29.434 78.679,-29.434c33.208,-0 59.434,9.811 78.679,29.434c19.246,19.622 28.868,45.283 28.868,76.981c0,32.453 -10,58.302 -30,77.547c-20,19.245 -46.604,28.868 -79.811,28.868Zm-126.792,693.962c-8.302,-8.302 -14.717,-17.358 -19.246,-27.17c-4.528,-9.811 -6.792,-21.132 -6.792,-33.962c21.887,-0 38.113,-4.717 48.679,-14.151c10.566,-9.434 15.849,-25.472 15.849,-48.113l0,-328.302c0,-19.623 -4.717,-34.34 -14.151,-44.151c-9.434,-9.811 -29.623,-14.717 -60.566,-14.717l0,-49.811c11.321,-6.793 28.679,-14.528 52.076,-23.208c23.396,-8.679 48.867,-16.037 76.415,-22.075c27.547,-6.038 52.264,-9.057 74.151,-9.057c17.358,0 29.811,3.963 37.358,11.887c7.547,7.925 11.321,21.321 11.321,40.189l-0,440.377c-0,22.641 5.66,38.49 16.981,47.547c11.321,9.057 27.924,13.585 49.811,13.585c0,12.83 -2.264,24.151 -6.792,33.962c-4.529,9.812 -10.944,18.868 -19.246,27.17l-255.848,0Z" style="fill:#89185c;fill-rule:nonzero;"/><path id="K" d="M6028.89,1012.5c-36.868,-0 -68.031,-6.145 -93.487,-18.434c-25.456,-12.289 -46.524,-28.309 -63.202,-48.06c-16.679,-19.751 -30.943,-40.818 -42.793,-63.202c-11.851,-22.384 -22.604,-43.232 -32.26,-62.544c-8.778,-18.434 -19.751,-40.16 -32.918,-65.177c-13.167,-25.018 -27.431,-50.036 -42.793,-75.053c-15.362,-25.018 -31.382,-46.963 -48.06,-65.836c-16.678,-18.873 -33.357,-31.82 -50.035,-38.843l-0,287.044c-0,24.578 5.925,41.696 17.775,51.351c11.851,9.656 32.26,14.484 61.228,14.484c-0,15.801 -2.634,31.163 -7.901,46.085c-5.266,14.923 -12.289,27.651 -21.067,38.185l-322.595,-0c-19.312,-21.945 -28.968,-50.035 -28.968,-84.27c28.968,0 49.377,-4.828 61.228,-14.484c11.85,-9.655 17.775,-26.773 17.775,-51.351l0,-637.29c0,-24.578 -5.925,-41.915 -17.775,-52.01c-11.851,-10.095 -32.26,-15.142 -61.228,-15.142c0,-33.357 9.656,-61.008 28.968,-82.953l322.595,-0c8.778,10.534 15.801,23.262 21.067,38.185c5.267,14.922 7.901,29.845 7.901,44.768c-28.968,-0 -49.377,5.047 -61.228,15.142c-11.85,10.095 -17.775,27.432 -17.775,52.01l-0,260.71l22.384,-0c8.778,-0 17.556,0.877 26.334,2.633l185.657,-246.225c6.145,-7.023 10.534,-14.923 13.167,-23.701c2.633,-8.778 3.95,-16.679 3.95,-23.701c0,-11.412 -8.339,-20.409 -25.017,-26.993c-16.679,-6.583 -33.796,-9.875 -51.352,-9.875c-0,-30.723 10.095,-58.374 30.284,-82.953l306.794,-0c8.779,11.412 15.801,24.359 21.068,38.843c5.267,14.484 7.9,29.187 7.9,44.11c-37.746,-0 -66.713,7.461 -86.903,22.384c-20.19,14.923 -35.112,28.529 -44.768,40.818l-248.859,294.944c43.013,19.312 78.344,42.793 105.995,70.444c27.651,27.651 54.205,61.227 79.662,100.729c26.334,39.501 48.718,74.833 67.152,105.995c18.434,31.162 37.307,55.961 56.619,74.395c19.311,18.434 42.134,29.406 68.469,32.917l-0,52.669c-14.045,18.434 -30.943,32.918 -50.694,43.451c-19.75,10.534 -47.182,15.801 -82.294,15.801Z" style="fill:#89185c;fill-rule:nonzero;"/></g><g id="Authority"><path id="Colon" d="M4654.16,355.166c-0,28.276 -8.361,50.126 -25.082,65.55c-16.721,15.424 -36.705,23.135 -59.952,23.135c-23.247,0 -43.435,-7.711 -60.564,-23.135c-16.721,-15.424 -25.082,-37.274 -25.082,-65.55c0,-27.42 8.361,-49.27 25.082,-65.551c16.722,-15.852 36.909,-23.778 60.564,-23.778c23.654,-0 43.638,7.926 59.952,23.778c16.721,16.281 25.082,38.131 25.082,65.551Zm-84.277,266.057c0,27.849 -8.36,49.913 -25.082,66.194c-16.721,15.423 -36.705,23.135 -59.952,23.135c-23.246,-0 -43.434,-7.712 -60.563,-23.135c-16.722,-16.281 -25.082,-38.345 -25.082,-66.194c-0,-28.276 8.36,-50.126 25.082,-65.55c16.721,-15.852 36.909,-23.778 60.563,-23.778c23.655,-0 43.639,7.926 59.952,23.778c16.722,15.424 25.082,37.274 25.082,65.55Z" style="fill:#fcb414;fill-rule:nonzero;"/><path id="Slash" d="M4707.54,907.48c-19.806,62.528 -77.837,105.02 -143.427,105.02c-41.445,0 -78.736,0 -78.736,0c-13.138,-28.2 -7.482,-55.386 5.262,-81.647l13.672,0c23.25,0 43.82,-15.063 50.838,-37.228c39.061,-123.369 165.22,-521.818 225.939,-713.589c19.801,-62.536 77.836,-105.036 143.432,-105.036l73.461,0c11.698,24.927 15.31,52.114 10.524,81.647l-16.408,-0c-27.825,-0 -52.444,18.026 -60.846,44.552c-41.528,131.109 -164.124,518.158 -223.711,706.281Z" style="fill:#fcb414;"/><path id="Slash1" serif:id="Slash" d="M4962.05,907.48c-19.806,62.528 -77.837,105.02 -143.427,105.02l-78.736,0c-13.138,-28.2 -7.482,-55.386 5.262,-81.647l13.672,0c23.25,0 43.82,-15.063 50.838,-37.228c39.061,-123.369 165.22,-521.818 225.939,-713.589c19.801,-62.536 77.836,-105.036 143.432,-105.036l73.461,0c11.698,24.927 15.31,52.114 10.524,81.647l-16.408,-0c-27.825,-0 -52.444,18.026 -60.846,44.552c-41.528,131.109 -164.124,518.158 -223.711,706.281Z" style="fill:#fcb414;"/></g><g id="Diskette"><path id="e2" d="M4122.94,1012.5c-84.528,0 -151.886,-26.792 -202.075,-80.377c-50.189,-53.585 -75.283,-128.302 -75.283,-224.151c0,-65.661 12.453,-122.453 37.359,-170.377c24.905,-47.925 58.679,-84.717 101.32,-110.378c42.642,-25.66 91.132,-38.49 145.472,-38.49c67.924,-0 122.453,19.811 163.585,59.434c41.132,39.622 61.698,95.283 61.698,166.981c-0,28.679 -4.717,53.773 -14.151,75.283c-9.434,21.509 -28.868,32.264 -58.302,32.264l-244.528,-0c2.264,59.622 16.038,101.887 41.321,126.792c25.283,24.906 58.301,37.359 99.056,37.359c25.661,-0 49.434,-3.963 71.321,-11.887c21.887,-7.925 42.264,-19.057 61.132,-33.396c6.792,6.037 12.264,15.283 16.415,27.736c4.151,12.452 6.226,22.83 6.226,31.132c0,12.075 -8.49,26.981 -25.471,44.717c-16.981,17.735 -41.132,33.396 -72.453,46.981c-31.321,13.585 -68.868,20.377 -112.642,20.377Zm-84.905,-375.849l114.339,0c12.831,0 20.944,-4.906 24.34,-14.717c3.396,-9.811 5.094,-21.887 5.094,-36.226c0,-48.302 -5.849,-80.189 -17.547,-95.661c-11.698,-15.471 -25.471,-23.207 -41.321,-23.207c-12.83,-0 -25.66,4.905 -38.49,14.717c-12.83,9.811 -23.396,26.981 -31.698,51.509c-8.302,24.529 -13.208,59.057 -14.717,103.585Z" style="fill:#009755;fill-rule:nonzero;"/><path id="t2" d="M3656.53,1012.5c-31.699,0 -60.755,-5.849 -87.17,-17.547c-26.415,-11.698 -47.736,-31.887 -63.962,-60.566c-16.227,-28.679 -24.34,-67.925 -24.34,-117.736l-0,-311.321l-71.321,0l0,-69.056c20.378,-3.019 39.623,-15.849 57.736,-38.491c18.113,-22.641 33.774,-50.566 46.981,-83.773c13.208,-33.208 21.698,-66.415 25.472,-99.623c13.585,-2.264 26.038,-3.396 37.358,-3.396c30.189,-0 51.132,8.679 62.83,26.038c11.699,17.358 17.548,33.585 17.548,48.679l-0,118.868l131.32,-0c0,18.113 -0.943,36.037 -2.83,53.773c-1.887,17.736 -6.981,33.396 -15.283,46.981l-110.943,0l-0,319.246c-0,24.15 4.905,40.188 14.717,48.113c9.811,7.924 22.264,11.887 37.358,11.887c15.095,-0 30.378,-3.963 45.849,-11.887c15.472,-7.925 27.736,-17.17 36.793,-27.736c8.302,6.792 13.962,16.792 16.981,30c3.019,13.207 4.528,23.207 4.528,30c0,16.604 -5.66,33.207 -16.981,49.811c-11.321,16.604 -28.868,30.378 -52.641,41.321c-23.774,10.943 -53.774,16.415 -90,16.415Z" style="fill:#009755;fill-rule:nonzero;"/><path id="t1" serif:id="t" d="M3229.74,1012.5c-31.698,0 -60.754,-5.849 -87.169,-17.547c-26.416,-11.698 -47.736,-31.887 -63.963,-60.566c-16.226,-28.679 -24.339,-67.925 -24.339,-117.736l-0,-311.321l-71.321,0l-0,-69.056c20.377,-3.019 39.623,-15.849 57.736,-38.491c18.113,-22.641 33.773,-50.566 46.981,-83.773c13.207,-33.208 21.698,-66.415 25.472,-99.623c13.584,-2.264 26.037,-3.396 37.358,-3.396c30.189,-0 51.132,8.679 62.83,26.038c11.698,17.358 17.547,33.585 17.547,48.679l0,118.868l131.321,-0c0,18.113 -0.943,36.037 -2.83,53.773c-1.887,17.736 -6.981,33.396 -15.283,46.981l-110.943,0l-0,319.246c-0,24.15 4.905,40.188 14.716,48.113c9.812,7.924 22.265,11.887 37.359,11.887c15.094,-0 30.377,-3.963 45.849,-11.887c15.472,-7.925 27.736,-17.17 36.792,-27.736c8.302,6.792 13.963,16.792 16.982,30c3.018,13.207 4.528,23.207 4.528,30c-0,16.604 -5.66,33.207 -16.981,49.811c-11.321,16.604 -28.868,30.378 -52.642,41.321c-23.773,10.943 -53.773,16.415 -90,16.415Z" style="fill:#009755;fill-rule:nonzero;"/><path id="e1" serif:id="e" d="M2721.43,1012.5c-84.529,-0 -151.887,-26.792 -202.076,-80.377c-50.188,-53.585 -75.283,-128.302 -75.283,-224.151c0,-65.661 12.453,-122.453 37.359,-170.377c24.905,-47.925 58.679,-84.717 101.32,-110.378c42.642,-25.66 91.132,-38.49 145.472,-38.49c67.925,-0 122.453,19.811 163.585,59.434c41.132,39.622 61.698,95.283 61.698,166.981c-0,28.679 -4.717,53.773 -14.151,75.283c-9.434,21.509 -28.868,32.264 -58.302,32.264l-244.528,-0c2.264,59.622 16.038,101.887 41.321,126.792c25.283,24.906 58.302,37.359 99.056,37.359c25.661,-0 49.434,-3.963 71.321,-11.887c21.887,-7.925 42.264,-19.057 61.132,-33.396c6.793,6.037 12.264,15.283 16.415,27.736c4.151,12.452 6.227,22.83 6.227,31.132c-0,12.075 -8.491,26.981 -25.472,44.717c-16.981,17.735 -41.132,33.396 -72.453,46.981c-31.321,13.585 -68.868,20.377 -112.641,20.377Zm-84.906,-375.849l114.34,0c12.83,0 20.943,-4.906 24.339,-14.717c3.396,-9.811 5.095,-21.887 5.095,-36.226c-0,-48.302 -5.85,-80.189 -17.548,-95.661c-11.698,-15.471 -25.471,-23.207 -41.32,-23.207c-12.831,-0 -25.661,4.905 -38.491,14.717c-12.83,9.811 -23.396,26.981 -31.698,51.509c-8.302,24.529 -13.208,59.057 -14.717,103.585Z" style="fill:#009755;fill-rule:nonzero;"/><path id="k" d="M2327.47,1012.5c-41.51,0 -74.717,-8.868 -99.623,-26.604c-24.906,-17.736 -45.094,-40.188 -60.566,-67.358c-15.472,-27.17 -29.245,-54.717 -41.321,-82.642c-12.075,-28.679 -24.905,-54.717 -38.49,-78.113c-13.585,-23.396 -31.321,-39.245 -53.208,-47.547l0,173.207c0,21.887 5.849,45.472 15.283,54.906c9.434,9.434 25.849,14.151 49.245,14.151c0,12.075 -2.452,23.019 -7.358,32.83c-4.906,9.812 -11.51,18.868 -19.811,27.17l-249.057,0c-18.113,-15.849 -27.17,-35.849 -27.17,-60c22.642,0 38.679,-4.717 48.113,-14.151c9.434,-9.434 13.019,-33.019 13.019,-54.906l0,-613.584c0,-17.359 -4.905,-31.132 -14.717,-41.321c-9.811,-10.189 -30.188,-15.283 -61.132,-15.283l0,-45.283c18.868,-9.811 40.944,-18.868 66.227,-27.17c25.283,-8.302 50.377,-15.094 75.283,-20.377c24.905,-5.283 45.283,-7.925 61.132,-7.925c18.113,0 31.132,3.963 39.056,11.887c7.925,7.925 11.887,21.698 11.887,41.321l0,503.773l124.528,-129.056c4.529,-4.529 9.246,-10 14.151,-16.415c4.906,-6.415 7.359,-12.265 7.359,-17.548c-0,-10.566 -8.113,-20.377 -24.34,-29.433c-16.226,-9.057 -31.887,-13.585 -46.981,-13.585c0,-27.17 8.679,-50.189 26.038,-69.057l254.717,0c9.056,9.057 14.905,19.623 17.547,31.698c2.641,12.076 3.962,24.528 3.962,37.359c-20.377,-0 -35.66,3.207 -45.849,9.622c-10.189,6.415 -19.434,13.396 -27.736,20.944l-172.075,169.811c27.924,4.528 51.321,13.585 70.188,27.17c18.868,13.585 36.604,35.094 53.208,64.528c23.396,41.509 41.698,74.151 54.906,97.924c13.207,23.774 25.66,41.699 37.358,53.774c11.698,12.075 27.359,21.509 46.981,28.302l1.132,27.17c-2.264,15.849 -12.83,28.113 -31.698,36.792c-18.868,8.679 -42.264,13.019 -70.188,13.019Z" style="fill:#009755;fill-rule:nonzero;"/><path id="s" d="M1501.06,1012.5c-27.17,0 -54.529,-3.019 -82.076,-9.057c-27.547,-6.037 -52.83,-14.717 -75.849,-26.037c-23.019,-11.321 -41.698,-25.472 -56.037,-42.453c-14.34,-16.981 -21.51,-36.415 -21.51,-58.302c0,-26.415 7.547,-47.736 22.642,-63.962c15.094,-16.227 34.339,-24.34 57.735,-24.34c21.133,0 39.057,6.793 53.774,20.377c14.717,13.585 22.075,31.321 22.075,53.208c0,9.811 -1.509,18.302 -4.528,25.472c-3.019,7.17 -7.547,14.905 -13.585,23.207c6.793,6.793 18.868,11.698 36.227,14.717c17.358,3.019 34.339,4.529 50.943,4.529c26.415,-0 46.793,-4.906 61.132,-14.717c14.34,-9.812 21.51,-21.887 21.51,-36.227c-0,-22.641 -12.076,-42.075 -36.227,-58.302c-24.151,-16.226 -51.698,-32.641 -82.641,-49.245c-27.925,-15.094 -55.661,-31.132 -83.208,-48.113c-27.547,-16.981 -50.566,-38.302 -69.056,-63.962c-18.491,-25.661 -27.736,-58.114 -27.736,-97.359c-0,-49.811 20.754,-90.943 62.264,-123.396c41.509,-32.453 100.377,-48.679 176.604,-48.679c52.83,-0 95.094,6.604 126.792,19.811c31.698,13.208 54.717,29.811 69.057,49.811c14.339,20 21.509,40.944 21.509,62.831c-0,23.396 -7.359,42.075 -22.075,56.037c-14.717,13.962 -32.642,20.944 -53.774,20.944c-18.868,-0 -35.472,-5.849 -49.811,-17.548c-14.34,-11.698 -21.51,-26.981 -21.51,-45.849c0,-9.056 1.51,-18.868 4.529,-29.434c3.018,-10.566 7.169,-19.245 12.452,-26.037c-8.302,-6.793 -17.924,-11.51 -28.868,-14.151c-10.943,-2.642 -23.962,-3.962 -39.056,-3.962c-24.906,-0 -43.962,5.849 -57.17,17.547c-13.207,11.698 -19.811,25.849 -19.811,42.453c-0,25.66 12.264,46.792 36.792,63.396c24.528,16.603 51.887,32.83 82.076,48.679c27.924,14.34 55.283,29.811 82.075,46.415c26.792,16.604 49.245,37.358 67.359,62.264c18.113,24.906 27.169,56.981 27.169,96.227c0,42.264 -12.075,76.037 -36.226,101.32c-24.151,25.283 -55.283,43.585 -93.396,54.906c-38.113,11.321 -78.302,16.981 -120.566,16.981Z" style="fill:#009755;fill-rule:nonzero;"/><path id="i1" serif:id="i" d="M1066.34,318.538c-32.453,0 -58.302,-9.623 -77.547,-28.868c-19.245,-19.245 -28.868,-45.094 -28.868,-77.547c-0,-31.698 10,-57.359 30,-76.981c20,-19.623 46.226,-29.434 78.679,-29.434c33.208,-0 59.434,9.811 78.679,29.434c19.246,19.622 28.868,45.283 28.868,76.981c0,32.453 -10,58.302 -30,77.547c-20,19.245 -46.604,28.868 -79.811,28.868Zm-126.792,693.962c-8.302,-8.302 -14.717,-17.358 -19.246,-27.17c-4.528,-9.811 -6.792,-21.132 -6.792,-33.962c21.887,-0 38.113,-4.717 48.679,-14.151c10.566,-9.434 15.849,-25.472 15.849,-48.113l0,-328.302c0,-19.623 -4.717,-34.34 -14.151,-44.151c-9.434,-9.811 -29.622,-14.717 -60.566,-14.717l0,-49.811c11.321,-6.793 28.679,-14.528 52.076,-23.208c23.396,-8.679 48.867,-16.037 76.415,-22.075c27.547,-6.038 52.264,-9.057 74.151,-9.057c17.358,0 29.811,3.963 37.358,11.887c7.547,7.925 11.321,21.321 11.321,40.189l-0,440.377c-0,22.641 5.66,38.49 16.981,47.547c11.321,9.057 27.924,13.585 49.811,13.585c0,12.83 -2.264,24.151 -6.792,33.962c-4.529,9.812 -10.944,18.868 -19.246,27.17l-255.848,-0Z" style="fill:#009755;fill-rule:nonzero;"/><path id="D" d="M154.083,860.286l0,-633.49c0,-24.18 -6.159,-41.419 -18.479,-51.718c-12.319,-10.299 -32.497,-15.448 -60.533,-15.448c-0,-34.031 9.345,-62.241 28.036,-84.63l313.189,0c73.915,0 153.8,13.003 210.309,33.97c55.652,20.649 94.157,45.062 128.99,87.601c34.834,42.539 60.746,91.794 77.738,147.766c16.992,55.972 25.488,135.62 25.488,199.204c-0,63.584 -8.496,143.232 -25.488,199.204c-16.992,55.972 -42.904,105.227 -77.738,147.766c-34.833,42.539 -73.338,66.953 -128.99,87.602c-56.509,20.967 -136.394,33.969 -210.309,33.969l-313.189,0c-18.691,-22.388 -28.036,-50.598 -28.036,-84.629c28.036,-0 48.214,-5.15 60.533,-15.449c12.32,-10.298 18.479,-27.538 18.479,-51.718Zm477.896,-316.745c0,-130.75 -21.664,-226.07 -64.993,-286.52c-43.33,-60.45 -101.102,-90.675 -173.318,-90.675l-16.567,0c-5.097,0 -9.77,0.896 -14.018,2.687l0,749.016c4.248,1.791 8.921,2.687 14.018,2.687l16.567,-0c72.216,-0 129.988,-30.225 173.318,-90.675c43.329,-60.449 64.993,-155.769 64.993,-286.52Z" style="fill:#009755;"/></g></g></svg>