<?xml version="1.0" encoding="UTF-8" standalone="no"?><!DOCTYPE svg PUBLIC "-//W3C//DTD SVG 1.1//EN" "http://www.w3.org/Graphics/SVG/1.1/DTD/svg11.dtd"><svg width="100%" height="100%" viewBox="0 0 4501 2025" version="1.1" xmlns="http://www.w3.org/2000/svg" xmlns:xlink="http://www.w3.org/1999/xlink" xml:space="preserve" xmlns:serif="http://www.serif.com/" style="fill-rule:evenodd;clip-rule:evenodd;stroke-linejoin:round;stroke-miterlimit:2;"><rect id="WordStack" x="0.224" y="0" width="4500" height="2025" style="fill:none;"/><g id="Kitchen"><path id="n" d="M3889.07,1950c-7.307,-7.307 -13.119,-15.278 -17.437,-23.913c-4.317,-8.636 -6.476,-18.267 -6.476,-28.896c19.928,0 34.209,-4.317 42.844,-12.953c8.636,-8.635 12.954,-22.584 12.954,-41.848l0.521,-296.923c-0,-17.271 -4.816,-29.892 -14.448,-37.863c-9.631,-7.971 -27.068,-11.957 -52.31,-11.957l-0,-44.837c15.278,-8.635 34.707,-16.606 58.289,-23.913c23.581,-7.307 46.498,-13.119 68.75,-17.437c22.253,-4.318 39.358,-6.477 51.314,-6.477c13.95,0 25.408,4.318 34.376,12.953c8.967,8.636 14.115,27.235 15.444,55.798c16.606,-20.592 37.696,-37.198 63.27,-49.819c25.574,-12.621 55.3,-18.932 89.177,-18.932c46.498,0 81.538,11.791 105.119,35.372c23.581,23.581 35.371,63.603 35.371,120.065l0,272.014c0,32.548 15.943,51.812 47.827,57.79l0.996,28.895c-6.642,6.643 -17.27,12.455 -31.884,17.437c-14.614,4.982 -30.39,8.801 -47.328,11.458c-16.939,2.657 -32.715,3.986 -47.329,3.986c-28.563,-0 -49.653,-5.314 -63.27,-15.942c-13.618,-10.628 -20.426,-27.567 -20.426,-50.816l-0,-310.873c-0,-27.234 -5.979,-46.166 -17.935,-56.794c-11.957,-10.628 -26.571,-15.942 -43.841,-15.942c-27.235,-0 -50.152,10.96 -68.751,32.881l-0.521,309.876c-0,19.264 4.151,33.213 12.454,41.848c8.304,8.636 22.419,12.953 42.347,12.953c-0,19.928 -7.639,37.531 -22.917,52.809l-226.18,-0Z" style="fill:#89185c;fill-rule:nonzero;"/><path id="e" d="M3610.6,1950c-74.397,-0 -133.682,-23.581 -177.855,-70.743c-44.173,-47.163 -66.26,-112.924 -66.26,-197.285c0,-57.791 10.961,-107.776 32.881,-149.956c21.921,-42.181 51.646,-74.563 89.177,-97.148c37.53,-22.585 80.209,-33.877 128.035,-33.877c59.784,-0 107.776,17.436 143.978,52.31c36.202,34.874 54.303,83.863 54.303,146.967c0,25.242 -4.151,47.328 -12.454,66.26c-8.304,18.931 -25.408,28.397 -51.314,28.397l-215.22,-0c1.993,52.476 14.116,89.675 36.368,111.595c22.253,21.921 51.314,32.881 87.184,32.881c22.585,0 43.509,-3.487 62.772,-10.462c19.264,-6.975 37.199,-16.773 53.805,-29.393c5.979,5.314 10.795,13.451 14.448,24.411c3.653,10.96 5.48,20.094 5.48,27.401c0,10.628 -7.473,23.747 -22.419,39.357c-14.945,15.61 -36.202,29.393 -63.768,41.35c-27.567,11.957 -60.614,17.935 -99.141,17.935Zm-74.729,-330.801l100.635,0c11.293,0 18.433,-4.317 21.423,-12.953c2.989,-8.635 4.483,-19.263 4.483,-31.884c0,-42.512 -5.148,-70.577 -15.444,-84.195c-10.296,-13.617 -22.418,-20.426 -36.368,-20.426c-11.292,0 -22.585,4.318 -33.877,12.953c-11.292,8.636 -20.592,23.748 -27.899,45.336c-7.307,21.588 -11.624,51.978 -12.953,91.169Z" style="fill:#89185c;fill-rule:nonzero;"/><path id="h" d="M3215.03,1950c-32.548,-0 -57.458,-4.982 -74.729,-14.946c-17.27,-9.964 -25.906,-25.906 -25.906,-47.826l0,-320.837c0,-21.256 -5.978,-37.697 -17.935,-49.321c-11.956,-11.625 -27.566,-17.437 -46.83,-17.437c-12.621,-0 -26.072,4.152 -40.354,12.455c-14.281,8.303 -25.075,19.429 -32.382,33.379l0.996,296.923c0,19.264 4.152,33.047 12.455,41.35c8.303,8.303 21.422,6.477 41.35,6.477c0,20.592 -6.642,44.505 -21.92,59.783l-220.202,-0c-15.278,-15.278 -22.917,-33.213 -22.917,-53.805c19.928,0 34.043,-4.152 42.347,-12.455c8.303,-8.303 12.454,-22.086 12.454,-41.35l-0.996,-546.02c0,-15.278 -4.318,-27.235 -12.953,-35.87c-8.635,-8.635 -26.57,-12.953 -53.805,-12.953l0,-40.852c16.607,-8.635 36.036,-16.606 58.289,-23.913c22.252,-7.307 44.505,-13.119 66.758,-17.437c22.252,-4.318 40.686,-6.476 55.299,-6.476c15.278,-0 26.238,3.487 32.881,10.462c6.643,6.974 9.964,18.765 9.964,35.371l-0,196.289l-1.993,79.711c17.271,-21.921 39.523,-40.52 66.758,-55.798c27.235,-15.278 58.123,-22.917 92.664,-22.917c94.325,0 141.487,49.155 141.487,147.465l0,278.989c0,33.877 15.942,53.805 47.827,59.783l0.996,28.895c-23.913,21.921 -60.447,32.881 -109.603,32.881Z" style="fill:#89185c;fill-rule:nonzero;"/><path id="c" d="M2562.4,1950c-48.491,-0 -91.17,-10.96 -128.036,-32.881c-36.866,-21.92 -65.761,-53.306 -86.686,-94.158c-20.924,-40.852 -31.386,-89.841 -31.386,-146.967c0,-59.119 11.293,-109.769 33.877,-151.95c22.585,-42.18 53.473,-74.396 92.664,-96.649c39.192,-22.253 83.365,-33.379 132.52,-33.379c51.148,-0 90.007,12.123 116.577,36.368c26.57,24.246 39.856,53.971 39.856,89.177c-0,31.884 -7.971,56.462 -23.914,73.732c-15.942,17.271 -36.534,25.906 -61.776,25.906c-20.592,0 -37.862,-7.639 -51.812,-22.916c-13.949,-15.278 -20.924,-33.878 -20.924,-55.798c0,-15.942 2.823,-28.895 8.469,-38.859c5.647,-9.964 12.787,-18.267 21.423,-24.91c-6.643,-3.985 -12.123,-6.476 -16.441,-7.473c-4.317,-0.996 -8.469,-1.494 -12.455,-1.494c-12.62,-0 -25.573,4.982 -38.859,14.945c-13.285,9.964 -24.411,27.567 -33.379,52.809c-8.967,25.242 -13.451,60.447 -13.451,105.617c0,73.068 10.628,124.382 31.885,153.942c21.256,29.559 51.147,44.339 89.674,44.339c17.935,0 36.036,-2.657 54.303,-7.971c18.268,-5.314 33.712,-12.953 46.332,-22.917c5.315,6.643 9.798,14.78 13.452,24.412c3.653,9.631 5.48,18.101 5.48,25.407c-0,13.95 -7.473,28.065 -22.419,42.347c-14.946,14.281 -35.039,26.072 -60.281,35.372c-25.242,9.299 -53.473,13.949 -84.693,13.949Z" style="fill:#89185c;fill-rule:nonzero;"/><path id="t" d="M2153.88,1950c-27.899,-0 -53.473,-5.148 -76.722,-15.444c-23.249,-10.296 -42.014,-28.065 -56.296,-53.307c-14.281,-25.242 -21.422,-59.783 -21.422,-103.624l0,-274.006l-62.772,-0l-0,-60.78c17.935,-2.657 34.873,-13.949 50.815,-33.877c15.943,-19.928 29.726,-44.506 41.35,-73.733c11.625,-29.227 19.098,-58.455 22.419,-87.682c11.957,-1.993 22.917,-2.989 32.881,-2.989c26.57,-0 45.003,7.639 55.299,22.917c10.296,15.278 15.444,29.559 15.444,42.844l0,104.621l115.581,0c0,15.942 -0.83,31.718 -2.491,47.328c-1.66,15.611 -6.144,29.394 -13.451,41.351l-97.646,-0l0,280.981c0,21.256 4.318,35.371 12.953,42.346c8.636,6.975 19.596,10.462 32.881,10.462c13.285,0 26.736,-3.487 40.354,-10.462c13.617,-6.975 24.411,-15.112 32.382,-24.411c7.307,5.978 12.289,14.779 14.946,26.404c2.657,11.624 3.986,20.426 3.986,26.404c-0,14.614 -4.982,29.228 -14.946,43.841c-9.964,14.614 -25.408,26.737 -46.332,36.368c-20.924,9.632 -47.329,14.448 -79.213,14.448Z" style="fill:#89185c;fill-rule:nonzero;"/><path id="i" d="M1782.23,1339.21c-28.563,-0 -51.314,-8.47 -68.253,-25.408c-16.938,-16.939 -25.408,-39.69 -25.408,-68.253c0,-27.899 8.802,-50.483 26.405,-67.754c17.602,-17.271 40.685,-25.906 69.248,-25.906c29.228,-0 52.311,8.635 69.249,25.906c16.939,17.271 25.408,39.855 25.408,67.754c0,28.563 -8.801,51.314 -26.404,68.253c-17.603,16.938 -41.018,25.408 -70.245,25.408Zm-111.596,610.785c-7.307,-7.307 -12.953,-15.278 -16.938,-23.913c-3.986,-8.636 -5.979,-18.6 -5.979,-29.892c19.264,0 33.545,-4.152 42.845,-12.455c9.3,-8.303 13.949,-22.418 13.949,-42.346l0,-288.952c0,-17.271 -4.151,-30.224 -12.454,-38.86c-8.304,-8.635 -26.073,-12.953 -53.307,-12.953l-0,-43.841c9.964,-5.978 25.242,-12.787 45.834,-20.426c20.592,-7.639 43.01,-14.115 67.256,-19.429c24.245,-5.314 46,-7.971 65.263,-7.971c15.278,-0 26.238,3.487 32.881,10.462c6.643,6.975 9.964,18.765 9.964,35.372l-0,387.594c-0,19.928 4.982,33.877 14.946,41.848c9.964,7.972 24.577,11.957 43.841,11.957c-0,11.292 -1.993,21.256 -5.979,29.892c-3.985,8.635 -9.631,16.606 -16.938,23.913l-225.184,-0Z" style="fill:#89185c;fill-rule:nonzero;"/><path id="K" d="M1479.53,1950c-32.449,-0 -59.876,-5.408 -82.281,-16.225c-22.406,-10.816 -40.948,-24.916 -55.627,-42.299c-14.68,-17.384 -27.234,-35.926 -37.664,-55.627c-10.43,-19.701 -19.895,-38.051 -28.393,-55.048c-7.726,-16.224 -17.384,-35.346 -28.973,-57.365c-11.589,-22.019 -24.143,-44.038 -37.664,-66.057c-13.52,-22.019 -27.62,-41.334 -42.3,-57.945c-14.679,-16.611 -29.358,-28.006 -44.038,-34.187l0,252.639c0,21.633 5.215,36.698 15.646,45.197c10.43,8.498 28.392,12.748 53.888,12.748c0,13.906 -2.318,27.427 -6.953,40.561c-4.636,13.134 -10.817,24.337 -18.543,33.608l-283.929,-0c-16.997,-19.315 -25.496,-44.038 -25.496,-74.169c25.496,-0 43.459,-4.25 53.889,-12.748c10.43,-8.499 15.645,-23.564 15.645,-45.197l0,-560.905c0,-21.633 -5.215,-36.892 -15.645,-45.777c-10.43,-8.885 -28.393,-13.327 -53.889,-13.327c0,-29.359 8.499,-53.696 25.496,-73.01l283.929,-0c7.726,9.271 13.907,20.473 18.543,33.608c4.635,13.134 6.953,26.268 6.953,39.402c-25.496,-0 -43.458,4.442 -53.888,13.327c-10.431,8.885 -15.646,24.144 -15.646,45.777l0,229.461l19.702,-0c7.726,-0 15.452,0.772 23.178,2.318l163.404,-216.714c5.408,-6.181 9.271,-13.134 11.589,-20.86c2.318,-7.726 3.476,-14.679 3.476,-20.86c0,-10.044 -7.339,-17.963 -22.019,-23.757c-14.679,-5.795 -29.745,-8.692 -45.196,-8.692c-0,-27.041 8.884,-51.378 26.654,-73.01l270.023,-0c7.726,10.043 13.906,21.439 18.542,34.187c4.636,12.748 6.953,25.689 6.953,38.823c-33.221,-0 -58.717,6.567 -76.487,19.701c-17.769,13.134 -30.904,25.11 -39.402,35.926l-219.031,259.592c37.857,16.998 68.954,37.665 93.291,62.001c24.337,24.337 47.708,53.889 70.113,88.656c23.178,34.767 42.879,65.864 59.104,93.291c16.224,27.427 32.835,49.253 49.832,65.478c16.997,16.224 37.085,25.882 60.263,28.972l-0,46.356c-12.362,16.224 -27.234,28.972 -44.618,38.243c-17.383,9.271 -41.527,13.907 -72.431,13.907Z" style="fill:#89185c;fill-rule:nonzero;"/></g><g id="Diskette"><path id="e2" d="M4189.35,1027.85c-85.911,-0 -154.372,-27.231 -205.382,-81.693c-51.011,-54.462 -76.516,-130.402 -76.516,-227.82c0,-66.735 12.657,-124.457 37.97,-173.166c25.314,-48.709 59.64,-86.103 102.979,-112.184c43.34,-26.08 92.624,-39.12 147.853,-39.12c69.036,-0 124.457,20.135 166.262,60.406c41.806,40.272 62.708,96.843 62.708,169.715c0,29.148 -4.794,54.653 -14.382,76.515c-9.589,21.861 -29.341,32.792 -59.256,32.792l-248.531,-0c2.301,60.598 16.3,103.554 41.997,128.868c25.697,25.313 59.256,37.97 100.678,37.97c26.08,-0 50.243,-4.027 72.488,-12.082c22.245,-8.054 42.956,-19.368 62.133,-33.943c6.903,6.137 12.465,15.534 16.684,28.19c4.218,12.657 6.328,23.204 6.328,31.642c-0,12.273 -8.63,27.423 -25.889,45.449c-17.259,18.026 -41.805,33.943 -73.638,47.75c-31.834,13.807 -69.995,20.711 -114.486,20.711Zm-86.295,-382.001l116.211,0c13.04,0 21.286,-4.986 24.738,-14.958c3.452,-9.972 5.178,-22.245 5.178,-36.819c-0,-49.093 -5.945,-81.501 -17.834,-97.226c-11.89,-15.725 -25.889,-23.588 -41.998,-23.588c-13.04,0 -26.08,4.986 -39.12,14.958c-13.04,9.972 -23.779,27.423 -32.217,52.353c-8.438,24.929 -13.424,60.023 -14.958,105.28Z" style="fill:#009755;fill-rule:nonzero;"/><path id="t2" d="M3715.3,1027.85c-32.217,-0 -61.749,-5.945 -88.596,-17.835c-26.848,-11.889 -48.517,-32.408 -65.009,-61.557c-16.492,-29.149 -24.738,-69.036 -24.738,-119.663l-0,-316.416l-72.488,-0l-0,-70.187c20.711,-3.068 40.271,-16.108 58.68,-39.121c18.41,-23.012 34.327,-51.393 47.751,-85.144c13.423,-33.751 22.053,-67.502 25.888,-101.253c13.807,-2.302 26.464,-3.452 37.97,-3.452c30.683,-0 51.969,8.821 63.859,26.464c11.889,17.642 17.834,34.134 17.834,49.476l0,120.813l133.47,0c0,18.41 -0.959,36.628 -2.876,54.654c-1.918,18.026 -7.096,33.943 -15.534,47.75l-112.759,-0l0,324.47c0,24.547 4.986,40.847 14.958,48.901c9.972,8.054 22.629,12.081 37.97,12.081c15.341,0 30.875,-4.027 46.6,-12.081c15.724,-8.054 28.189,-17.451 37.394,-28.19c8.438,6.904 14.191,17.068 17.259,30.491c3.069,13.424 4.603,23.588 4.603,30.491c-0,16.876 -5.753,33.751 -17.259,50.627c-11.506,16.875 -29.341,30.874 -53.504,41.997c-24.162,11.122 -54.653,16.684 -91.473,16.684Z" style="fill:#009755;fill-rule:nonzero;"/><path id="t1" serif:id="t" d="M3281.52,1027.85c-32.217,-0 -61.75,-5.945 -88.597,-17.835c-26.847,-11.889 -48.517,-32.408 -65.009,-61.557c-16.492,-29.149 -24.738,-69.036 -24.738,-119.663l-0,-316.416l-72.488,-0l-0,-70.187c20.711,-3.068 40.271,-16.108 58.681,-39.121c18.409,-23.012 34.326,-51.393 47.75,-85.144c13.423,-33.751 22.053,-67.502 25.888,-101.253c13.808,-2.302 26.464,-3.452 37.97,-3.452c30.683,-0 51.969,8.821 63.859,26.464c11.889,17.642 17.834,34.134 17.834,49.476l0,120.813l133.47,0c0,18.41 -0.959,36.628 -2.876,54.654c-1.918,18.026 -7.096,33.943 -15.533,47.75l-112.76,-0l0,324.47c0,24.547 4.986,40.847 14.958,48.901c9.972,8.054 22.629,12.081 37.97,12.081c15.342,0 30.875,-4.027 46.6,-12.081c15.725,-8.054 28.189,-17.451 37.394,-28.19c8.438,6.904 14.191,17.068 17.259,30.491c3.069,13.424 4.603,23.588 4.603,30.491c-0,16.876 -5.753,33.751 -17.259,50.627c-11.506,16.875 -29.341,30.874 -53.503,41.997c-24.163,11.122 -54.654,16.684 -91.473,16.684Z" style="fill:#009755;fill-rule:nonzero;"/><path id="e1" serif:id="e" d="M2764.9,1027.85c-85.912,-0 -154.373,-27.231 -205.383,-81.693c-51.01,-54.462 -76.515,-130.402 -76.515,-227.82c-0,-66.735 12.657,-124.457 37.97,-173.166c25.313,-48.709 59.64,-86.103 102.979,-112.184c43.339,-26.08 92.624,-39.12 147.853,-39.12c69.036,-0 124.457,20.135 166.262,60.406c41.805,40.272 62.708,96.843 62.708,169.715c0,29.148 -4.794,54.653 -14.383,76.515c-9.588,21.861 -29.34,32.792 -59.256,32.792l-248.53,-0c2.301,60.598 16.3,103.554 41.997,128.868c25.697,25.313 59.256,37.97 100.678,37.97c26.08,-0 50.243,-4.027 72.488,-12.082c22.245,-8.054 42.956,-19.368 62.132,-33.943c6.904,6.137 12.465,15.534 16.684,28.19c4.219,12.657 6.329,23.204 6.329,31.642c-0,12.273 -8.63,27.423 -25.889,45.449c-17.259,18.026 -41.805,33.943 -73.639,47.75c-31.833,13.807 -69.995,20.711 -114.485,20.711Zm-86.295,-382.001l116.211,0c13.04,0 21.286,-4.986 24.738,-14.958c3.452,-9.972 5.178,-22.245 5.178,-36.819c-0,-49.093 -5.945,-81.501 -17.835,-97.226c-11.889,-15.725 -25.888,-23.588 -41.997,-23.588c-13.04,0 -26.08,4.986 -39.12,14.958c-13.041,9.972 -23.78,27.423 -32.217,52.353c-8.438,24.929 -13.424,60.023 -14.958,105.28Z" style="fill:#009755;fill-rule:nonzero;"/><path id="k" d="M2364.49,1027.85c-42.189,-0 -75.94,-9.013 -101.253,-27.039c-25.314,-18.027 -45.833,-40.847 -61.558,-68.461c-15.725,-27.615 -29.724,-55.613 -41.997,-83.995c-12.273,-29.148 -25.313,-55.612 -39.12,-79.391c-13.808,-23.779 -31.834,-39.888 -54.079,-48.326l0,176.043c0,22.245 5.945,46.216 15.533,55.804c9.589,9.589 26.272,14.383 50.052,14.383c-0,12.273 -2.493,23.395 -7.479,33.367c-4.986,9.972 -11.698,19.177 -20.136,27.615l-253.133,-0c-18.41,-16.109 -27.614,-36.436 -27.614,-60.982c23.012,-0 39.312,-4.794 48.9,-14.383c9.589,-9.588 13.232,-33.559 13.232,-55.804l0,-623.628c0,-17.642 -4.986,-31.641 -14.958,-41.997c-9.972,-10.355 -30.682,-15.533 -62.132,-15.533l-0,-46.024c19.176,-9.972 41.613,-19.177 67.31,-27.615c25.697,-8.437 51.202,-15.341 76.515,-20.711c25.314,-5.369 46.024,-8.054 62.133,-8.054c18.41,0 31.642,4.027 39.696,12.082c8.054,8.054 12.081,22.053 12.081,41.997l0,512.019l126.567,-131.169c4.602,-4.603 9.396,-10.164 14.382,-16.684c4.986,-6.52 7.479,-12.465 7.479,-17.834c0,-10.739 -8.246,-20.711 -24.738,-29.916c-16.492,-9.205 -32.409,-13.807 -47.75,-13.807c0,-27.615 8.821,-51.011 26.464,-70.187l258.886,-0c9.205,9.205 15.15,19.943 17.834,32.217c2.685,12.273 4.027,24.929 4.027,37.97c-20.71,-0 -36.244,3.26 -46.599,9.78c-10.355,6.52 -19.752,13.615 -28.19,21.286l-174.892,172.591c28.382,4.602 52.161,13.807 71.338,27.614c19.177,13.807 37.203,35.669 54.078,65.585c23.779,42.188 42.381,75.364 55.804,99.527c13.424,24.163 26.081,42.38 37.97,54.654c11.89,12.273 27.807,21.861 47.751,28.765l1.15,27.614c-2.301,16.109 -13.04,28.573 -32.217,37.395c-19.177,8.821 -42.956,13.232 -71.337,13.232Z" style="fill:#009755;fill-rule:nonzero;"/><path id="s" d="M1524.55,1027.85c-27.614,-0 -55.42,-3.069 -83.418,-9.205c-27.998,-6.137 -53.695,-14.958 -77.091,-26.464c-23.396,-11.506 -42.38,-25.889 -56.955,-43.148c-14.574,-17.259 -21.861,-37.011 -21.861,-59.256c-0,-26.847 7.67,-48.517 23.012,-65.009c15.341,-16.492 34.901,-24.738 58.681,-24.738c21.478,0 39.695,6.904 54.653,20.711c14.958,13.807 22.437,31.833 22.437,54.078c0,9.972 -1.534,18.602 -4.602,25.889c-3.069,7.287 -7.671,15.15 -13.808,23.587c6.904,6.904 19.177,11.89 36.82,14.958c17.642,3.068 34.901,4.603 51.777,4.603c26.847,-0 47.558,-4.986 62.133,-14.958c14.574,-9.972 21.861,-22.245 21.861,-36.82c0,-23.012 -12.273,-42.764 -36.819,-59.256c-24.546,-16.492 -52.544,-33.175 -83.994,-50.051c-28.382,-15.341 -56.572,-31.642 -84.57,-48.901c-27.998,-17.259 -51.393,-38.928 -70.187,-65.009c-18.793,-26.08 -28.189,-59.064 -28.189,-98.952c-0,-50.626 21.094,-92.432 63.283,-125.416c42.189,-32.984 102.02,-49.476 179.494,-49.476c53.695,0 96.651,6.712 128.868,20.136c32.217,13.424 55.612,30.299 70.187,50.626c14.574,20.328 21.861,41.614 21.861,63.859c0,23.779 -7.479,42.764 -22.437,56.955c-14.957,14.191 -33.175,21.286 -54.653,21.286c-19.177,0 -36.053,-5.945 -50.627,-17.834c-14.574,-11.89 -21.861,-27.423 -21.861,-46.6c-0,-9.205 1.534,-19.176 4.602,-29.915c3.068,-10.739 7.287,-19.561 12.657,-26.464c-8.438,-6.904 -18.218,-11.698 -29.341,-14.383c-11.122,-2.685 -24.354,-4.027 -39.696,-4.027c-25.313,-0 -44.681,5.945 -58.105,17.834c-13.424,11.89 -20.136,26.272 -20.136,43.148c0,26.08 12.465,47.558 37.395,64.434c24.93,16.875 52.736,33.367 83.419,49.476c28.381,14.574 56.188,30.299 83.419,47.175c27.231,16.875 50.051,37.97 68.461,63.283c18.409,25.313 27.614,57.914 27.614,97.801c0,42.956 -12.273,77.283 -36.819,102.979c-24.547,25.697 -56.188,44.299 -94.925,55.805c-38.737,11.506 -79.584,17.259 -122.54,17.259Z" style="fill:#009755;fill-rule:nonzero;"/><path id="i1" serif:id="i" d="M1082.72,322.524c-32.984,0 -59.256,-9.78 -78.816,-29.34c-19.56,-19.561 -29.341,-45.833 -29.341,-78.817c0,-32.217 10.164,-58.297 30.491,-78.241c20.328,-19.944 46.984,-29.915 79.968,-29.915c33.751,-0 60.406,9.971 79.967,29.915c19.56,19.944 29.34,46.024 29.34,78.241c-0,32.984 -10.164,59.256 -30.491,78.817c-20.327,19.56 -47.367,29.34 -81.118,29.34Zm-128.867,705.321c-8.438,-8.438 -14.958,-17.643 -19.561,-27.615c-4.602,-9.972 -6.903,-21.478 -6.903,-34.518c22.245,0 38.737,-4.794 49.476,-14.382c10.739,-9.589 16.108,-25.889 16.108,-48.901l0,-333.675c0,-19.944 -4.794,-34.902 -14.382,-44.874c-9.589,-9.972 -30.108,-14.958 -61.558,-14.958l0,-50.626c11.506,-6.904 29.149,-14.767 52.928,-23.588c23.779,-8.821 49.668,-16.3 77.666,-22.437c27.998,-6.136 53.119,-9.205 75.364,-9.205c17.643,0 30.3,4.028 37.97,12.082c7.671,8.054 11.506,21.67 11.506,40.846l0,447.585c0,23.013 5.753,39.121 17.26,48.326c11.506,9.205 28.381,13.807 50.626,13.807c0,13.04 -2.301,24.546 -6.904,34.518c-4.602,9.972 -11.122,19.177 -19.56,27.615l-260.036,-0Z" style="fill:#009755;fill-rule:nonzero;"/><path id="D" d="M155.53,873.14l-0,-643.859c-0,-24.576 -6.261,-42.098 -18.781,-52.565c-12.521,-10.467 -33.029,-15.701 -61.525,-15.701c0,-34.588 9.499,-63.26 28.496,-86.015l318.315,0c75.124,0 156.317,13.216 213.751,34.526c56.563,20.987 95.698,45.8 131.101,89.035c35.404,43.235 61.741,93.297 79.011,150.185c17.27,56.888 25.905,137.839 25.905,202.464c-0,64.625 -8.635,145.576 -25.905,202.464c-17.27,56.889 -43.607,106.95 -79.011,150.185c-35.403,43.235 -74.538,68.049 -131.101,89.036c-57.434,21.31 -138.627,34.525 -213.751,34.525l-318.315,0c-18.997,-22.755 -28.496,-51.427 -28.496,-86.015c28.496,0 49.004,-5.233 61.525,-15.701c12.52,-10.467 18.781,-27.989 18.781,-52.564Zm485.718,-321.93c0,-132.891 -22.019,-229.771 -66.057,-291.21c-44.039,-61.439 -102.757,-92.159 -176.154,-92.159l-16.839,0c-5.181,0 -9.93,0.911 -14.247,2.731l-0,761.276c4.317,1.821 9.066,2.731 14.247,2.731l16.839,-0c73.397,-0 132.115,-30.72 176.154,-92.159c44.038,-61.439 66.057,-158.319 66.057,-291.21Z" style="fill:#009755;"/></g><g id="Authority"><path id="Colon" d="M302.532,1371.45c0,24.888 -7.358,44.119 -22.076,57.694c-14.717,13.575 -32.305,20.362 -52.766,20.362c-20.46,0 -38.228,-6.787 -53.304,-20.362c-14.718,-13.575 -22.076,-32.806 -22.076,-57.694c-0,-24.133 7.358,-43.365 22.076,-57.694c14.717,-13.952 32.485,-20.928 53.304,-20.928c20.82,0 38.408,6.976 52.766,20.928c14.718,14.329 22.076,33.561 22.076,57.694Zm-74.175,234.169c-0,24.51 -7.359,43.93 -22.076,58.259c-14.717,13.575 -32.306,20.363 -52.766,20.363c-20.461,-0 -38.229,-6.788 -53.305,-20.363c-14.717,-14.329 -22.075,-33.749 -22.075,-58.259c-0,-24.888 7.358,-44.119 22.075,-57.694c14.717,-13.952 32.486,-20.928 53.305,-20.928c20.819,-0 38.408,6.976 52.766,20.928c14.717,13.575 22.076,32.806 22.076,57.694Z" style="fill:#fcb414;fill-rule:nonzero;"/><path id="Slash" d="M353.503,1844.98c-19.806,62.528 -77.837,105.02 -143.427,105.02l-56.095,0c-11.563,-24.82 -6.585,-48.748 4.632,-71.861l11.746,0c20.634,0 38.889,-13.368 45.118,-33.04c33.642,-106.253 140.039,-442.288 194.786,-615.196c19.801,-62.537 77.836,-105.036 143.432,-105.036l51.451,-0c10.296,21.939 13.475,45.867 9.262,71.86l-14.332,0c-24.555,0 -46.281,15.908 -53.695,39.318c-35.679,112.641 -139.148,439.304 -192.878,608.935Z" style="fill:#fcb414;"/><path id="Slash1" serif:id="Slash" d="M577.512,1844.98c-19.805,62.528 -77.837,105.02 -143.427,105.02l-56.094,0c-11.564,-24.82 -6.586,-48.748 4.631,-71.861l11.747,0c20.633,0 38.889,-13.368 45.117,-33.04c33.643,-106.253 140.039,-442.288 194.786,-615.196c19.801,-62.537 77.836,-105.036 143.433,-105.036l51.45,-0c10.296,21.939 13.475,45.867 9.262,71.86l-14.331,0c-24.556,0 -46.281,15.908 -53.696,39.318c-35.679,112.641 -139.148,439.304 -192.878,608.935Z" style="fill:#fcb414;"/></g></svg>