<?xml version="1.0" encoding="UTF-8" standalone="no"?>
<!DOCTYPE svg PUBLIC "-//W3C//DTD SVG 1.1//EN" "http://www.w3.org/Graphics/SVG/1.1/DTD/svg11.dtd">
<svg width="100%" height="100%" viewBox="0 0 6001 2700" version="1.1" xmlns="http://www.w3.org/2000/svg" xmlns:xlink="http://www.w3.org/1999/xlink" xml:space="preserve" xmlns:serif="http://www.serif.com/" style="fill-rule:evenodd;clip-rule:evenodd;stroke-linejoin:round;stroke-miterlimit:2;">
    <g transform="matrix(1,0,0,1,-6,-4140)">
        <g id="WordStack" transform="matrix(0.214286,0,0,0.186207,6327.73,2557.24)">
            <rect x="-29500" y="8500" width="28000" height="14500" style="fill:none;"/>
            <g id="Kitchen" transform="matrix(4.10733,0,0,4.72669,-54133.4,15136.6)">
                <g id="n" transform="matrix(0.872708,0,0,0.987768,4288.51,-67.0847)">
                    <path d="M8708.68,1637.11C8696,1625.9 8685.91,1613.68 8678.42,1600.43C8670.92,1587.19 8667.17,1572.42 8667.17,1556.12C8701.77,1556.12 8726.56,1549.5 8741.55,1536.25C8756.54,1523.01 8764.03,1501.62 8764.03,1472.07L8764.94,1016.69C8764.94,990.203 8756.58,970.847 8739.86,958.622C8723.14,946.397 8692.87,940.284 8649.06,940.284L8649.06,871.519C8675.58,858.275 8709.3,846.05 8750.24,834.844C8791.17,823.637 8830.95,814.723 8869.58,808.102C8908.21,801.48 8937.9,798.169 8958.65,798.169C8982.87,798.169 9002.76,804.791 9018.32,818.034C9033.89,831.278 9042.83,859.803 9045.13,903.609C9073.96,872.028 9110.57,846.559 9154.96,827.203C9199.35,807.847 9250.95,798.169 9309.76,798.169C9390.48,798.169 9451.3,816.252 9492.23,852.417C9533.17,888.583 9553.63,949.963 9553.63,1036.56L9553.63,1453.73C9553.63,1503.65 9581.31,1533.2 9636.66,1542.37L9638.38,1586.68C9626.85,1596.87 9608.41,1605.78 9583.04,1613.42C9557.67,1621.06 9530.28,1626.92 9500.88,1631C9471.48,1635.07 9444.09,1637.11 9418.73,1637.11C9369.14,1637.11 9332.53,1628.96 9308.9,1612.66C9285.26,1596.36 9273.44,1570.38 9273.44,1534.73L9273.44,1057.95C9273.44,1016.18 9263.06,987.147 9242.31,970.847C9221.55,954.547 9196.18,946.397 9166.2,946.397C9118.93,946.397 9079.15,963.206 9046.86,996.825L9045.96,1472.07C9045.96,1501.62 9053.16,1523.01 9067.58,1536.25C9081.99,1549.5 9106.49,1556.12 9141.09,1556.12C9141.09,1586.68 9127.83,1613.68 9101.3,1637.11L8708.68,1637.11Z" style="fill:rgb(137,24,92);fill-rule:nonzero;"/>
                </g>
                <g id="e" transform="matrix(0.872708,0,0,0.987768,4288.51,-71.613)">
                    <path d="M8225.3,1641.69C8096.16,1641.69 7993.25,1605.53 7916.57,1533.2C7839.89,1460.87 7801.55,1360.01 7801.55,1230.63C7801.55,1142 7820.58,1065.34 7858.63,1000.64C7896.68,935.955 7948.28,886.291 8013.43,851.653C8078.58,817.016 8152.66,799.697 8235.68,799.697C8339.46,799.697 8422.77,826.439 8485.61,879.923C8548.45,933.408 8579.87,1008.54 8579.87,1105.32C8579.87,1144.03 8572.66,1177.91 8558.25,1206.94C8543.84,1235.98 8514.15,1250.49 8469.18,1250.49L8095.58,1250.49C8099.04,1330.98 8120.09,1388.03 8158.71,1421.64C8197.34,1455.26 8247.79,1472.07 8310.05,1472.07C8349.26,1472.07 8385.58,1466.72 8419.02,1456.03C8452.46,1445.33 8483.59,1430.3 8512.42,1410.95C8522.79,1419.1 8531.15,1431.58 8537.5,1448.39C8543.84,1465.19 8547.01,1479.2 8547.01,1490.41C8547.01,1506.71 8534.04,1526.83 8508.09,1550.77C8482.15,1574.71 8445.25,1595.85 8397.4,1614.19C8349.55,1632.53 8292.18,1641.69 8225.3,1641.69ZM8095.58,1134.36L8270.27,1134.36C8289.88,1134.36 8302.27,1127.73 8307.46,1114.49C8312.65,1101.25 8315.24,1084.95 8315.24,1065.59C8315.24,1000.39 8306.31,957.348 8288.43,936.464C8270.56,915.58 8249.52,905.137 8225.3,905.137C8205.7,905.137 8186.1,911.759 8166.5,925.003C8146.9,938.247 8130.75,961.423 8118.07,994.533C8105.38,1027.64 8097.89,1074.25 8095.58,1134.36Z" style="fill:rgb(137,24,92);fill-rule:nonzero;"/>
                </g>
                <g id="h" transform="matrix(0.872708,0,0,0.987768,4291.53,-67.0847)">
                    <path d="M7535.19,1637.11C7478.69,1637.11 7435.45,1629.47 7405.47,1614.19C7375.49,1598.91 7360.5,1574.46 7360.5,1540.84L7360.5,1048.78C7360.5,1016.18 7350.13,990.967 7329.37,973.139C7308.62,955.311 7281.52,946.397 7248.08,946.397C7226.17,946.397 7202.82,952.764 7178.03,965.498C7153.24,978.233 7134.5,995.297 7121.82,1016.69L7123.55,1472.07C7123.55,1501.62 7130.76,1522.76 7145.17,1535.49C7159.58,1548.22 7182.36,1545.42 7216.95,1545.42C7216.95,1577 7205.42,1613.68 7178.9,1637.11L6796.65,1637.11C6770.14,1613.68 6756.88,1586.17 6756.88,1554.59C6791.47,1554.59 6815.97,1548.22 6830.38,1535.49C6844.8,1522.76 6852,1501.62 6852,1472.07L6850.27,634.659C6850.27,611.228 6842.78,592.891 6827.79,579.647C6812.8,566.403 6781.67,559.781 6734.39,559.781L6734.39,497.128C6763.22,483.884 6796.94,471.659 6835.57,460.453C6874.2,449.247 6912.83,440.333 6951.45,433.711C6990.08,427.089 7022.08,423.778 7047.45,423.778C7073.97,423.778 7092.99,429.127 7104.52,439.823C7116.05,450.52 7121.82,468.603 7121.82,494.072L7121.82,795.112L7118.36,917.362C7148.34,883.744 7186.97,855.219 7234.24,831.787C7281.52,808.356 7335.14,796.641 7395.1,796.641C7558.83,796.641 7640.7,872.028 7640.7,1022.8L7640.7,1450.68C7640.7,1502.63 7668.37,1533.2 7723.72,1542.37L7725.45,1586.68C7683.94,1620.3 7620.52,1637.11 7535.19,1637.11Z" style="fill:rgb(137,24,92);fill-rule:nonzero;"/>
                </g>
                <g id="c" transform="matrix(0.872708,0,0,0.987768,4288.51,-80.6696)">
                    <path d="M6405.77,1650.86C6321.59,1650.86 6247.51,1634.05 6183.51,1600.43C6119.52,1566.82 6069.36,1518.68 6033.04,1456.03C5996.72,1393.37 5978.56,1318.24 5978.56,1230.63C5978.56,1139.96 5998.16,1062.28 6037.36,997.589C6076.57,932.898 6130.18,883.489 6198.22,849.361C6266.24,815.233 6342.92,798.169 6428.25,798.169C6517.04,798.169 6584.49,816.761 6630.61,853.945C6676.74,891.13 6699.8,936.719 6699.8,990.713C6699.8,1039.61 6685.96,1077.31 6658.29,1103.79C6630.61,1130.28 6594.87,1143.53 6551.05,1143.53C6515.31,1143.53 6485.33,1131.81 6461.11,1108.38C6436.9,1084.95 6424.79,1056.42 6424.79,1022.8C6424.79,998.353 6429.69,978.487 6439.49,963.206C6449.3,947.925 6461.69,935.191 6476.68,925.003C6465.15,918.891 6455.64,915.07 6448.14,913.542C6440.65,912.014 6433.44,911.25 6426.52,911.25C6404.61,911.25 6382.13,918.891 6359.07,934.172C6336.01,949.453 6316.69,976.45 6301.13,1015.16C6285.56,1053.88 6277.78,1107.87 6277.78,1177.14C6277.78,1289.21 6296.23,1367.9 6333.12,1413.24C6370.02,1458.57 6421.91,1481.24 6488.79,1481.24C6519.92,1481.24 6551.34,1477.17 6583.05,1469.02C6614.76,1460.87 6641.57,1449.15 6663.48,1433.87C6672.7,1444.06 6680.48,1456.54 6686.83,1471.31C6693.17,1486.08 6696.34,1499.07 6696.34,1510.28C6696.34,1531.67 6683.37,1553.32 6657.42,1575.22C6631.48,1597.12 6596.6,1615.21 6552.78,1629.47C6508.97,1643.73 6459.96,1650.86 6405.77,1650.86Z" style="fill:rgb(137,24,92);fill-rule:nonzero;"/>
                </g>
                <g id="t" transform="matrix(0.872708,0,0,0.987768,4288.51,-68.5941)">
                    <path d="M5696.63,1638.64C5648.2,1638.64 5603.81,1630.74 5563.45,1614.95C5523.1,1599.16 5490.52,1571.91 5465.73,1533.2C5440.94,1494.48 5428.54,1441.51 5428.54,1374.27L5428.54,954.037L5319.58,954.037L5319.58,860.822C5350.71,856.747 5380.11,839.428 5407.79,808.866C5435.46,778.303 5459.39,740.609 5479.57,695.784C5499.74,650.959 5512.72,606.134 5518.48,561.309C5539.24,558.253 5558.26,556.725 5575.56,556.725C5621.68,556.725 5653.68,568.441 5671.55,591.872C5689.43,615.303 5698.36,637.206 5698.36,657.581L5698.36,818.034L5898.99,818.034C5898.99,842.484 5897.55,866.68 5894.67,890.62C5891.79,914.561 5884,935.7 5871.32,954.037L5701.82,954.037L5701.82,1384.97C5701.82,1417.57 5709.32,1439.22 5724.31,1449.91C5739.3,1460.61 5758.32,1465.96 5781.38,1465.96C5804.44,1465.96 5827.79,1460.61 5851.43,1449.91C5875.07,1439.22 5893.81,1426.74 5907.64,1412.48C5920.33,1421.64 5928.97,1435.14 5933.59,1452.97C5938.2,1470.8 5940.51,1484.3 5940.51,1493.47C5940.51,1515.88 5931.86,1538.29 5914.56,1560.7C5897.27,1583.12 5870.46,1601.71 5834.13,1616.48C5797.81,1631.25 5751.98,1638.64 5696.63,1638.64Z" style="fill:rgb(137,24,92);fill-rule:nonzero;"/>
                </g>
                <g id="i" transform="matrix(0.872708,0,0,0.987768,4288.51,-58.0281)">
                    <path d="M5051.49,691.2C5001.91,691.2 4962.42,678.211 4933.01,652.233C4903.61,626.255 4888.91,591.363 4888.91,547.556C4888.91,504.769 4904.19,470.131 4934.74,443.644C4965.3,417.156 5005.37,403.912 5054.95,403.912C5105.69,403.912 5145.75,417.156 5175.16,443.644C5204.56,470.131 5219.26,504.769 5219.26,547.556C5219.26,591.363 5203.98,626.255 5173.43,652.233C5142.87,678.211 5102.23,691.2 5051.49,691.2ZM4857.78,1627.94C4845.09,1616.73 4835.29,1604.51 4828.37,1591.27C4821.45,1578.02 4818,1562.74 4818,1545.42C4851.44,1545.42 4876.23,1539.06 4892.37,1526.32C4908.51,1513.59 4916.58,1491.94 4916.58,1461.38L4916.58,1018.22C4916.58,991.731 4909.38,971.866 4894.96,958.622C4880.55,945.378 4849.7,938.756 4802.43,938.756L4802.43,871.519C4819.73,862.35 4846.25,851.908 4881.99,840.192C4917.74,828.477 4956.65,818.544 4998.74,810.394C5040.83,802.244 5078.59,798.169 5112.03,798.169C5138.55,798.169 5157.57,803.517 5169.1,814.214C5180.64,824.911 5186.4,842.994 5186.4,868.463L5186.4,1462.9C5186.4,1493.47 5195.05,1514.86 5212.34,1527.08C5229.64,1539.31 5255.01,1545.42 5288.45,1545.42C5288.45,1562.74 5284.99,1578.02 5278.07,1591.27C5271.15,1604.51 5261.35,1616.73 5248.67,1627.94L4857.78,1627.94Z" style="fill:rgb(137,24,92);fill-rule:nonzero;"/>
                </g>
                <g id="K" transform="matrix(1.01504,0,0,1.14887,3569.15,-344.872)">
                    <path d="M4600.07,1649.33C4551.64,1649.33 4510.7,1642.2 4477.27,1627.94C4443.83,1613.68 4416.15,1595.09 4394.24,1572.16C4372.34,1549.24 4353.6,1524.79 4338.03,1498.81C4322.47,1472.84 4308.34,1448.64 4295.66,1426.23C4284.13,1404.83 4269.71,1379.62 4252.42,1350.59C4235.12,1321.55 4216.38,1292.52 4196.2,1263.48C4176.03,1234.45 4154.98,1208.98 4133.07,1187.08C4111.17,1165.17 4089.26,1150.15 4067.35,1142L4067.35,1475.13C4067.35,1503.65 4075.13,1523.52 4090.7,1534.73C4106.27,1545.93 4133.07,1551.53 4171.13,1551.53C4171.13,1569.87 4167.67,1587.7 4160.75,1605.02C4153.83,1622.34 4144.61,1637.11 4133.07,1649.33L3709.32,1649.33C3683.96,1623.87 3671.27,1591.27 3671.27,1551.53C3709.32,1551.53 3736.13,1545.93 3751.7,1534.73C3767.26,1523.52 3775.05,1503.65 3775.05,1475.13L3775.05,735.516C3775.05,706.991 3767.26,686.87 3751.7,675.155C3736.13,663.439 3709.32,657.581 3671.27,657.581C3671.27,618.869 3683.96,586.778 3709.32,561.309L4133.07,561.309C4144.61,573.534 4153.83,588.306 4160.75,605.625C4167.67,622.944 4171.13,640.262 4171.13,657.581C4133.07,657.581 4106.27,663.439 4090.7,675.155C4075.13,686.87 4067.35,706.991 4067.35,735.516L4067.35,1038.08L4096.75,1038.08C4108.28,1038.08 4119.82,1039.1 4131.35,1041.14L4375.22,755.381C4383.29,747.231 4389.06,738.062 4392.52,727.875C4395.97,717.687 4397.7,708.519 4397.7,700.369C4397.7,687.125 4386.75,676.683 4364.84,669.042C4342.93,661.402 4320.45,657.581 4297.39,657.581C4297.39,621.925 4310.65,589.834 4337.17,561.309L4740.16,561.309C4751.69,574.553 4760.92,589.58 4767.84,606.389C4774.76,623.198 4778.22,640.262 4778.22,657.581C4728.63,657.581 4690.58,666.241 4664.06,683.559C4637.54,700.878 4617.94,716.669 4605.26,730.931L4278.36,1073.23C4334.86,1095.64 4381.27,1122.89 4417.59,1154.99C4453.91,1187.08 4488.8,1226.04 4522.23,1271.89C4556.83,1317.73 4586.23,1358.74 4610.44,1394.9C4634.66,1431.07 4659.45,1459.85 4684.82,1481.24C4710.18,1502.63 4740.16,1515.37 4774.76,1519.44L4774.76,1580.57C4756.31,1601.96 4734.11,1618.77 4708.17,1631C4682.22,1643.22 4646.19,1649.33 4600.07,1649.33Z" style="fill:rgb(137,24,92);fill-rule:nonzero;"/>
                </g>
            </g>
            <g id="Diskette" transform="matrix(4.74305,0,0,5.45827,-30456.2,7399.56)">
                <g id="e2" transform="matrix(0.971357,0,0,0.987768,-3143.01,-71.613)">
                    <path d="M9100.84,1641.69C8984.82,1641.69 8892.36,1605.53 8823.47,1533.2C8754.57,1460.87 8720.13,1360.01 8720.13,1230.63C8720.13,1142 8737.22,1065.34 8771.41,1000.64C8805.59,935.955 8851.95,886.291 8910.49,851.653C8969.02,817.016 9035.58,799.697 9110.17,799.697C9203.4,799.697 9278.25,826.439 9334.71,879.923C9391.17,933.408 9419.4,1008.54 9419.4,1105.32C9419.4,1144.03 9412.93,1177.91 9399.98,1206.94C9387.03,1235.98 9360.35,1250.49 9319.95,1250.49L8984.3,1250.49C8987.41,1330.98 9006.31,1388.03 9041.02,1421.64C9075.72,1455.26 9121.05,1472.07 9176.99,1472.07C9212.21,1472.07 9244.84,1466.72 9274.89,1456.03C9304.93,1445.33 9332.9,1430.3 9358.8,1410.95C9368.12,1419.1 9375.63,1431.58 9381.33,1448.39C9387.03,1465.19 9389.88,1479.2 9389.88,1490.41C9389.88,1506.71 9378.22,1526.83 9354.91,1550.77C9331.6,1574.71 9298.45,1595.85 9255.46,1614.19C9212.47,1632.53 9160.93,1641.69 9100.84,1641.69ZM8984.3,1134.36L9141.25,1134.36C9158.86,1134.36 9169.99,1127.73 9174.66,1114.49C9179.32,1101.25 9181.65,1084.95 9181.65,1065.59C9181.65,1000.39 9173.62,957.348 9157.56,936.464C9141.51,915.58 9122.6,905.137 9100.84,905.137C9083.23,905.137 9065.62,911.759 9048.01,925.003C9030.4,938.247 9015.9,961.423 9004.5,994.533C8993.1,1027.64 8986.37,1074.25 8984.3,1134.36Z" style="fill:rgb(0,151,85);fill-rule:nonzero;"/>
                </g>
                <g id="t2" transform="matrix(0.971357,0,0,0.987768,-3149.04,-68.5941)">
                    <path d="M8466.84,1638.64C8423.33,1638.64 8383.44,1630.74 8347.18,1614.95C8310.92,1599.16 8281.66,1571.91 8259.38,1533.2C8237.11,1494.48 8225.97,1441.51 8225.97,1374.27L8225.97,954.037L8128.08,954.037L8128.08,860.822C8156.05,856.747 8182.46,839.428 8207.33,808.866C8232.19,778.303 8253.69,740.609 8271.82,695.784C8289.94,650.959 8301.6,606.134 8306.78,561.309C8325.43,558.253 8342.52,556.725 8358.06,556.725C8399.5,556.725 8428.25,568.441 8444.3,591.872C8460.36,615.303 8468.39,637.206 8468.39,657.581L8468.39,818.034L8648.65,818.034C8648.65,842.484 8647.35,866.68 8644.76,890.62C8642.17,914.561 8635.18,935.7 8623.78,954.037L8471.5,954.037L8471.5,1384.97C8471.5,1417.57 8478.23,1439.22 8491.7,1449.91C8505.17,1460.61 8522.26,1465.96 8542.98,1465.96C8563.7,1465.96 8584.68,1460.61 8605.91,1449.91C8627.15,1439.22 8643.99,1426.74 8656.42,1412.48C8667.81,1421.64 8675.58,1435.14 8679.73,1452.97C8683.87,1470.8 8685.94,1484.3 8685.94,1493.47C8685.94,1515.88 8678.17,1538.29 8662.63,1560.7C8647.09,1583.12 8623.01,1601.71 8590.37,1616.48C8557.74,1631.25 8516.56,1638.64 8466.84,1638.64Z" style="fill:rgb(0,151,85);fill-rule:nonzero;"/>
                </g>
                <g id="t1" serif:id="t" transform="matrix(0.971357,0,0,0.987768,-3149.04,-68.5941)">
                    <path d="M7881,1638.64C7837.49,1638.64 7797.6,1630.74 7761.35,1614.95C7725.09,1599.16 7695.82,1571.91 7673.55,1533.2C7651.27,1494.48 7640.14,1441.51 7640.14,1374.27L7640.14,954.037L7542.24,954.037L7542.24,860.822C7570.21,856.747 7596.63,839.428 7621.49,808.866C7646.35,778.303 7667.85,740.609 7685.98,695.784C7704.11,650.959 7715.76,606.134 7720.94,561.309C7739.59,558.253 7756.68,556.725 7772.22,556.725C7813.66,556.725 7842.41,568.441 7858.47,591.872C7874.52,615.303 7882.55,637.206 7882.55,657.581L7882.55,818.034L8062.81,818.034C8062.81,842.484 8061.52,866.68 8058.93,890.62C8056.34,914.561 8049.34,935.7 8037.95,954.037L7885.66,954.037L7885.66,1384.97C7885.66,1417.57 7892.39,1439.22 7905.86,1449.91C7919.33,1460.61 7936.42,1465.96 7957.14,1465.96C7977.86,1465.96 7998.84,1460.61 8020.08,1449.91C8041.31,1439.22 8058.15,1426.74 8070.58,1412.48C8081.98,1421.64 8089.74,1435.14 8093.89,1452.97C8098.03,1470.8 8100.11,1484.3 8100.11,1493.47C8100.11,1515.88 8092.34,1538.29 8076.8,1560.7C8061.26,1583.12 8037.17,1601.71 8004.54,1616.48C7971.9,1631.25 7930.73,1638.64 7881,1638.64Z" style="fill:rgb(0,151,85);fill-rule:nonzero;"/>
                </g>
                <g id="e1" serif:id="e" transform="matrix(0.971357,0,0,0.987768,-3136.97,-71.613)">
                    <path d="M7170.85,1641.69C7054.82,1641.69 6962.36,1605.53 6893.47,1533.2C6824.58,1460.87 6790.13,1360.01 6790.13,1230.63C6790.13,1142 6807.22,1065.34 6841.41,1000.64C6875.6,935.955 6921.96,886.291 6980.49,851.653C7039.02,817.016 7105.58,799.697 7180.17,799.697C7273.41,799.697 7348.26,826.439 7404.72,879.923C7461.18,933.408 7489.4,1008.54 7489.4,1105.32C7489.4,1144.03 7482.93,1177.91 7469.98,1206.94C7457.03,1235.98 7430.36,1250.49 7389.95,1250.49L7054.3,1250.49C7057.41,1330.98 7076.32,1388.03 7111.02,1421.64C7145.73,1455.26 7191.05,1472.07 7246.99,1472.07C7282.21,1472.07 7314.85,1466.72 7344.89,1456.03C7374.93,1445.33 7402.9,1430.3 7428.8,1410.95C7438.12,1419.1 7445.64,1431.58 7451.33,1448.39C7457.03,1465.19 7459.88,1479.2 7459.88,1490.41C7459.88,1506.71 7448.23,1526.83 7424.92,1550.77C7401.61,1574.71 7368.46,1595.85 7325.46,1614.19C7282.47,1632.53 7230.93,1641.69 7170.85,1641.69ZM7054.3,1134.36L7211.25,1134.36C7228.86,1134.36 7240,1127.73 7244.66,1114.49C7249.32,1101.25 7251.65,1084.95 7251.65,1065.59C7251.65,1000.39 7243.62,957.348 7227.57,936.464C7211.51,915.58 7192.6,905.137 7170.85,905.137C7153.24,905.137 7135.62,911.759 7118.01,925.003C7100.4,938.247 7085.9,961.423 7074.5,994.533C7063.11,1027.64 7056.37,1074.25 7054.3,1134.36Z" style="fill:rgb(0,151,85);fill-rule:nonzero;"/>
                </g>
                <g id="k" transform="matrix(0.971357,0,0,0.987768,-3149.04,-73.1224)">
                    <path d="M6642.51,1643.22C6585.53,1643.22 6539.95,1631.25 6505.76,1607.31C6471.57,1583.37 6443.86,1553.06 6422.62,1516.39C6401.39,1479.71 6382.48,1442.53 6365.9,1404.83C6349.33,1366.12 6331.72,1330.98 6313.07,1299.39C6294.42,1267.81 6270.08,1246.42 6240.03,1235.21L6240.03,1469.02C6240.03,1498.56 6248.06,1530.39 6261.01,1543.13C6273.96,1555.86 6296.49,1562.23 6328.61,1562.23C6328.61,1578.53 6325.24,1593.3 6318.51,1606.55C6311.78,1619.79 6302.71,1632.02 6291.32,1643.22L5949.45,1643.22C5924.59,1621.83 5912.15,1594.83 5912.15,1562.23C5943.23,1562.23 5965.25,1555.86 5978.2,1543.13C5991.15,1530.39 5996.07,1498.56 5996.07,1469.02L5996.07,640.772C5996.07,617.341 5989.33,598.748 5975.86,584.995C5962.4,571.242 5934.43,564.366 5891.95,564.366L5891.95,503.241C5917.85,489.997 5948.15,477.772 5982.86,466.566C6017.56,455.359 6052.01,446.191 6086.19,439.059C6120.38,431.928 6148.35,428.362 6170.11,428.362C6194.97,428.362 6212.84,433.711 6223.72,444.408C6234.6,455.105 6240.03,473.697 6240.03,500.184L6240.03,1180.2L6410.97,1005.99C6417.18,999.881 6423.66,992.495 6430.39,983.836C6437.13,975.177 6440.49,967.281 6440.49,960.15C6440.49,945.888 6429.36,932.644 6407.08,920.419C6384.81,908.194 6363.31,902.081 6342.6,902.081C6342.6,865.406 6354.51,834.334 6378.34,808.866L6727.97,808.866C6740.4,821.091 6748.43,835.353 6752.06,851.653C6755.69,867.953 6757.5,884.762 6757.5,902.081C6729.53,902.081 6708.55,906.411 6694.56,915.07C6680.58,923.73 6667.89,933.153 6656.49,943.341L6420.29,1172.56C6458.62,1178.67 6490.74,1190.9 6516.64,1209.23C6542.54,1227.57 6566.88,1256.61 6589.67,1296.34C6621.79,1352.37 6646.91,1396.43 6665.04,1428.52C6683.17,1460.61 6700.26,1484.81 6716.32,1501.11C6732.38,1517.41 6753.87,1530.14 6780.81,1539.31L6782.36,1575.98C6779.25,1597.38 6764.75,1613.93 6738.85,1625.65C6712.95,1637.36 6680.84,1643.22 6642.51,1643.22Z" style="fill:rgb(0,151,85);fill-rule:nonzero;"/>
                </g>
                <g id="s" transform="matrix(0.971357,0,0,0.987768,-3149.04,-73.1224)">
                    <path d="M5508.13,1643.22C5470.83,1643.22 5433.28,1639.15 5395.47,1631C5357.65,1622.85 5322.95,1611.13 5291.35,1595.85C5259.76,1580.57 5234.12,1561.47 5214.43,1538.55C5194.75,1515.62 5184.91,1489.39 5184.91,1459.85C5184.91,1424.19 5195.27,1395.41 5215.99,1373.51C5236.71,1351.61 5263.12,1340.65 5295.24,1340.65C5324.24,1340.65 5348.85,1349.82 5369.05,1368.16C5389.25,1386.5 5399.35,1410.44 5399.35,1439.98C5399.35,1453.23 5397.28,1464.69 5393.14,1474.36C5388.99,1484.04 5382.78,1494.48 5374.49,1505.69C5383.81,1514.86 5400.39,1521.48 5424.22,1525.56C5448.04,1529.63 5471.35,1531.67 5494.14,1531.67C5530.4,1531.67 5558.37,1525.05 5578.06,1511.8C5597.74,1498.56 5607.58,1482.26 5607.58,1462.9C5607.58,1432.34 5591.01,1406.11 5557.85,1384.2C5524.7,1362.3 5486.89,1340.14 5444.42,1317.73C5406.09,1297.36 5368.01,1275.71 5330.2,1252.79C5292.39,1229.86 5260.79,1201.08 5235.41,1166.45C5210.03,1131.81 5197.34,1088 5197.34,1035.03C5197.34,967.791 5225.83,912.269 5282.81,868.463C5339.78,824.656 5420.59,802.753 5525.22,802.753C5597.74,802.753 5655.75,811.667 5699.26,829.495C5742.77,847.323 5774.37,869.736 5794.05,896.733C5813.74,923.73 5823.58,952 5823.58,981.544C5823.58,1013.12 5813.48,1038.34 5793.28,1057.19C5773.07,1076.03 5748.47,1085.46 5719.46,1085.46C5693.57,1085.46 5670.77,1077.56 5651.09,1061.77C5631.41,1045.98 5621.57,1025.35 5621.57,999.881C5621.57,987.656 5623.64,974.413 5627.78,960.15C5631.93,945.888 5637.62,934.172 5644.88,925.003C5633.48,915.834 5620.27,909.467 5605.25,905.902C5590.23,902.336 5572.36,900.553 5551.64,900.553C5517.45,900.553 5491.29,908.448 5473.16,924.239C5455.03,940.03 5445.97,959.131 5445.97,981.544C5445.97,1016.18 5462.81,1044.71 5496.47,1067.12C5530.14,1089.53 5567.7,1111.43 5609.13,1132.83C5647.47,1152.18 5685.02,1173.07 5721.8,1195.48C5758.57,1217.89 5789.39,1245.91 5814.26,1279.53C5839.12,1313.15 5851.55,1356.44 5851.55,1409.42C5851.55,1466.47 5834.97,1512.06 5801.82,1546.19C5768.67,1580.31 5725.94,1605.02 5673.62,1620.3C5621.31,1635.58 5566.14,1643.22 5508.13,1643.22Z" style="fill:rgb(0,151,85);fill-rule:nonzero;"/>
                </g>
                <g id="i1" serif:id="i" transform="matrix(0.971357,0,0,0.987768,-3149.04,-58.0281)">
                    <path d="M4911.41,691.2C4866.87,691.2 4831.39,678.211 4804.97,652.233C4778.55,626.255 4765.34,591.363 4765.34,547.556C4765.34,504.769 4779.07,470.131 4806.52,443.644C4833.98,417.156 4869.98,403.912 4914.52,403.912C4960.1,403.912 4996.1,417.156 5022.52,443.644C5048.94,470.131 5062.15,504.769 5062.15,547.556C5062.15,591.363 5048.42,626.255 5020.97,652.233C4993.51,678.211 4957,691.2 4911.41,691.2ZM4737.37,1627.94C4725.98,1616.73 4717.17,1604.51 4710.95,1591.27C4704.74,1578.02 4701.63,1562.74 4701.63,1545.42C4731.67,1545.42 4753.95,1539.06 4768.45,1526.32C4782.95,1513.59 4790.21,1491.94 4790.21,1461.38L4790.21,1018.22C4790.21,991.731 4783.73,971.866 4770.78,958.622C4757.83,945.378 4730.12,938.756 4687.65,938.756L4687.65,871.519C4703.19,862.35 4727.01,851.908 4759.13,840.192C4791.24,828.477 4826.21,818.544 4864.02,810.394C4901.83,802.244 4935.76,798.169 4965.8,798.169C4989.63,798.169 5006.72,803.517 5017.08,814.214C5027.44,824.911 5032.62,842.994 5032.62,868.463L5032.62,1462.9C5032.62,1493.47 5040.39,1514.86 5055.93,1527.08C5071.47,1539.31 5094.26,1545.42 5124.3,1545.42C5124.3,1562.74 5121.2,1578.02 5114.98,1591.27C5108.76,1604.51 5099.96,1616.73 5088.56,1627.94L4737.37,1627.94Z" style="fill:rgb(0,151,85);fill-rule:nonzero;"/>
                </g>
                <g id="D" transform="matrix(1.04606,0,0,1.10265,-2075.03,-1132.79)">
                    <path d="M2371.16,2248.98L2371.16,1482.96C2371.16,1453.72 2363.31,1432.88 2347.61,1420.42C2331.9,1407.97 2306.18,1401.74 2270.45,1401.74C2270.45,1360.59 2282.36,1326.48 2306.18,1299.41L2705.38,1299.41C2799.6,1299.41 2901.42,1315.13 2973.45,1340.48C3044.38,1365.45 3093.46,1394.97 3137.86,1446.41C3182.26,1497.85 3215.29,1557.41 3236.95,1625.09C3258.61,1692.77 3269.43,1789.08 3269.43,1865.97C3269.43,1942.86 3258.61,2039.17 3236.95,2106.85C3215.29,2174.53 3182.26,2234.09 3137.86,2285.53C3093.46,2336.97 3044.38,2366.49 2973.45,2391.46C2901.42,2416.81 2799.6,2432.53 2705.38,2432.53L2306.18,2432.53C2282.36,2405.46 2270.45,2371.35 2270.45,2330.2C2306.18,2330.2 2331.9,2323.97 2347.61,2311.52C2363.31,2299.07 2371.16,2278.22 2371.16,2248.98ZM2980.3,1865.97C2980.3,1707.87 2952.68,1592.6 2897.45,1519.51C2842.23,1446.41 2768.59,1409.86 2676.54,1409.86L2655.42,1409.86C2648.93,1409.86 2642.97,1410.95 2637.56,1413.11L2637.56,2318.83C2642.97,2320.99 2648.93,2322.08 2655.42,2322.08L2676.54,2322.08C2768.59,2322.08 2842.23,2285.53 2897.45,2212.43C2952.68,2139.34 2980.3,2024.08 2980.3,1865.97Z" style="fill:rgb(0,151,85);"/>
                </g>
            </g>
            <g id="Authority" transform="matrix(4.80268,0,0,5.80603,-56449.5,13364.9)">
                <g id="Colon" transform="matrix(0.852062,0,0,1.14291,2827.67,-441.826)">
                    <path d="M3726.64,1133.34C3726.64,1160.2 3715.45,1180.95 3693.08,1195.6C3670.7,1210.25 3643.95,1217.57 3612.84,1217.57C3581.73,1217.57 3554.72,1210.25 3531.79,1195.6C3509.42,1180.95 3498.23,1160.2 3498.23,1133.34C3498.23,1107.3 3509.42,1086.55 3531.79,1071.09C3554.17,1056.03 3581.19,1048.51 3612.84,1048.51C3644.5,1048.51 3671.24,1056.03 3693.08,1071.09C3715.45,1086.55 3726.64,1107.3 3726.64,1133.34ZM3613.86,1386.03C3613.86,1412.48 3602.67,1433.43 3580.29,1448.9C3557.91,1463.54 3531.17,1470.87 3500.06,1470.87C3468.95,1470.87 3441.93,1463.54 3419.01,1448.9C3396.63,1433.43 3385.44,1412.48 3385.44,1386.03C3385.44,1359.17 3396.63,1338.42 3419.01,1323.77C3441.39,1308.72 3468.4,1301.19 3500.06,1301.19C3531.72,1301.19 3558.46,1308.72 3580.29,1323.77C3602.67,1338.42 3613.86,1359.17 3613.86,1386.03Z" style="fill:rgb(252,180,20);fill-rule:nonzero;"/>
                </g>
                <g id="Slash" transform="matrix(0.535714,0,0,1,2618.88,6.82121e-13)">
                    <path d="M6440.3,1437.48C6392.4,1514.6 6252.06,1567 6093.44,1567L5957.78,1567C5929.81,1536.39 5941.85,1506.88 5968.98,1478.38L5997.39,1478.38C6047.29,1478.38 6091.44,1461.89 6106.5,1437.63C6187.86,1306.59 6445.17,892.159 6577.57,678.914C6625.46,601.789 6765.81,549.375 6924.45,549.375L7048.88,549.375C7073.78,576.433 7081.46,605.943 7071.28,638L7036.62,638C6977.23,638 6924.69,657.619 6906.76,686.489C6820.47,825.408 6570.24,1228.28 6440.3,1437.48Z" style="fill:rgb(252,180,20);"/>
                </g>
                <g id="Slash1" serif:id="Slash" transform="matrix(0.535714,0,0,1,2909.1,6.25278e-13)">
                    <path d="M6440.3,1437.48C6392.4,1514.6 6252.06,1567 6093.44,1567L5957.78,1567C5929.81,1536.39 5941.85,1506.88 5968.98,1478.38L5997.39,1478.38C6047.29,1478.38 6091.44,1461.89 6106.5,1437.63C6187.86,1306.59 6445.17,892.159 6577.57,678.914C6625.46,601.789 6765.81,549.375 6924.45,549.375L7048.88,549.375C7073.78,576.433 7081.46,605.943 7071.28,638L7036.62,638C6977.23,638 6924.69,657.619 6906.76,686.489C6820.47,825.408 6570.24,1228.28 6440.3,1437.48Z" style="fill:rgb(252,180,20);"/>
                </g>
            </g>
        </g>
    </g>
</svg>
